<?xml  version="1.0" encoding="UTF-8"?>
<!DOCTYPE svg PUBLIC "-//W3C//DTD SVG 1.0//EN" "http://www.w3.org/TR/2001/REC-SVG-20010904/DTD/svg10.dtd" >
<svg xmlns="http://www.w3.org/2000/svg" >
<metadata>
<version>1.0</version>
<id><![CDATA[Eurostile LT W01 Bold Oblique]]></id>
<vendor>Monotype Imaging Inc.</vendor>
<credits>
<name>Fonts.com WebFonts</name>
<URL>http://webfonts.fonts.com</URL>
<role>Home of the Web fonts</role>
</credits>
<license>
<URL>http://webfonts.fonts.com/Legal</URL>
</license>
<copyright><![CDATA[Copyright © 2007 - 2010 Linotype GmbH, www.linotype.com. All rights reserved. This font software may not be reproduced, modified, disclosed or transferred without the express written approval of Linotype GmbH. Eurostile is a trademark of Linotype GmbH and may be registered in certain jurisdictions. This typeface is original artwork of Aldo Novarese. The design may be protected in certain jurisdictions.]]></copyright>
<trademark><![CDATA[Eurostile is a trademark of Linotype GmbH and may be registered in certain jurisdictions.]]></trademark>
<licensee>
<name></name>
</licensee>
</metadata>
<defs >
<font horiz-adv-x="571" id="13138981-0907-42b8-b38d-7394323221dc">
<font-face font-family="" panose-1="2 11 8 4 2 2 2 12 2 4" ascent="974" descent="-277" units-per-em="1000" alphabetic="0">
</font-face>
<missing-glyph horiz-adv-x="333" />

<glyph unicode="&#xA;" />
<glyph unicode="&#xD;" />
<glyph unicode=" " horiz-adv-x="333" />
<glyph unicode="!" horiz-adv-x="333" d="M141 723H318L239 286H70L141 723ZM46 167H217L188 0H17L46 167Z"  />
<glyph unicode="&quot;" horiz-adv-x="395" d="M232 723L209 593L140 424H72L66 593L89 723H232ZM432 723L409 593L340 424H272L266 593L289 723H432Z"  />
<glyph unicode="#" horiz-adv-x="667" d="M622 426H521L483 303H565V183H446L392 0H272L326 183H204L150 0H30L84 183H30V303H121L159 426H87V546H196L249 723H369L316 546H438L491 723H611L558 546H622V426ZM241 303H363L401 426H279L241 303Z"  />
<glyph unicode="$" horiz-adv-x="667" d="M185 219Q182 201 182 189Q182 163 196 153T246 143Q248 143 253 143T265 144L291 292Q165 298 113 333Q87 350 76 375T64 438Q64 470 71 508Q84 580 109 621T183 688Q214 704 255 711T365 719L375 773H424L414 719Q475 718 517 711T585 689T623 650T635 589Q635 575 633 559T628 523H462Q464 531 464 535T464 541Q464 561 448 567T390 574L366 440Q406 436 436 432T490 422T529 409T558 392Q584 373 596 348T608 285Q608 271 606 255T601 221Q577 77 479 29Q463 21 445 16T405 7T354 1T289 -2L278 -67H232L243 -2Q123 -2 64 30T4 143Q4 179 14 219H185ZM339 574H330Q287 574 268 560T243 510Q242 504 242 500T241 490Q241 464 258 454T316 443L339 574ZM316 145Q347 145 365 147T395 157T412 178T421 213Q425 233 425 249Q425 259 422 265T409 276T383 282T341 288L316 145Z"  />
<glyph unicode="%" horiz-adv-x="1000" d="M643 733H732L360 -13H269L643 733ZM54 576Q60 611 74 639T109 684Q135 706 173 715T274 725Q325 725 357 719T408 700T434 668T442 621Q442 595 438 562T425 480Q417 432 410 400T396 345T381 307T363 281Q339 255 293 244T165 232Q86 232 51 255T15 334Q15 348 17 364T23 401L54 576ZM159 385Q158 380 158 376T157 367Q157 352 166 347T198 342Q227 342 240 345T259 358Q261 361 264 376T273 413T283 465T295 526Q303 566 303 587Q303 602 294 608T265 614Q243 614 230 613T210 607T199 594T192 570L159 385ZM595 337Q601 372 615 400T650 445Q676 467 714 476T815 486Q866 486 898 480T949 461T975 429T983 382Q983 356 979 323T966 241Q958 193 951 161T937 106T922 68T904 42Q880 16 834 5T706 -7Q627 -7 592 16T556 95Q556 109 558 125T564 162L595 337ZM700 146Q699 141 699 137T698 128Q698 113 707 108T739 103Q768 103 781 106T800 119Q802 122 805 137T814 174T824 226T836 287Q844 327 844 348Q844 363 835 369T806 375Q784 375 771 374T751 368T740 355T733 331L700 146Z"  />
<glyph unicode="&amp;" horiz-adv-x="778" d="M543 57Q525 39 504 27T455 8T387 -3T294 -6Q220 -6 169 1T87 25T41 71T27 143Q27 161 29 181T35 224Q44 275 56 310T85 367T128 402T190 420Q167 443 158 461T148 506Q148 526 154 558Q165 613 184 647T234 699T312 724T423 730Q495 730 541 722T614 698T650 657T660 600Q660 581 657 558T649 502H493Q496 521 498 534T500 555Q500 563 498 570T488 582T465 591T422 594Q392 594 373 592T343 585T326 569T318 541Q315 529 315 520Q315 512 318 507T328 494L516 297L530 377H687L671 286Q669 272 665 257T656 226T646 196T635 173L711 88L609 -14L543 57ZM260 341Q249 338 242 333T230 318T220 289T210 243Q207 227 206 215T205 194Q205 178 210 167T228 149T265 139T323 136Q365 136 399 140T443 154L260 341Z"  />
<glyph unicode="&apos;" horiz-adv-x="220" d="M248 723L225 593L156 424H80L74 593L97 723H248Z"  />
<glyph unicode="(" horiz-adv-x="333" d="M332 598Q308 598 294 594T270 576T255 535T240 461L194 201Q192 190 191 182T190 166Q190 143 200 135T236 127H249L227 -1H189Q100 -1 62 31T23 136Q23 174 32 227L71 451Q85 532 101 581T140 657Q170 693 212 708T323 724H354L332 598Z"  />
<glyph unicode=")" horiz-adv-x="333" d="M-2 125Q22 125 36 129T60 147T75 188T90 262L136 522Q138 533 139 541T140 557Q140 580 130 588T94 596H81L103 724H141Q230 724 268 692T307 587Q307 548 298 496L259 272Q245 191 229 142T190 66Q160 30 118 15T7 -1H-24L-2 125Z"  />
<glyph unicode="*" horiz-adv-x="500" d="M282 608L210 569L146 683L230 729L282 608ZM357 729L436 685L349 571L288 609L357 729ZM486 573L477 481L344 487L350 566L486 573ZM64 483L71 572L206 565L200 491L64 483ZM202 486L266 448L196 328L118 373L202 486ZM343 485L408 370L323 326L271 447L343 485Z"  />
<glyph unicode="+" horiz-adv-x="667" d="M238 341V544H381V341H593V203H381V0H238V203H26V341H238Z"  />
<glyph unicode="&#x2c;" horiz-adv-x="333" d="M7 -56Q26 -55 37 -53T55 -45T65 -33T70 -15L74 2H19L49 174H202L176 24Q168 -23 154 -52T118 -98T68 -121T5 -128H-6L7 -56Z"  />
<glyph unicode="-" horiz-adv-x="333" d="M23 347H305L278 197H-4L23 347Z"  />
<glyph unicode="." horiz-adv-x="333" d="M46 174H205L175 0H16L46 174Z"  />
<glyph unicode="/" horiz-adv-x="333" d="M289 731H384L40 -9H-56L289 731Z"  />
<glyph unicode="0" horiz-adv-x="667" d="M396 731Q527 731 588 691T650 559Q650 530 645 489T629 388Q614 306 603 254T581 168T555 112T519 69Q479 29 415 10T253 -9Q133 -9 75 36T17 169Q17 201 22 243T38 345Q55 443 74 509T113 608Q134 644 160 667T220 705T297 725T396 731ZM212 251Q205 216 205 200Q205 171 223 161T291 150Q325 150 346 153T380 165T399 187T409 218L446 429Q454 472 457 492T460 524Q460 549 443 561T377 573Q338 573 316 571T280 555T260 514T244 435L212 251Z"  />
<glyph unicode="1" horiz-adv-x="667" d="M276 0L371 539L174 390Q168 394 156 408T131 441T106 478T85 512L368 723H586L459 0H276Z"  />
<glyph unicode="2" horiz-adv-x="667" d="M72 475Q81 551 103 600T164 679T257 719T384 731Q465 731 516 722T596 695T636 647T647 578Q647 560 646 540T639 495Q629 439 616 404T579 346T518 308T424 278L279 240Q255 234 241 229T219 215T206 193T198 157H575L548 0H-17L12 169Q21 218 36 252T78 310T146 352T248 386L359 415Q386 422 402 427T428 440T441 456T448 480Q452 500 454 515T456 542Q456 570 438 577T372 584Q334 584 313 583T281 571T263 538T250 475H72Z"  />
<glyph unicode="3" horiz-adv-x="667" d="M206 242Q201 215 200 206T198 190Q198 177 201 168T214 152T241 144T287 141Q321 141 342 143T375 154T394 176T405 215Q407 229 408 238T410 256Q410 266 407 274T393 287T363 296T310 299Q305 299 298 299T277 298L302 441H326Q402 441 421 452Q440 463 448 510Q450 520 451 528T452 543Q452 569 433 576T361 584Q325 584 308 579T279 561Q276 556 274 552T269 541T264 522T257 490H80Q90 572 117 618T183 691Q213 711 265 721T390 732Q462 732 510 723T588 695T631 648T644 579Q644 545 637 512T613 450T568 401T496 374Q551 362 575 337T599 263Q599 237 593 204Q582 138 554 97T484 32T387 0T268 -9Q196 -9 147 -1T68 26T25 72T11 141Q11 150 11 159T13 179T17 206T24 242H206Z"  />
<glyph unicode="4" horiz-adv-x="667" d="M512 0H322L346 141H-17L20 351L350 723H639L562 286H620L594 141H536L512 0ZM372 286L422 569L178 286H372Z"  />
<glyph unicode="5" horiz-adv-x="667" d="M644 725L620 585H278L254 453Q272 481 306 492T405 504Q445 504 482 498T547 475T591 427T608 349Q608 329 606 305T598 250Q584 172 561 122T499 43T401 3T257 -8Q142 -8 83 24T23 137Q23 151 24 168T31 215H209Q206 204 205 197T203 178Q203 155 220 148T283 141Q320 141 341 143T375 157T393 191T408 256Q412 277 414 293T416 320Q416 335 412 343T396 356T367 361T321 362Q294 362 278 361T253 355T239 344T233 324H63L133 725H644Z"  />
<glyph unicode="6" horiz-adv-x="667" d="M448 522Q451 537 451 547Q451 570 434 576T368 582Q336 582 317 579T287 563T269 526T256 459L246 392Q269 419 305 430T403 441Q437 441 472 437T537 420T584 380T603 310Q603 278 594 229Q582 161 561 116T502 43T406 4T261 -8Q202 -8 157 0T81 26T35 76T19 152Q19 169 21 187T27 226L70 466Q83 539 106 590T168 672T261 718T393 732Q520 732 578 700T636 595Q636 585 635 570T626 522H448ZM336 301Q300 301 278 299T244 289T225 268T214 232Q212 217 211 206T209 185Q209 158 222 149T269 140Q310 140 334 142T371 150T391 170T401 207Q404 225 406 238T408 262Q408 288 393 294T336 301Z"  />
<glyph unicode="7" horiz-adv-x="667" d="M96 0L435 560H90L119 723H665L636 560L299 0H96Z"  />
<glyph unicode="8" horiz-adv-x="667" d="M181 376Q137 384 114 411T90 480Q90 490 90 501T93 526Q104 592 128 632T189 693T277 722T394 730Q463 730 509 722T584 697T625 654T637 594Q637 581 635 566T630 533Q616 456 583 419T486 375Q540 363 565 334T591 254Q591 242 590 229T586 202Q577 147 556 108T495 43T397 5T253 -7Q213 -7 170 -3T92 16T33 62T10 146Q10 188 19 227T49 298T102 350T181 376ZM362 593Q337 593 322 590T297 579T283 556T274 517Q272 503 271 492T269 473Q269 450 283 444T332 437Q368 437 388 438T420 448T435 475T446 525Q448 535 449 542T450 557Q450 580 432 586T362 593ZM310 306Q281 306 263 303T233 291T216 267T206 227Q203 210 201 197T199 174Q199 146 218 140T288 133Q322 133 342 135T374 147T391 174T403 226Q407 246 407 263Q407 291 386 298T310 306Z"  />
<glyph unicode="9" horiz-adv-x="667" d="M197 204Q195 193 195 189T194 180Q194 170 196 163T206 150T231 143T276 140Q313 140 335 142T369 151T387 171T397 207L422 348Q407 326 387 314T344 296T294 289T239 287Q201 287 169 293T113 316T76 360T62 428Q62 463 69 504Q81 574 106 618T172 687T267 721T394 731Q527 731 585 695T644 573Q644 544 639 505T624 408Q608 320 595 255T564 143T521 68T456 21T362 -2T227 -8Q191 -8 152 -4T81 15T27 56T6 131Q6 144 7 160T14 204H197ZM356 582Q330 582 314 581T288 572T271 552T261 515Q254 477 254 460Q254 451 257 445T268 435T291 430T329 428Q366 428 388 429T422 439T440 465T451 515Q453 526 454 535T455 551Q455 569 435 575T356 582Z"  />
<glyph unicode=":" horiz-adv-x="333" d="M112 509H271L241 336H82L112 509ZM53 174H212L182 0H23L53 174Z"  />
<glyph unicode=";" horiz-adv-x="333" d="M112 509H271L241 336H82L112 509ZM14 -56Q33 -55 44 -53T62 -45T72 -33T77 -15L81 2H26L56 174H209L183 24Q175 -23 161 -52T125 -98T75 -121T12 -128H1L14 -56Z"  />
<glyph unicode="&lt;" horiz-adv-x="667" d="M26 336L585 535V388L216 270V268L585 149V2L26 200V336Z"  />
<glyph unicode="=" horiz-adv-x="667" d="M588 463V333H31V463H588ZM588 216V86H31V216H588Z"  />
<glyph unicode="&gt;" horiz-adv-x="667" d="M593 201L34 2V149L403 267V269L34 388V535L593 337V201Z"  />
<glyph unicode="?" horiz-adv-x="556" d="M57 530L61 554Q70 606 87 640T133 694T203 722T304 731H356Q414 731 451 723T511 697T541 656T550 600Q550 571 544 535Q538 499 526 471T494 419T442 376T366 337Q353 332 343 326T326 312T315 291T309 259H141L146 284Q152 321 161 346T187 390T231 427T302 465Q325 476 338 483T359 499T370 520T377 552Q378 557 378 567Q378 587 367 596T325 605H302Q267 605 247 591T223 530H57ZM121 167H292L263 0H92L121 167Z"  />
<glyph unicode="@" horiz-adv-x="994" d="M492 426Q541 426 566 408T603 354L622 413H752L668 164Q664 152 661 140T658 120Q658 109 665 101T687 92Q715 92 738 113T778 167T803 244T812 332Q812 426 751 471T554 516Q461 516 388 489T263 410T185 284T158 116Q158 67 174 28T226 -39T319 -81T457 -96Q512 -96 572 -89T713 -64L698 -171Q655 -180 622 -186T557 -196T494 -201T423 -203Q214 -203 113 -122T11 102Q11 219 48 315T157 479T334 584T576 622Q754 622 845 548T936 342Q936 281 920 220T869 110T784 31T663 0Q611 0 584 20T552 74Q523 34 487 17T400 0Q322 0 284 29T246 115Q246 141 252 173T268 237Q284 292 304 328T351 386T412 417T492 426ZM503 319Q465 319 442 302T403 231Q394 199 391 182T388 156Q388 135 400 123T448 110Q472 110 488 114T515 127T533 150T547 184Q554 209 558 224T565 248T568 263T569 273Q569 295 555 307T503 319Z"  />
<glyph unicode="A" horiz-adv-x="722" d="M574 723L649 0H446L435 130H204L151 0H-55L275 723H574ZM425 273L406 573H390L265 273H425Z"  />
<glyph unicode="B" horiz-adv-x="715" d="M132 723H452Q522 723 567 714T639 687T676 644T687 586Q687 559 681 525Q674 485 662 459T632 415T587 388T523 373Q588 362 615 334T643 257Q643 230 637 194Q627 138 608 101T555 41T470 9T343 0H5L132 723ZM275 438H403Q427 438 441 439T462 448T474 472T484 519Q485 524 485 529T486 538Q486 545 484 551T474 561T451 567T411 569Q370 569 345 569T297 567L275 438ZM225 157H372Q393 157 405 159T424 168T436 191T446 235Q449 253 449 264Q449 273 446 279T435 290T411 297T369 299H312Q304 299 290 299T250 297L225 157Z"  />
<glyph unicode="C" horiz-adv-x="704" d="M641 278Q627 194 605 139T543 52T444 6T297 -8Q236 -8 187 0T102 29T47 86T28 179Q28 200 30 223T38 276L74 477Q97 611 183 671T417 731Q475 731 523 724T606 700T660 654T679 581Q679 561 676 532T665 456H473Q478 478 479 489T480 509Q480 560 392 560Q363 560 343 556T310 540T288 511T275 463L239 257Q235 238 235 220Q235 187 254 175T319 162Q354 162 376 166T412 183T433 218T444 278H641Z"  />
<glyph unicode="D" horiz-adv-x="769" d="M132 723H446Q528 723 583 711T672 676T720 618T735 541Q735 513 730 467T714 358Q695 251 669 181T597 70T483 12T310 -5H205Q163 -5 112 -4T5 0L132 723ZM234 169H362Q403 169 428 175T469 204T496 275T522 405Q527 431 529 451T532 487Q532 506 528 519T511 540T478 551T421 555H363Q354 555 342 555T302 553L234 169Z"  />
<glyph unicode="E" horiz-adv-x="667" d="M132 723H681L653 563H304L282 438H612L587 300H257L233 162H582L554 0H5L132 723Z"  />
<glyph unicode="F" horiz-adv-x="605" d="M132 723H622L593 560H303L280 426H553L524 265H251L205 0H5L132 723Z"  />
<glyph unicode="G" horiz-adv-x="763" d="M716 398L690 254Q678 190 659 142T607 60T522 11T397 -6H259Q209 -6 168 4T96 37T50 97T33 190Q33 205 35 227T40 273T48 324T56 374Q75 482 103 551T175 661T278 716T421 731H491Q618 731 678 699T738 585Q738 553 729 502H537Q538 508 538 512T539 522Q539 535 535 544T518 558T481 566T418 569Q377 569 351 563T309 537T281 480T259 379Q249 323 245 285T240 223Q240 205 244 192T258 172T285 161T330 157H372Q413 157 436 160T472 175T491 207T504 263H394L418 398H716Z"  />
<glyph unicode="H" horiz-adv-x="780" d="M574 723H774L647 0H447L496 282H254L205 0H5L132 723H332L285 454H527L574 723Z"  />
<glyph unicode="I" horiz-adv-x="342" d="M334 723L207 0H7L134 723H334Z"  />
<glyph unicode="J" horiz-adv-x="612" d="M209 309L198 256Q194 236 192 221T190 192Q190 172 204 164T250 155Q268 155 280 157T301 165T315 183T323 214L413 723H613L527 237Q515 167 495 120T441 45T352 4T218 -8Q158 -8 117 0T50 27T13 73T1 141Q1 153 2 166T5 199T12 245T25 309H209Z"  />
<glyph unicode="K" horiz-adv-x="701" d="M132 723H332L284 451H302L521 723H750L452 371L644 7L643 0H410L272 290H256L205 0H5L132 723Z"  />
<glyph unicode="L" horiz-adv-x="612" d="M132 723H332L235 174H560L530 0H5L132 723Z"  />
<glyph unicode="M" horiz-adv-x="997" d="M130 723H417L447 471Q449 451 452 417T459 344T464 265T469 192Q484 228 502 271T541 360T582 451T623 536L714 723H993L866 0H677L696 108Q698 123 704 153T718 222T736 306T755 396T774 485T790 562Q769 513 742 451T687 331L531 0H336L299 328Q296 351 294 375T290 427T287 489T283 565L194 0H3L130 723Z"  />
<glyph unicode="N" horiz-adv-x="831" d="M130 723H420L478 477Q495 404 506 355T524 271T536 209T546 156Q550 187 556 230T569 320T582 409T595 485L637 723H827L700 0H413L362 198Q336 298 316 391T282 558Q277 525 271 483T259 397T246 313T235 243L193 0H3L130 723Z"  />
<glyph unicode="O" horiz-adv-x="761" d="M64 424Q80 518 108 577T181 671T287 718T433 731Q588 731 659 688T731 543Q731 532 730 514T724 466T712 391T692 282Q680 215 659 161T596 70T488 12T320 -8Q168 -8 98 36T27 178Q27 214 36 265L64 424ZM402 562Q365 562 342 557T304 533T277 474T254 367Q245 314 241 282T236 230Q236 211 240 199T255 179T285 168T337 164Q386 164 414 168T458 193T485 259T511 388Q519 430 522 456T525 498Q525 516 521 528T503 547T465 558T402 562Z"  />
<glyph unicode="P" horiz-adv-x="727" d="M132 723H440Q498 723 546 716T630 692T684 644T703 568Q703 551 702 528T695 472Q680 388 658 334T598 248T507 205T374 193H313Q302 193 288 193T239 194L205 0H5L132 723ZM267 358H398Q426 358 442 361T469 375T485 409T498 471Q500 482 501 491T502 509Q502 538 486 548T430 558H302L267 358Z"  />
<glyph unicode="Q" horiz-adv-x="761" d="M64 424Q80 518 108 577T181 671T287 718T433 731Q588 731 659 688T731 543Q731 532 729 514T723 466T711 391T692 282Q684 236 669 193T627 114L673 69L583 -17L531 34Q492 14 441 3T320 -8Q168 -8 98 36T27 178Q27 214 36 265L64 424ZM402 562Q365 562 342 557T304 533T277 474T254 367Q245 314 240 280T235 225Q235 206 239 194T254 174T284 163T336 159Q356 159 372 159T402 161L346 219L437 304L485 255L511 388Q519 430 522 456T525 498Q525 516 521 528T503 547T465 558T402 562Z"  />
<glyph unicode="R" horiz-adv-x="721" d="M132 723H433Q503 723 551 715T630 688T673 640T686 571Q686 553 685 531T678 482Q671 443 659 411T627 355T577 316T503 296Q568 284 593 259T619 191Q619 177 618 161T612 125L590 0H393L418 143Q419 150 419 155T420 166Q420 175 418 182T408 196T385 205T346 208H238L202 0H5L132 723ZM267 370Q293 368 303 368T328 367H352Q390 367 412 371T447 385T466 414T478 463Q484 493 484 513Q484 543 466 551T401 560Q375 560 352 560T300 558L267 370Z"  />
<glyph unicode="S" horiz-adv-x="698" d="M208 224Q206 216 205 209T203 193Q203 167 224 157T297 147Q337 147 361 149T399 159T419 179T429 213Q433 233 433 249Q433 266 419 274T356 287L206 301Q144 307 106 338T68 440Q68 456 70 473T75 510Q86 574 106 616T161 684T243 720T357 731H423Q492 731 538 723T612 699T651 657T663 599Q663 583 661 563T653 511H471Q473 524 473 530T474 541Q474 555 463 566T417 577H353Q332 577 318 574T294 562T280 541T271 508Q268 491 268 482Q268 473 271 467T282 456T304 449T340 444L456 434Q508 429 542 420T598 394T627 352T636 292Q636 276 634 258T628 218Q616 148 592 104T527 35T424 1T276 -8Q214 -8 165 -3T81 18T28 59T9 128Q9 141 11 160T21 224H208Z"  />
<glyph unicode="T" horiz-adv-x="604" d="M138 0L235 553H53L83 723H647L617 553H435L338 0H138Z"  />
<glyph unicode="U" horiz-adv-x="768" d="M325 723L237 226Q236 221 236 217T235 209Q235 196 239 187T254 173T287 165T342 162Q385 162 411 165T451 178T472 202T484 242L569 723H769L691 282Q676 195 649 139T578 51T469 7T311 -6Q234 -6 181 4T96 37T49 93T34 176Q34 206 40 242L125 723H325Z"  />
<glyph unicode="V" horiz-adv-x="709" d="M436 0H141L69 723H272L316 155L561 723H762L436 0Z"  />
<glyph unicode="W" horiz-adv-x="1002" d="M456 723H670L678 164L853 723H1046L803 0H522V498Q510 464 496 423T467 340T438 258T411 184L342 0H65L80 723H272L245 167L456 723Z"  />
<glyph unicode="X" horiz-adv-x="662" d="M289 723L347 466L493 723H708L477 372L601 0H381L309 279L139 0H-80L176 375L72 723H289Z"  />
<glyph unicode="Y" horiz-adv-x="642" d="M40 723H257L336 441L513 723H727L400 253L356 0H156L201 256L40 723Z"  />
<glyph unicode="Z" horiz-adv-x="660" d="M-5 169L405 560H83L112 723H679L649 551L248 167H585L556 0H-34L-5 169Z"  />
<glyph unicode="[" horiz-adv-x="333" d="M130 723H364L342 598H277L194 125H256L234 0H3L130 723Z"  />
<glyph unicode="\" horiz-adv-x="333" d="M56 731H155L276 -9H177L56 731Z"  />
<glyph unicode="]" horiz-adv-x="333" d="M329 723L202 0H-27L-5 125H55L138 598H73L95 723H329Z"  />
<glyph unicode="^" horiz-adv-x="580" d="M36 333L227 724H353L542 333H403L288 572L173 333H36Z"  />
<glyph unicode="_" horiz-adv-x="500" d="M413 -125H-86L-77 -75H422L413 -125Z"  />
<glyph unicode="`" horiz-adv-x="333" d="M296 574H179L39 723H219L296 574Z"  />
<glyph unicode="a" horiz-adv-x="563" d="M292 51Q272 33 256 22T223 5T185 -3T133 -5Q102 -5 77 -2T33 13T5 45T-5 98Q-5 122 1 154Q9 199 23 231T60 282T115 311T191 320Q225 320 248 317T287 308T312 291T327 265L337 317Q342 345 344 360T346 384Q346 401 335 410T289 420Q257 420 244 412T226 380H65Q71 425 87 452T132 494T200 513T295 518Q349 518 389 514T457 496T497 460T511 398Q511 379 508 360L445 0H284L292 51ZM237 223Q218 223 207 221T188 212T176 190T167 153Q166 148 166 144T165 134Q165 114 179 108T228 101Q252 101 265 103T287 113T300 136T309 178Q311 186 311 191T311 201Q311 205 309 209T299 216T277 221T237 223Z"  />
<glyph unicode="b" horiz-adv-x="563" d="M290 723L242 451Q267 486 298 502T377 518Q450 518 483 488T516 391Q516 349 503 275Q489 192 473 138T432 51T374 5T289 -9Q262 -9 244 -6T213 7T189 31T168 69L156 0H-6L121 723H290ZM291 391Q272 391 260 388T239 375T225 348T214 303Q193 184 193 150Q193 132 202 125T234 118Q258 118 272 120T295 132T310 166T324 232L336 296Q343 331 343 354Q343 373 334 382T291 391Z"  />
<glyph unicode="c" horiz-adv-x="555" d="M344 321Q349 349 349 363Q349 380 337 387T289 395Q263 395 249 392T224 373T207 326T191 240Q186 211 183 189T180 158Q180 134 191 126T238 117Q262 117 276 119T298 131T312 157T324 202H484Q472 136 452 95T400 31T320 0T208 -9Q100 -9 56 29T11 139Q11 157 14 188T25 258Q37 330 55 379T105 460T185 504T307 518Q363 518 402 511T465 489T501 450T512 389Q512 378 511 364T503 321H344Z"  />
<glyph unicode="d" horiz-adv-x="563" d="M441 0H279L290 68Q277 45 263 30T231 7T193 -5T145 -9Q79 -9 44 19T9 117Q9 146 13 185T29 281Q41 348 58 393T100 467T159 506T240 518Q287 518 312 503T352 455L399 723H568L441 0ZM277 391Q258 391 247 388T227 374T214 345T203 295Q192 238 188 200T183 149Q183 135 192 127T231 118Q253 118 266 120T288 136T303 175T318 250Q325 288 328 312T332 353Q332 373 323 382T277 391Z"  />
<glyph unicode="e" horiz-adv-x="563" d="M181 224Q172 185 170 169T168 145Q168 119 180 109T228 99Q256 99 273 101T300 108T314 124T322 153H482Q471 100 452 69T403 20T329 -3T224 -9Q164 -9 123 -2T57 22T20 64T9 126Q9 149 13 182T26 264Q38 331 55 379T103 458T181 503T300 518Q335 518 373 514T444 496T497 454T518 379Q518 341 513 302T496 224H181ZM352 309Q364 351 364 378Q364 398 350 406T291 414Q267 414 252 412T227 400T211 368T197 309H352Z"  />
<glyph unicode="f" horiz-adv-x="374" d="M12 0L79 385H21L43 509H101L108 551Q116 599 130 633T169 689T229 721T315 732Q344 732 370 731T426 725L405 608Q367 614 347 614Q312 614 297 599T276 543L271 509H387L365 385H248L181 0H12Z"  />
<glyph unicode="g" horiz-adv-x="561" d="M147 -42Q146 -47 146 -51T145 -59Q145 -86 192 -86Q213 -86 226 -83T248 -67T264 -31T279 33L287 74Q244 4 145 4Q82 4 46 33T10 131Q10 172 22 241Q34 310 48 362T86 448T145 500T235 518Q263 518 283 514T317 501T341 477T361 439L373 508H530L447 38Q435 -31 416 -77T365 -151T288 -191T177 -203Q125 -203 89 -198T29 -180T-5 -146T-16 -94Q-16 -69 -10 -42H147ZM279 391Q258 391 246 388T225 369T209 318T191 223Q185 193 185 174Q185 148 197 140T236 131Q257 131 270 136T292 156T308 202T324 284Q328 306 330 322T332 351Q332 377 320 384T279 391Z"  />
<glyph unicode="h" horiz-adv-x="570" d="M389 518Q458 518 489 493T520 416Q520 402 518 386T513 351L452 0H283L339 321Q341 331 342 339T343 354Q343 374 333 383T290 392Q258 392 243 377T219 320L163 0H-6L121 723H290L240 438Q265 483 299 500T389 518Z"  />
<glyph unicode="i" horiz-adv-x="285" d="M99 601L121 723H290L268 601H99ZM83 509H252L163 0H-6L83 509Z"  />
<glyph unicode="j" horiz-adv-x="285" d="M268 601H99L121 723H290L268 601ZM-57 -36Q-31 -36 -21 -29T-7 -4L83 509H252L173 60Q163 2 152 -39T119 -107T64 -146T-28 -159Q-40 -159 -51 -159T-77 -156L-57 -36Z"  />
<glyph unicode="k" horiz-adv-x="539" d="M121 723H290L218 317H233L365 509H548L365 259L487 0H296L212 204H198L163 0H-6L121 723Z"  />
<glyph unicode="l" horiz-adv-x="285" d="M121 723H290L163 0H-6L121 723Z"  />
<glyph unicode="m" horiz-adv-x="851" d="M564 0L622 333Q623 339 623 344T624 354Q624 371 615 381T577 391Q551 391 531 378T504 329L447 0H278L334 318Q338 338 338 355Q338 372 330 382T290 392Q258 392 242 379T218 327L161 0H-8L81 509H243L232 443Q258 484 294 501T387 518Q420 518 441 512T475 496T496 470T507 436Q535 483 571 500T671 518Q744 518 772 490T801 415Q801 401 799 385T794 351L733 0H564Z"  />
<glyph unicode="n" horiz-adv-x="568" d="M288 392Q256 392 241 379T218 326L161 0H-8L81 509H246L234 440Q249 464 264 479T297 502T336 514T387 518Q460 518 489 491T518 415Q518 401 516 385T511 351L450 0H281L337 321Q339 331 340 339T341 354Q341 372 331 382T288 392Z"  />
<glyph unicode="o" horiz-adv-x="554" d="M302 518Q414 518 461 488T508 395Q508 371 504 336T490 249Q476 170 458 120T408 41T327 2T200 -9Q98 -9 54 23T9 121Q9 146 13 179T25 257Q40 341 57 392T105 471T182 508T302 518ZM207 331Q196 273 191 239T182 187T179 163T178 153Q178 130 188 123T234 115Q254 115 267 117T288 129T301 156T313 206Q320 246 324 273T332 318T336 347T337 365Q337 386 327 392T284 398Q264 398 251 396T230 386T216 365T207 331Z"  />
<glyph unicode="p" horiz-adv-x="562" d="M234 440Q257 480 294 499T382 518Q445 518 480 490T516 396Q516 374 513 345T502 275Q486 185 468 130T426 43T368 2T289 -9Q247 -9 218 7T171 62L126 -197H-43L81 509H246L234 440ZM287 391Q266 391 254 388T233 368T217 319T200 227Q197 209 195 192T193 161Q193 136 203 127T240 118Q260 118 273 121T294 133T307 157T318 199Q333 274 338 308T343 357Q343 377 330 384T287 391Z"  />
<glyph unicode="q" horiz-adv-x="563" d="M408 -197H240L285 62Q259 22 226 7T147 -9Q117 -9 92 -3T48 18T19 58T8 121Q8 144 12 175T24 252Q37 324 52 374T92 457T150 503T235 518Q285 518 315 500T355 440L367 509H532L408 -197ZM283 391Q260 391 246 388T223 366T207 308T188 199Q183 171 183 157Q183 134 193 126T230 118Q253 118 267 121T290 140T307 187T324 274Q329 301 331 320T334 353Q334 379 323 385T283 391Z"  />
<glyph unicode="r" horiz-adv-x="497" d="M81 509H246L234 440Q259 484 289 501T370 518Q404 518 426 512T461 494T479 467T485 433Q485 425 485 416T482 390T475 350T464 290H314Q320 322 321 335T323 356Q323 377 313 384T280 391Q250 391 238 377T217 320L161 0H-8L81 509Z"  />
<glyph unicode="s" horiz-adv-x="546" d="M157 145Q156 138 156 134T156 127Q156 107 170 100T229 93Q253 93 268 95T292 102T307 118T315 146Q316 151 316 157T317 167Q317 183 308 188T273 196L180 206Q142 210 114 216T67 235T39 266T30 315Q30 325 31 335T34 358Q42 403 58 433T103 482T175 509T278 518H299Q408 518 456 495T504 418Q504 409 503 398T500 374H342Q343 382 343 385T343 392Q343 403 333 410T289 417H261Q225 417 212 407T193 368Q192 363 192 360T191 352Q191 339 202 333T255 322L348 314Q416 308 449 283T483 197Q483 179 480 160Q469 105 448 72T392 21T312 -3T207 -9Q147 -9 105 -4T36 15T-2 49T-14 102Q-14 112 -13 122T-10 145H157Z"  />
<glyph unicode="t" horiz-adv-x="496" d="M451 208L446 174Q438 118 423 83T380 27T311 -1T208 -9Q178 -9 147 -5T90 12T48 48T32 111Q32 126 34 145T41 190L76 389H18L39 509H97L115 608H284L266 509H481L460 389H245L215 217Q210 191 208 173T205 144Q205 124 214 120T245 115Q264 115 276 116T297 125T309 145T317 182L321 208H451Z"  />
<glyph unicode="u" horiz-adv-x="568" d="M448 0H286L299 79Q286 54 272 37T238 10T195 -4T139 -9Q73 -9 42 14T10 93Q10 118 16 153L79 509H248L189 174Q188 169 188 165T187 155Q187 134 199 126T238 117Q257 117 269 121T290 134T303 157T312 192L368 509H537L448 0Z"  />
<glyph unicode="v" horiz-adv-x="538" d="M201 509L227 125L387 509H557L323 0H84L29 509H201Z"  />
<glyph unicode="w" horiz-adv-x="790" d="M323 509H515L520 121L631 509H790L622 0H392V361L267 0H40L46 509H207L181 123L323 509Z"  />
<glyph unicode="x" horiz-adv-x="521" d="M347 509H528L355 264L455 0H271L223 187L115 0H-74L121 266L36 509H219L252 342L347 509Z"  />
<glyph unicode="y" horiz-adv-x="538" d="M385 509H556L341 15Q313 -49 291 -91T242 -157T182 -192T100 -202Q90 -202 79 -202T56 -200T36 -198T21 -196L41 -82Q46 -83 49 -83T57 -83Q106 -83 130 -64T167 3H84L29 509H200L232 126L385 509Z"  />
<glyph unicode="z" horiz-adv-x="496" d="M-17 137L270 389H41L62 509H486L462 373L178 123H424L403 0H-41L-17 137Z"  />
<glyph unicode="{" horiz-adv-x="333" d="M21 347Q45 350 59 358T82 376T93 398T99 420L121 575Q128 622 145 651T188 696T249 717T327 723H364L342 598H321Q293 598 279 584T260 528L246 402Q244 385 238 369T217 340T179 315T122 298Q170 291 190 271T211 218Q211 202 206 180T194 133T183 85T177 43Q177 -2 215 -2H236L214 -125H188Q99 -125 61 -98T22 -16Q22 8 28 37T40 96T53 152T59 198Q59 215 49 230T4 250L21 347Z"  />
<glyph unicode="|" horiz-adv-x="333" d="M242 740V-90H91V740H242Z"  />
<glyph unicode="}" horiz-adv-x="333" d="M288 251Q264 248 250 240T227 222T215 200T210 178L188 23Q181 -24 164 -53T121 -98T60 -119T-18 -125H-55L-33 0H-12Q16 0 30 14T49 70L63 196Q65 212 71 228T92 258T129 283T187 300Q139 307 119 327T98 380Q98 396 103 418T115 465T126 513T132 555Q132 600 94 600H73L95 723H121Q210 723 248 696T287 614Q287 590 281 561T269 502T256 446T250 400Q250 383 260 368T305 348L288 251Z"  />
<glyph unicode="~" horiz-adv-x="667" d="M428 315Q457 315 468 339T481 398H603Q603 286 557 229T434 171Q401 171 368 184T303 213T243 242T192 255Q163 255 152 231T139 172H17Q17 228 29 270T64 341T118 384T186 399Q220 399 256 386T325 357T385 328T428 315Z"  />
<glyph unicode="&#xA0;" horiz-adv-x="333" />
<glyph unicode="&#xA1;" horiz-adv-x="333" d="M156 -197H-21L57 236H226L156 -197ZM248 342H77L106 509H277L248 342Z"  />
<glyph unicode="&#xA2;" horiz-adv-x="667" d="M515 646L459 519Q517 511 544 481T571 398Q571 387 569 373T562 329H406Q409 350 409 362Q409 382 401 390L282 122H299Q320 122 334 125T358 138T372 165T383 208H540Q528 101 470 48T291 -5Q257 -5 227 -2L169 -132H118L180 6Q126 20 98 58T70 154Q70 175 73 200T81 256Q94 331 113 382T164 466T240 512T348 526Q371 526 386 526T411 524L466 646H515ZM357 401Q331 401 315 398T288 380T269 336T252 256Q247 227 245 205T242 169Q242 164 242 160T243 153L357 401Z"  />
<glyph unicode="&#xA3;" horiz-adv-x="667" d="M17 155Q40 159 55 167T79 189T93 226T101 282H20L43 412H118L128 491Q144 615 212 673T414 731Q539 731 599 698T659 587Q659 568 657 549T648 509H474Q479 526 479 542Q479 564 464 574T410 584Q384 584 368 581T342 567T326 536T314 480Q311 462 309 447T305 412H490L467 282H287Q281 254 274 235T258 201T236 178T205 160H599L571 0H-10L17 155Z"  />
<glyph unicode="&#xA4;" horiz-adv-x="667" d="M333 566Q406 566 459 533L544 626L628 539L533 458Q548 440 558 414T568 340Q568 292 555 264T527 218L620 133L538 51L458 149Q435 130 401 120T334 110Q303 110 268 119T209 149L130 51L47 133L141 219Q127 236 114 265T100 341Q100 388 112 415T136 457L39 539L123 626L210 531Q257 566 333 566ZM334 441Q317 441 300 435T268 417T244 386T234 341Q234 312 243 292T268 259T300 241T334 235Q349 235 366 240T399 259T424 292T434 341Q434 367 425 386T402 417T369 435T334 441Z"  />
<glyph unicode="&#xA5;" horiz-adv-x="667" d="M64 296L84 410H179L63 723H270L346 451L516 723H730L504 410H598L578 296H421L408 222H565L545 108H388L369 0H169L188 108H31L51 222H208L221 296H64Z"  />
<glyph unicode="&#xA6;" horiz-adv-x="333" d="M242 260V-90H91V260H242ZM242 740V390H91V740H242Z"  />
<glyph unicode="&#xA7;" horiz-adv-x="667" d="M216 141Q215 136 215 134T215 129Q215 115 230 108T283 101Q311 101 326 103T349 112T359 127T361 150Q361 159 358 164T344 174T315 184T266 195L215 206Q192 211 167 218T121 237T86 268T72 317Q72 323 72 329T74 343Q82 390 112 415T197 454Q168 465 154 489T139 549Q139 564 142 582Q150 628 168 657T216 703T285 726T379 733Q438 733 476 728T537 710T569 679T578 634Q578 614 574 591H428Q429 595 429 602Q429 618 416 623T366 628Q325 628 312 617T299 586Q299 578 301 572T310 561T330 552T366 542L454 523Q530 506 560 479T591 411Q591 405 591 399T589 386Q581 339 549 314T463 279Q495 263 509 241T524 185Q524 168 521 149Q512 101 491 70T437 22T357 -2T253 -9Q206 -9 170 -5T109 10T71 40T58 92Q58 102 59 114T63 141H216ZM260 431Q252 431 245 426T232 413T223 396T219 378Q219 347 269 334Q311 324 335 319T372 311T391 308T402 307Q421 307 432 320T444 355Q444 369 435 377T403 394Q392 398 370 404T324 417T282 427T260 431Z"  />
<glyph unicode="&#xA8;" horiz-adv-x="333" d="M255 710H406L384 585H233L255 710ZM43 710H194L172 585H21L43 710Z"  />
<glyph unicode="&#xA9;" horiz-adv-x="840" d="M134 362Q134 296 154 242T212 149T302 89T419 67Q485 67 538 88T629 147T686 240T706 360Q706 426 686 480T628 573T538 633T421 655Q355 655 302 634T212 575T154 482T134 362ZM53 362Q53 443 80 511T155 627T271 703T421 730Q502 730 569 703T685 628T760 511T787 360Q787 279 760 211T685 95T569 19T419 -8Q338 -8 271 19T155 94T80 211T53 362ZM482 414V430Q482 474 441 474H417Q400 474 389 472T372 462T364 441T362 406V317Q362 280 372 267T417 254H441Q484 254 484 296V324H605V302Q605 233 574 191T480 149H381Q310 149 275 182T240 289V428Q240 510 274 544T381 578H480Q516 578 539 565T577 531T597 486T603 440V414H482Z"  />
<glyph unicode="&#xAA;" horiz-adv-x="400" d="M247 403Q233 391 222 384T199 372T175 366T146 364Q93 364 67 382T40 448Q40 514 76 555T184 596Q208 596 223 595T249 589T264 577T274 558Q280 593 281 606T283 625Q283 639 277 645T248 652Q231 652 223 649T212 634H83Q89 669 102 688T137 717T187 729T255 731Q304 731 335 726T385 709T409 682T416 645Q416 633 413 618L369 368H240L247 403ZM213 518Q193 518 185 511T171 478Q170 473 170 467Q170 455 178 450T210 444Q238 444 246 452T259 487Q260 491 260 498Q260 509 251 513T213 518Z"  />
<glyph unicode="&#xAB;" horiz-adv-x="444" d="M238 407L115 257L190 118H89L10 261L129 407H238ZM419 407L296 257L371 118H270L191 261L310 407H419Z"  />
<glyph unicode="&#xAC;" horiz-adv-x="667" d="M567 445V105H424V307H26V445H567Z"  />
<glyph unicode="&#xAD;" horiz-adv-x="333" d="M23 347H305L278 197H-4L23 347Z"  />
<glyph unicode="&#xAE;" horiz-adv-x="480" d="M260 730Q304 730 340 716T403 675T444 612T459 531Q459 488 444 452T403 389T340 347T260 332Q216 332 179 346T116 387T76 450T61 531Q61 574 76 610T117 673T179 715T260 730ZM260 681Q193 681 154 641T114 531Q114 462 154 422T260 381Q327 381 366 421T406 531Q406 600 366 640T260 681ZM177 634H282Q316 634 335 621T354 575Q354 551 343 541T314 525Q353 512 353 480V436H296V463Q296 483 289 492T261 501H233V436H177V634ZM272 546Q285 546 291 552T297 566Q297 588 268 588H233V546H272Z"  />
<glyph unicode="&#xAF;" horiz-adv-x="333" d="M39 689H402L387 606H24L39 689Z"  />
<glyph unicode="&#xB0;" horiz-adv-x="400" d="M226 508Q262 508 280 529T298 582Q298 612 280 633T226 655Q190 655 172 634T154 581Q154 551 172 530T226 508ZM226 432Q158 432 117 473T75 581Q75 614 86 641T117 689T164 720T226 731Q294 731 335 690T377 582Q377 549 366 522T335 474T288 443T226 432Z"  />
<glyph unicode="&#xB1;" horiz-adv-x="667" d="M588 130V0H31V130H588ZM238 443V586H381V443H588V311H381V188H238V311H31V443H238Z"  />
<glyph unicode="&#xB2;" horiz-adv-x="500" d="M98 556Q99 569 100 577T101 587Q108 627 123 653T162 696T223 718T307 725Q399 725 441 700T484 615Q484 604 483 591T479 563Q473 528 464 505T438 466T397 439T332 418L238 393Q215 387 207 379T194 351H439L419 238H36L57 353Q63 386 73 408T102 447T147 476T216 499L289 519Q312 525 328 540T344 584Q344 602 334 610T295 619Q275 619 263 616T244 606T234 587T228 556H98Z"  />
<glyph unicode="&#xB3;" horiz-adv-x="500" d="M198 400Q196 394 195 385T194 370Q194 355 204 347T244 338Q263 338 275 341T295 350T307 365T313 386Q314 391 314 394T315 402Q315 422 302 427T258 432Q252 432 245 432T228 430L247 536H270Q293 536 306 537T325 542T335 553T340 574Q341 580 341 584T342 593Q342 609 332 614T291 619Q273 619 263 617T247 608T238 592T232 565H103Q104 584 106 592Q119 667 167 696T311 725Q404 725 443 701T483 622Q483 602 479 583Q471 539 450 517T391 481Q453 465 453 400Q453 386 450 370Q442 328 424 301T378 259T313 238T230 232Q141 232 98 260T55 343Q55 358 57 370T65 400H198Z"  />
<glyph unicode="&#xB4;" horiz-adv-x="333" d="M232 574H109L226 723H412L232 574Z"  />
<glyph unicode="&#xB5;" horiz-adv-x="667" d="M498 0H336L349 79Q325 33 292 18T210 2L175 -197H6Q20 -115 30 -57T48 49T64 140T81 235T101 351T129 509H298L239 174Q234 142 245 130T288 117Q330 117 346 139Q352 147 355 157T362 192L418 509H587L498 0Z"  />
<glyph unicode="&#xB6;" horiz-adv-x="700" d="M364 -197L503 593H429L290 -197H161L238 240Q197 240 164 248T106 275T68 327T54 407Q54 442 61 480Q82 601 147 662T338 723H730L707 592H632L493 -197H364Z"  />
<glyph unicode="&#xB7;" horiz-adv-x="333" d="M150 229Q115 229 93 252T70 309Q70 349 97 377T166 405Q201 405 223 382T246 325Q246 285 219 257T150 229Z"  />
<glyph unicode="&#xB8;" horiz-adv-x="333" d="M-66 -172Q-37 -177 -20 -179T19 -182Q43 -182 59 -173T76 -141Q76 -109 33 -109Q24 -109 15 -109T-9 -112V-72L53 0H121L65 -64Q73 -63 80 -63T93 -62Q132 -62 152 -81T172 -129Q172 -185 132 -211T21 -237Q-6 -237 -29 -235T-76 -227L-66 -172Z"  />
<glyph unicode="&#xB9;" horiz-adv-x="500" d="M210 238L270 577L141 478L85 577L277 719H430L345 238H210Z"  />
<glyph unicode="&#xBA;" horiz-adv-x="400" d="M262 731Q343 731 382 713T421 640Q421 623 419 601T409 542Q399 485 386 450T348 395T287 368T191 361Q116 361 80 384T43 459Q43 476 46 498T54 553Q64 608 77 643T113 697T171 724T262 731ZM186 515Q182 495 182 484Q182 458 216 458Q230 458 238 460T252 471T261 500T272 554Q276 575 278 589T280 612Q280 624 274 630T248 637Q223 637 214 628T200 590L186 515Z"  />
<glyph unicode="&#xBB;" horiz-adv-x="444" d="M170 118L293 268L218 407H319L398 264L279 118H170ZM-11 118L112 268L37 407H138L217 264L98 118H-11Z"  />
<glyph unicode="&#xBC;" horiz-adv-x="1000" d="M170 238L230 577L101 478L45 577L237 719H390L305 238H170ZM592 723H686L333 0H237L592 723ZM825 0H686L702 91H472L492 205L708 481H909L859 196H912L894 91H841L825 0ZM720 196L749 362L624 196H720Z"  />
<glyph unicode="&#xBD;" horiz-adv-x="1000" d="M170 238L230 577L101 478L45 577L237 719H390L305 238H170ZM564 318Q565 331 566 339T567 349Q574 389 589 415T628 458T689 480T773 487Q865 487 907 462T950 377Q950 366 949 353T945 325Q939 290 930 267T904 228T863 201T798 180L704 155Q681 149 673 141T660 113H905L885 0H502L523 115Q529 148 539 170T568 209T613 238T682 261L755 281Q778 287 794 302T810 346Q810 364 800 372T761 381Q741 381 729 378T710 368T700 349T694 318H564ZM592 723H686L333 0H237L592 723Z"  />
<glyph unicode="&#xBE;" horiz-adv-x="1000" d="M855 0H716L732 91H502L522 205L738 481H939L889 196H942L924 91H871L855 0ZM750 196L779 362L654 196H750ZM158 400Q156 394 155 385T154 370Q154 355 164 347T204 338Q223 338 235 341T255 350T267 365T273 386Q274 391 274 394T275 402Q275 422 262 427T218 432Q212 432 205 432T188 430L207 536H230Q253 536 266 537T285 542T295 553T300 574Q301 580 301 584T302 593Q302 609 292 614T251 619Q233 619 223 617T207 608T198 592T192 565H63Q64 584 66 592Q79 667 127 696T271 725Q364 725 403 701T443 622Q443 602 439 583Q431 539 410 517T351 481Q413 465 413 400Q413 386 410 370Q402 328 384 301T338 259T273 238T190 232Q101 232 58 260T15 343Q15 358 17 370T25 400H158ZM632 723H726L373 0H277L632 723Z"  />
<glyph unicode="&#xBF;" horiz-adv-x="556" d="M383 342H212L241 509H412L383 342ZM450 -2L446 -26Q437 -78 420 -112T374 -166T303 -195T203 -203H151Q93 -203 56 -195T-4 -169T-34 -128T-43 -72Q-43 -43 -37 -7Q-31 27 -20 55T12 106T64 150T141 188Q170 199 181 212T196 256H364L361 239Q355 203 346 178T320 134T276 98T205 60Q182 49 169 41T147 23T136 3T130 -24Q129 -29 129 -39Q129 -59 140 -68T182 -77H205Q240 -77 259 -63T284 -2H450Z"  />
<glyph unicode="&#xC0;" horiz-adv-x="722" d="M574 723L649 0H446L435 130H204L151 0H-55L275 723H574ZM425 273L406 573H390L265 273H425ZM516 780H399L259 929H439L516 780Z"  />
<glyph unicode="&#xC1;" horiz-adv-x="722" d="M574 723L649 0H446L435 130H204L151 0H-55L275 723H574ZM425 273L406 573H390L265 273H425ZM476 780H353L470 929H656L476 780Z"  />
<glyph unicode="&#xC2;" horiz-adv-x="722" d="M574 723L649 0H446L435 130H204L151 0H-55L275 723H574ZM425 273L406 573H390L265 273H425ZM535 929L621 780H496L449 860L375 780H244L382 929H535Z"  />
<glyph unicode="&#xC3;" horiz-adv-x="722" d="M574 723L649 0H446L435 130H204L151 0H-55L275 723H574ZM425 273L406 573H390L265 273H425ZM643 918Q630 852 597 822T513 791Q490 791 471 796T434 809T401 821T372 827Q355 827 342 817T322 784H250Q264 854 301 886T385 918Q406 918 426 912T464 898T497 884T525 878Q541 878 552 886T572 918H643Z"  />
<glyph unicode="&#xC4;" horiz-adv-x="722" d="M574 723L649 0H446L435 130H204L151 0H-55L275 723H574ZM425 273L406 573H390L265 273H425ZM488 916H639L617 791H466L488 916ZM276 916H427L405 791H254L276 916Z"  />
<glyph unicode="&#xC5;" horiz-adv-x="722" d="M574 723L649 0H446L435 130H204L151 0H-55L275 723H574ZM425 273L406 573H390L265 273H425ZM454 974Q498 974 525 948T552 880Q552 855 544 834T520 796T483 771T435 761Q391 761 364 787T337 855Q337 907 370 940T454 974ZM439 815Q461 815 477 830T494 875Q494 896 482 908T450 920Q428 920 412 905T395 860Q395 839 407 827T439 815Z"  />
<glyph unicode="&#xC6;" horiz-adv-x="978" d="M983 723L956 569H683L660 438H923L899 302H636L610 155H892L865 0H393L419 153H218Q200 123 180 84T137 0H-68L349 723H983ZM496 586H452L289 288H443L496 586Z"  />
<glyph unicode="&#xC7;" horiz-adv-x="704" d="M140 -172Q169 -177 186 -179T225 -182Q249 -182 265 -173T282 -141Q282 -109 239 -109Q230 -109 221 -109T197 -112V-72L253 -7Q201 -4 160 6T89 37T44 93T28 179Q28 200 30 223T38 276L74 477Q97 611 183 671T417 731Q475 731 523 724T606 700T660 654T679 581Q679 561 676 532T665 456H473Q478 478 479 489T480 509Q480 560 392 560Q363 560 343 556T310 540T288 511T275 463L239 257Q235 238 235 220Q235 187 254 175T319 162Q354 162 376 166T412 183T433 218T444 278H641Q628 197 606 143T547 56T455 9T320 -8L271 -64Q279 -63 286 -63T299 -62Q338 -62 358 -81T378 -129Q378 -185 338 -211T227 -237Q200 -237 177 -235T130 -227L140 -172Z"  />
<glyph unicode="&#xC8;" horiz-adv-x="667" d="M132 723H681L653 563H304L282 438H612L587 300H257L233 162H582L554 0H5L132 723ZM504 780H387L247 929H427L504 780Z"  />
<glyph unicode="&#xC9;" horiz-adv-x="667" d="M132 723H681L653 563H304L282 438H612L587 300H257L233 162H582L554 0H5L132 723ZM444 780H321L438 929H624L444 780Z"  />
<glyph unicode="&#xCA;" horiz-adv-x="667" d="M132 723H681L653 563H304L282 438H612L587 300H257L233 162H582L554 0H5L132 723ZM513 929L599 780H474L427 860L353 780H222L360 929H513Z"  />
<glyph unicode="&#xCB;" horiz-adv-x="667" d="M132 723H681L653 563H304L282 438H612L587 300H257L233 162H582L554 0H5L132 723ZM466 916H617L595 791H444L466 916ZM254 916H405L383 791H232L254 916Z"  />
<glyph unicode="&#xCC;" horiz-adv-x="342" d="M334 723L207 0H7L134 723H334ZM334 780H217L77 929H257L334 780Z"  />
<glyph unicode="&#xCD;" horiz-adv-x="342" d="M334 723L207 0H7L134 723H334ZM274 780H151L268 929H454L274 780Z"  />
<glyph unicode="&#xCE;" horiz-adv-x="342" d="M334 723L207 0H7L134 723H334ZM343 929L429 780H304L257 860L183 780H52L190 929H343Z"  />
<glyph unicode="&#xCF;" horiz-adv-x="342" d="M334 723L207 0H7L134 723H334ZM296 916H447L425 791H274L296 916ZM84 916H235L213 791H62L84 916Z"  />
<glyph unicode="&#xD0;" horiz-adv-x="769" d="M60 315H-9L9 419H78L132 723H446Q528 723 583 711T672 676T720 618T735 541Q735 513 730 467T714 358Q695 251 669 181T597 70T483 12T310 -5H205Q163 -5 112 -4T5 0L60 315ZM278 419H410L392 315H260L234 169H362Q403 169 428 175T469 204T496 275T522 405Q527 431 529 451T532 487Q532 506 528 519T511 540T478 551T421 555H363Q354 555 342 555T302 553L278 419Z"  />
<glyph unicode="&#xD1;" horiz-adv-x="831" d="M130 723H420L478 477Q495 404 506 355T524 271T536 209T546 156Q550 187 556 230T569 320T582 409T595 485L637 723H827L700 0H413L362 198Q336 298 316 391T282 558Q277 525 271 483T259 397T246 313T235 243L193 0H3L130 723ZM701 918Q688 852 655 822T571 791Q548 791 529 796T492 809T459 821T430 827Q413 827 400 817T380 784H308Q322 854 359 886T443 918Q464 918 484 912T522 898T555 884T583 878Q599 878 610 886T630 918H701Z"  />
<glyph unicode="&#xD2;" horiz-adv-x="761" d="M64 424Q80 518 108 577T181 671T287 718T433 731Q588 731 659 688T731 543Q731 532 730 514T724 466T712 391T692 282Q680 215 659 161T596 70T488 12T320 -8Q168 -8 98 36T27 178Q27 214 36 265L64 424ZM402 562Q365 562 342 557T304 533T277 474T254 367Q245 314 241 282T236 230Q236 211 240 199T255 179T285 168T337 164Q386 164 414 168T458 193T485 259T511 388Q519 430 522 456T525 498Q525 516 521 528T503 547T465 558T402 562ZM547 780H430L290 929H470L547 780Z"  />
<glyph unicode="&#xD3;" horiz-adv-x="761" d="M64 424Q80 518 108 577T181 671T287 718T433 731Q588 731 659 688T731 543Q731 532 730 514T724 466T712 391T692 282Q680 215 659 161T596 70T488 12T320 -8Q168 -8 98 36T27 178Q27 214 36 265L64 424ZM402 562Q365 562 342 557T304 533T277 474T254 367Q245 314 241 282T236 230Q236 211 240 199T255 179T285 168T337 164Q386 164 414 168T458 193T485 259T511 388Q519 430 522 456T525 498Q525 516 521 528T503 547T465 558T402 562ZM487 780H364L481 929H667L487 780Z"  />
<glyph unicode="&#xD4;" horiz-adv-x="761" d="M64 424Q80 518 108 577T181 671T287 718T433 731Q588 731 659 688T731 543Q731 532 730 514T724 466T712 391T692 282Q680 215 659 161T596 70T488 12T320 -8Q168 -8 98 36T27 178Q27 214 36 265L64 424ZM402 562Q365 562 342 557T304 533T277 474T254 367Q245 314 241 282T236 230Q236 211 240 199T255 179T285 168T337 164Q386 164 414 168T458 193T485 259T511 388Q519 430 522 456T525 498Q525 516 521 528T503 547T465 558T402 562ZM556 929L642 780H517L470 860L396 780H265L403 929H556Z"  />
<glyph unicode="&#xD5;" horiz-adv-x="761" d="M64 424Q80 518 108 577T181 671T287 718T433 731Q588 731 659 688T731 543Q731 532 730 514T724 466T712 391T692 282Q680 215 659 161T596 70T488 12T320 -8Q168 -8 98 36T27 178Q27 214 36 265L64 424ZM402 562Q365 562 342 557T304 533T277 474T254 367Q245 314 241 282T236 230Q236 211 240 199T255 179T285 168T337 164Q386 164 414 168T458 193T485 259T511 388Q519 430 522 456T525 498Q525 516 521 528T503 547T465 558T402 562ZM664 918Q651 852 618 822T534 791Q511 791 492 796T455 809T422 821T393 827Q376 827 363 817T343 784H271Q285 854 322 886T406 918Q427 918 447 912T485 898T518 884T546 878Q562 878 573 886T593 918H664Z"  />
<glyph unicode="&#xD6;" horiz-adv-x="761" d="M64 424Q80 518 108 577T181 671T287 718T433 731Q588 731 659 688T731 543Q731 532 730 514T724 466T712 391T692 282Q680 215 659 161T596 70T488 12T320 -8Q168 -8 98 36T27 178Q27 214 36 265L64 424ZM402 562Q365 562 342 557T304 533T277 474T254 367Q245 314 241 282T236 230Q236 211 240 199T255 179T285 168T337 164Q386 164 414 168T458 193T485 259T511 388Q519 430 522 456T525 498Q525 516 521 528T503 547T465 558T402 562ZM509 916H660L638 791H487L509 916ZM297 916H448L426 791H275L297 916Z"  />
<glyph unicode="&#xD7;" horiz-adv-x="667" d="M131 539L309 355L486 536L577 443L401 262L580 78L487 -15L309 168L132 -13L41 79L217 261L38 445L131 539Z"  />
<glyph unicode="&#xD8;" horiz-adv-x="761" d="M64 424Q80 518 108 577T181 671T287 718T433 731Q522 731 583 718T679 674L749 735L803 670L724 601Q727 588 729 574T731 543Q731 532 730 514T724 466T712 391T692 282Q680 215 659 161T596 70T488 12T320 -8Q237 -8 179 4T85 45L16 -15L-41 46L36 113Q27 141 27 178Q27 214 36 265L64 424ZM402 562Q365 562 342 557T302 533T275 474T251 367Q246 343 243 324T238 289L522 537Q514 552 488 557T402 562ZM514 388Q516 398 517 407T520 424L242 182Q250 170 272 167T337 164Q386 164 414 168T460 193T488 259T514 388Z"  />
<glyph unicode="&#xD9;" horiz-adv-x="768" d="M325 723L237 226Q236 221 236 217T235 209Q235 196 239 187T254 173T287 165T342 162Q385 162 411 165T451 178T472 202T484 242L569 723H769L691 282Q676 195 649 139T578 51T469 7T311 -6Q234 -6 181 4T96 37T49 93T34 176Q34 206 40 242L125 723H325ZM549 780H432L292 929H472L549 780Z"  />
<glyph unicode="&#xDA;" horiz-adv-x="768" d="M325 723L237 226Q236 221 236 217T235 209Q235 196 239 187T254 173T287 165T342 162Q385 162 411 165T451 178T472 202T484 242L569 723H769L691 282Q676 195 649 139T578 51T469 7T311 -6Q234 -6 181 4T96 37T49 93T34 176Q34 206 40 242L125 723H325ZM488 780H365L482 929H668L488 780Z"  />
<glyph unicode="&#xDB;" horiz-adv-x="768" d="M325 723L237 226Q236 221 236 217T235 209Q235 196 239 187T254 173T287 165T342 162Q385 162 411 165T451 178T472 202T484 242L569 723H769L691 282Q676 195 649 139T578 51T469 7T311 -6Q234 -6 181 4T96 37T49 93T34 176Q34 206 40 242L125 723H325ZM557 929L643 780H518L471 860L397 780H266L404 929H557Z"  />
<glyph unicode="&#xDC;" horiz-adv-x="768" d="M325 723L237 226Q236 221 236 217T235 209Q235 196 239 187T254 173T287 165T342 162Q385 162 411 165T451 178T472 202T484 242L569 723H769L691 282Q676 195 649 139T578 51T469 7T311 -6Q234 -6 181 4T96 37T49 93T34 176Q34 206 40 242L125 723H325ZM511 916H662L640 791H489L511 916ZM299 916H450L428 791H277L299 916Z"  />
<glyph unicode="&#xDD;" horiz-adv-x="642" d="M40 723H257L336 441L513 723H727L400 253L356 0H156L201 256L40 723ZM426 780H303L420 929H606L426 780Z"  />
<glyph unicode="&#xDE;" horiz-adv-x="727" d="M332 723L318 643H453Q519 643 564 632T637 599T677 547T690 478Q690 463 688 447T683 412Q665 310 619 246T480 162Q467 159 452 157T416 155T368 154T305 153Q294 153 280 153T232 154L205 0H5L132 723H332ZM259 313H390Q438 313 457 333T485 401Q487 407 487 413T487 424Q487 483 417 483H289L259 313Z"  />
<glyph unicode="&#xDF;" horiz-adv-x="566" d="M88 534Q97 586 115 623T164 685T236 720T335 732Q434 732 477 700T520 606Q520 580 514 547Q508 516 501 494T482 455T456 429T419 411Q458 408 482 382T506 314Q506 297 503 274T495 219Q483 150 467 106T427 37T366 1T276 -9Q260 -9 241 -8T211 -4L232 115Q239 114 242 114T248 114Q267 114 280 117T301 134T316 174T331 245Q338 286 338 306Q338 328 325 336T288 345Q279 345 274 344L293 449Q308 449 317 451T331 461T340 481T348 515Q353 540 355 554T357 578Q357 595 347 604T316 614Q271 614 263 569L163 0H-6L88 534Z"  />
<glyph unicode="&#xE0;" horiz-adv-x="563" d="M292 51Q272 33 256 22T223 5T185 -3T133 -5Q102 -5 77 -2T33 13T5 45T-5 98Q-5 122 1 154Q9 199 23 231T60 282T115 311T191 320Q225 320 248 317T287 308T312 291T327 265L337 317Q342 345 344 360T346 384Q346 401 335 410T289 420Q257 420 244 412T226 380H65Q71 425 87 452T132 494T200 513T295 518Q349 518 389 514T457 496T497 460T511 398Q511 379 508 360L445 0H284L292 51ZM237 223Q218 223 207 221T188 212T176 190T167 153Q166 148 166 144T165 134Q165 114 179 108T228 101Q252 101 265 103T287 113T300 136T309 178Q311 186 311 191T311 201Q311 205 309 209T299 216T277 221T237 223ZM410 574H293L153 723H333L410 574Z"  />
<glyph unicode="&#xE1;" horiz-adv-x="563" d="M292 51Q272 33 256 22T223 5T185 -3T133 -5Q102 -5 77 -2T33 13T5 45T-5 98Q-5 122 1 154Q9 199 23 231T60 282T115 311T191 320Q225 320 248 317T287 308T312 291T327 265L337 317Q342 345 344 360T346 384Q346 401 335 410T289 420Q257 420 244 412T226 380H65Q71 425 87 452T132 494T200 513T295 518Q349 518 389 514T457 496T497 460T511 398Q511 379 508 360L445 0H284L292 51ZM237 223Q218 223 207 221T188 212T176 190T167 153Q166 148 166 144T165 134Q165 114 179 108T228 101Q252 101 265 103T287 113T300 136T309 178Q311 186 311 191T311 201Q311 205 309 209T299 216T277 221T237 223ZM351 574H228L345 723H531L351 574Z"  />
<glyph unicode="&#xE2;" horiz-adv-x="563" d="M292 51Q272 33 256 22T223 5T185 -3T133 -5Q102 -5 77 -2T33 13T5 45T-5 98Q-5 122 1 154Q9 199 23 231T60 282T115 311T191 320Q225 320 248 317T287 308T312 291T327 265L337 317Q342 345 344 360T346 384Q346 401 335 410T289 420Q257 420 244 412T226 380H65Q71 425 87 452T132 494T200 513T295 518Q349 518 389 514T457 496T497 460T511 398Q511 379 508 360L445 0H284L292 51ZM237 223Q218 223 207 221T188 212T176 190T167 153Q166 148 166 144T165 134Q165 114 179 108T228 101Q252 101 265 103T287 113T300 136T309 178Q311 186 311 191T311 201Q311 205 309 209T299 216T277 221T237 223ZM419 723L505 574H380L333 654L259 574H128L266 723H419Z"  />
<glyph unicode="&#xE3;" horiz-adv-x="563" d="M292 51Q272 33 256 22T223 5T185 -3T133 -5Q102 -5 77 -2T33 13T5 45T-5 98Q-5 122 1 154Q9 199 23 231T60 282T115 311T191 320Q225 320 248 317T287 308T312 291T327 265L337 317Q342 345 344 360T346 384Q346 401 335 410T289 420Q257 420 244 412T226 380H65Q71 425 87 452T132 494T200 513T295 518Q349 518 389 514T457 496T497 460T511 398Q511 379 508 360L445 0H284L292 51ZM237 223Q218 223 207 221T188 212T176 190T167 153Q166 148 166 144T165 134Q165 114 179 108T228 101Q252 101 265 103T287 113T300 136T309 178Q311 186 311 191T311 201Q311 205 309 209T299 216T277 221T237 223ZM526 712Q513 646 480 616T396 585Q373 585 354 590T317 603T284 615T255 621Q238 621 225 611T205 578H133Q147 648 184 680T268 712Q289 712 309 706T347 692T380 678T408 672Q424 672 435 680T455 712H526Z"  />
<glyph unicode="&#xE4;" horiz-adv-x="563" d="M292 51Q272 33 256 22T223 5T185 -3T133 -5Q102 -5 77 -2T33 13T5 45T-5 98Q-5 122 1 154Q9 199 23 231T60 282T115 311T191 320Q225 320 248 317T287 308T312 291T327 265L337 317Q342 345 344 360T346 384Q346 401 335 410T289 420Q257 420 244 412T226 380H65Q71 425 87 452T132 494T200 513T295 518Q349 518 389 514T457 496T497 460T511 398Q511 379 508 360L445 0H284L292 51ZM237 223Q218 223 207 221T188 212T176 190T167 153Q166 148 166 144T165 134Q165 114 179 108T228 101Q252 101 265 103T287 113T300 136T309 178Q311 186 311 191T311 201Q311 205 309 209T299 216T277 221T237 223ZM372 710H523L501 585H350L372 710ZM160 710H311L289 585H138L160 710Z"  />
<glyph unicode="&#xE5;" horiz-adv-x="563" d="M292 51Q272 33 256 22T223 5T185 -3T133 -5Q102 -5 77 -2T33 13T5 45T-5 98Q-5 122 1 154Q9 199 23 231T60 282T115 311T191 320Q225 320 248 317T287 308T312 291T327 265L337 317Q342 345 344 360T346 384Q346 401 335 410T289 420Q257 420 244 412T226 380H65Q71 425 87 452T132 494T200 513T295 518Q349 518 389 514T457 496T497 460T511 398Q511 379 508 360L445 0H284L292 51ZM237 223Q218 223 207 221T188 212T176 190T167 153Q166 148 166 144T165 134Q165 114 179 108T228 101Q252 101 265 103T287 113T300 136T309 178Q311 186 311 191T311 201Q311 205 309 209T299 216T277 221T237 223ZM347 787Q391 787 418 761T445 693Q445 668 437 647T413 609T376 584T328 574Q284 574 257 600T230 668Q230 720 263 753T347 787ZM332 628Q354 628 370 643T387 688Q387 709 375 721T343 733Q321 733 305 718T288 673Q288 652 300 640T332 628Z"  />
<glyph unicode="&#xE6;" horiz-adv-x="887" d="M809 153Q798 100 778 69T725 20T649 -3T548 -9Q503 -9 472 -4T421 11T389 39T373 79Q362 55 346 38T305 11T247 -4T169 -9Q76 -9 36 17T-4 105Q-4 116 -3 127T0 152Q16 242 62 281T199 320Q269 320 304 307T344 265L358 343Q360 358 361 369T363 388Q363 395 361 401T352 411T331 417T294 419Q275 419 263 418T243 412T231 399T225 378H64Q70 424 86 451T130 494T199 514T294 519Q341 519 371 515T420 501T448 477T464 442Q487 484 527 501T641 518Q695 518 733 511T794 487T828 444T839 380Q839 341 834 303T820 224H503Q497 205 493 184T489 141Q489 119 501 110T551 100Q578 100 595 102T623 109T639 125T647 153H809ZM675 309Q681 341 683 355T685 378Q685 401 672 407T623 414Q590 414 572 412T544 399T529 367T518 309H675ZM247 218Q224 218 210 216T187 207T174 187T165 153Q164 147 164 142T163 132Q163 114 174 108T211 101Q247 101 268 102T302 110T319 127T327 157Q332 180 332 191Q332 210 315 214T247 218Z"  />
<glyph unicode="&#xE7;" horiz-adv-x="555" d="M61 -172Q90 -177 107 -179T146 -182Q170 -182 186 -173T203 -141Q203 -109 160 -109Q151 -109 142 -109T118 -112V-72L173 -8Q84 -2 48 35T11 139Q11 157 14 188T25 258Q37 330 55 379T105 460T185 504T307 518Q363 518 402 511T465 489T501 450T512 389Q512 378 511 364T503 321H344Q349 349 349 363Q349 380 337 387T289 395Q263 395 249 392T224 373T207 326T191 240Q186 211 183 189T180 158Q180 134 191 126T238 117Q262 117 276 119T298 131T312 157T324 202H484Q473 140 455 101T408 38T338 4T240 -8L192 -64Q200 -63 207 -63T220 -62Q259 -62 279 -81T299 -129Q299 -185 259 -211T148 -237Q121 -237 98 -235T51 -227L61 -172Z"  />
<glyph unicode="&#xE8;" horiz-adv-x="563" d="M181 224Q172 185 170 169T168 145Q168 119 180 109T228 99Q256 99 273 101T300 108T314 124T322 153H482Q471 100 452 69T403 20T329 -3T224 -9Q164 -9 123 -2T57 22T20 64T9 126Q9 149 13 182T26 264Q38 331 55 379T103 458T181 503T300 518Q335 518 373 514T444 496T497 454T518 379Q518 341 513 302T496 224H181ZM352 309Q364 351 364 378Q364 398 350 406T291 414Q267 414 252 412T227 400T211 368T197 309H352ZM412 574H295L155 723H335L412 574Z"  />
<glyph unicode="&#xE9;" horiz-adv-x="563" d="M181 224Q172 185 170 169T168 145Q168 119 180 109T228 99Q256 99 273 101T300 108T314 124T322 153H482Q471 100 452 69T403 20T329 -3T224 -9Q164 -9 123 -2T57 22T20 64T9 126Q9 149 13 182T26 264Q38 331 55 379T103 458T181 503T300 518Q335 518 373 514T444 496T497 454T518 379Q518 341 513 302T496 224H181ZM352 309Q364 351 364 378Q364 398 350 406T291 414Q267 414 252 412T227 400T211 368T197 309H352ZM352 574H229L346 723H532L352 574Z"  />
<glyph unicode="&#xEA;" horiz-adv-x="563" d="M181 224Q172 185 170 169T168 145Q168 119 180 109T228 99Q256 99 273 101T300 108T314 124T322 153H482Q471 100 452 69T403 20T329 -3T224 -9Q164 -9 123 -2T57 22T20 64T9 126Q9 149 13 182T26 264Q38 331 55 379T103 458T181 503T300 518Q335 518 373 514T444 496T497 454T518 379Q518 341 513 302T496 224H181ZM352 309Q364 351 364 378Q364 398 350 406T291 414Q267 414 252 412T227 400T211 368T197 309H352ZM421 723L507 574H382L335 654L261 574H130L268 723H421Z"  />
<glyph unicode="&#xEB;" horiz-adv-x="563" d="M181 224Q172 185 170 169T168 145Q168 119 180 109T228 99Q256 99 273 101T300 108T314 124T322 153H482Q471 100 452 69T403 20T329 -3T224 -9Q164 -9 123 -2T57 22T20 64T9 126Q9 149 13 182T26 264Q38 331 55 379T103 458T181 503T300 518Q335 518 373 514T444 496T497 454T518 379Q518 341 513 302T496 224H181ZM352 309Q364 351 364 378Q364 398 350 406T291 414Q267 414 252 412T227 400T211 368T197 309H352ZM374 710H525L503 585H352L374 710ZM162 710H313L291 585H140L162 710Z"  />
<glyph unicode="&#xEC;" horiz-adv-x="285" d="M83 509H252L163 0H-6L83 509ZM272 574H155L15 723H195L272 574Z"  />
<glyph unicode="&#xED;" horiz-adv-x="285" d="M83 509H252L163 0H-6L83 509ZM212 574H89L206 723H392L212 574Z"  />
<glyph unicode="&#xEE;" horiz-adv-x="285" d="M83 509H252L163 0H-6L83 509ZM281 723L367 574H242L195 654L121 574H-10L128 723H281Z"  />
<glyph unicode="&#xEF;" horiz-adv-x="285" d="M83 509H252L163 0H-6L83 509ZM234 710H385L363 585H212L234 710ZM22 710H173L151 585H0L22 710Z"  />
<glyph unicode="&#xF0;" horiz-adv-x="554" d="M268 498Q289 498 311 494T350 478Q349 490 343 505T328 534T310 560T294 578L181 537L166 603L241 630L195 674L322 732L383 686L489 726L505 658L436 633Q476 583 492 530T508 409Q508 357 496 288Q479 193 460 135T409 45T328 2T200 -9Q162 -9 128 -4T68 17T27 60T11 133Q11 158 14 189T25 262Q37 327 55 372T101 445T170 485T268 498ZM179 196Q177 182 176 173T175 156Q175 130 187 123T234 115Q260 115 272 120T293 135Q296 139 300 151T309 182T318 220T327 261Q332 287 334 305T337 337Q337 363 325 372T281 381Q241 381 224 364T199 311L179 196Z"  />
<glyph unicode="&#xF1;" horiz-adv-x="568" d="M288 392Q256 392 241 379T218 326L161 0H-8L81 509H246L234 440Q249 464 264 479T297 502T336 514T387 518Q460 518 489 491T518 415Q518 401 516 385T511 351L450 0H281L337 321Q339 331 340 339T341 354Q341 372 331 382T288 392ZM528 712Q515 646 482 616T398 585Q375 585 356 590T319 603T286 615T257 621Q240 621 227 611T207 578H135Q149 648 186 680T270 712Q291 712 311 706T349 692T382 678T410 672Q426 672 437 680T457 712H528Z"  />
<glyph unicode="&#xF2;" horiz-adv-x="554" d="M302 518Q414 518 461 488T508 395Q508 371 504 336T490 249Q476 170 458 120T408 41T327 2T200 -9Q98 -9 54 23T9 121Q9 146 13 179T25 257Q40 341 57 392T105 471T182 508T302 518ZM207 331Q196 273 191 239T182 187T179 163T178 153Q178 130 188 123T234 115Q254 115 267 117T288 129T301 156T313 206Q320 246 324 273T332 318T336 347T337 365Q337 386 327 392T284 398Q264 398 251 396T230 386T216 365T207 331ZM408 574H291L151 723H331L408 574Z"  />
<glyph unicode="&#xF3;" horiz-adv-x="554" d="M302 518Q414 518 461 488T508 395Q508 371 504 336T490 249Q476 170 458 120T408 41T327 2T200 -9Q98 -9 54 23T9 121Q9 146 13 179T25 257Q40 341 57 392T105 471T182 508T302 518ZM207 331Q196 273 191 239T182 187T179 163T178 153Q178 130 188 123T234 115Q254 115 267 117T288 129T301 156T313 206Q320 246 324 273T332 318T336 347T337 365Q337 386 327 392T284 398Q264 398 251 396T230 386T216 365T207 331ZM348 574H225L342 723H528L348 574Z"  />
<glyph unicode="&#xF4;" horiz-adv-x="554" d="M302 518Q414 518 461 488T508 395Q508 371 504 336T490 249Q476 170 458 120T408 41T327 2T200 -9Q98 -9 54 23T9 121Q9 146 13 179T25 257Q40 341 57 392T105 471T182 508T302 518ZM207 331Q196 273 191 239T182 187T179 163T178 153Q178 130 188 123T234 115Q254 115 267 117T288 129T301 156T313 206Q320 246 324 273T332 318T336 347T337 365Q337 386 327 392T284 398Q264 398 251 396T230 386T216 365T207 331ZM417 723L503 574H378L331 654L257 574H126L264 723H417Z"  />
<glyph unicode="&#xF5;" horiz-adv-x="554" d="M302 518Q414 518 461 488T508 395Q508 371 504 336T490 249Q476 170 458 120T408 41T327 2T200 -9Q98 -9 54 23T9 121Q9 146 13 179T25 257Q40 341 57 392T105 471T182 508T302 518ZM207 331Q196 273 191 239T182 187T179 163T178 153Q178 130 188 123T234 115Q254 115 267 117T288 129T301 156T313 206Q320 246 324 273T332 318T336 347T337 365Q337 386 327 392T284 398Q264 398 251 396T230 386T216 365T207 331ZM524 712Q511 646 478 616T394 585Q371 585 352 590T315 603T282 615T253 621Q236 621 223 611T203 578H131Q145 648 182 680T266 712Q287 712 307 706T345 692T378 678T406 672Q422 672 433 680T453 712H524Z"  />
<glyph unicode="&#xF6;" horiz-adv-x="554" d="M302 518Q414 518 461 488T508 395Q508 371 504 336T490 249Q476 170 458 120T408 41T327 2T200 -9Q98 -9 54 23T9 121Q9 146 13 179T25 257Q40 341 57 392T105 471T182 508T302 518ZM207 331Q196 273 191 239T182 187T179 163T178 153Q178 130 188 123T234 115Q254 115 267 117T288 129T301 156T313 206Q320 246 324 273T332 318T336 347T337 365Q337 386 327 392T284 398Q264 398 251 396T230 386T216 365T207 331ZM370 710H521L499 585H348L370 710ZM158 710H309L287 585H136L158 710Z"  />
<glyph unicode="&#xF7;" horiz-adv-x="667" d="M308 369Q263 369 240 393T216 460Q216 504 240 528T309 552Q354 552 377 528T402 460Q402 418 378 394T308 369ZM308 -9Q263 -9 240 15T216 82Q216 126 240 150T309 174Q354 174 377 150T402 82Q402 40 378 16T308 -9ZM593 341V203H26V341H593Z"  />
<glyph unicode="&#xF8;" horiz-adv-x="554" d="M302 518Q427 518 474 478L529 524L568 476L505 424Q508 410 508 395Q508 371 504 336T490 249Q476 170 458 120T408 41T327 2T200 -9Q140 -9 101 1T39 35L-11 -7L-51 40L11 92Q9 99 9 106T9 121Q9 146 13 179T25 257Q40 341 57 392T105 471T182 508T302 518ZM328 275L174 147Q174 125 186 118T233 111Q254 111 267 113T289 125T303 152T315 202L328 275ZM188 239L341 367Q341 390 330 396T285 402Q264 402 251 400T228 390T214 369T205 335L188 239Z"  />
<glyph unicode="&#xF9;" horiz-adv-x="568" d="M448 0H286L299 79Q286 54 272 37T238 10T195 -4T139 -9Q73 -9 42 14T10 93Q10 118 16 153L79 509H248L189 174Q188 169 188 165T187 155Q187 134 199 126T238 117Q257 117 269 121T290 134T303 157T312 192L368 509H537L448 0ZM412 574H295L155 723H335L412 574Z"  />
<glyph unicode="&#xFA;" horiz-adv-x="568" d="M448 0H286L299 79Q286 54 272 37T238 10T195 -4T139 -9Q73 -9 42 14T10 93Q10 118 16 153L79 509H248L189 174Q188 169 188 165T187 155Q187 134 199 126T238 117Q257 117 269 121T290 134T303 157T312 192L368 509H537L448 0ZM352 574H229L346 723H532L352 574Z"  />
<glyph unicode="&#xFB;" horiz-adv-x="568" d="M448 0H286L299 79Q286 54 272 37T238 10T195 -4T139 -9Q73 -9 42 14T10 93Q10 118 16 153L79 509H248L189 174Q188 169 188 165T187 155Q187 134 199 126T238 117Q257 117 269 121T290 134T303 157T312 192L368 509H537L448 0ZM421 723L507 574H382L335 654L261 574H130L268 723H421Z"  />
<glyph unicode="&#xFC;" horiz-adv-x="568" d="M448 0H286L299 79Q286 54 272 37T238 10T195 -4T139 -9Q73 -9 42 14T10 93Q10 118 16 153L79 509H248L189 174Q188 169 188 165T187 155Q187 134 199 126T238 117Q257 117 269 121T290 134T303 157T312 192L368 509H537L448 0ZM374 710H525L503 585H352L374 710ZM162 710H313L291 585H140L162 710Z"  />
<glyph unicode="&#xFD;" horiz-adv-x="538" d="M385 509H556L341 15Q313 -49 291 -91T242 -157T182 -192T100 -202Q90 -202 79 -202T56 -200T36 -198T21 -196L41 -82Q46 -83 49 -83T57 -83Q106 -83 130 -64T167 3H84L29 509H200L232 126L385 509ZM341 574H218L335 723H521L341 574Z"  />
<glyph unicode="&#xFE;" horiz-adv-x="564" d="M241 449Q287 518 384 518Q447 518 482 490T518 396Q518 374 515 345T504 275Q488 185 470 130T428 43T370 2T291 -9Q249 -9 220 7T173 61L128 -197H-41L121 723H290L241 449ZM289 391Q268 391 256 388T235 368T219 319T202 227Q199 209 197 192T195 161Q195 136 205 127T242 118Q262 118 275 121T296 133T309 157T320 199Q335 274 340 308T345 357Q345 377 332 384T289 391Z"  />
<glyph unicode="&#xFF;" horiz-adv-x="538" d="M385 509H556L341 15Q313 -49 291 -91T242 -157T182 -192T100 -202Q90 -202 79 -202T56 -200T36 -198T21 -196L41 -82Q46 -83 49 -83T57 -83Q106 -83 130 -64T167 3H84L29 509H200L232 126L385 509ZM363 710H514L492 585H341L363 710ZM151 710H302L280 585H129L151 710Z"  />
<glyph unicode="&#x131;" horiz-adv-x="285" d="M83 509H252L163 0H-6L83 509Z"  />
<glyph unicode="&#x152;" horiz-adv-x="993" d="M558 721H998L971 569H705L682 438H938L914 301H658L632 155H907L880 0H428L443 87Q426 60 407 43T363 14T306 -1T233 -6Q133 -6 80 33T26 159Q26 177 28 197T34 241L75 474Q97 603 165 666T366 730Q446 730 485 708T542 635L558 721ZM391 574Q355 574 333 568T295 541T270 479T247 366Q241 329 237 303T230 257T226 225T225 202Q226 173 244 161T310 149Q357 149 384 153T428 182T456 256T484 398Q492 446 496 472T500 514Q500 531 495 542T478 561T444 571T391 574Z"  />
<glyph unicode="&#x153;" horiz-adv-x="882" d="M804 153Q796 103 777 72T725 22T649 -2T549 -9Q475 -9 443 8T402 72Q388 46 366 30T318 6T263 -6T203 -9Q128 -9 84 8T23 61Q11 86 11 127Q11 153 15 189T29 278Q41 345 57 391T103 465T176 506T290 518Q337 518 367 515T417 504T446 483T462 448Q475 468 490 481T525 503T574 514T643 518Q701 518 738 510T797 484T827 443T836 386Q836 350 830 312T815 224H507Q500 186 498 169T496 141Q496 115 510 108T560 101Q582 101 596 103T619 111T633 127T641 153H804ZM668 309Q674 344 676 360T679 384Q679 398 670 405T625 413Q595 413 577 411T549 399T534 368T525 309H668ZM297 398Q274 398 260 396T235 386T219 364T209 328L185 210Q179 178 179 159Q179 131 194 123T249 115Q304 115 320 137Q323 141 326 150T333 176T342 222T355 293Q360 321 362 336T364 360Q364 386 344 392T297 398Z"  />
<glyph unicode="&#x160;" horiz-adv-x="698" d="M208 224Q206 216 205 209T203 193Q203 167 224 157T297 147Q337 147 361 149T399 159T419 179T429 213Q433 233 433 249Q433 266 419 274T356 287L206 301Q144 307 106 338T68 440Q68 456 70 473T75 510Q86 574 106 616T161 684T243 720T357 731H423Q492 731 538 723T612 699T651 657T663 599Q663 583 661 563T653 511H471Q473 524 473 530T474 541Q474 555 463 566T417 577H353Q332 577 318 574T294 562T280 541T271 508Q268 491 268 482Q268 473 271 467T282 456T304 449T340 444L456 434Q508 429 542 420T598 394T627 352T636 292Q636 276 634 258T628 218Q616 148 592 104T527 35T424 1T276 -8Q214 -8 165 -3T81 18T28 59T9 128Q9 141 11 160T21 224H208ZM341 780L255 929H380L427 849L501 929H632L494 780H341Z"  />
<glyph unicode="&#x161;" horiz-adv-x="546" d="M157 145Q156 138 156 134T156 127Q156 107 170 100T229 93Q253 93 268 95T292 102T307 118T315 146Q316 151 316 157T317 167Q317 183 308 188T273 196L180 206Q142 210 114 216T67 235T39 266T30 315Q30 325 31 335T34 358Q42 403 58 433T103 482T175 509T278 518H299Q408 518 456 495T504 418Q504 409 503 398T500 374H342Q343 382 343 385T343 392Q343 403 333 410T289 417H261Q225 417 212 407T193 368Q192 363 192 360T191 352Q191 339 202 333T255 322L348 314Q416 308 449 283T483 197Q483 179 480 160Q469 105 448 72T392 21T312 -3T207 -9Q147 -9 105 -4T36 15T-2 49T-14 102Q-14 112 -13 122T-10 145H157ZM227 574L141 723H266L313 643L387 723H518L380 574H227Z"  />
<glyph unicode="&#x178;" horiz-adv-x="642" d="M40 723H257L336 441L513 723H727L400 253L356 0H156L201 256L40 723ZM448 916H599L577 791H426L448 916ZM236 916H387L365 791H214L236 916Z"  />
<glyph unicode="&#x17D;" horiz-adv-x="660" d="M-5 169L405 560H83L112 723H679L649 551L248 167H585L556 0H-34L-5 169ZM321 780L235 929H360L407 849L481 929H612L474 780H321Z"  />
<glyph unicode="&#x17E;" horiz-adv-x="496" d="M-17 137L270 389H41L62 509H486L462 373L178 123H424L403 0H-41L-17 137ZM211 574L125 723H250L297 643L371 723H502L364 574H211Z"  />
<glyph unicode="&#x192;" horiz-adv-x="667" d="M-27 -42Q-17 -44 -3 -45T24 -47Q75 -47 101 -30T141 37L223 345H113V453H254L278 534Q293 585 314 622T366 683T438 719T533 731Q560 731 583 730T633 725L621 587Q602 591 590 592T564 593Q536 593 516 586T480 562T455 519T436 453H578V343H406L331 62Q312 -9 289 -57T232 -133T152 -174T40 -186Q16 -186 -2 -185T-38 -180L-27 -42Z"  />
<glyph unicode="&#x237;" horiz-adv-x="285" d="M-57 -36Q-31 -36 -21 -29T-7 -4L83 509H252L173 60Q163 2 152 -39T119 -107T64 -146T-28 -159Q-40 -159 -51 -159T-77 -156L-57 -36Z"  />
<glyph unicode="&#x2C6;" horiz-adv-x="333" d="M303 723L389 574H264L217 654L143 574H12L150 723H303Z"  />
<glyph unicode="&#x2DC;" horiz-adv-x="333" d="M409 712Q396 646 363 616T279 585Q256 585 237 590T200 603T167 615T138 621Q121 621 108 611T88 578H16Q30 648 67 680T151 712Q172 712 192 706T230 692T263 678T291 672Q307 672 318 680T338 712H409Z"  />
<glyph unicode="&#x2013;" horiz-adv-x="667" d="M663 341L638 203H-29L-4 341H663Z"  />
<glyph unicode="&#x2014;" horiz-adv-x="1000" d="M56 341H936L911 203H31L56 341Z"  />
<glyph unicode="&#x2018;" horiz-adv-x="278" d="M267 658Q248 658 236 656T216 648T204 633T197 609L195 598H251L223 436H76L101 579Q108 620 120 648T152 695T203 721T280 730L267 658Z"  />
<glyph unicode="&#x2019;" horiz-adv-x="278" d="M87 501Q124 502 138 511T157 550L159 561H103L131 723H278L253 580Q246 539 234 511T202 464T151 438T74 429L87 501Z"  />
<glyph unicode="&#x201A;" horiz-adv-x="278" d="M-10 -48Q27 -47 41 -38T60 1L62 12H6L34 174H181L156 31Q149 -10 137 -38T105 -85T54 -111T-23 -120L-10 -48Z"  />
<glyph unicode="&#x201C;" horiz-adv-x="500" d="M499 658Q480 658 468 656T448 648T436 633T429 609L427 598H483L455 436H308L333 579Q340 620 352 648T384 695T435 721T512 730L499 658ZM255 658Q236 658 224 656T204 648T192 633T185 609L183 598H239L211 436H64L89 579Q96 620 108 648T140 695T191 721T268 730L255 658Z"  />
<glyph unicode="&#x201D;" horiz-adv-x="500" d="M76 501Q113 502 127 511T146 550L148 561H92L120 723H267L242 580Q235 539 223 511T191 464T140 438T63 429L76 501ZM320 501Q357 502 371 511T390 550L392 561H336L364 723H511L486 580Q479 539 467 511T435 464T384 438T307 429L320 501Z"  />
<glyph unicode="&#x201E;" horiz-adv-x="500" d="M-21 -48Q16 -47 30 -38T49 1L51 12H-5L23 174H170L145 31Q138 -10 126 -38T94 -85T43 -111T-34 -120L-21 -48ZM223 -48Q260 -47 274 -38T293 1L295 12H239L267 174H414L389 31Q382 -10 370 -38T338 -85T287 -111T210 -120L223 -48Z"  />
<glyph unicode="&#x2020;" horiz-adv-x="667" d="M354 0H186L257 407H109L135 553H283L313 723H481L451 553H598L572 407H425L354 0Z"  />
<glyph unicode="&#x2021;" horiz-adv-x="667" d="M352 0H187L211 139H83L107 275H235L266 451H138L162 588H290L314 723H479L455 588H583L559 451H431L400 275H528L504 139H376L352 0Z"  />
<glyph unicode="&#x2022;" horiz-adv-x="333" d="M148 190Q118 190 93 201T49 230T20 274T9 330Q9 364 22 394T57 447T110 483T177 496Q207 496 232 485T276 456T305 412T316 356Q316 321 303 291T268 239T215 203T148 190Z"  />
<glyph unicode="&#x2026;" horiz-adv-x="1000" d="M53 174H212L182 0H23L53 174ZM386 174H545L515 0H356L386 174ZM719 174H878L848 0H689L719 174Z"  />
<glyph unicode="&#x2030;" horiz-adv-x="1000" d="M110 -17L491 735H568L187 -17H110ZM301 483Q294 445 285 422T257 386T209 368T133 363Q73 363 49 382T25 440Q25 446 26 455T29 476L53 618Q59 652 69 674T97 710T138 729T197 735Q234 735 259 732T300 720T322 697T329 661Q329 646 326 628L301 483ZM195 657Q180 657 172 655T157 643T147 612T135 551Q129 516 126 494T122 461Q122 452 129 447T158 441Q174 441 183 443T199 460T212 503T227 588Q229 603 231 614T233 633Q233 644 227 650T195 657ZM618 107Q611 69 602 46T574 10T526 -8T450 -13Q390 -13 366 6T342 64Q342 70 343 79T346 100L370 242Q376 276 386 298T414 334T455 353T514 359Q551 359 576 356T617 344T639 321T646 285Q646 270 643 252L618 107ZM512 281Q497 281 489 279T474 267T464 236T452 175Q446 140 443 118T439 85Q439 76 446 71T475 65Q491 65 500 67T516 84T529 127T544 212Q546 227 548 238T550 257Q550 268 544 274T512 281ZM941 107Q934 69 925 46T897 10T849 -8T773 -13Q713 -13 689 6T665 64Q665 70 666 79T669 100L693 242Q699 276 709 298T737 334T778 353T837 359Q874 359 899 356T940 344T962 321T969 285Q969 270 966 252L941 107ZM835 281Q820 281 812 279T797 267T787 236T775 175Q769 140 766 118T762 85Q762 76 769 71T798 65Q814 65 823 67T839 84T852 127T867 212Q869 227 871 238T873 257Q873 268 867 274T835 281Z"  />
<glyph unicode="&#x2039;" horiz-adv-x="278" d="M244 407L121 257L196 118H95L16 261L135 407H244Z"  />
<glyph unicode="&#x203A;" horiz-adv-x="278" d="M-3 118L120 268L45 407H146L225 264L106 118H-3Z"  />
<glyph unicode="&#x20AC;" horiz-adv-x="667" d="M151 476Q179 604 265 667T484 731H514Q567 731 611 724T688 694L620 546Q594 564 563 569T501 575H473Q422 575 386 551T337 476H592L553 387H321L310 326H528L488 237H294Q294 187 318 167T394 147H428Q473 147 507 160T581 203L552 39Q517 10 483 1T407 -8H352Q285 -8 239 7T164 49T122 115T109 202Q109 210 109 219T110 237H30L70 326H124L135 387H57L96 476H151Z"  />
<glyph unicode="&#x2122;" horiz-adv-x="1000" d="M367 723V617H263V340H145V617H42V723H367ZM403 723H579L664 471L748 723H920V340H807V603L718 340H605L516 603V340H403V723Z"  />

</font>
</defs>
</svg>
