<?xml  version="1.0" encoding="UTF-8"?>
<!DOCTYPE svg PUBLIC "-//W3C//DTD SVG 1.0//EN" "http://www.w3.org/TR/2001/REC-SVG-20010904/DTD/svg10.dtd" >
<svg xmlns="http://www.w3.org/2000/svg" >
<metadata>
<version>1.0</version>
<id><![CDATA[Eurostile LT W01 Bold Outline]]></id>
<vendor>Monotype Imaging Inc.</vendor>
<credits>
<name>Fonts.com WebFonts</name>
<URL>http://webfonts.fonts.com</URL>
<role>Home of the Web fonts</role>
</credits>
<license>
<URL>http://webfonts.fonts.com/Legal</URL>
</license>
<copyright></copyright>
<trademark></trademark>
<licensee>
<name></name>
</licensee>
</metadata>
<defs >
<font horiz-adv-x="582" id="1adda654-54ce-4848-8071-905847040e2a">
<font-face font-family="" panose-1="2 11 8 4 2 2 2 5 2 4" ascent="977" descent="-277" units-per-em="1000" alphabetic="0">
</font-face>
<missing-glyph horiz-adv-x="333" />

<glyph unicode="&#xA;" />
<glyph unicode="&#xD;" />
<glyph unicode=" " horiz-adv-x="333" />
<glyph unicode="!" horiz-adv-x="333" d="M64 723H268V248H64V723ZM245 270V701H87V270H245ZM64 190H268V0H64V190ZM245 22V168H87V22H245Z"  />
<glyph unicode="&quot;" horiz-adv-x="428" d="M256 701V583L289 429H349L385 583V701H256ZM408 723V582L368 407H271L233 583V723H408ZM43 701V583L76 429H136L172 583V701H43ZM195 723V582L155 407H58L20 583V723H195Z"  />
<glyph unicode="#" horiz-adv-x="667" d="M287 424H399L373 305H262L287 424ZM618 532H533L569 701H459L423 532H311L347 701H237L201 532H90V424H178L152 305H49V197H128L91 22H201L238 197H350L313 22H423L459 197H577V305H483L509 424H618V532ZM641 402H526L510 327H600V175H477L440 0H286L323 175H255L219 0H65L101 175H26V327H134L151 402H67V554H183L219 723H374L339 554H405L440 723H596L560 554H641V402ZM288 327H356L373 402H305L288 327Z"  />
<glyph unicode="$" horiz-adv-x="667" d="M210 240V206Q210 184 223 176T271 167V280L243 283Q186 289 143 300T72 336T30 401T16 505Q16 578 35 620T101 688Q129 704 168 711T272 719V771H379V719Q450 719 497 708T572 672T613 606T625 502H428L427 519Q426 536 420 543T397 550H379V450L400 448Q461 442 508 430T586 394T634 329T651 224Q651 89 562 33Q549 25 534 19T498 9T448 2T379 -2V-65H272V-2H259Q131 -2 70 47T9 198V240H210ZM31 218V201Q31 20 257 20H295V-43H356V20Q402 20 435 22T493 30T534 43T564 61Q628 110 628 230Q628 285 615 320T573 376T503 409T402 426L356 431V573H386Q420 573 433 564T448 533L449 524H600V530Q600 622 555 658Q538 672 518 679T460 692Q443 694 422 695T356 698V749H295V698Q253 697 224 695T173 689T137 680T109 665Q89 652 76 638T55 604T43 561T39 503Q39 448 51 412T88 355T152 322T247 306L294 301V145Q287 144 281 144T271 144Q226 144 207 158T187 207V218H31ZM295 432L278 433Q234 435 214 452T193 509Q193 542 211 557T276 573H295V432ZM272 550H264Q216 550 216 509Q216 480 230 469T272 456V550ZM356 299L369 298Q424 293 444 281T464 235V211Q464 177 444 161T373 145H356V299ZM379 168Q414 168 427 178T441 211V230Q441 252 430 261T379 274V168Z"  />
<glyph unicode="%" horiz-adv-x="1000" d="M166 584Q166 596 167 603T175 613T192 618T222 619Q248 619 255 613T262 579V443Q262 426 261 417T253 403T236 397T205 396Q180 396 173 402T166 431V584ZM45 444Q45 406 49 385T65 347Q82 324 111 315T194 305Q265 305 303 314T359 346Q366 355 370 367T377 397T381 443T382 510Q382 548 381 575T376 621T367 652T353 675Q336 695 303 703T213 711Q159 711 128 703T76 677Q45 648 45 588V444ZM346 21H429L649 702H567L346 21ZM551 723H679L446 0H316L551 723ZM23 588Q23 658 60 693Q83 713 118 722T213 732Q276 732 312 722T369 689Q379 677 386 663T397 628T402 579T404 510Q404 469 403 440T398 391T390 358T376 333Q356 306 314 295T194 284Q134 284 101 295T48 335Q34 354 29 378T23 444V588ZM188 431Q188 422 191 420T205 417Q230 417 235 420T240 441V579Q240 592 237 595T222 598Q199 598 194 596T188 584V431ZM739 291Q739 303 740 310T748 320T765 325T795 326Q821 326 828 320T835 286V150Q835 133 834 124T826 110T809 104T778 103Q753 103 746 109T739 138V291ZM618 151Q618 113 622 92T638 54Q655 31 684 22T767 12Q838 12 876 21T932 53Q939 62 943 74T950 104T954 150T955 217Q955 255 954 282T949 328T940 359T926 382Q909 402 876 410T786 418Q732 418 701 410T649 384Q618 355 618 295V151ZM596 295Q596 365 633 400Q656 420 691 429T786 439Q849 439 885 429T942 396Q952 384 959 370T970 335T975 286T977 217Q977 176 976 147T971 98T963 65T949 40Q929 13 887 2T767 -9Q707 -9 674 2T621 42Q607 61 602 85T596 151V295ZM761 138Q761 129 764 127T778 124Q803 124 808 127T813 148V286Q813 299 810 302T795 305Q772 305 767 303T761 291V138Z"  />
<glyph unicode="&amp;" horiz-adv-x="750" d="M589 49Q571 32 552 22T507 5T444 -3T351 -6Q306 -6 272 -5T212 1T164 12T124 29Q99 42 82 59T54 101T39 160T34 240Q34 284 39 314T55 366T87 401T137 426Q125 437 117 448T104 472T97 503T95 544Q95 596 105 628T138 682Q153 695 170 704T212 719T267 727T342 730Q391 730 427 728T491 720T539 705T575 683Q590 670 600 655T617 621T627 576T630 517V481H443V516Q443 535 442 545T431 561T403 567T350 568Q329 568 318 567T300 562T293 551T291 531Q291 523 291 518T295 508T304 498T321 483L502 332V391H689V342Q689 309 689 286T687 244T682 212T675 186L775 105L671 -15L589 49ZM667 16L742 103L650 178Q658 201 662 230T666 288V369H525V283L308 466Q295 477 287 485T275 500T270 515T268 533Q268 551 271 562T282 580T307 588T350 590Q390 590 413 588T448 580T463 560T466 523V503H607V524Q607 551 605 571T598 608T584 636T563 660Q548 674 530 683T485 697T422 705T334 708Q262 708 224 701T161 673Q138 654 128 624T118 542Q118 519 121 502T130 471T148 443T178 416Q140 405 117 393T80 362T62 313T57 239Q57 198 60 169T71 118T92 81T125 54Q142 43 161 36T204 25T258 18T330 16Q385 16 424 17T493 25T544 43T585 79L667 16ZM481 163L474 154Q471 149 466 146T448 142T413 139T355 138Q308 138 280 141T237 156T218 190T213 248Q213 296 218 317T238 348L251 356L481 163ZM250 326Q246 324 244 320T240 305T238 280T237 239Q237 213 240 198T255 174T289 164T348 161Q378 161 396 161T424 161T437 162T442 165L250 326Z"  />
<glyph unicode="&apos;" horiz-adv-x="215" d="M43 701V583L76 429H136L172 583V701H43ZM195 723V582L155 407H58L20 583V723H195Z"  />
<glyph unicode="(" horiz-adv-x="333" d="M240 229Q240 202 241 186T247 162T261 151T287 148H308V0H251Q198 0 159 11T94 50T56 121T43 229V494Q43 558 55 602T93 673T158 711T251 723H308V575H287Q270 575 261 572T247 561T241 537T240 494V229ZM217 514Q217 561 230 579T285 597V701H256Q205 701 169 691T110 656T77 592T66 494V229Q66 171 76 132T110 68T169 33T256 22H285V126Q243 126 230 144T217 209V514Z"  />
<glyph unicode=")" horiz-adv-x="333" d="M93 494Q93 521 92 537T86 561T72 572T46 575H25V723H82Q135 723 174 712T239 673T277 602T290 494V229Q290 165 278 121T240 50T175 12T82 0H25V148H46Q62 148 71 151T86 162T92 186T93 229V494ZM116 209Q116 186 113 170T103 144T82 130T48 126V22H77Q128 22 164 32T223 67T256 131T267 229V494Q267 552 257 591T223 655T164 690T77 701H48V597Q90 597 103 579T116 514V209Z"  />
<glyph unicode="*" horiz-adv-x="460" d="M10 583L129 581L67 678L175 735L230 631L285 735L394 678L332 581L450 583V464L331 466L393 369L285 312L230 416L175 312L66 369L128 466L10 464V583ZM293 557L362 670L295 706L231 589L164 706L97 670L167 557L31 560V487L167 490L98 377L165 341L229 458L296 341L363 377L293 490L429 487V559L293 557Z"  />
<glyph unicode="+" horiz-adv-x="667" d="M74 333V207H268V21H399V207H593V333H399V519H268V333H74ZM246 354V540H421V354H615V186H421V0H246V186H52V354H246Z"  />
<glyph unicode="&#x2c;" horiz-adv-x="333" d="M75 -28H96Q118 -28 124 -23T130 0H75V196H260V47Q260 4 253 -28T228 -81T182 -114T110 -125H75V-28ZM98 172V22H153V-3Q153 -25 143 -37T105 -50H98V-103H107Q145 -103 170 -95T210 -68T231 -22T237 47V172H98Z"  />
<glyph unicode="-" horiz-adv-x="365" d="M339 362V189H26V362H339ZM49 340V211H316V340H49Z"  />
<glyph unicode="." horiz-adv-x="333" d="M72 197H262V0H72V197ZM239 22V175H95V22H239Z"  />
<glyph unicode="/" horiz-adv-x="390" d="M223 731H387L163 -9H-2L223 731ZM29 13H146L356 709H240L29 13Z"  />
<glyph unicode="0" horiz-adv-x="667" d="M58 259Q58 186 75 139T127 63T213 24T333 13Q402 13 453 24T539 63T591 138T608 259V464Q608 537 591 584T539 660T453 699T333 710Q264 710 213 699T127 660T75 585T58 464V259ZM255 248Q255 221 257 206T266 184T289 175T333 173Q361 173 376 174T399 183T409 206T411 248V475Q411 502 409 517T400 539T377 548T333 550Q305 550 290 549T267 540T257 517T255 475V248ZM35 464Q35 542 53 594T109 676T202 719T333 732Q408 732 463 720T556 677T612 594T631 464V259Q631 181 613 129T557 47T464 4T333 -9Q258 -9 203 3T110 46T54 129T35 259V464ZM232 475Q232 507 235 526T248 555T278 569T333 572Q367 572 387 569T418 556T431 526T434 475V248Q434 216 431 197T418 168T388 154T333 151Q298 151 278 154T248 167T235 197T232 248V475Z"  />
<glyph unicode="1" horiz-adv-x="667" d="M302 723H540V0H326V500L171 368L39 508L302 723ZM310 701L71 505L172 399L349 548V22H517V701H310Z"  />
<glyph unicode="2" horiz-adv-x="667" d="M39 457V494Q39 529 41 554T49 600T64 635T87 666Q104 684 125 696T174 717T239 728T324 732Q414 732 473 721T567 682T617 607T632 487Q632 434 624 398T595 337T538 296T447 267L305 233Q268 224 259 216T250 194V181H628V0H33V190Q33 238 45 272T84 330T150 370T245 400L353 425Q376 430 388 434T407 445T414 467T415 505Q415 524 413 535T403 553T378 560T332 562Q300 562 283 561T258 553T249 532T247 493V457H39ZM605 22V159H227V186Q227 199 229 209T237 228T255 242T289 253L443 289Q495 301 527 315T578 353T602 410T608 496Q608 559 595 600T549 665T462 700T328 710Q281 710 247 707T186 697T142 680T108 653Q83 627 73 593T62 502V479H224V508Q224 532 227 547T242 570T275 581T331 584Q367 584 388 582T420 570T434 544T438 498Q438 471 436 455T426 430T403 415T359 403L252 378Q201 366 164 351T103 315T68 262T56 185V22H605Z"  />
<glyph unicode="3" horiz-adv-x="667" d="M241 262V223Q241 203 244 192T258 173T287 164T338 162Q363 162 378 164T401 172T411 191T414 224Q414 246 412 258T402 277T378 284T332 286H272V453H346Q368 453 380 454T399 462T406 482T407 519Q407 534 405 542T395 555T368 560T317 561Q294 561 281 559T260 552T250 536T248 507V471H41V518Q41 574 53 609T94 673Q111 689 130 700T174 719T233 729T313 732Q355 732 387 731T445 726T489 717T527 703Q624 660 624 523Q624 462 607 429T547 372Q571 361 587 348T615 316T631 273T636 214Q636 153 622 115T576 51Q556 35 534 24T482 5T416 -5T332 -9Q278 -9 237 -5T164 8T110 31T68 66Q56 79 49 92T37 122T31 163T29 220V262H241ZM52 197Q52 149 62 120T99 69Q133 40 186 27T325 13Q371 13 406 16T468 25T517 41T556 65Q588 90 600 124T613 219Q613 251 607 274T588 315T551 346T494 372Q525 383 545 396T578 426T596 468T601 526Q601 629 544 667Q511 690 457 700T306 710Q264 710 232 707T176 697T134 677T102 647Q64 600 64 527V493H225V517Q225 555 244 569T320 583Q357 583 379 581T412 572T427 552T430 516Q430 476 426 462T408 440Q399 435 383 433T339 431H295V308H340Q371 308 390 305T420 294T433 269T437 225Q437 198 433 182T417 156T382 143T321 140Q290 140 270 143T239 156T223 179T218 217V240H52V197Z"  />
<glyph unicode="4" horiz-adv-x="667" d="M600 723V303H657V135H600V0H380V135H15V355L287 723H600ZM38 348V157H403V22H577V157H634V281H577V701H300L38 348ZM410 608V274H172L410 608ZM387 537L215 296H387V537Z"  />
<glyph unicode="5" horiz-adv-x="667" d="M248 237V203Q248 192 249 185T256 173T273 167T303 165H353Q370 165 381 167T398 175T406 193T409 225V261Q409 282 409 295T408 317T405 330T400 338Q390 348 342 348H299Q266 348 259 343T252 321V311H52V723H594V561H252V483Q273 500 302 507T380 514Q443 514 485 503T559 467Q579 451 592 432T614 388T626 329T630 249Q630 178 619 136T580 65Q543 26 484 9T326 -9Q178 -9 109 40T40 195V237H248ZM229 583H571V701H75V333H229Q230 343 232 350T242 362T263 369T298 371H341Q375 371 391 368T417 355Q421 350 424 344T429 328T431 301T432 261V225Q432 176 417 159T360 142H296Q255 142 241 154T226 202V215H63V196Q63 151 75 120T116 66Q149 38 197 27T326 15Q407 15 461 26T547 63T593 134T607 244Q607 285 604 315T595 369T580 409T556 439Q527 467 485 478T375 490Q347 490 327 488T291 479T260 462T229 434V583Z"  />
<glyph unicode="6" horiz-adv-x="667" d="M409 503V524Q409 537 408 544T398 556T371 560T321 561Q300 561 288 560T271 552T264 532T262 496V418Q275 428 287 434T315 445T348 450T391 452Q434 452 466 449T523 439T566 421T598 392Q621 366 629 330T638 231Q638 199 636 175T630 131T619 97T602 69Q585 48 563 33T510 9T436 -5T338 -9Q283 -9 244 -6T176 6T127 27T89 60Q76 75 67 92T53 131T45 180T42 244V456Q42 531 54 579T95 659Q112 679 134 693T184 715T250 728T337 732Q413 732 466 722T553 689T602 631T618 544V503H409ZM239 482Q239 518 241 538T254 568T283 581T337 584Q366 584 384 582T413 575T428 560T432 535V525H595V544Q595 590 582 622T537 673T454 701T329 710Q237 710 186 692T103 631Q92 616 85 600T74 564T67 519T65 459V240Q65 208 67 183T75 138T89 103T110 73Q125 56 144 45T191 26T256 16T347 13Q415 13 457 19T532 42Q556 54 574 74T603 122Q615 153 615 229Q615 259 614 281T608 319T598 349T583 373Q557 404 513 417T391 431Q364 431 344 429T307 419T274 401T239 372V482ZM329 313Q368 313 391 311T426 301T441 279T445 241V215Q445 191 442 177T429 154T400 143T347 140H322Q295 140 278 142T251 153T238 175T234 214Q234 247 237 266T250 296T278 310T329 313ZM333 291Q307 291 292 289T270 281T260 263T257 230Q257 206 258 192T268 172T292 164T338 162Q368 162 385 163T410 169T420 186T422 219V242Q422 259 420 268T408 283T382 289T333 291Z"  />
<glyph unicode="7" horiz-adv-x="667" d="M43 723H621V549L375 0H139L380 537H43V723ZM66 701V559H415L174 22H362L598 551V701H66Z"  />
<glyph unicode="8" horiz-adv-x="667" d="M129 377Q106 390 91 403T68 433T56 470T52 520Q52 580 65 617T110 682Q127 697 145 706T189 721T250 729T335 732Q370 732 397 731T445 726T484 718T520 706Q546 695 567 676T601 633Q620 595 620 523Q620 461 602 428T542 374Q592 350 613 314T634 211Q634 150 619 109T569 42Q549 27 529 17T480 2T416 -6T328 -9Q289 -9 260 -8T208 -2T165 8T128 23Q78 48 55 92T32 208Q32 275 55 314T129 377ZM494 374Q525 388 545 400T577 429T592 469T597 526Q597 580 584 613T542 667Q525 679 506 687T460 700T401 708T322 710Q245 710 200 700T125 664Q99 642 87 607T75 517Q75 490 79 470T95 434T127 404T181 374Q146 363 122 349T83 316T62 269T55 206Q55 155 68 121T111 62Q128 48 147 39T191 24T248 16T324 13Q372 13 407 15T469 22T515 36T552 57Q583 80 597 117T611 211Q611 246 605 271T585 314T549 346T494 374ZM322 590Q347 590 364 590T391 588T407 584T416 578Q424 570 426 555T428 500Q428 474 426 460T415 438T386 429T333 427Q301 427 283 429T256 437T245 458T243 496Q243 530 244 549T253 577T277 588T322 590ZM330 568Q303 568 291 567T273 562Q269 559 268 547T266 508Q266 481 267 470T274 455Q278 452 291 451T343 450Q374 450 384 451T398 456Q402 461 403 475T405 521Q405 541 404 549T399 561Q394 565 380 566T330 568ZM334 314Q371 314 391 312T422 301T435 273T438 221Q438 190 436 173T423 148T389 138T323 136Q289 136 270 138T241 148T229 171T226 214Q226 254 228 269T237 294Q241 300 247 304T264 310T291 313T334 314ZM328 290Q299 290 283 289T260 282T251 264T250 229Q250 196 252 182T259 164Q264 160 278 159T330 158Q370 158 386 159T408 165Q413 170 414 181T415 224Q415 254 413 266T405 283Q402 285 398 286T385 288T363 289T328 290Z"  />
<glyph unicode="9" horiz-adv-x="667" d="M259 221V200Q259 186 261 179T271 168T296 164T346 163Q367 163 379 164T397 172T404 192T406 228V305Q393 295 381 289T353 278T320 273T277 271Q233 271 201 274T145 284T102 302T70 331Q47 357 39 392T30 491Q30 555 38 591T66 654Q82 675 104 690T158 714T232 728T330 732Q385 732 424 729T492 717T541 696T579 663Q592 648 601 631T615 591T623 542T626 478V268Q626 192 614 144T573 64Q556 44 534 30T484 8T418 -5T331 -9Q255 -9 202 1T115 34T66 93T50 180V221H259ZM429 242Q429 206 427 186T414 156T385 143T331 140Q302 140 284 142T255 149T240 164T236 189V199H73V180Q73 134 86 102T131 51T214 23T339 14Q385 14 420 18T482 32T529 57T565 93Q576 108 583 124T594 160T601 205T603 265V482Q603 547 593 584T558 650Q543 667 524 678T477 697T411 707T321 710Q253 710 211 704T136 681Q112 669 94 648T65 601Q53 568 53 492Q53 433 60 403T85 350Q111 318 154 305T276 292Q303 292 322 294T357 302T389 319T429 348V242ZM313 583Q338 583 354 583T381 582T398 580T410 575Q424 569 429 555T434 510Q434 477 431 458T418 428T389 414T339 411Q300 411 277 413T242 422T227 444T223 482Q223 517 225 537T236 568T263 580T313 583ZM329 561Q288 561 274 559T255 552Q250 548 248 534T246 482Q246 465 248 456T259 441T285 435T333 433Q359 433 374 435T398 443T408 461T411 493Q411 517 410 531T400 551T376 559T329 561Z"  />
<glyph unicode=":" horiz-adv-x="333" d="M72 519H262V322H72V519ZM239 344V497H95V344H239ZM72 197H262V0H72V197ZM239 22V175H95V22H239Z"  />
<glyph unicode=";" horiz-adv-x="333" d="M72 519H262V322H72V519ZM239 344V497H95V344H239ZM74 -28H95Q117 -28 123 -23T129 0H74V196H259V47Q259 4 252 -28T227 -81T181 -114T109 -125H74V-28ZM97 172V22H152V-3Q152 -25 142 -37T104 -50H97V-103H106Q144 -103 169 -95T209 -68T230 -22T236 47V172H97Z"  />
<glyph unicode="&lt;" horiz-adv-x="667" d="M73 204L585 23V158L247 267L585 376V511L73 329V204ZM51 343L607 541V362L316 267L607 173V-7L51 190V343Z"  />
<glyph unicode="=" horiz-adv-x="667" d="M78 221V102H588V221H78ZM78 447V328H588V447H78ZM610 468V307H56V468H610ZM610 242V81H56V242H610Z"  />
<glyph unicode="&gt;" horiz-adv-x="667" d="M593 330L81 511V376L419 267L81 158V23L593 205V330ZM615 191L59 -7V172L350 267L59 361V541L615 344V191Z"  />
<glyph unicode="?" horiz-adv-x="554" d="M148 248V290Q148 329 152 354T172 400T217 438T296 481Q309 487 317 492T329 502T334 516T335 539Q335 554 334 562T326 575T308 581T273 582Q252 582 241 581T224 575T217 560T215 533V509H18V554Q18 646 63 688Q76 700 92 708T129 722T180 730T251 732Q292 732 323 731T378 726T422 718T457 704Q538 665 538 542Q538 510 535 486T524 443T500 407T460 376L369 320Q355 311 351 303T346 273V248H148ZM192 531V546Q192 579 209 592T271 605Q298 605 315 603T341 593T354 574T358 542Q358 523 357 511T350 491T336 477T311 463Q266 441 239 425T196 393T176 357T171 309V270H323V282Q323 294 324 302T331 317T345 332T371 349L445 394Q466 407 480 421T501 452T512 491T515 542Q515 644 451 682Q437 690 421 695T384 704T333 708T264 710Q219 710 188 708T136 701T100 687T74 665Q41 628 41 553V531H192ZM346 190V0H148V190H346ZM171 22H323V168H171V22Z"  />
<glyph unicode="@" horiz-adv-x="945" d="M482 270Q520 270 534 258T549 226Q549 221 549 217T547 208Q543 190 538 177T524 156T501 144T465 140Q430 140 418 153T406 189Q406 196 408 210T418 237T441 260T482 270ZM462 364Q412 364 378 347T323 301T293 238T283 165Q283 105 318 74T431 43Q454 43 472 45T505 53T534 71T562 101Q576 71 600 56T671 40Q717 40 756 53T825 95T870 167T887 271Q887 342 863 400T791 499T674 562T514 584Q395 584 310 555T169 471T88 339T62 166Q62 87 88 25T166 -81T296 -148T480 -172Q552 -172 608 -164T728 -143V-49Q656 -65 602 -71T498 -78Q415 -78 357 -61T261 -11T207 66T190 166Q190 241 209 301T267 404T366 470T508 493Q646 493 712 437T778 272Q778 226 771 198T751 153T724 130T692 124Q655 124 655 155Q655 166 660 189L698 352H580L569 297Q549 364 462 364ZM462 386Q493 386 517 378T556 350L561 374H725L681 185Q677 166 677 158Q677 145 692 145Q703 145 714 149T735 166T750 205T756 272Q756 370 696 420T508 471Q431 471 376 450T284 388T230 292T212 166Q212 115 227 74T277 4T366 -40T498 -56Q548 -56 607 -49T750 -22V-161Q715 -168 683 -174T618 -184T551 -191T480 -194Q369 -194 287 -170T150 -99T68 15T40 166Q40 267 67 348T151 487T299 575T514 606Q609 606 682 583T806 515T883 409T909 271Q909 205 891 158T841 79T766 33T671 18Q629 18 601 30T557 66Q531 40 503 31T431 21Q342 21 302 58T261 165Q261 206 271 245T305 316T367 367T462 386ZM482 249Q464 249 453 242T436 225T429 205T427 189Q427 177 435 170T465 162Q497 162 509 174T526 212Q527 215 527 222Q527 234 517 241T482 249Z"  />
<glyph unicode="A" horiz-adv-x="749" d="M532 723L747 0H512L479 124H272L239 0H2L218 723H532ZM513 701H236L32 22H222L253 146H499L532 22H717L513 701ZM375 596L467 270H282L375 596ZM313 292H436L375 523L313 292Z"  />
<glyph unicode="B" horiz-adv-x="728" d="M447 723Q573 723 628 675T683 520Q683 459 665 426T602 372Q654 353 676 317T698 209Q698 137 679 94T616 28Q599 19 582 14T543 5T489 1T414 0H69V723H447ZM92 22H403Q455 22 488 23T544 27T580 35T609 49Q645 72 660 107T675 207Q675 245 670 271T651 315T612 347T548 371Q580 381 601 393T636 422T654 463T660 520Q660 569 649 603T613 660T547 691T447 701H92V22ZM420 565Q440 565 451 563T469 554T476 533T478 493Q478 470 477 457T468 437T446 428T405 426H269V565H420ZM292 448H405Q425 448 435 449T448 453Q452 455 453 462T455 495Q455 513 455 522T451 536T440 542T420 543H292V448ZM416 308Q442 308 456 306T478 298T488 277T490 239Q490 211 488 195T479 170T459 160T422 157H269V308H416ZM292 179H424Q443 179 450 180T460 183Q465 186 466 197T467 240Q467 264 466 272T459 282Q454 284 447 285T414 286H292V179Z"  />
<glyph unicode="C" horiz-adv-x="701" d="M445 440V459Q445 476 445 486T443 503T440 513T434 521Q414 541 354 541Q330 541 315 538T291 525T279 499T275 457V258Q275 234 278 220T290 197T317 186T363 183Q390 183 406 185T431 194T442 216T445 255V294H673V244Q673 176 661 134T619 61Q601 42 578 29T523 8T452 -5T360 -9Q306 -9 264 -4T190 12T133 39T90 80Q64 113 52 157T40 264V474Q40 590 109 659Q129 679 152 693T205 715T272 728T356 732Q465 732 529 712T628 647Q649 621 657 579T666 464V440H445ZM468 272V252Q468 223 464 205T448 177T414 164T355 161Q325 161 305 165T274 181T257 211T252 258V461Q252 519 275 541T359 563Q436 563 457 531Q463 521 465 507T468 462H643V481Q643 547 633 586T597 649Q564 681 505 695T347 710Q303 710 269 706T208 693T159 670T118 635Q89 603 76 565T63 474V264Q63 143 117 83Q135 64 156 51T207 29T273 17T359 13Q413 13 452 16T521 28T571 50T609 84Q650 136 650 237V272H468Z"  />
<glyph unicode="D" horiz-adv-x="771" d="M414 723Q561 723 636 669Q663 649 681 626T711 568T726 488T731 376Q731 308 728 259T716 175T693 114T657 68Q636 47 613 34T558 14T479 3T367 0H54V723H414ZM77 22H376Q430 22 469 24T536 31T584 46T623 69Q647 87 663 110T689 165T703 243T707 351Q707 413 705 455T698 528T683 578T660 616Q591 701 413 701H77V22ZM261 556H390Q436 556 458 552T494 535Q502 528 507 518T515 490T519 445T520 376Q520 327 519 295T514 242T504 210T489 190Q475 178 454 173T395 168H261V556ZM284 191H397Q433 191 453 195T483 219T495 276T498 380Q498 435 496 465T483 511T451 529T392 533H284V191Z"  />
<glyph unicode="E" horiz-adv-x="665" d="M633 723V539H283V450H614V288H283V184H633V0H54V723H633ZM77 701V22H610V162H260V310H591V428H260V561H610V701H77Z"  />
<glyph unicode="F" horiz-adv-x="601" d="M575 723V537H282V439H559V255H282V0H54V723H575ZM77 701V22H259V277H536V417H259V559H552V701H77Z"  />
<glyph unicode="G" horiz-adv-x="761" d="M500 483V499Q500 516 497 525T481 540T444 546T378 548Q341 548 320 544T289 523T277 470T274 372Q274 324 274 293T276 242T279 212T285 197Q292 189 308 186T369 182H405Q441 182 461 184T492 192T505 209T508 239V254H398V413H725V302Q725 267 725 243T723 202T720 173T715 148Q703 101 676 70T602 19Q569 5 516 -2T382 -9Q332 -9 294 -6T225 5T170 23T126 52Q103 72 85 97T58 150Q49 178 45 230T40 356Q40 414 42 453T48 522T61 574T82 619Q120 686 202 715Q228 724 277 728T407 732Q462 732 501 730T569 721T619 705T659 680Q692 653 706 616T721 518V483H500ZM421 391V276H531V243Q531 217 527 201T510 175T472 163T405 160H370Q320 160 298 164T267 181Q262 187 259 197T254 226T252 276T251 355Q251 402 252 433T255 485T262 519T274 541Q286 558 308 564T379 570Q423 570 451 568T494 559T516 542T522 514V505H697V524Q697 574 685 606T645 662Q628 676 609 685T563 700T498 708T403 710Q344 710 307 709T246 703T204 692T169 674Q109 638 83 564Q64 511 64 381Q64 319 65 278T70 207T81 158T99 120Q135 57 214 31Q239 23 282 18T384 13Q442 13 485 17T561 29T617 52T657 86Q670 102 679 120T693 163T701 223T703 309V391H421Z"  />
<glyph unicode="H" horiz-adv-x="783" d="M729 723V0H497V271H287V0H54V723H287V464H497V723H729ZM77 22H264V293H520V22H706V701H520V442H264V701H77V22Z"  />
<glyph unicode="I" horiz-adv-x="340" d="M286 0H54V723H286V0ZM77 701V22H263V701H77Z"  />
<glyph unicode="J" horiz-adv-x="625" d="M577 251Q577 210 575 180T568 128T555 90T535 59Q518 39 498 26T450 6T383 -5T292 -9Q247 -9 214 -6T156 4T112 22T77 50Q64 64 56 80T42 120T34 175T32 253V324H247V281Q247 242 248 221T253 189T266 178T292 176Q319 176 330 178T344 186Q346 189 346 196T347 225V723H577V251ZM370 701V218Q370 196 368 184T358 165T335 156T294 154Q270 154 256 156T235 169T225 198T223 249V302H55V255Q55 214 56 186T62 137T72 103T89 76Q103 58 121 46T163 27T221 16T300 13Q345 13 378 15T435 24T478 41T510 66Q522 79 530 94T544 128T552 173T554 234V701H370Z"  />
<glyph unicode="K" horiz-adv-x="693" d="M716 723L463 372L723 0H466L284 257V0H54V723H284V479L449 723H716ZM462 701L261 405V701H76V22H261V326L478 22H680L434 370L673 701H462Z"  />
<glyph unicode="L" horiz-adv-x="623" d="M611 196V0H54V723H284V196H611ZM77 701V22H588V174H261V701H77Z"  />
<glyph unicode="M" horiz-adv-x="1004" d="M950 723V0H728V403L611 0H392L265 403V0H54V723H365L501 249L640 723H950ZM657 701L501 168L347 701H77V22H242V552L410 22H594L751 552V22H927V701H657Z"  />
<glyph unicode="N" horiz-adv-x="836" d="M370 723L568 254V723H782V0H470L267 463V0H54V723H370ZM77 22H244V573L487 22H759V701H591V145L353 701H77V22Z"  />
<glyph unicode="O" horiz-adv-x="767" d="M376 732Q481 732 545 717T651 667Q673 648 687 625T711 567T723 485T727 369Q727 327 726 295T724 238T719 195T712 162Q698 111 671 77T599 22Q566 6 513 -1T377 -9Q333 -9 300 -7T239 0T190 14T146 35Q79 74 57 146Q49 171 45 226T40 358Q40 422 42 467T51 545T69 601T97 645Q116 669 141 685T199 712T275 727T376 732ZM372 710Q325 710 289 707T226 697T177 679T137 652Q114 632 99 604T74 539Q69 516 66 467T63 352Q63 290 66 247T76 172T95 120T125 80Q144 62 167 49T220 28T291 17T385 13Q432 13 468 16T533 25T584 41T624 66Q646 84 661 107T686 162T700 239T704 344Q704 401 703 442T698 512T688 563T672 603Q643 661 569 687Q540 698 490 704T372 710ZM387 564Q436 564 462 558T499 535Q505 527 508 518T514 491T517 445T518 369Q518 318 518 287T515 238T508 209T498 190Q486 174 462 167T386 160Q337 160 310 167T271 192Q264 201 260 212T254 242T250 293T249 375Q249 415 250 441T253 485T260 513T271 533Q284 551 309 557T387 564ZM376 542Q335 542 317 537T289 517Q284 509 281 500T275 474T273 432T272 367Q272 325 272 298T275 253T280 225T290 207Q300 193 320 188T378 182Q421 182 444 185T479 205T493 258T495 362Q495 402 495 429T493 475T488 503T481 519Q472 532 449 537T376 542Z"  />
<glyph unicode="P" horiz-adv-x="720" d="M395 723Q473 723 526 713T615 677Q637 661 652 643T676 600T688 541T692 459Q692 411 689 377T679 318T660 275T630 240Q613 224 594 214T549 197T490 189T411 186H286V0H54V723H395ZM263 22V208H415Q454 208 482 210T531 216T570 228T602 248Q621 263 634 280T655 323T666 384T669 467Q669 510 666 541T654 594T631 632T594 662Q560 682 512 691T391 701H77V22H263ZM402 557Q430 557 446 554T472 541T484 511T487 459Q487 420 485 398T472 366T442 353T385 350H261V557H402ZM284 372H384Q413 372 429 373T453 382T462 405T464 449Q464 480 463 497T455 523T436 533T401 535H284V372Z"  />
<glyph unicode="Q" horiz-adv-x="767" d="M747 80L655 -26L597 21Q577 12 557 7T511 -2T453 -7T378 -9Q328 -9 289 -6T219 5T164 25T118 54Q95 73 80 95T56 150T44 228T40 337Q40 399 41 442T46 515T56 566T71 606Q87 638 114 663T178 705Q207 718 256 725T368 732Q465 732 527 721T631 683Q659 665 677 642T707 584T722 500T727 381Q727 321 726 281T722 212T714 162T699 120L747 80ZM651 5L716 77L667 117Q677 131 684 151T696 203T702 275T704 373Q704 435 701 479T690 556T669 610T637 649Q618 665 595 677T540 696T467 706T371 710Q327 710 293 707T232 698T184 683T145 659Q95 620 75 548Q69 525 66 472T63 346Q63 259 69 208T91 127Q109 91 138 68T210 30Q239 21 280 17T385 13Q425 13 456 15T512 21T558 31T599 47L651 5ZM451 293L388 222L453 167Q444 163 424 162T383 160Q340 160 316 165T277 183Q268 191 263 203T254 238T250 297T249 392Q249 427 249 450T252 488T259 514T270 533Q283 550 306 557T375 564Q423 564 447 561T485 548Q495 541 501 532T512 505T517 457T518 377Q518 343 518 307T515 242L451 293ZM357 220L449 323L495 287V311Q495 384 495 425T492 486T486 513T475 526Q464 535 442 538T370 542Q335 542 318 538T291 520Q285 512 282 503T276 476T273 431T272 360Q272 322 272 296T275 253T280 225T290 207Q299 194 317 188T367 182H402L357 220Z"  />
<glyph unicode="R" horiz-adv-x="706" d="M419 723Q486 723 527 713T601 677Q621 661 634 644T656 603T668 549T672 475Q672 436 668 409T655 362T629 327T587 298Q614 285 630 271T655 236T667 185T670 110V0H442V132Q442 156 441 170T432 190T408 198T362 200H281V0H54V723H419ZM77 22H258V222H362Q397 222 417 220T448 207T462 179T465 129V22H647V113Q647 159 644 188T629 236T597 268T538 297Q572 312 593 326T627 360T644 410T649 483Q649 518 647 542T640 586T625 619T601 647Q571 676 529 688T420 701H77V22ZM258 559H382Q410 559 427 556T453 541T465 510T468 457Q468 425 465 406T451 377T419 365T360 362H258V559ZM281 384H360Q391 384 408 385T434 393T443 414T445 454Q445 482 444 499T436 524T417 534T382 537H281V384Z"  />
<glyph unicode="S" horiz-adv-x="723" d="M261 243V220Q261 203 263 193T275 177T301 171T349 169Q376 169 393 169T420 170T436 172T444 175Q450 178 452 188T454 222Q454 237 453 246T446 261T428 270T391 275L252 285Q199 289 161 302T97 341T59 406T46 503Q46 635 113 686Q131 699 151 708T198 722T262 730T353 732Q403 732 437 731T497 725T541 714T579 695Q621 671 638 634T655 533V491H441V512Q441 526 439 534T428 547T401 553T352 555Q324 555 309 554T285 546T275 529T273 497Q273 484 275 477T285 465T310 458T355 453L455 446Q517 441 560 428T631 389T670 323T682 224Q682 154 665 111T609 38Q591 25 570 16T521 2T454 -6T365 -9Q305 -9 261 -6T184 4T128 22T87 51Q74 63 66 76T52 107T45 148T43 205V243H261ZM66 221V200Q66 172 68 151T75 114T89 86T109 64Q125 50 146 40T198 24T270 16T367 13Q411 13 443 14T501 20T545 30T581 46Q622 69 640 113T659 230Q659 282 648 317T612 375T548 408T453 424L348 432Q316 434 297 438T268 450T255 470T251 501Q251 525 254 539T268 562T297 574T344 577Q382 577 405 575T442 568T459 552T464 526V513H632V538Q632 625 584 664Q568 677 549 686T502 700T437 707T349 710Q306 710 275 709T220 704T179 695T145 680Q106 659 88 616T69 500Q69 450 80 415T113 357T171 322T254 307L391 297Q419 295 436 292T462 281T473 259T476 222Q476 193 474 182T466 162Q461 157 456 154T442 150T419 148T381 147Q292 147 275 152Q238 163 238 209V221H66Z"  />
<glyph unicode="T" horiz-adv-x="615" d="M605 531H423V0H193V531H10V723H605V531ZM33 701V553H216V22H400V553H582V701H33Z"  />
<glyph unicode="U" horiz-adv-x="771" d="M279 290Q279 261 279 245T280 219T283 206T288 198Q292 193 298 190T317 184T348 182T397 181Q421 181 437 182T463 185T478 191T487 202Q489 206 490 210T492 224T493 248T494 290V723H723V290Q723 243 719 207T706 142T683 91T649 52Q629 35 606 23T551 4T477 -6T379 -9Q332 -9 297 -7T236 0T188 12T148 32Q119 49 98 76T65 135Q60 150 57 164T52 195T49 235T48 290V723H279V290ZM517 701V290Q517 260 517 242T515 213T512 196T505 184Q494 170 472 165T397 159Q363 159 341 160T304 165T281 173T266 187Q263 192 261 197T258 212T257 240T256 290V701H71V290Q71 263 71 245T73 213T75 189T80 167Q91 123 114 94T175 44Q204 28 251 21T377 13Q435 13 477 16T551 28T605 49T646 83Q661 99 671 118T688 161T697 216T700 290V701H517Z"  />
<glyph unicode="V" horiz-adv-x="739" d="M238 723L369 245L504 723H735L526 0H209L4 723H238ZM220 701H35L226 22H509L705 701H523L367 169L220 701Z"  />
<glyph unicode="W" horiz-adv-x="1014" d="M632 723L709 293L783 723H1006L873 0H577L503 428L423 0H135L8 723H229L301 293L381 723H632ZM36 701L155 22H405L503 551L598 22H854L978 701H804L709 160L612 701H399L301 160L208 701H36Z"  />
<glyph unicode="X" horiz-adv-x="690" d="M254 723L346 502L438 723H690L514 374L710 0H455L346 245L233 0H-20L177 374L5 723H254ZM239 701H45L203 372L17 22H218L346 301L471 22H672L487 374L652 701H455L346 442L239 701Z"  />
<glyph unicode="Y" horiz-adv-x="687" d="M461 723H713L458 256V0H229V256L-26 723H226L343 473L461 723ZM210 701H14L252 260V22H435V260L673 701H475L343 420L210 701Z"  />
<glyph unicode="Z" horiz-adv-x="666" d="M636 538L321 190H640V0H20V181L342 537H39V723H636V538ZM43 173V22H617V168H270L613 546V701H62V559H393L43 173Z"  />
<glyph unicode="[" horiz-adv-x="333" d="M318 723V574H255V149H318V0H54V723H318ZM77 701V22H295V127H232V596H295V701H77Z"  />
<glyph unicode="\" horiz-adv-x="333" d="M237 13H327L97 690H7L237 13ZM-24 712H114L357 -8H220L-24 712Z"  />
<glyph unicode="]" horiz-adv-x="333" d="M279 0H15V149H78V574H15V723H279V0ZM256 22V701H38V596H101V127H38V22H256Z"  />
<glyph unicode="^" horiz-adv-x="580" d="M184 354L289 563L394 354H521L348 701H233L58 354H184ZM23 333L218 723H363L556 333H380L288 512L198 333H23Z"  />
<glyph unicode="_" horiz-adv-x="500" d="M500 -125H0V-75H500V-125Z"  />
<glyph unicode="`" horiz-adv-x="304" d="M180 723L298 556H143L-50 723H180ZM151 577H257L168 702H8L151 577Z"  />
<glyph unicode="a" horiz-adv-x="602" d="M352 364Q352 392 343 400T301 409Q272 409 264 403T255 380V373H55V390Q55 428 64 451T95 492Q108 502 124 509T165 520T224 526T309 528Q356 528 390 525T448 515T490 497T520 469Q539 446 546 419T554 344V0H355V27Q332 9 299 0T217 -9Q167 -9 131 2T71 36Q51 56 41 84T30 158Q30 206 41 238T75 291Q87 302 100 309T131 320T172 327T227 329Q255 329 274 328T308 325T332 318T352 306V364ZM377 22H531V345Q531 390 523 416T492 464Q480 476 465 484T429 497T377 504T306 506Q261 506 229 505T174 499T136 490T110 475Q78 447 78 401V395H234Q236 415 250 423T298 431Q321 431 336 428T359 417T371 396T375 361V261Q360 276 347 285T318 299T283 305T234 307Q175 307 143 300T91 274Q53 240 53 158Q53 80 92 47T222 13Q324 13 377 70V22ZM300 232Q325 232 340 230T363 222T373 202T375 166Q375 143 373 130T363 111T340 102T299 100Q270 100 253 102T227 110T216 128T213 160Q213 187 216 201T228 222Q236 228 249 230T300 232ZM286 210Q268 210 258 209T243 204T237 190T236 164Q236 148 237 140T243 127T259 123T291 122Q308 122 318 122T333 122T341 124T346 127Q349 130 350 141T352 179Q352 191 351 197T344 206T324 209T286 210Z"  />
<glyph unicode="b" horiz-adv-x="601" d="M251 0H50V723H256V489Q277 508 308 518T377 528Q476 528 524 470Q536 455 544 439T556 401T563 349T565 274Q565 219 563 181T555 117T539 73T514 40Q488 14 456 3T375 -9Q333 -9 306 0T251 32V0ZM233 701H73V22H229V84Q257 47 292 30T376 13Q465 13 505 65Q516 80 523 97T534 139T540 199T542 284Q542 315 542 336T539 372T534 399T524 424Q507 465 471 485T380 506Q334 506 297 489T233 439V701ZM376 204Q376 176 374 160T364 136T341 125T301 123Q278 123 265 125T245 137T235 162T233 207V309Q233 338 236 355T247 383T270 396T309 399Q336 399 349 394T370 375Q374 367 375 356T376 310V204ZM256 186Q256 160 265 153T306 145Q336 145 344 152T353 186V335Q353 361 345 369T312 377Q277 377 267 368T256 328V186Z"  />
<glyph unicode="c" horiz-adv-x="587" d="M361 310V351Q361 359 359 363T351 370T332 374T300 375Q283 375 273 374T257 369T250 358T248 338V187Q248 171 249 162T257 148T273 142T302 140Q338 140 349 146T361 173V222H559V180Q559 120 542 84T482 22Q467 13 452 7T416 -2T368 -7T300 -9Q259 -9 230 -7T178 0T139 13T106 36Q67 67 49 119Q36 157 36 264Q36 306 39 337T48 391T63 430T86 462Q103 481 122 493T166 513T226 524T306 528Q352 528 386 525T445 515T489 497T521 470Q559 426 559 349V310H361ZM384 200V173Q384 141 367 130T301 118Q278 118 263 121T240 132T228 154T225 190V338Q225 356 228 367T240 385T264 394T305 397Q340 397 353 395T373 385Q384 374 384 352V332H536V352Q536 390 526 417T493 465Q481 477 465 484T428 497T377 504T307 506Q272 506 246 505T199 499T162 489T132 472Q108 455 94 434T72 387T62 330T60 263Q60 219 63 187T72 131T90 90T119 57Q133 45 149 37T187 23T236 15T303 13Q346 13 377 16T432 25T472 42T503 68Q521 89 528 114T536 178V200H384Z"  />
<glyph unicode="d" horiz-adv-x="601" d="M345 723H551V0H350V32Q322 9 295 0T227 -9Q173 -9 136 6T74 55Q63 69 56 86T44 129T38 191T36 279Q36 316 37 342T41 387T49 421T64 451Q109 528 223 528Q300 528 345 489V723ZM368 439Q344 471 306 488T219 506Q137 506 95 455Q84 441 77 426T66 392T61 345T59 280Q59 240 60 212T63 163T68 127T77 98Q110 13 229 13Q319 13 372 84V22H528V701H368V439ZM368 207Q368 179 366 163T357 137T337 126T301 123Q275 123 260 125T237 135T227 160T225 204V309Q225 327 225 338T226 357T228 369T233 378Q240 390 253 394T291 399Q315 399 330 396T354 382T365 354T368 308V207ZM248 186Q248 160 256 153T294 145Q326 145 335 152T345 186V327Q345 358 335 367T289 377Q264 377 256 369T248 334V186Z"  />
<glyph unicode="e" horiz-adv-x="596" d="M237 221V175Q237 156 239 145T247 129T265 122T298 120H319Q352 120 360 126T368 152V169H568V150Q568 76 515 34Q499 22 482 14T441 0T386 -7T310 -9Q266 -9 236 -8T185 -3T147 7T116 24Q96 37 77 59T47 113Q41 130 39 157T36 231Q36 279 37 311T41 366T49 405T64 437Q93 488 156 513Q176 521 211 524T301 528Q346 528 378 526T434 518T476 503T510 480Q541 452 554 412T568 308V221H237ZM390 147V143Q390 120 377 109T323 98H293Q269 98 254 101T229 112T217 133T214 168V243H545V302Q545 332 543 354T537 394T524 425T505 451Q490 467 473 478T432 495T374 503T289 506Q252 506 226 504T179 497T144 482T113 460Q97 445 87 428T70 386T62 324T59 235Q59 200 61 175T67 132T79 99T98 71Q114 54 129 44Q156 26 199 20T320 13Q362 13 392 15T444 23T481 38T511 62Q528 79 535 98T545 147H390ZM216 307V339Q216 368 218 381T230 405Q241 416 255 419T307 423Q335 423 352 421T378 410T391 388T395 352V307H216ZM372 329V352Q372 368 370 377T361 392T342 399T307 401Q284 401 271 400T250 393T240 377T237 350V329H372Z"  />
<glyph unicode="f" horiz-adv-x="405" d="M10 519H70V548Q70 575 72 595T78 631T90 659T109 683Q122 696 138 705T176 720T226 728T293 731Q320 731 348 729T401 725V582Q372 587 355 588T326 590Q297 590 288 580T279 536V519H401V373H279V0H70V373H10V519ZM93 22H256V395H378V497H256V548Q256 584 271 598T329 612Q340 612 352 611T378 608V704Q359 706 337 707T290 709Q218 709 178 697T117 657Q103 639 98 616T93 548V497H33V395H93V22Z"  />
<glyph unicode="g" horiz-adv-x="601" d="M354 519H551V79Q551 50 551 32T550 0T548 -23T543 -45Q534 -87 517 -115T469 -161T395 -186T287 -194Q204 -194 156 -181T83 -138Q75 -128 70 -118T62 -96T58 -66T56 -26V-17H252V-26Q252 -48 259 -53T293 -59Q309 -59 319 -58T334 -51T341 -37T343 -14V41Q302 12 228 12Q172 12 137 25T77 69Q65 84 57 99T45 135T38 183T36 250Q36 291 37 319T40 368T47 405T58 436Q97 528 237 528Q313 528 354 491V519ZM366 -16Q366 -54 352 -67T292 -81Q257 -81 243 -71T228 -39H79Q79 -77 89 -102T124 -143T187 -165T285 -172Q374 -172 423 -156T497 -103Q508 -86 516 -61T526 -6Q527 5 527 24T528 77V497H377V436Q348 474 316 490T232 506Q128 506 86 438Q78 425 73 410T65 373T61 319T59 242Q59 191 62 164T75 115Q108 34 227 34Q270 34 300 44T366 83V-16ZM298 399Q322 399 335 395T357 379Q361 373 363 368T366 352T367 327T368 287Q368 257 368 238T367 206T365 187T363 175Q353 137 290 137Q249 137 234 159Q230 165 228 171T225 188T223 214T222 253Q222 286 222 307T224 343T228 365T234 379Q242 390 256 394T298 399ZM294 377Q277 377 267 375T253 361T247 327T246 262Q246 226 247 206T254 175T268 162T295 159Q312 159 322 162T337 176T343 210T345 272Q345 311 344 332T339 363T324 375T294 377Z"  />
<glyph unicode="h" horiz-adv-x="610" d="M50 723H258V481Q314 528 400 528Q495 528 536 471Q551 450 556 428T562 364V0H355V332Q355 358 346 366T307 375Q290 375 281 374T266 367T260 353T258 328V0H50V723ZM235 22V332Q235 370 249 383T306 397Q348 397 363 384T378 335V22H539V362Q539 402 534 424T514 463Q478 506 399 506Q351 506 313 491T235 437V701H73V22H235Z"  />
<glyph unicode="i" horiz-adv-x="304" d="M254 723V576H50V723H254ZM231 598V701H73V598H231ZM50 519H254V0H50V519ZM231 22V497H73V22H231Z"  />
<glyph unicode="j" horiz-adv-x="304" d="M50 576V723H254V576H50ZM73 701V598H231V701H73ZM254 73Q254 32 253 4T247 -43T236 -77T217 -104Q196 -129 162 -140T70 -151Q53 -151 35 -150T1 -145V-5H15Q37 -5 43 0T50 21V519H254V73ZM24 -126Q43 -129 70 -129Q124 -129 153 -120T200 -87Q210 -75 216 -63T225 -34T230 9T231 73V497H73V25Q73 -1 62 -13T24 -26V-126Z"  />
<glyph unicode="k" horiz-adv-x="576" d="M255 723V365L351 519H579L420 264L609 0H372L255 169V0H50V723H255ZM73 701V22H232V240L386 22H566L393 264L539 497H366L232 284V701H73Z"  />
<glyph unicode="l" horiz-adv-x="304" d="M254 0H50V723H254V0ZM73 22H231V701H73V22Z"  />
<glyph unicode="m" horiz-adv-x="899" d="M249 519V489Q277 510 306 519T378 528Q429 528 461 517T526 478Q559 506 591 517T674 528Q793 528 832 462Q837 453 840 443T846 416T850 376T851 313V0H647V326Q647 343 646 352T640 367T627 373T603 375Q588 375 579 373T564 365T557 346T555 314V0H349V314Q349 335 348 347T342 365T328 373T302 375Q286 375 277 374T264 366T258 349T256 319V0H50V519H249ZM233 22V315Q233 341 235 357T245 382T265 394T300 397Q324 397 338 394T359 382T369 357T372 312V22H533V315Q533 340 536 356T546 381T567 393T600 397Q623 397 637 395T658 385T668 363T670 324V22H828V314Q828 350 827 373T824 413T817 439T806 459Q771 506 672 506Q646 506 627 503T590 493T558 475T525 446Q497 479 466 492T382 506Q356 506 335 503T296 493T262 473T226 441V497H73V22H233Z"  />
<glyph unicode="n" horiz-adv-x="610" d="M249 519V488Q275 509 305 518T378 528Q498 528 538 470Q552 450 557 425T562 347V0H356V322Q356 339 354 349T346 365T330 373T302 375Q287 375 278 374T264 367T258 351T256 322V0H50V519H249ZM233 22V315Q233 341 235 357T245 382T266 394T300 397Q347 397 363 382T379 322V22H539V347Q539 396 533 422T512 465Q475 506 380 506Q354 506 334 503T296 492T261 472T226 441V497H73V22H233Z"  />
<glyph unicode="o" horiz-adv-x="594" d="M297 528Q342 528 376 525T435 516T480 499T513 476Q527 462 535 448T549 412T556 360T558 284Q558 235 557 202T552 146T544 106T529 75Q516 53 497 38T449 12T382 -4T295 -9Q218 -9 173 1T98 35Q80 48 69 65T50 107T39 166T36 247Q36 300 38 338T47 403T64 449T89 482Q103 495 121 503T163 517T220 525T297 528ZM290 506Q218 506 173 497T102 462T68 390T59 270Q59 227 60 196T66 141T76 102T93 72Q116 40 162 27T289 13Q370 13 419 25T494 65Q520 92 526 128Q531 159 533 203T535 299Q535 335 533 361T526 406T514 438T494 462Q480 474 463 482T421 496T365 504T290 506ZM292 407Q349 407 363 386Q366 381 368 373T372 351T373 316T374 264Q374 210 373 180T364 136T340 119T295 116Q269 116 254 119T232 135T223 175T221 249Q221 306 222 338T230 385T251 403T292 407ZM289 385Q272 385 263 383T250 368T245 331T244 260Q244 160 250 148Q254 142 261 140T291 138Q317 138 327 139T341 146Q347 153 349 175T351 254Q351 314 350 339T344 371Q337 385 289 385Z"  />
<glyph unicode="p" horiz-adv-x="605" d="M256 -189H50V519H251V486Q275 507 306 517T379 528Q479 528 525 470Q537 454 545 436T559 393T567 336T569 259Q569 222 568 195T564 146T556 108T544 76Q504 -9 376 -9Q338 -9 311 0T256 30V-189ZM228 497H73V-167H233V80Q287 13 377 13Q466 13 507 63Q517 76 524 92T535 129T541 180T543 248Q543 288 542 315T539 362T534 396T524 425Q491 506 378 506Q353 506 335 503T300 492T266 471T228 436V497ZM317 396Q341 396 355 393T376 375T384 331T386 251Q386 206 384 180T376 141T358 124T324 120Q296 120 280 123T254 139T243 174T240 237Q240 305 242 335T252 376Q259 387 274 391T317 396ZM309 374Q276 374 270 362Q266 354 265 319T263 232Q263 200 264 182T272 155T290 144T323 142Q339 142 346 144T357 153Q358 156 359 159T361 173T362 201T363 253Q363 289 363 309T362 339T360 354T357 361Q353 368 343 371T309 374Z"  />
<glyph unicode="q" horiz-adv-x="604" d="M352 519H554V-189H348V30Q322 10 294 1T228 -9Q174 -9 139 4T80 47Q68 62 60 80T46 122T38 176T36 248Q36 286 37 314T41 365T48 405T60 438Q80 482 122 505T226 528Q268 528 300 517T352 486V519ZM371 -167H531V497H375V436Q354 457 338 471T305 492T269 503T223 506Q134 506 96 454Q86 440 79 424T68 387T63 337T61 269Q61 232 62 206T65 159T70 123T78 95Q93 55 132 34T229 13Q273 13 306 28T371 80V-167ZM291 396Q341 396 353 375Q359 364 361 330T364 224Q364 190 361 170T349 138T324 124T279 120Q258 120 246 123T227 143T220 190T218 278Q218 318 220 341T230 377T252 392T291 396ZM291 374Q254 374 247 360Q245 357 244 352T243 337T242 306T241 253Q241 220 241 201T242 173T244 160T247 153Q252 142 281 142Q302 142 314 144T332 155T339 182T341 232Q341 285 339 320T334 362Q330 369 321 371T291 374Z"  />
<glyph unicode="r" horiz-adv-x="533" d="M248 519V491Q264 501 277 508T305 519T334 526T368 528Q469 528 503 479Q513 464 517 439T521 372V279H332V304Q332 331 332 345T327 367T316 375T294 376Q281 376 274 374T262 367T257 351T255 322V0H50V519H248ZM73 22H232V318Q232 342 234 357T243 382T261 394T291 398Q312 398 325 396T344 384T353 359T355 316V301H498V372Q498 417 494 437T479 471Q464 490 439 498T370 506Q349 506 332 503T298 494T264 476T225 448V497H73V22Z"  />
<glyph unicode="s" horiz-adv-x="600" d="M234 164V152Q234 139 235 132T242 120T258 115T289 114Q318 114 334 115T357 120T366 132T368 155Q368 165 367 171T361 182T346 187T319 190L233 196Q179 200 141 210T79 240T45 288T34 357Q34 402 46 435T85 488Q114 510 161 519T294 528Q366 528 415 521T495 498T538 454T551 388V365H354V380Q354 389 353 394T345 403T327 407T294 408Q271 408 259 407T240 402T232 391T230 371Q230 363 231 358T236 348T251 342T280 339L372 333Q417 330 453 322T516 294T556 245T570 167Q570 126 557 94T519 41Q503 28 484 19T439 3T380 -6T305 -9Q226 -9 173 -1T87 26T41 77T27 156V164H234ZM50 142Q52 104 65 79T107 40T184 19T306 13Q382 13 427 22T499 52Q521 70 533 100T546 169Q546 209 534 235T498 277T441 300T366 311L273 318Q252 319 240 322T220 331T210 347T207 372Q207 390 210 401T221 418T245 426T287 429H317Q355 429 366 421T377 393V387H528V397Q528 452 482 478Q456 493 414 499T299 506Q228 506 181 499T107 476T68 431T57 360Q57 324 66 299T96 256T151 230T236 217L326 211Q347 209 360 207T379 198T388 183T391 160Q391 137 389 124T377 103T352 94T307 91H277Q239 91 225 102T211 133V142H50Z"  />
<glyph unicode="t" horiz-adv-x="549" d="M504 519V373H278V223Q278 191 279 173T284 147T296 136T318 134Q346 134 353 141T361 178V229H529V169Q529 142 528 123T522 89T511 64T494 43Q441 -9 292 -9Q215 -9 172 5T102 54Q85 77 78 109T71 197V373H10V519H71V615H278V519H504ZM384 207V178Q384 139 370 125T314 111Q290 111 278 117T261 137Q259 142 258 147T256 162T255 185T255 223V395H481V497H255V593H94V497H33V395H94V197Q94 143 101 114T127 62Q149 36 187 25T293 14Q370 14 415 26T482 65Q495 80 500 106T506 177V207H384Z"  />
<glyph unicode="u" horiz-adv-x="610" d="M255 198Q255 181 257 171T264 155T279 147T305 145Q320 145 329 147T344 155T351 171T353 199V519H560V0H359V34Q340 16 306 5T223 -6Q161 -6 126 7T70 51Q64 60 60 71T53 96T49 130T48 177V519H255V198ZM382 22H537V497H376V200Q376 174 374 162T365 142Q348 123 303 123Q255 123 241 145Q236 153 235 163T233 198V497H71V176Q71 149 72 131T75 100T82 78T93 60Q112 36 142 26T224 15Q280 15 316 31T382 83V22Z"  />
<glyph unicode="v" horiz-adv-x="595" d="M211 519L295 198L383 519H595L434 0H160L0 519H211ZM192 497H31L177 22H417L564 497H400L296 115L192 497Z"  />
<glyph unicode="w" horiz-adv-x="834" d="M531 519L584 262L626 519H825L731 0H470L418 255L364 0H100L9 519H210L254 262L304 519H531ZM120 22H347L418 358L488 22H713L798 497H646L585 142L512 497H323L252 142L191 497H36L120 22Z"  />
<glyph unicode="x" horiz-adv-x="573" d="M233 519L288 383L348 519H573L429 269L591 0H360L288 158L218 0H-18L147 270L4 519H233ZM22 22H202L288 213L376 22H550L402 269L534 497H363L288 323L218 497H43L174 269L22 22Z"  />
<glyph unicode="y" horiz-adv-x="592" d="M208 519L301 195L379 519H592L439 -23Q425 -72 407 -105T364 -157T303 -185T219 -194Q166 -194 126 -186V-48Q139 -49 147 -49T162 -49Q200 -49 218 -38T240 3H159L0 519H208ZM189 497H30L177 25H267Q264 -31 241 -51T167 -72Q165 -72 160 -72T149 -71V-167Q163 -169 183 -170T220 -172Q266 -172 297 -165T351 -139T389 -92T417 -17L562 497H398L303 106L189 497Z"  />
<glyph unicode="z" horiz-adv-x="538" d="M511 366L281 147H518V0H20V152L254 373H35V519H511V366ZM488 375V497H58V395H309L43 142V22H495V125H225L488 375Z"  />
<glyph unicode="{" horiz-adv-x="333" d="M40 250Q61 245 73 238T91 222T98 203T100 183Q100 148 98 118T96 43Q96 9 105 -16T134 -58T188 -83T270 -91H293V21H274Q248 21 239 33T229 76Q229 105 233 141T237 200Q237 239 220 261T161 294Q203 306 220 328T237 389Q237 412 233 448T229 513Q229 543 238 555T274 568H293V680H270Q221 680 188 672T135 648T105 606T96 546Q96 502 98 472T100 406Q100 396 99 386T91 367T73 351T40 339V250ZM209 295Q238 278 248 255T259 200Q259 174 255 140T251 76Q251 42 274 42H315V-112H270Q215 -112 178 -103T117 -74T84 -26T74 43Q74 77 76 110T78 183Q78 190 77 197T69 211T51 223T18 231V358Q39 361 51 366T69 378T76 392T78 406Q78 446 76 479T74 546Q74 586 84 615T117 663T177 691T270 701H315V547H274Q251 547 251 513Q251 484 255 450T259 389Q259 357 249 335T209 295Z"  />
<glyph unicode="|" horiz-adv-x="333" d="M97 701V-61H236V701H97ZM258 723V-82H75V723H258Z"  />
<glyph unicode="}" horiz-adv-x="333" d="M293 339Q272 343 260 350T242 367T235 386T233 406Q233 441 235 471T237 546Q237 580 228 605T199 647T145 672T63 680H40V568H59Q85 568 94 556T104 513Q104 484 100 448T96 389Q96 350 113 328T172 295Q130 283 113 261T96 200Q96 177 100 141T104 76Q104 46 95 34T59 21H40V-91H63Q112 -91 145 -83T198 -59T228 -17T237 43Q237 87 235 117T233 183Q233 193 234 203T242 222T260 238T293 250V339ZM124 294Q95 311 85 334T74 389Q74 415 78 449T82 513Q82 547 59 547H18V701H63Q118 701 155 692T216 663T249 615T259 546Q259 512 257 479T255 406Q255 399 256 392T264 378T282 366T315 358V231Q294 228 282 223T264 211T257 197T255 183Q255 143 257 110T259 43Q259 3 249 -26T216 -74T156 -102T63 -112H18V42H59Q82 42 82 76Q82 105 78 139T74 200Q74 232 84 254T124 294Z"  />
<glyph unicode="~" horiz-adv-x="667" d="M441 309Q420 309 394 321T338 347T279 374T220 386Q152 386 111 333T66 179H177Q179 211 189 233T226 255Q249 255 275 243T329 217T387 190T447 178Q517 178 557 230T601 385H489Q487 348 478 329T441 309ZM441 331Q455 331 460 346T468 407H623Q623 280 575 218T447 156Q416 156 385 168T324 194T270 221T226 233Q212 233 206 218T198 157H44Q44 223 57 270T93 348T149 393T220 408Q252 408 283 396T344 370T398 343T441 331Z"  />
<glyph unicode="&#xA0;" horiz-adv-x="333" />
<glyph unicode="&#xA1;" horiz-adv-x="333" d="M268 -189H64V280H268V-189ZM87 258V-167H245V258H87ZM268 333H64V519H268V333ZM87 497V355H245V497H87Z"  />
<glyph unicode="&#xA2;" horiz-adv-x="667" d="M507 649L467 518Q539 505 570 462T602 337Q602 333 602 326T601 310H403L351 141Q355 140 363 140Q387 140 395 150T403 191V222H601V208Q601 173 599 148T590 103T572 68T545 39Q528 25 510 16T469 1T415 -7T346 -10Q336 -10 325 -10T303 -8L266 -127H165L205 1Q175 9 152 23T108 61Q96 76 87 94T73 137T66 193T63 267Q63 313 67 347T80 407T104 452T141 486Q172 508 215 517T326 527Q332 527 344 527T366 525L404 649H507ZM195 -105H249L286 15Q296 14 303 14T317 13T330 13T347 13Q406 13 440 18T498 35Q520 47 535 60T559 93T572 138T576 200H424V171Q424 142 408 130T354 118Q343 118 336 118T319 120L403 391Q424 387 425 342V332H577V343Q577 390 564 424T522 475Q508 483 486 490T438 501L477 627H422L383 502Q360 504 343 505T302 506Q254 506 212 495T146 463Q112 436 99 390T85 261Q85 183 97 138T138 64Q157 45 178 35T233 17L195 -105ZM269 131Q255 136 250 152T244 201V349Q244 373 259 385T304 398H351L269 131ZM320 375H309Q283 375 275 368T267 341V193L320 375Z"  />
<glyph unicode="&#xA3;" horiz-adv-x="667" d="M101 425Q100 435 100 447T99 473Q99 495 99 510T100 537T102 557T107 578Q118 620 139 649T195 700Q223 717 264 724T370 732Q446 732 499 721T585 686T632 622T647 526V490H442V511Q442 544 431 553T382 563Q361 563 349 561T330 553T321 536T319 506V425H506V271H324Q322 238 316 218T296 183H659V0H47V177Q84 179 97 190T110 234V271H29V425H101ZM52 403V293H133V224Q133 196 119 178T70 157V22H636V161H243Q259 173 270 186T289 214T299 249T303 293H483V403H296V485Q296 506 296 520T298 542T301 556T306 565Q314 576 332 580T385 585Q431 585 448 570T465 512H624V534Q624 583 611 616T567 671T486 701T364 710Q281 710 234 694T158 637Q148 623 142 608T131 574T124 532T122 479Q122 470 122 462T122 446T123 428T125 403H52Z"  />
<glyph unicode="&#xA4;" horiz-adv-x="667" d="M334 424Q350 424 366 419T395 403T417 374T426 333Q426 307 417 289T395 259T365 242T334 236Q320 236 304 241T275 257T252 287T243 333Q243 357 251 374T273 402T302 418T334 424ZM333 538Q264 538 221 506L142 593L65 514L154 439Q144 425 133 401T121 333Q121 290 133 264T158 222L72 143L148 68L220 158Q242 140 274 131T334 122Q364 122 395 131T447 158L520 68L595 143L510 221Q524 238 536 263T548 332Q548 376 539 399T516 440L603 514L526 593L448 508Q425 522 396 530T333 538ZM333 560Q396 560 444 536L525 625L635 513L545 436Q556 418 563 394T570 332Q570 295 561 268T540 224L627 144L519 36L443 128Q419 113 392 107T334 100Q308 100 279 107T225 129L150 36L41 144L129 225Q118 243 109 269T99 333Q99 368 107 393T124 435L33 513L142 625L225 535Q272 560 333 560ZM334 402Q322 402 310 398T288 386T272 364T265 333Q265 312 271 298T288 275T311 262T334 258Q345 258 357 262T379 275T397 298T404 333Q404 369 381 385T334 402Z"  />
<glyph unicode="&#xA5;" horiz-adv-x="667" d="M242 308V224H89V123H242V22H425V123H578V224H425V308H578V409H472L638 702H447L336 446L223 702H30L196 409H89V308H242ZM67 286V431H158L-8 723H238L336 501L433 723H676L510 431H600V286H447V246H600V102H447V0H220V102H67V246H220V286H67Z"  />
<glyph unicode="&#xA6;" horiz-adv-x="333" d="M97 701V378H236V701H97ZM97 259V-61H236V259H97ZM258 281V-82H75V281H258ZM258 723V356H75V723H258Z"  />
<glyph unicode="&#xA7;" horiz-adv-x="667" d="M275 148Q275 134 287 129T334 124Q365 124 376 129T388 150Q388 156 387 160T380 168T362 173T329 180L258 192Q211 200 176 210T116 236T80 278T67 341Q67 383 85 410T145 454Q118 474 105 502T92 572Q92 644 133 684Q147 698 163 707T200 721T250 729T318 732Q362 732 394 730T449 722T489 708T520 685Q538 667 545 641T553 566H376V585Q376 596 366 599T321 602Q294 602 286 598T277 582Q277 576 278 572T285 565T303 558T336 550L446 527Q480 520 509 510T558 485T590 446T602 390Q602 312 521 277Q576 241 576 159Q576 71 525 32Q508 19 491 11T449 -1T389 -7T299 -9Q269 -9 247 -8T207 -3T175 7T145 24Q91 59 91 135V165H275V148ZM114 143V131Q114 71 159 41Q171 33 184 28T214 19T252 15T303 13Q340 13 366 14T413 17T449 22T479 31Q554 59 554 159Q554 202 536 230T473 285Q524 293 551 320T579 388Q579 417 569 437T540 470T495 492T439 507L343 527Q315 533 298 538T271 550T258 563T255 582Q255 605 269 614T321 624Q344 624 358 623T381 617T393 606T398 588H529V597Q529 623 519 645T491 680Q468 697 431 703T320 710Q285 710 261 709T218 704T185 694T159 678Q114 642 114 572Q114 527 133 498T194 449Q140 435 115 409T89 338Q89 306 102 285T140 249T196 227T267 212L334 201Q357 197 372 194T395 185T407 171T410 149Q410 124 391 113T326 102Q289 102 272 111T252 143H114ZM417 397Q440 391 448 383T457 360Q457 334 445 317T415 299Q403 299 388 303L267 332Q236 340 224 350T211 379Q211 404 223 419T255 435Q271 435 300 427L417 397ZM395 323Q407 320 412 320Q420 320 426 331T433 357Q433 365 429 369T411 376L268 411Q258 413 255 413Q246 413 240 405T234 382Q234 369 241 364T277 351L395 323Z"  />
<glyph unicode="&#xA8;" horiz-adv-x="304" d="M177 723H349V572H177V723ZM327 701H199V594H327V701ZM-45 723H127V572H-45V723ZM105 701H-23V594H105V701Z"  />
<glyph unicode="&#xA9;" horiz-adv-x="840" d="M594 405Q593 429 588 451T569 490T533 517T477 528H384Q315 528 283 496T250 387V331Q250 262 283 231T384 199H477Q592 199 595 333H486Q486 310 476 302T445 294H413Q380 294 371 306T361 353V370Q361 391 363 403T370 422T386 431T413 434H445Q465 434 474 428T484 405H594ZM75 362Q75 284 100 220T170 110T279 39T420 14Q497 14 561 39T670 110T741 219T766 360Q766 438 741 502T671 612T563 683T422 709Q345 709 281 684T171 613T100 503T75 362ZM151 362Q151 424 170 475T224 562T309 619T422 639Q482 639 532 619T617 562T671 474T691 360Q691 298 672 247T618 160T532 104T420 84Q360 84 310 104T225 161T171 249T151 362ZM174 362Q174 305 191 258T241 178T318 126T420 107Q477 107 523 125T601 176T651 256T668 360Q668 417 651 464T601 545T523 597T422 616Q365 616 319 598T241 547T192 466T174 362ZM52 362Q52 444 79 512T155 629T272 705T422 732Q503 732 570 705T686 629T762 512T789 360Q789 279 762 211T686 94T570 18T420 -9Q338 -9 271 18T155 94T79 211T52 362ZM461 384V398Q461 413 445 413H413Q395 413 390 405T384 370V353Q384 332 389 324T413 316H445Q455 316 459 320T463 337V355H618Q616 265 582 221T477 176H384Q306 176 267 212T228 331V387Q228 476 266 513T384 551H477Q517 551 543 537T586 500T608 446T616 384H461Z"  />
<glyph unicode="&#xAA;" horiz-adv-x="400" d="M196 506Q226 506 236 499T246 474Q246 451 236 445T191 438Q166 438 157 446T147 474Q147 491 155 498T196 506ZM245 379H358V607Q358 638 350 658T322 690T271 705T195 710Q156 710 129 707T86 694T62 667T54 621H163Q163 631 169 637T202 644Q229 644 237 635T245 589V534Q234 551 215 559T152 568Q98 568 71 547T43 468Q43 440 50 422T72 394T107 379T154 375Q184 375 203 382T245 412V379ZM223 372Q209 361 193 357T154 353Q122 353 98 358T56 376T30 411T21 468Q21 504 29 527T53 564T94 583T152 589Q199 589 223 579V589Q223 611 220 616T202 622Q190 622 187 616T184 599H32Q32 641 40 667T68 708T118 727T195 732Q246 732 281 727T338 708T370 670T380 607V357H223V372ZM196 485Q179 485 174 483T169 474Q169 466 173 463T191 460Q211 460 217 463T224 474Q224 480 219 482T196 485Z"  />
<glyph unicode="&#xAB;" horiz-adv-x="498" d="M479 420L371 266L484 113H339L229 266L339 420H479ZM352 398L257 266L353 135H438L344 266L436 398H352ZM262 420L154 266L267 113H122L12 266L122 420H262ZM135 398L40 266L136 135H221L127 266L219 398H135Z"  />
<glyph unicode="&#xAC;" horiz-adv-x="667" d="M72 433V307H439V123H569V433H72ZM591 455V101H417V285H50V455H591Z"  />
<glyph unicode="&#xAD;" horiz-adv-x="365" d="M339 362V189H26V362H339ZM49 340V211H316V340H49Z"  />
<glyph unicode="&#xAE;" horiz-adv-x="480" d="M196 540V598H266Q280 598 286 590T292 568Q292 558 287 549T269 540H196ZM149 434H196V502H259Q278 502 284 492T291 464V434H339V479Q339 496 332 504T302 522Q320 530 330 541T340 576Q340 638 277 638H149V434ZM240 711Q200 711 167 698T109 662T72 605T58 532Q58 492 71 460T108 404T165 368T240 355Q280 355 313 368T371 404T408 460T422 532Q422 572 409 605T371 661T314 698T240 711ZM240 732Q285 732 322 718T387 677T428 614T443 532Q443 488 428 452T386 389T322 349T240 334Q195 334 158 348T93 388T52 450T37 532Q37 576 52 613T94 676T158 717T240 732ZM130 657H275Q359 657 359 576Q359 557 352 544T332 523Q347 515 352 504T358 479V415H272V464Q272 483 261 483H215V415H130V657ZM266 559Q273 559 273 568Q273 579 265 579H215V559H266Z"  />
<glyph unicode="&#xAF;" horiz-adv-x="304" d="M334 703V590H-30V703H334ZM-8 682V611H312V682H-8Z"  />
<glyph unicode="&#xB0;" horiz-adv-x="400" d="M200 437Q231 437 256 447T300 475T328 519T338 574Q338 635 300 672T200 710Q169 710 144 700T100 672T72 628T62 573Q62 512 100 475T200 437ZM200 506Q168 506 152 526T135 573Q135 602 151 621T200 641Q232 641 249 621T266 574Q266 545 250 526T200 506ZM200 528Q222 528 233 541T244 574Q244 593 233 606T200 619Q178 619 167 606T156 573Q156 554 167 541T200 528ZM200 415Q128 415 85 458T41 573Q41 608 52 637T85 687T135 720T200 732Q236 732 265 721T316 688T348 638T360 574Q360 539 349 510T316 460T266 427T200 415Z"  />
<glyph unicode="&#xB1;" horiz-adv-x="667" d="M77 438V322H269V215H399V322H590V438H399V565H269V438H77ZM77 137V22H590V137H77ZM612 158V0H55V158H612ZM247 460V586H421V460H612V300H421V194H247V300H55V460H247Z"  />
<glyph unicode="&#xB2;" horiz-adv-x="500" d="M206 590Q208 605 217 614T257 623Q286 623 295 614T305 587Q305 570 298 559T268 541L205 524Q171 515 149 504T115 478T98 442T93 395V309H416V398H208Q208 418 214 429T239 445L317 466Q349 475 369 485T400 510T414 541T418 581Q418 619 409 644T380 684T328 705T249 711Q172 711 134 685T95 590H206ZM73 569Q73 615 84 646T117 697T172 724T249 732Q302 732 338 725T397 701T430 654T440 581Q440 555 436 535T419 498T383 469T323 446L245 425Q238 423 236 419H438V288H71V395Q71 426 76 449T96 490T135 521T199 544L262 561Q275 565 279 569T283 582Q283 593 279 597T257 602Q240 602 234 597T228 580V569H73Z"  />
<glyph unicode="&#xB3;" horiz-adv-x="500" d="M83 420V407Q83 305 254 305Q294 305 325 310T379 329T412 364T424 422Q424 460 405 483T351 514Q380 525 398 543T417 598Q417 660 380 685T249 711Q159 711 125 684T90 597H200Q203 611 212 619T247 628Q280 628 293 619T306 586Q306 566 295 557T248 548H227V477H250Q288 477 299 467T311 431Q311 408 298 398T250 387Q221 387 211 396T198 420H83ZM220 441Q220 423 226 416T250 408Q272 408 280 414T289 431Q289 445 281 450T243 456H205V569H246Q269 569 276 573T284 586Q284 598 276 602T247 607Q230 607 226 599T222 576H69Q69 617 78 646T108 695T163 723T249 732Q302 732 338 725T396 702T429 661T439 598Q439 568 429 549T398 516Q424 501 435 478T446 422Q446 381 433 355T395 312T335 290T254 284Q157 284 109 314T61 407V441H220Z"  />
<glyph unicode="&#xB4;" horiz-adv-x="304" d="M351 723L158 556H3L121 723H351ZM293 702H133L44 577H150L293 702Z"  />
<glyph unicode="&#xB5;" horiz-adv-x="667" d="M541 497H387V198Q387 175 386 166T381 150Q369 130 332 130Q302 130 290 141T278 182V497H124V-167H279V25Q324 25 351 39T394 95V22H541V497ZM563 0H372V27Q358 15 339 10T300 3V-189H102V519H300V182Q300 165 307 159T332 152Q356 152 362 161Q364 165 364 172T365 198V519H563V0Z"  />
<glyph unicode="&#xB6;" horiz-adv-x="700" d="M566 -167V572H624V702H266Q153 702 103 646T53 480Q53 417 68 375T109 307T172 272T253 261V-167H363V573H455V-167H566ZM433 -189V551H385V-189H231V239Q187 241 151 254T88 296T46 369T31 480Q31 600 86 661T266 723H646V550H588V-189H433Z"  />
<glyph unicode="&#xB7;" horiz-adv-x="333" d="M168 417Q190 417 210 408T245 384T268 349T277 307Q277 284 269 264T245 229T210 206T167 197Q144 197 124 205T89 229T66 264T57 307Q57 330 65 350T89 385T124 408T168 417ZM166 395Q130 395 105 369T79 307Q79 270 104 245T167 219Q204 219 229 244T255 307Q255 344 230 369T166 395Z"  />
<glyph unicode="&#xB8;" horiz-adv-x="304" d="M42 -207Q65 -212 85 -214T133 -216Q199 -216 227 -192T255 -131Q255 -100 233 -78T172 -56Q167 -56 161 -56T145 -58L186 0H125L81 -64V-102Q108 -99 122 -99Q142 -99 154 -107T167 -132Q167 -166 121 -166Q101 -166 83 -164T42 -156V-207ZM20 -130Q57 -138 80 -141T121 -145Q145 -145 145 -132Q145 -120 122 -120Q116 -120 101 -121T59 -125V-58L113 22H226L187 -36Q229 -40 253 -66T277 -131Q277 -176 244 -206T133 -237Q103 -237 78 -234T20 -224V-130Z"  />
<glyph unicode="&#xB9;" horiz-adv-x="500" d="M355 305V701H219L66 571L133 485L235 576V305H355ZM213 284V527L130 454L37 574L211 723H377V284H213Z"  />
<glyph unicode="&#xBA;" horiz-adv-x="400" d="M158 589Q158 620 169 626T199 632Q225 632 232 623T239 585V514Q239 492 237 480T231 461T219 454T199 452Q171 452 165 461T158 493V589ZM197 710Q150 710 119 704T70 681T44 639T36 572V513Q36 472 44 445T70 402T118 379T192 372Q246 372 279 379T330 405T355 455T362 537V581Q362 618 355 642T328 682T277 703T197 710ZM197 732Q252 732 288 725T345 700T374 653T383 581V537Q383 481 376 445T348 388T290 359T192 350Q142 350 108 357T53 384T23 434T14 513V572Q14 618 22 649T52 698T108 724T197 732ZM180 493Q180 482 183 478T199 474Q205 474 208 475T214 480T216 492T217 514V585Q217 600 214 605T199 610Q190 610 185 608T180 589V493Z"  />
<glyph unicode="&#xBB;" horiz-adv-x="498" d="M19 113L127 267L14 420H159L269 267L159 113H19ZM146 135L241 267L145 398H60L154 267L62 135H146ZM236 113L344 267L231 420H376L486 267L376 113H236ZM363 135L458 267L362 398H277L371 267L279 135H363Z"  />
<glyph unicode="&#xBC;" horiz-adv-x="1000" d="M317 305V701H181L28 571L95 485L197 576V305H317ZM175 284V527L92 454L-1 574L173 723H339V284H175ZM694 178L784 332V178H694ZM899 96H950V178H899V418H730L584 186V96H784V21H899V96ZM921 0H762V75H562V191L718 439H921V199H972V75H921V0ZM762 199V256L731 199H762ZM338 21H422L633 702H552L338 21ZM535 723H663L438 0H308L535 723Z"  />
<glyph unicode="&#xBD;" horiz-adv-x="1000" d="M324 21H408L619 702H538L324 21ZM521 723H649L424 0H294L521 723ZM726 302Q728 317 737 326T777 335Q806 335 815 326T825 299Q825 282 818 271T788 253L725 236Q691 227 669 216T635 190T618 154T613 107V21H936V110H728Q728 130 734 141T759 157L837 178Q869 187 889 197T920 222T934 253T938 293Q938 331 929 356T900 396T848 417T769 423Q692 423 654 397T615 302H726ZM593 281Q593 327 604 358T637 409T692 436T769 444Q822 444 858 437T917 413T950 366T960 293Q960 267 956 247T939 210T903 181T843 158L765 137Q758 135 756 131H958V0H591V107Q591 138 596 161T616 202T655 233T719 256L782 273Q795 277 799 281T803 294Q803 305 799 309T777 314Q760 314 754 309T748 292V281H593ZM317 305V701H181L28 571L95 485L197 576V305H317ZM175 284V527L92 454L-1 574L173 723H339V284H175Z"  />
<glyph unicode="&#xBE;" horiz-adv-x="1000" d="M694 178L784 332V178H694ZM899 96H950V178H899V418H730L584 186V96H784V21H899V96ZM35 420V407Q35 305 206 305Q246 305 277 310T331 329T364 364T376 422Q376 460 357 483T303 514Q332 525 350 543T369 598Q369 660 332 685T201 711Q111 711 77 684T42 597H152Q155 611 164 619T199 628Q232 628 245 619T258 586Q258 566 247 557T200 548H179V477H202Q240 477 251 467T263 431Q263 408 250 398T202 387Q173 387 163 396T150 420H35ZM172 441Q172 423 178 416T202 408Q224 408 232 414T241 431Q241 445 233 450T195 456H157V569H198Q221 569 228 573T236 586Q236 598 228 602T199 607Q182 607 178 599T174 576H21Q21 617 30 646T60 695T115 723T201 732Q254 732 290 725T348 702T381 661T391 598Q391 568 381 549T350 516Q376 501 387 478T398 422Q398 381 385 355T347 312T287 290T206 284Q109 284 61 314T13 407V441H172ZM921 0H762V75H562V191L718 439H921V199H972V75H921V0ZM762 199V256L731 199H762ZM358 21H442L653 702H572L358 21ZM555 723H683L458 0H328L555 723Z"  />
<glyph unicode="&#xBF;" horiz-adv-x="556" d="M419 280V248Q419 209 415 184T395 138T350 100T271 57Q257 51 250 46T238 36T233 22T232 -1Q232 -16 233 -24T241 -37T259 -43T294 -44Q315 -44 326 -43T343 -37T350 -22T352 5V29H549V-16Q549 -108 504 -150Q491 -162 475 -170T438 -184T386 -192T316 -194Q275 -194 244 -193T189 -188T145 -180T110 -166Q29 -127 29 -4Q29 28 32 52T43 95T67 131T107 162L198 218Q212 227 216 235T221 265V280H419ZM375 7V-8Q375 -41 358 -54T296 -67Q269 -67 252 -65T226 -55T213 -36T209 -4Q209 15 210 26T217 46T231 61T256 75Q301 97 328 113T371 145T391 181T396 229V258H244Q244 246 243 237T236 221T222 206T196 189L122 144Q101 131 87 117T66 86T55 47T52 -4Q52 -106 116 -144Q130 -152 146 -157T183 -166T234 -170T303 -172Q348 -172 379 -170T431 -163T467 -150T493 -127Q526 -90 526 -15V7H375ZM221 333V519H419V333H221ZM396 497H244V355H396V497Z"  />
<glyph unicode="&#xC0;" horiz-adv-x="749" d="M532 723L747 0H512L479 124H272L239 0H2L218 723H532ZM513 701H236L32 22H222L253 146H499L532 22H717L513 701ZM375 596L467 270H282L375 596ZM313 292H436L375 523L313 292ZM380 916L498 749H343L150 916H380ZM351 770H457L368 895H208L351 770Z"  />
<glyph unicode="&#xC1;" horiz-adv-x="749" d="M532 723L747 0H512L479 124H272L239 0H2L218 723H532ZM513 701H236L32 22H222L253 146H499L532 22H717L513 701ZM375 596L467 270H282L375 596ZM313 292H436L375 523L313 292ZM603 916L410 749H255L373 916H603ZM545 895H385L296 770H402L545 895Z"  />
<glyph unicode="&#xC2;" horiz-adv-x="749" d="M532 723L747 0H512L479 124H272L239 0H2L218 723H532ZM513 701H236L32 22H222L253 146H499L532 22H717L513 701ZM375 596L467 270H282L375 596ZM313 292H436L375 523L313 292ZM461 916L590 749H422L375 816L329 749H161L291 916H461ZM205 770H318L375 850L434 770H546L449 895H302L205 770Z"  />
<glyph unicode="&#xC3;" horiz-adv-x="749" d="M532 723L747 0H512L479 124H272L239 0H2L218 723H532ZM513 701H236L32 22H222L253 146H499L532 22H717L513 701ZM375 596L467 270H282L375 596ZM313 292H436L375 523L313 292ZM182 759Q185 794 196 823T226 873T270 905T324 917Q345 917 362 911T393 898T421 884T449 878Q460 878 467 888T477 916H576Q565 848 533 807T439 765Q421 765 405 770T373 782T345 794T318 800Q304 800 297 793T283 759H182ZM268 779Q274 802 286 811T316 821Q332 821 347 816T377 804T407 792T440 786Q485 786 510 812T552 896H493Q480 858 446 858Q431 858 417 864T389 877T358 890T323 896Q278 896 247 865T206 779H268Z"  />
<glyph unicode="&#xC4;" horiz-adv-x="749" d="M532 723L747 0H512L479 124H272L239 0H2L218 723H532ZM513 701H236L32 22H222L253 146H499L532 22H717L513 701ZM375 596L467 270H282L375 596ZM313 292H436L375 523L313 292ZM401 916H573V765H401V916ZM551 894H423V787H551V894ZM179 916H351V765H179V916ZM329 894H201V787H329V894Z"  />
<glyph unicode="&#xC5;" horiz-adv-x="749" d="M532 723L747 0H512L479 124H272L239 0H2L218 723H532ZM513 701H236L32 22H222L253 146H499L532 22H717L513 701ZM375 596L467 270H282L375 596ZM313 292H436L375 523L313 292ZM377 977Q402 977 423 968T461 943T487 906T497 860Q497 836 488 815T462 778T423 753T376 744Q350 744 328 753T290 778T264 815T254 860Q254 884 263 905T289 943T328 968T377 977ZM374 957Q354 957 336 950T305 929T283 898T275 860Q275 840 283 823T304 792T336 772T375 764Q396 764 414 771T446 792T468 822T476 860Q476 901 447 929T374 957ZM376 914Q399 914 415 898T432 859Q432 836 416 821T375 805Q352 805 336 820T319 859Q319 882 335 898T376 914ZM375 894Q361 894 351 884T340 860Q340 846 350 836T375 826Q390 826 400 835T410 859Q410 874 400 884T375 894Z"  />
<glyph unicode="&#xC6;" horiz-adv-x="999" d="M958 723V549H680V449H949V289H680V176H967V0H465V147H288L235 0H-4L297 723H958ZM218 22L273 169H488V22H944V154H657V311H926V427H657V571H935V701H312L30 22H218ZM430 585H488V284H315L430 585ZM347 306H465V563H445L347 306Z"  />
<glyph unicode="&#xC7;" horiz-adv-x="701" d="M224 -130Q261 -138 284 -141T325 -145Q349 -145 349 -132Q349 -120 326 -120Q320 -120 305 -121T263 -125V-58L297 -7Q218 -2 170 19T90 80Q64 113 52 157T40 264V474Q40 590 109 659Q129 679 152 693T205 715T272 728T356 732Q465 732 529 712T628 647Q649 621 657 579T666 464V440H445V459Q445 476 445 486T443 503T440 513T434 521Q414 541 354 541Q330 541 315 538T291 525T279 499T275 457V258Q275 234 278 220T290 197T317 186T363 183Q390 183 406 185T431 194T442 216T445 255V294H673V244Q673 176 661 134T619 61Q587 28 539 12T410 -8L391 -36Q433 -40 457 -66T481 -131Q481 -176 448 -206T337 -237Q307 -237 282 -234T224 -224V-130ZM246 -207Q269 -212 289 -214T337 -216Q403 -216 431 -192T459 -131Q459 -100 437 -78T376 -56Q371 -56 365 -56T349 -58L398 13Q442 14 475 19T532 32T575 53T609 84Q650 136 650 237V272H468V252Q468 223 464 205T448 177T414 164T355 161Q325 161 305 165T274 181T257 211T252 258V461Q252 519 275 541T359 563Q436 563 457 531Q463 521 465 507T468 462H643V481Q643 547 633 586T597 649Q564 681 505 695T347 710Q303 710 269 706T208 693T159 670T118 635Q89 603 76 565T63 474V264Q63 143 117 83Q150 47 200 31T337 13L285 -64V-102Q312 -99 326 -99Q346 -99 358 -107T371 -132Q371 -166 325 -166Q305 -166 287 -164T246 -156V-207Z"  />
<glyph unicode="&#xC8;" horiz-adv-x="665" d="M633 723V539H283V450H614V288H283V184H633V0H54V723H633ZM77 701V22H610V162H260V310H591V428H260V561H610V701H77ZM343 916L461 749H306L113 916H343ZM314 770H420L331 895H171L314 770Z"  />
<glyph unicode="&#xC9;" horiz-adv-x="665" d="M633 723V539H283V450H614V288H283V184H633V0H54V723H633ZM77 701V22H610V162H260V310H591V428H260V561H610V701H77ZM566 916L373 749H218L336 916H566ZM508 895H348L259 770H365L508 895Z"  />
<glyph unicode="&#xCA;" horiz-adv-x="665" d="M633 723V539H283V450H614V288H283V184H633V0H54V723H633ZM77 701V22H610V162H260V310H591V428H260V561H610V701H77ZM424 916L553 749H385L338 816L292 749H124L254 916H424ZM168 770H281L338 850L397 770H509L412 895H265L168 770Z"  />
<glyph unicode="&#xCB;" horiz-adv-x="665" d="M633 723V539H283V450H614V288H283V184H633V0H54V723H633ZM77 701V22H610V162H260V310H591V428H260V561H610V701H77ZM364 916H536V765H364V916ZM514 894H386V787H514V894ZM142 916H314V765H142V916ZM292 894H164V787H292V894Z"  />
<glyph unicode="&#xCC;" horiz-adv-x="340" d="M286 0H54V723H286V0ZM77 701V22H263V701H77ZM187 916L305 749H150L-43 916H187ZM158 770H264L175 895H15L158 770Z"  />
<glyph unicode="&#xCD;" horiz-adv-x="340" d="M286 0H54V723H286V0ZM77 701V22H263V701H77ZM384 916L191 749H36L154 916H384ZM326 895H166L77 770H183L326 895Z"  />
<glyph unicode="&#xCE;" horiz-adv-x="340" d="M286 0H54V723H286V0ZM77 701V22H263V701H77ZM255 916L384 749H216L169 816L123 749H-45L85 916H255ZM-1 770H112L169 850L228 770H340L243 895H96L-1 770Z"  />
<glyph unicode="&#xCF;" horiz-adv-x="340" d="M286 0H54V723H286V0ZM77 701V22H263V701H77ZM195 916H367V765H195V916ZM345 894H217V787H345V894ZM-27 916H145V765H-27V916ZM123 894H-5V787H123V894Z"  />
<glyph unicode="&#xD0;" horiz-adv-x="771" d="M414 723Q561 723 636 669Q663 649 681 626T711 568T726 488T731 376Q731 308 728 259T716 175T693 114T657 68Q636 47 613 34T558 14T479 3T367 0H54V294H-10V436H54V723H414ZM77 413H12V316H77V22H376Q430 22 469 24T536 31T584 46T623 69Q647 87 663 110T689 165T703 243T707 351Q707 413 705 455T698 528T683 578T660 616Q591 701 413 701H77V413ZM261 413V556H390Q436 556 458 552T494 535Q502 528 507 518T515 490T519 445T520 376Q520 327 519 295T514 242T504 210T489 190Q475 178 454 173T395 168H261V316H386V413H261ZM284 436H408V294H284V191H397Q433 191 453 195T483 219T495 276T498 380Q498 435 496 465T483 511T451 529T392 533H284V436Z"  />
<glyph unicode="&#xD1;" horiz-adv-x="836" d="M370 723L568 254V723H782V0H470L267 463V0H54V723H370ZM77 22H244V573L487 22H759V701H591V145L353 701H77V22ZM227 759Q230 794 241 823T271 873T315 905T369 917Q390 917 407 911T438 898T466 884T494 878Q505 878 512 888T522 916H621Q610 848 578 807T484 765Q466 765 450 770T418 782T390 794T363 800Q349 800 342 793T328 759H227ZM313 779Q319 802 331 811T361 821Q377 821 392 816T422 804T452 792T485 786Q530 786 555 812T597 896H538Q525 858 491 858Q476 858 462 864T434 877T403 890T368 896Q323 896 292 865T251 779H313Z"  />
<glyph unicode="&#xD2;" horiz-adv-x="767" d="M376 732Q481 732 545 717T651 667Q673 648 687 625T711 567T723 485T727 369Q727 327 726 295T724 238T719 195T712 162Q698 111 671 77T599 22Q566 6 513 -1T377 -9Q333 -9 300 -7T239 0T190 14T146 35Q79 74 57 146Q49 171 45 226T40 358Q40 422 42 467T51 545T69 601T97 645Q116 669 141 685T199 712T275 727T376 732ZM372 710Q325 710 289 707T226 697T177 679T137 652Q114 632 99 604T74 539Q69 516 66 467T63 352Q63 290 66 247T76 172T95 120T125 80Q144 62 167 49T220 28T291 17T385 13Q432 13 468 16T533 25T584 41T624 66Q646 84 661 107T686 162T700 239T704 344Q704 401 703 442T698 512T688 563T672 603Q643 661 569 687Q540 698 490 704T372 710ZM387 564Q436 564 462 558T499 535Q505 527 508 518T514 491T517 445T518 369Q518 318 518 287T515 238T508 209T498 190Q486 174 462 167T386 160Q337 160 310 167T271 192Q264 201 260 212T254 242T250 293T249 375Q249 415 250 441T253 485T260 513T271 533Q284 551 309 557T387 564ZM376 542Q335 542 317 537T289 517Q284 509 281 500T275 474T273 432T272 367Q272 325 272 298T275 253T280 225T290 207Q300 193 320 188T378 182Q421 182 444 185T479 205T493 258T495 362Q495 402 495 429T493 475T488 503T481 519Q472 532 449 537T376 542ZM390 916L508 749H353L160 916H390ZM361 770H467L378 895H218L361 770Z"  />
<glyph unicode="&#xD3;" horiz-adv-x="767" d="M376 732Q481 732 545 717T651 667Q673 648 687 625T711 567T723 485T727 369Q727 327 726 295T724 238T719 195T712 162Q698 111 671 77T599 22Q566 6 513 -1T377 -9Q333 -9 300 -7T239 0T190 14T146 35Q79 74 57 146Q49 171 45 226T40 358Q40 422 42 467T51 545T69 601T97 645Q116 669 141 685T199 712T275 727T376 732ZM372 710Q325 710 289 707T226 697T177 679T137 652Q114 632 99 604T74 539Q69 516 66 467T63 352Q63 290 66 247T76 172T95 120T125 80Q144 62 167 49T220 28T291 17T385 13Q432 13 468 16T533 25T584 41T624 66Q646 84 661 107T686 162T700 239T704 344Q704 401 703 442T698 512T688 563T672 603Q643 661 569 687Q540 698 490 704T372 710ZM387 564Q436 564 462 558T499 535Q505 527 508 518T514 491T517 445T518 369Q518 318 518 287T515 238T508 209T498 190Q486 174 462 167T386 160Q337 160 310 167T271 192Q264 201 260 212T254 242T250 293T249 375Q249 415 250 441T253 485T260 513T271 533Q284 551 309 557T387 564ZM376 542Q335 542 317 537T289 517Q284 509 281 500T275 474T273 432T272 367Q272 325 272 298T275 253T280 225T290 207Q300 193 320 188T378 182Q421 182 444 185T479 205T493 258T495 362Q495 402 495 429T493 475T488 503T481 519Q472 532 449 537T376 542ZM613 916L420 749H265L383 916H613ZM555 895H395L306 770H412L555 895Z"  />
<glyph unicode="&#xD4;" horiz-adv-x="767" d="M376 732Q481 732 545 717T651 667Q673 648 687 625T711 567T723 485T727 369Q727 327 726 295T724 238T719 195T712 162Q698 111 671 77T599 22Q566 6 513 -1T377 -9Q333 -9 300 -7T239 0T190 14T146 35Q79 74 57 146Q49 171 45 226T40 358Q40 422 42 467T51 545T69 601T97 645Q116 669 141 685T199 712T275 727T376 732ZM372 710Q325 710 289 707T226 697T177 679T137 652Q114 632 99 604T74 539Q69 516 66 467T63 352Q63 290 66 247T76 172T95 120T125 80Q144 62 167 49T220 28T291 17T385 13Q432 13 468 16T533 25T584 41T624 66Q646 84 661 107T686 162T700 239T704 344Q704 401 703 442T698 512T688 563T672 603Q643 661 569 687Q540 698 490 704T372 710ZM387 564Q436 564 462 558T499 535Q505 527 508 518T514 491T517 445T518 369Q518 318 518 287T515 238T508 209T498 190Q486 174 462 167T386 160Q337 160 310 167T271 192Q264 201 260 212T254 242T250 293T249 375Q249 415 250 441T253 485T260 513T271 533Q284 551 309 557T387 564ZM376 542Q335 542 317 537T289 517Q284 509 281 500T275 474T273 432T272 367Q272 325 272 298T275 253T280 225T290 207Q300 193 320 188T378 182Q421 182 444 185T479 205T493 258T495 362Q495 402 495 429T493 475T488 503T481 519Q472 532 449 537T376 542ZM471 916L600 749H432L385 816L339 749H171L301 916H471ZM215 770H328L385 850L444 770H556L459 895H312L215 770Z"  />
<glyph unicode="&#xD5;" horiz-adv-x="767" d="M376 732Q481 732 545 717T651 667Q673 648 687 625T711 567T723 485T727 369Q727 327 726 295T724 238T719 195T712 162Q698 111 671 77T599 22Q566 6 513 -1T377 -9Q333 -9 300 -7T239 0T190 14T146 35Q79 74 57 146Q49 171 45 226T40 358Q40 422 42 467T51 545T69 601T97 645Q116 669 141 685T199 712T275 727T376 732ZM372 710Q325 710 289 707T226 697T177 679T137 652Q114 632 99 604T74 539Q69 516 66 467T63 352Q63 290 66 247T76 172T95 120T125 80Q144 62 167 49T220 28T291 17T385 13Q432 13 468 16T533 25T584 41T624 66Q646 84 661 107T686 162T700 239T704 344Q704 401 703 442T698 512T688 563T672 603Q643 661 569 687Q540 698 490 704T372 710ZM387 564Q436 564 462 558T499 535Q505 527 508 518T514 491T517 445T518 369Q518 318 518 287T515 238T508 209T498 190Q486 174 462 167T386 160Q337 160 310 167T271 192Q264 201 260 212T254 242T250 293T249 375Q249 415 250 441T253 485T260 513T271 533Q284 551 309 557T387 564ZM376 542Q335 542 317 537T289 517Q284 509 281 500T275 474T273 432T272 367Q272 325 272 298T275 253T280 225T290 207Q300 193 320 188T378 182Q421 182 444 185T479 205T493 258T495 362Q495 402 495 429T493 475T488 503T481 519Q472 532 449 537T376 542ZM192 759Q195 794 206 823T236 873T280 905T334 917Q355 917 372 911T403 898T431 884T459 878Q470 878 477 888T487 916H586Q575 848 543 807T449 765Q431 765 415 770T383 782T355 794T328 800Q314 800 307 793T293 759H192ZM278 779Q284 802 296 811T326 821Q342 821 357 816T387 804T417 792T450 786Q495 786 520 812T562 896H503Q490 858 456 858Q441 858 427 864T399 877T368 890T333 896Q288 896 257 865T216 779H278Z"  />
<glyph unicode="&#xD6;" horiz-adv-x="767" d="M376 732Q481 732 545 717T651 667Q673 648 687 625T711 567T723 485T727 369Q727 327 726 295T724 238T719 195T712 162Q698 111 671 77T599 22Q566 6 513 -1T377 -9Q333 -9 300 -7T239 0T190 14T146 35Q79 74 57 146Q49 171 45 226T40 358Q40 422 42 467T51 545T69 601T97 645Q116 669 141 685T199 712T275 727T376 732ZM372 710Q325 710 289 707T226 697T177 679T137 652Q114 632 99 604T74 539Q69 516 66 467T63 352Q63 290 66 247T76 172T95 120T125 80Q144 62 167 49T220 28T291 17T385 13Q432 13 468 16T533 25T584 41T624 66Q646 84 661 107T686 162T700 239T704 344Q704 401 703 442T698 512T688 563T672 603Q643 661 569 687Q540 698 490 704T372 710ZM387 564Q436 564 462 558T499 535Q505 527 508 518T514 491T517 445T518 369Q518 318 518 287T515 238T508 209T498 190Q486 174 462 167T386 160Q337 160 310 167T271 192Q264 201 260 212T254 242T250 293T249 375Q249 415 250 441T253 485T260 513T271 533Q284 551 309 557T387 564ZM376 542Q335 542 317 537T289 517Q284 509 281 500T275 474T273 432T272 367Q272 325 272 298T275 253T280 225T290 207Q300 193 320 188T378 182Q421 182 444 185T479 205T493 258T495 362Q495 402 495 429T493 475T488 503T481 519Q472 532 449 537T376 542ZM411 916H583V765H411V916ZM561 894H433V787H561V894ZM189 916H361V765H189V916ZM339 894H211V787H339V894Z"  />
<glyph unicode="&#xD7;" horiz-adv-x="667" d="M86 436L249 268L89 102L172 18L333 183L496 16L581 101L417 269L578 434L495 519L333 354L171 522L86 436ZM171 553L334 386L495 550L608 434L447 269L612 101L496 -15L333 151L172 -13L58 102L219 268L55 436L171 553Z"  />
<glyph unicode="&#xD8;" horiz-adv-x="767" d="M692 741L778 658L709 588Q716 557 719 533T724 482T726 424T727 347Q727 286 724 243T714 167T693 111T661 66Q642 46 616 31T561 7Q534 0 480 -4T364 -9Q324 -9 295 -7T241 0T195 13T152 35L94 -24L4 55L68 123L63 133Q56 146 52 165T45 214T41 288T40 396Q40 449 43 489T54 559T75 613T106 656Q145 697 205 714T366 732Q415 732 454 730T525 722T584 707T634 683L692 741ZM38 56L93 6L147 62Q173 46 195 37T242 22T301 15T385 13Q433 13 470 16T537 25T588 43T628 69Q648 86 662 108T686 161T699 231T704 320Q704 375 703 415T700 484T695 535T687 574L681 595L746 656L692 709L635 652L624 660Q592 683 534 696T381 710Q328 710 288 706T217 694T164 672T123 639Q106 621 95 599T76 545T66 473T63 374Q63 314 64 274T69 205T79 156T97 116L38 56ZM251 277Q250 297 250 322T249 374Q249 411 249 438T252 483T259 514T269 535Q280 551 302 557T374 564Q433 564 459 558T496 535L501 527L251 277ZM470 527Q462 535 443 538T375 542Q327 542 308 535T281 510Q278 505 277 498T274 476T273 440T272 383V332L470 527ZM518 281Q518 246 514 224T496 187Q490 179 481 174T456 166T418 162T362 160Q333 160 312 164T279 182L272 190L518 432V281ZM305 192Q315 185 333 184T383 182Q419 182 441 185T475 199T491 229T495 281V379L305 192Z"  />
<glyph unicode="&#xD9;" horiz-adv-x="771" d="M279 290Q279 261 279 245T280 219T283 206T288 198Q292 193 298 190T317 184T348 182T397 181Q421 181 437 182T463 185T478 191T487 202Q489 206 490 210T492 224T493 248T494 290V723H723V290Q723 243 719 207T706 142T683 91T649 52Q629 35 606 23T551 4T477 -6T379 -9Q332 -9 297 -7T236 0T188 12T148 32Q119 49 98 76T65 135Q60 150 57 164T52 195T49 235T48 290V723H279V290ZM517 701V290Q517 260 517 242T515 213T512 196T505 184Q494 170 472 165T397 159Q363 159 341 160T304 165T281 173T266 187Q263 192 261 197T258 212T257 240T256 290V701H71V290Q71 263 71 245T73 213T75 189T80 167Q91 123 114 94T175 44Q204 28 251 21T377 13Q435 13 477 16T551 28T605 49T646 83Q661 99 671 118T688 161T697 216T700 290V701H517ZM390 916L508 749H353L160 916H390ZM361 770H467L378 895H218L361 770Z"  />
<glyph unicode="&#xDA;" horiz-adv-x="771" d="M279 290Q279 261 279 245T280 219T283 206T288 198Q292 193 298 190T317 184T348 182T397 181Q421 181 437 182T463 185T478 191T487 202Q489 206 490 210T492 224T493 248T494 290V723H723V290Q723 243 719 207T706 142T683 91T649 52Q629 35 606 23T551 4T477 -6T379 -9Q332 -9 297 -7T236 0T188 12T148 32Q119 49 98 76T65 135Q60 150 57 164T52 195T49 235T48 290V723H279V290ZM517 701V290Q517 260 517 242T515 213T512 196T505 184Q494 170 472 165T397 159Q363 159 341 160T304 165T281 173T266 187Q263 192 261 197T258 212T257 240T256 290V701H71V290Q71 263 71 245T73 213T75 189T80 167Q91 123 114 94T175 44Q204 28 251 21T377 13Q435 13 477 16T551 28T605 49T646 83Q661 99 671 118T688 161T697 216T700 290V701H517ZM613 916L420 749H265L383 916H613ZM555 895H395L306 770H412L555 895Z"  />
<glyph unicode="&#xDB;" horiz-adv-x="771" d="M279 290Q279 261 279 245T280 219T283 206T288 198Q292 193 298 190T317 184T348 182T397 181Q421 181 437 182T463 185T478 191T487 202Q489 206 490 210T492 224T493 248T494 290V723H723V290Q723 243 719 207T706 142T683 91T649 52Q629 35 606 23T551 4T477 -6T379 -9Q332 -9 297 -7T236 0T188 12T148 32Q119 49 98 76T65 135Q60 150 57 164T52 195T49 235T48 290V723H279V290ZM517 701V290Q517 260 517 242T515 213T512 196T505 184Q494 170 472 165T397 159Q363 159 341 160T304 165T281 173T266 187Q263 192 261 197T258 212T257 240T256 290V701H71V290Q71 263 71 245T73 213T75 189T80 167Q91 123 114 94T175 44Q204 28 251 21T377 13Q435 13 477 16T551 28T605 49T646 83Q661 99 671 118T688 161T697 216T700 290V701H517ZM471 916L600 749H432L385 816L339 749H171L301 916H471ZM215 770H328L385 850L444 770H556L459 895H312L215 770Z"  />
<glyph unicode="&#xDC;" horiz-adv-x="771" d="M279 290Q279 261 279 245T280 219T283 206T288 198Q292 193 298 190T317 184T348 182T397 181Q421 181 437 182T463 185T478 191T487 202Q489 206 490 210T492 224T493 248T494 290V723H723V290Q723 243 719 207T706 142T683 91T649 52Q629 35 606 23T551 4T477 -6T379 -9Q332 -9 297 -7T236 0T188 12T148 32Q119 49 98 76T65 135Q60 150 57 164T52 195T49 235T48 290V723H279V290ZM517 701V290Q517 260 517 242T515 213T512 196T505 184Q494 170 472 165T397 159Q363 159 341 160T304 165T281 173T266 187Q263 192 261 197T258 212T257 240T256 290V701H71V290Q71 263 71 245T73 213T75 189T80 167Q91 123 114 94T175 44Q204 28 251 21T377 13Q435 13 477 16T551 28T605 49T646 83Q661 99 671 118T688 161T697 216T700 290V701H517ZM411 916H583V765H411V916ZM561 894H433V787H561V894ZM189 916H361V765H189V916ZM339 894H211V787H339V894Z"  />
<glyph unicode="&#xDD;" horiz-adv-x="687" d="M461 723H713L458 256V0H229V256L-26 723H226L343 473L461 723ZM210 701H14L252 260V22H435V260L673 701H475L343 420L210 701ZM575 916L382 749H227L345 916H575ZM517 895H357L268 770H374L517 895Z"  />
<glyph unicode="&#xDE;" horiz-adv-x="720" d="M286 148V0H54V723H286V643H399Q477 643 531 631T618 591T667 516T682 400Q682 331 671 283T631 205T549 162T415 148H286ZM419 170Q494 170 540 182T613 223T649 297T659 408Q659 469 644 510T598 575T516 610T395 621H263V701H77V22H263V170H419ZM402 473Q430 473 446 470T472 458T484 435T487 400Q487 372 485 356T472 330T442 319T385 316H263V473H402ZM286 338H384Q413 338 429 340T453 347T462 363T464 390Q464 410 463 422T455 440T436 449T401 451H286V338Z"  />
<glyph unicode="&#xDF;" horiz-adv-x="615" d="M50 541Q50 583 63 618T100 677Q115 692 133 702T174 718T228 728T296 731Q370 731 414 721T487 685Q513 663 525 628T537 540Q537 514 535 496T528 463T515 438T493 416Q518 405 534 392T561 359T575 308T579 232Q579 186 576 152T566 94T548 52T519 22Q496 5 464 -2T378 -10Q356 -10 333 -9T292 -5V139Q305 137 311 137T328 137Q351 137 360 147T370 184V291Q370 329 338 329H292V460Q321 460 329 464T338 484V544Q338 569 330 578T297 587Q258 587 258 561V0H50V541ZM235 22V556Q235 585 248 597T294 609Q332 609 346 594T361 539V484Q361 439 315 439V351H340Q393 350 393 292V183Q393 114 327 114Q325 114 322 114T315 115V15Q333 13 346 12T383 11Q435 11 469 21T522 56T549 125T557 236Q557 279 553 308T536 356T503 388T448 412Q467 420 479 431T499 457T510 492T513 540Q513 588 502 619T468 671Q442 692 403 700T295 709Q255 709 226 707T176 698T139 681T110 655Q90 632 82 605T73 541V22H235Z"  />
<glyph unicode="&#xE0;" horiz-adv-x="602" d="M352 364Q352 392 343 400T301 409Q272 409 264 403T255 380V373H55V390Q55 428 64 451T95 492Q108 502 124 509T165 520T224 526T309 528Q356 528 390 525T448 515T490 497T520 469Q539 446 546 419T554 344V0H355V27Q332 9 299 0T217 -9Q167 -9 131 2T71 36Q51 56 41 84T30 158Q30 206 41 238T75 291Q87 302 100 309T131 320T172 327T227 329Q255 329 274 328T308 325T332 318T352 306V364ZM377 22H531V345Q531 390 523 416T492 464Q480 476 465 484T429 497T377 504T306 506Q261 506 229 505T174 499T136 490T110 475Q78 447 78 401V395H234Q236 415 250 423T298 431Q321 431 336 428T359 417T371 396T375 361V261Q360 276 347 285T318 299T283 305T234 307Q175 307 143 300T91 274Q53 240 53 158Q53 80 92 47T222 13Q324 13 377 70V22ZM300 232Q325 232 340 230T363 222T373 202T375 166Q375 143 373 130T363 111T340 102T299 100Q270 100 253 102T227 110T216 128T213 160Q213 187 216 201T228 222Q236 228 249 230T300 232ZM286 210Q268 210 258 209T243 204T237 190T236 164Q236 148 237 140T243 127T259 123T291 122Q308 122 318 122T333 122T341 124T346 127Q349 130 350 141T352 179Q352 191 351 197T344 206T324 209T286 210ZM306 723L424 556H269L76 723H306ZM277 577H383L294 702H134L277 577Z"  />
<glyph unicode="&#xE1;" horiz-adv-x="602" d="M352 364Q352 392 343 400T301 409Q272 409 264 403T255 380V373H55V390Q55 428 64 451T95 492Q108 502 124 509T165 520T224 526T309 528Q356 528 390 525T448 515T490 497T520 469Q539 446 546 419T554 344V0H355V27Q332 9 299 0T217 -9Q167 -9 131 2T71 36Q51 56 41 84T30 158Q30 206 41 238T75 291Q87 302 100 309T131 320T172 327T227 329Q255 329 274 328T308 325T332 318T352 306V364ZM377 22H531V345Q531 390 523 416T492 464Q480 476 465 484T429 497T377 504T306 506Q261 506 229 505T174 499T136 490T110 475Q78 447 78 401V395H234Q236 415 250 423T298 431Q321 431 336 428T359 417T371 396T375 361V261Q360 276 347 285T318 299T283 305T234 307Q175 307 143 300T91 274Q53 240 53 158Q53 80 92 47T222 13Q324 13 377 70V22ZM300 232Q325 232 340 230T363 222T373 202T375 166Q375 143 373 130T363 111T340 102T299 100Q270 100 253 102T227 110T216 128T213 160Q213 187 216 201T228 222Q236 228 249 230T300 232ZM286 210Q268 210 258 209T243 204T237 190T236 164Q236 148 237 140T243 127T259 123T291 122Q308 122 318 122T333 122T341 124T346 127Q349 130 350 141T352 179Q352 191 351 197T344 206T324 209T286 210ZM529 723L336 556H181L299 723H529ZM471 702H311L222 577H328L471 702Z"  />
<glyph unicode="&#xE2;" horiz-adv-x="602" d="M352 364Q352 392 343 400T301 409Q272 409 264 403T255 380V373H55V390Q55 428 64 451T95 492Q108 502 124 509T165 520T224 526T309 528Q356 528 390 525T448 515T490 497T520 469Q539 446 546 419T554 344V0H355V27Q332 9 299 0T217 -9Q167 -9 131 2T71 36Q51 56 41 84T30 158Q30 206 41 238T75 291Q87 302 100 309T131 320T172 327T227 329Q255 329 274 328T308 325T332 318T352 306V364ZM377 22H531V345Q531 390 523 416T492 464Q480 476 465 484T429 497T377 504T306 506Q261 506 229 505T174 499T136 490T110 475Q78 447 78 401V395H234Q236 415 250 423T298 431Q321 431 336 428T359 417T371 396T375 361V261Q360 276 347 285T318 299T283 305T234 307Q175 307 143 300T91 274Q53 240 53 158Q53 80 92 47T222 13Q324 13 377 70V22ZM300 232Q325 232 340 230T363 222T373 202T375 166Q375 143 373 130T363 111T340 102T299 100Q270 100 253 102T227 110T216 128T213 160Q213 187 216 201T228 222Q236 228 249 230T300 232ZM286 210Q268 210 258 209T243 204T237 190T236 164Q236 148 237 140T243 127T259 123T291 122Q308 122 318 122T333 122T341 124T346 127Q349 130 350 141T352 179Q352 191 351 197T344 206T324 209T286 210ZM387 723L516 556H348L301 623L255 556H87L217 723H387ZM131 577H244L301 657L360 577H472L375 702H228L131 577Z"  />
<glyph unicode="&#xE3;" horiz-adv-x="602" d="M352 364Q352 392 343 400T301 409Q272 409 264 403T255 380V373H55V390Q55 428 64 451T95 492Q108 502 124 509T165 520T224 526T309 528Q356 528 390 525T448 515T490 497T520 469Q539 446 546 419T554 344V0H355V27Q332 9 299 0T217 -9Q167 -9 131 2T71 36Q51 56 41 84T30 158Q30 206 41 238T75 291Q87 302 100 309T131 320T172 327T227 329Q255 329 274 328T308 325T332 318T352 306V364ZM377 22H531V345Q531 390 523 416T492 464Q480 476 465 484T429 497T377 504T306 506Q261 506 229 505T174 499T136 490T110 475Q78 447 78 401V395H234Q236 415 250 423T298 431Q321 431 336 428T359 417T371 396T375 361V261Q360 276 347 285T318 299T283 305T234 307Q175 307 143 300T91 274Q53 240 53 158Q53 80 92 47T222 13Q324 13 377 70V22ZM300 232Q325 232 340 230T363 222T373 202T375 166Q375 143 373 130T363 111T340 102T299 100Q270 100 253 102T227 110T216 128T213 160Q213 187 216 201T228 222Q236 228 249 230T300 232ZM286 210Q268 210 258 209T243 204T237 190T236 164Q236 148 237 140T243 127T259 123T291 122Q308 122 318 122T333 122T341 124T346 127Q349 130 350 141T352 179Q352 191 351 197T344 206T324 209T286 210ZM108 566Q111 601 122 630T152 680T196 712T250 724Q271 724 288 718T319 705T347 691T375 685Q386 685 393 695T403 723H502Q491 655 459 614T365 572Q347 572 331 577T299 589T271 601T244 607Q230 607 223 600T209 566H108ZM194 586Q200 609 212 618T242 628Q258 628 273 623T303 611T333 599T366 593Q411 593 436 619T478 703H419Q406 665 372 665Q357 665 343 671T315 684T284 697T249 703Q204 703 173 672T132 586H194Z"  />
<glyph unicode="&#xE4;" horiz-adv-x="602" d="M352 364Q352 392 343 400T301 409Q272 409 264 403T255 380V373H55V390Q55 428 64 451T95 492Q108 502 124 509T165 520T224 526T309 528Q356 528 390 525T448 515T490 497T520 469Q539 446 546 419T554 344V0H355V27Q332 9 299 0T217 -9Q167 -9 131 2T71 36Q51 56 41 84T30 158Q30 206 41 238T75 291Q87 302 100 309T131 320T172 327T227 329Q255 329 274 328T308 325T332 318T352 306V364ZM377 22H531V345Q531 390 523 416T492 464Q480 476 465 484T429 497T377 504T306 506Q261 506 229 505T174 499T136 490T110 475Q78 447 78 401V395H234Q236 415 250 423T298 431Q321 431 336 428T359 417T371 396T375 361V261Q360 276 347 285T318 299T283 305T234 307Q175 307 143 300T91 274Q53 240 53 158Q53 80 92 47T222 13Q324 13 377 70V22ZM300 232Q325 232 340 230T363 222T373 202T375 166Q375 143 373 130T363 111T340 102T299 100Q270 100 253 102T227 110T216 128T213 160Q213 187 216 201T228 222Q236 228 249 230T300 232ZM286 210Q268 210 258 209T243 204T237 190T236 164Q236 148 237 140T243 127T259 123T291 122Q308 122 318 122T333 122T341 124T346 127Q349 130 350 141T352 179Q352 191 351 197T344 206T324 209T286 210ZM327 723H499V572H327V723ZM477 701H349V594H477V701ZM105 723H277V572H105V723ZM255 701H127V594H255V701Z"  />
<glyph unicode="&#xE5;" horiz-adv-x="602" d="M352 364Q352 392 343 400T301 409Q272 409 264 403T255 380V373H55V390Q55 428 64 451T95 492Q108 502 124 509T165 520T224 526T309 528Q356 528 390 525T448 515T490 497T520 469Q539 446 546 419T554 344V0H355V27Q332 9 299 0T217 -9Q167 -9 131 2T71 36Q51 56 41 84T30 158Q30 206 41 238T75 291Q87 302 100 309T131 320T172 327T227 329Q255 329 274 328T308 325T332 318T352 306V364ZM377 22H531V345Q531 390 523 416T492 464Q480 476 465 484T429 497T377 504T306 506Q261 506 229 505T174 499T136 490T110 475Q78 447 78 401V395H234Q236 415 250 423T298 431Q321 431 336 428T359 417T371 396T375 361V261Q360 276 347 285T318 299T283 305T234 307Q175 307 143 300T91 274Q53 240 53 158Q53 80 92 47T222 13Q324 13 377 70V22ZM300 232Q325 232 340 230T363 222T373 202T375 166Q375 143 373 130T363 111T340 102T299 100Q270 100 253 102T227 110T216 128T213 160Q213 187 216 201T228 222Q236 228 249 230T300 232ZM286 210Q268 210 258 209T243 204T237 190T236 164Q236 148 237 140T243 127T259 123T291 122Q308 122 318 122T333 122T341 124T346 127Q349 130 350 141T352 179Q352 191 351 197T344 206T324 209T286 210ZM305 784Q330 784 351 775T389 750T415 713T425 667Q425 643 416 622T390 585T351 560T304 551Q278 551 256 560T218 585T192 622T182 667Q182 691 191 712T217 750T256 775T305 784ZM302 764Q282 764 264 757T233 736T211 705T203 667Q203 647 211 630T232 599T264 579T303 571Q324 571 342 578T374 599T396 629T404 667Q404 708 375 736T302 764ZM304 721Q327 721 343 705T360 666Q360 643 344 628T303 612Q280 612 264 627T247 666Q247 689 263 705T304 721ZM303 701Q289 701 279 691T268 667Q268 653 278 643T303 633Q318 633 328 642T338 666Q338 681 328 691T303 701Z"  />
<glyph unicode="&#xE6;" horiz-adv-x="935" d="M369 383Q369 393 368 399T360 408T342 411T309 412Q289 412 278 412T261 409T255 400T253 383V373H53Q53 417 60 441T85 483Q98 496 114 505T152 519T207 526T287 528Q335 528 366 526T418 518T452 502T478 474Q493 490 508 500T542 517T589 525T655 528Q743 528 792 513T869 462Q887 439 897 402T907 321V225H573V163Q573 134 583 126T629 117Q656 117 671 118T695 122T705 131T707 148V168H907Q906 121 899 95T873 50Q844 20 789 6T642 -9Q601 -9 572 -6T520 4T480 25T445 57Q433 39 417 27T378 6T325 -5T254 -9Q193 -9 151 0T81 29T42 82T30 160Q30 209 40 240T75 291Q87 301 100 308T132 319T173 325T229 327Q259 327 279 326T314 322T341 314T369 301V383ZM230 395Q231 411 243 424Q249 430 260 432T300 434Q338 434 354 432T378 423Q392 412 392 393V258Q376 273 362 282T330 296T289 303T233 305Q174 305 143 299T92 275Q52 241 52 161Q52 120 62 92T97 46T160 21T256 13Q309 13 344 19T399 39Q411 48 421 60T444 96Q462 70 479 54T518 29T570 17T645 13Q710 13 754 20T827 42T868 83T884 146H730Q729 130 725 120T712 104T686 96T643 94Q615 94 597 97T569 108T554 130T550 165V247H883V341Q883 376 870 409T837 461Q823 474 806 482T766 496T713 504T644 507Q606 507 582 505T540 495T508 475T478 440Q463 462 449 475T415 496T365 505T287 507Q244 507 214 505T163 499T128 487T103 469Q89 454 83 438T77 395H230ZM550 377Q550 406 570 417T643 428Q690 428 710 418T730 382V310H550V377ZM707 332V382Q707 396 694 400T643 405Q598 405 586 399T573 373V332H707ZM307 231Q335 231 352 229T378 221T390 203T393 171Q393 148 391 135T380 115T355 106T312 104Q278 104 258 106T227 114T213 133T209 165Q209 187 212 200T225 220T254 229T307 231ZM324 210Q291 210 272 209T244 204T233 192T231 168Q231 153 232 145T242 132T268 127T316 126Q353 126 363 133T373 166Q373 195 365 202T324 210Z"  />
<glyph unicode="&#xE7;" horiz-adv-x="587" d="M167 -130Q204 -138 227 -141T268 -145Q292 -145 292 -132Q292 -120 269 -120Q263 -120 248 -121T206 -125V-58L239 -8Q214 -7 195 -4T161 4T132 17T106 36Q67 67 49 119Q36 157 36 264Q36 306 39 337T48 391T63 430T86 462Q103 481 122 493T166 513T226 524T306 528Q352 528 386 525T445 515T489 497T521 470Q559 426 559 349V310H361V351Q361 359 359 363T351 370T332 374T300 375Q283 375 273 374T257 369T250 358T248 338V187Q248 171 249 162T257 148T273 142T302 140Q338 140 349 146T361 173V222H559V180Q559 120 542 84T482 22Q470 14 458 9T430 0T396 -5T352 -8L334 -36Q376 -40 400 -66T424 -131Q424 -176 391 -206T280 -237Q250 -237 225 -234T167 -224V-130ZM189 -207Q212 -212 232 -214T280 -216Q346 -216 374 -192T402 -131Q402 -100 380 -78T319 -56Q314 -56 308 -56T292 -58L341 13Q407 15 443 28T503 68Q521 89 528 114T536 178V200H384V173Q384 141 367 130T301 118Q278 118 263 121T240 132T228 154T225 190V338Q225 356 228 367T240 385T264 394T305 397Q340 397 353 395T373 385Q384 374 384 352V332H536V352Q536 390 526 417T493 465Q481 477 465 484T428 497T377 504T307 506Q272 506 246 505T199 499T162 489T132 472Q108 455 94 434T72 387T62 330T60 263Q60 219 63 187T72 131T90 90T119 57Q145 34 180 24T281 13L228 -64V-102Q255 -99 269 -99Q289 -99 301 -107T314 -132Q314 -166 268 -166Q248 -166 230 -164T189 -156V-207Z"  />
<glyph unicode="&#xE8;" horiz-adv-x="596" d="M237 221V175Q237 156 239 145T247 129T265 122T298 120H319Q352 120 360 126T368 152V169H568V150Q568 76 515 34Q499 22 482 14T441 0T386 -7T310 -9Q266 -9 236 -8T185 -3T147 7T116 24Q96 37 77 59T47 113Q41 130 39 157T36 231Q36 279 37 311T41 366T49 405T64 437Q93 488 156 513Q176 521 211 524T301 528Q346 528 378 526T434 518T476 503T510 480Q541 452 554 412T568 308V221H237ZM390 147V143Q390 120 377 109T323 98H293Q269 98 254 101T229 112T217 133T214 168V243H545V302Q545 332 543 354T537 394T524 425T505 451Q490 467 473 478T432 495T374 503T289 506Q252 506 226 504T179 497T144 482T113 460Q97 445 87 428T70 386T62 324T59 235Q59 200 61 175T67 132T79 99T98 71Q114 54 129 44Q156 26 199 20T320 13Q362 13 392 15T444 23T481 38T511 62Q528 79 535 98T545 147H390ZM216 307V339Q216 368 218 381T230 405Q241 416 255 419T307 423Q335 423 352 421T378 410T391 388T395 352V307H216ZM372 329V352Q372 368 370 377T361 392T342 399T307 401Q284 401 271 400T250 393T240 377T237 350V329H372ZM310 723L428 556H273L80 723H310ZM281 577H387L298 702H138L281 577Z"  />
<glyph unicode="&#xE9;" horiz-adv-x="596" d="M237 221V175Q237 156 239 145T247 129T265 122T298 120H319Q352 120 360 126T368 152V169H568V150Q568 76 515 34Q499 22 482 14T441 0T386 -7T310 -9Q266 -9 236 -8T185 -3T147 7T116 24Q96 37 77 59T47 113Q41 130 39 157T36 231Q36 279 37 311T41 366T49 405T64 437Q93 488 156 513Q176 521 211 524T301 528Q346 528 378 526T434 518T476 503T510 480Q541 452 554 412T568 308V221H237ZM390 147V143Q390 120 377 109T323 98H293Q269 98 254 101T229 112T217 133T214 168V243H545V302Q545 332 543 354T537 394T524 425T505 451Q490 467 473 478T432 495T374 503T289 506Q252 506 226 504T179 497T144 482T113 460Q97 445 87 428T70 386T62 324T59 235Q59 200 61 175T67 132T79 99T98 71Q114 54 129 44Q156 26 199 20T320 13Q362 13 392 15T444 23T481 38T511 62Q528 79 535 98T545 147H390ZM216 307V339Q216 368 218 381T230 405Q241 416 255 419T307 423Q335 423 352 421T378 410T391 388T395 352V307H216ZM372 329V352Q372 368 370 377T361 392T342 399T307 401Q284 401 271 400T250 393T240 377T237 350V329H372ZM533 723L340 556H185L303 723H533ZM475 702H315L226 577H332L475 702Z"  />
<glyph unicode="&#xEA;" horiz-adv-x="596" d="M237 221V175Q237 156 239 145T247 129T265 122T298 120H319Q352 120 360 126T368 152V169H568V150Q568 76 515 34Q499 22 482 14T441 0T386 -7T310 -9Q266 -9 236 -8T185 -3T147 7T116 24Q96 37 77 59T47 113Q41 130 39 157T36 231Q36 279 37 311T41 366T49 405T64 437Q93 488 156 513Q176 521 211 524T301 528Q346 528 378 526T434 518T476 503T510 480Q541 452 554 412T568 308V221H237ZM390 147V143Q390 120 377 109T323 98H293Q269 98 254 101T229 112T217 133T214 168V243H545V302Q545 332 543 354T537 394T524 425T505 451Q490 467 473 478T432 495T374 503T289 506Q252 506 226 504T179 497T144 482T113 460Q97 445 87 428T70 386T62 324T59 235Q59 200 61 175T67 132T79 99T98 71Q114 54 129 44Q156 26 199 20T320 13Q362 13 392 15T444 23T481 38T511 62Q528 79 535 98T545 147H390ZM216 307V339Q216 368 218 381T230 405Q241 416 255 419T307 423Q335 423 352 421T378 410T391 388T395 352V307H216ZM372 329V352Q372 368 370 377T361 392T342 399T307 401Q284 401 271 400T250 393T240 377T237 350V329H372ZM391 723L520 556H352L305 623L259 556H91L221 723H391ZM135 577H248L305 657L364 577H476L379 702H232L135 577Z"  />
<glyph unicode="&#xEB;" horiz-adv-x="596" d="M237 221V175Q237 156 239 145T247 129T265 122T298 120H319Q352 120 360 126T368 152V169H568V150Q568 76 515 34Q499 22 482 14T441 0T386 -7T310 -9Q266 -9 236 -8T185 -3T147 7T116 24Q96 37 77 59T47 113Q41 130 39 157T36 231Q36 279 37 311T41 366T49 405T64 437Q93 488 156 513Q176 521 211 524T301 528Q346 528 378 526T434 518T476 503T510 480Q541 452 554 412T568 308V221H237ZM390 147V143Q390 120 377 109T323 98H293Q269 98 254 101T229 112T217 133T214 168V243H545V302Q545 332 543 354T537 394T524 425T505 451Q490 467 473 478T432 495T374 503T289 506Q252 506 226 504T179 497T144 482T113 460Q97 445 87 428T70 386T62 324T59 235Q59 200 61 175T67 132T79 99T98 71Q114 54 129 44Q156 26 199 20T320 13Q362 13 392 15T444 23T481 38T511 62Q528 79 535 98T545 147H390ZM216 307V339Q216 368 218 381T230 405Q241 416 255 419T307 423Q335 423 352 421T378 410T391 388T395 352V307H216ZM372 329V352Q372 368 370 377T361 392T342 399T307 401Q284 401 271 400T250 393T240 377T237 350V329H372ZM331 723H503V572H331V723ZM481 701H353V594H481V701ZM109 723H281V572H109V723ZM259 701H131V594H259V701Z"  />
<glyph unicode="&#xEC;" horiz-adv-x="304" d="M50 519H254V0H50V519ZM231 22V497H73V22H231ZM158 723L276 556H121L-72 723H158ZM129 577H235L146 702H-14L129 577Z"  />
<glyph unicode="&#xED;" horiz-adv-x="304" d="M50 519H254V0H50V519ZM231 22V497H73V22H231ZM380 723L187 556H32L150 723H380ZM322 702H162L73 577H179L322 702Z"  />
<glyph unicode="&#xEE;" horiz-adv-x="304" d="M50 519H254V0H50V519ZM231 22V497H73V22H231ZM238 723L367 556H199L152 623L106 556H-62L68 723H238ZM-18 577H95L152 657L211 577H323L226 702H79L-18 577Z"  />
<glyph unicode="&#xEF;" horiz-adv-x="304" d="M50 519H254V0H50V519ZM231 22V497H73V22H231ZM178 723H350V572H178V723ZM328 701H200V594H328V701ZM-44 723H128V572H-44V723ZM106 701H-22V594H106V701Z"  />
<glyph unicode="&#xF0;" horiz-adv-x="545" d="M211 306Q211 338 224 354T274 370Q295 370 307 366T326 349T333 316T335 260Q335 242 334 224T332 189T329 160T325 145Q320 136 309 132T274 127Q249 127 238 130T221 142Q216 149 214 160T211 201V306ZM244 476Q192 476 157 464T101 425T70 358T60 261Q60 182 68 138T94 72Q114 45 154 30T263 14Q331 14 371 23T437 56Q449 67 458 85T473 132T482 201T485 294Q485 353 479 398T459 480T425 550T375 618L433 641L408 701L318 666L255 708L149 655L197 615L133 590L158 530L255 568Q262 562 272 550T292 522T310 490T321 458Q305 469 284 472T244 476ZM244 498Q262 498 283 495Q275 508 266 521T249 543L146 503L105 603L154 622L109 660L256 734L321 690L420 729L462 628L411 609Q435 577 453 545T483 475T501 394T507 294Q507 183 493 124T452 39Q423 13 380 3T263 -8Q190 -8 145 10T77 59Q60 84 49 133T38 261Q38 322 48 367T83 441T146 484T244 498ZM233 201Q233 176 234 168T239 155Q241 152 248 151T274 149Q303 149 307 157Q309 162 310 173T312 198T313 229T313 260Q313 287 312 304T307 331T295 344T274 348Q250 348 242 338T233 306V201Z"  />
<glyph unicode="&#xF1;" horiz-adv-x="610" d="M249 519V488Q275 509 305 518T378 528Q498 528 538 470Q552 450 557 425T562 347V0H356V322Q356 339 354 349T346 365T330 373T302 375Q287 375 278 374T264 367T258 351T256 322V0H50V519H249ZM233 22V315Q233 341 235 357T245 382T266 394T300 397Q347 397 363 382T379 322V22H539V347Q539 396 533 422T512 465Q475 506 380 506Q354 506 334 503T296 492T261 472T226 441V497H73V22H233ZM109 566Q112 601 123 630T153 680T197 712T251 724Q272 724 289 718T320 705T348 691T376 685Q387 685 394 695T404 723H503Q492 655 460 614T366 572Q348 572 332 577T300 589T272 601T245 607Q231 607 224 600T210 566H109ZM195 586Q201 609 213 618T243 628Q259 628 274 623T304 611T334 599T367 593Q412 593 437 619T479 703H420Q407 665 373 665Q358 665 344 671T316 684T285 697T250 703Q205 703 174 672T133 586H195Z"  />
<glyph unicode="&#xF2;" horiz-adv-x="594" d="M297 528Q342 528 376 525T435 516T480 499T513 476Q527 462 535 448T549 412T556 360T558 284Q558 235 557 202T552 146T544 106T529 75Q516 53 497 38T449 12T382 -4T295 -9Q218 -9 173 1T98 35Q80 48 69 65T50 107T39 166T36 247Q36 300 38 338T47 403T64 449T89 482Q103 495 121 503T163 517T220 525T297 528ZM290 506Q218 506 173 497T102 462T68 390T59 270Q59 227 60 196T66 141T76 102T93 72Q116 40 162 27T289 13Q370 13 419 25T494 65Q520 92 526 128Q531 159 533 203T535 299Q535 335 533 361T526 406T514 438T494 462Q480 474 463 482T421 496T365 504T290 506ZM292 407Q349 407 363 386Q366 381 368 373T372 351T373 316T374 264Q374 210 373 180T364 136T340 119T295 116Q269 116 254 119T232 135T223 175T221 249Q221 306 222 338T230 385T251 403T292 407ZM289 385Q272 385 263 383T250 368T245 331T244 260Q244 160 250 148Q254 142 261 140T291 138Q317 138 327 139T341 146Q347 153 349 175T351 254Q351 314 350 339T344 371Q337 385 289 385ZM303 723L421 556H266L73 723H303ZM274 577H380L291 702H131L274 577Z"  />
<glyph unicode="&#xF3;" horiz-adv-x="594" d="M297 528Q342 528 376 525T435 516T480 499T513 476Q527 462 535 448T549 412T556 360T558 284Q558 235 557 202T552 146T544 106T529 75Q516 53 497 38T449 12T382 -4T295 -9Q218 -9 173 1T98 35Q80 48 69 65T50 107T39 166T36 247Q36 300 38 338T47 403T64 449T89 482Q103 495 121 503T163 517T220 525T297 528ZM290 506Q218 506 173 497T102 462T68 390T59 270Q59 227 60 196T66 141T76 102T93 72Q116 40 162 27T289 13Q370 13 419 25T494 65Q520 92 526 128Q531 159 533 203T535 299Q535 335 533 361T526 406T514 438T494 462Q480 474 463 482T421 496T365 504T290 506ZM292 407Q349 407 363 386Q366 381 368 373T372 351T373 316T374 264Q374 210 373 180T364 136T340 119T295 116Q269 116 254 119T232 135T223 175T221 249Q221 306 222 338T230 385T251 403T292 407ZM289 385Q272 385 263 383T250 368T245 331T244 260Q244 160 250 148Q254 142 261 140T291 138Q317 138 327 139T341 146Q347 153 349 175T351 254Q351 314 350 339T344 371Q337 385 289 385ZM526 723L333 556H178L296 723H526ZM468 702H308L219 577H325L468 702Z"  />
<glyph unicode="&#xF4;" horiz-adv-x="594" d="M297 528Q342 528 376 525T435 516T480 499T513 476Q527 462 535 448T549 412T556 360T558 284Q558 235 557 202T552 146T544 106T529 75Q516 53 497 38T449 12T382 -4T295 -9Q218 -9 173 1T98 35Q80 48 69 65T50 107T39 166T36 247Q36 300 38 338T47 403T64 449T89 482Q103 495 121 503T163 517T220 525T297 528ZM290 506Q218 506 173 497T102 462T68 390T59 270Q59 227 60 196T66 141T76 102T93 72Q116 40 162 27T289 13Q370 13 419 25T494 65Q520 92 526 128Q531 159 533 203T535 299Q535 335 533 361T526 406T514 438T494 462Q480 474 463 482T421 496T365 504T290 506ZM292 407Q349 407 363 386Q366 381 368 373T372 351T373 316T374 264Q374 210 373 180T364 136T340 119T295 116Q269 116 254 119T232 135T223 175T221 249Q221 306 222 338T230 385T251 403T292 407ZM289 385Q272 385 263 383T250 368T245 331T244 260Q244 160 250 148Q254 142 261 140T291 138Q317 138 327 139T341 146Q347 153 349 175T351 254Q351 314 350 339T344 371Q337 385 289 385ZM384 723L513 556H345L298 623L252 556H84L214 723H384ZM128 577H241L298 657L357 577H469L372 702H225L128 577Z"  />
<glyph unicode="&#xF5;" horiz-adv-x="594" d="M297 528Q342 528 376 525T435 516T480 499T513 476Q527 462 535 448T549 412T556 360T558 284Q558 235 557 202T552 146T544 106T529 75Q516 53 497 38T449 12T382 -4T295 -9Q218 -9 173 1T98 35Q80 48 69 65T50 107T39 166T36 247Q36 300 38 338T47 403T64 449T89 482Q103 495 121 503T163 517T220 525T297 528ZM290 506Q218 506 173 497T102 462T68 390T59 270Q59 227 60 196T66 141T76 102T93 72Q116 40 162 27T289 13Q370 13 419 25T494 65Q520 92 526 128Q531 159 533 203T535 299Q535 335 533 361T526 406T514 438T494 462Q480 474 463 482T421 496T365 504T290 506ZM292 407Q349 407 363 386Q366 381 368 373T372 351T373 316T374 264Q374 210 373 180T364 136T340 119T295 116Q269 116 254 119T232 135T223 175T221 249Q221 306 222 338T230 385T251 403T292 407ZM289 385Q272 385 263 383T250 368T245 331T244 260Q244 160 250 148Q254 142 261 140T291 138Q317 138 327 139T341 146Q347 153 349 175T351 254Q351 314 350 339T344 371Q337 385 289 385ZM105 566Q108 601 119 630T149 680T193 712T247 724Q268 724 285 718T316 705T344 691T372 685Q383 685 390 695T400 723H499Q488 655 456 614T362 572Q344 572 328 577T296 589T268 601T241 607Q227 607 220 600T206 566H105ZM191 586Q197 609 209 618T239 628Q255 628 270 623T300 611T330 599T363 593Q408 593 433 619T475 703H416Q403 665 369 665Q354 665 340 671T312 684T281 697T246 703Q201 703 170 672T129 586H191Z"  />
<glyph unicode="&#xF6;" horiz-adv-x="594" d="M297 528Q342 528 376 525T435 516T480 499T513 476Q527 462 535 448T549 412T556 360T558 284Q558 235 557 202T552 146T544 106T529 75Q516 53 497 38T449 12T382 -4T295 -9Q218 -9 173 1T98 35Q80 48 69 65T50 107T39 166T36 247Q36 300 38 338T47 403T64 449T89 482Q103 495 121 503T163 517T220 525T297 528ZM290 506Q218 506 173 497T102 462T68 390T59 270Q59 227 60 196T66 141T76 102T93 72Q116 40 162 27T289 13Q370 13 419 25T494 65Q520 92 526 128Q531 159 533 203T535 299Q535 335 533 361T526 406T514 438T494 462Q480 474 463 482T421 496T365 504T290 506ZM292 407Q349 407 363 386Q366 381 368 373T372 351T373 316T374 264Q374 210 373 180T364 136T340 119T295 116Q269 116 254 119T232 135T223 175T221 249Q221 306 222 338T230 385T251 403T292 407ZM289 385Q272 385 263 383T250 368T245 331T244 260Q244 160 250 148Q254 142 261 140T291 138Q317 138 327 139T341 146Q347 153 349 175T351 254Q351 314 350 339T344 371Q337 385 289 385ZM324 723H496V572H324V723ZM474 701H346V594H474V701ZM102 723H274V572H102V723ZM252 701H124V594H252V701Z"  />
<glyph unicode="&#xF7;" horiz-adv-x="667" d="M333 14Q370 14 389 33T409 88Q408 123 389 142T333 162Q297 162 278 143T258 88Q258 53 277 34T333 14ZM72 330V219H596V330H72ZM617 352V197H50V352H617ZM333 -8Q285 -8 261 17T236 88Q236 134 261 159T333 184Q381 184 405 159T431 88Q431 43 406 18T333 -8ZM333 387Q370 387 389 406T409 461Q408 496 389 515T333 535Q297 535 278 516T258 461Q258 426 277 407T333 387ZM333 365Q285 365 261 390T236 461Q236 507 261 532T333 557Q381 557 405 532T431 461Q431 416 406 391T333 365Z"  />
<glyph unicode="&#xF8;" horiz-adv-x="594" d="M532 539L601 472L546 418Q549 404 551 392T555 364T557 329T558 283Q558 226 556 188T549 124T534 81T511 49Q482 18 429 5T288 -9Q255 -9 230 -8T183 -2T144 9T105 27L62 -12L-10 53L48 106Q36 163 36 247Q36 292 37 325T43 382T53 424T69 457Q81 476 99 490T143 512T205 524T290 528Q367 528 411 521T484 495L532 539ZM571 472L532 509L484 466Q469 478 453 485T415 497T363 504T290 506Q212 506 170 496T103 461Q91 449 83 433T69 393T61 339T59 265Q59 206 62 170T74 101L22 53L62 19L103 56Q134 31 176 21T289 11Q371 11 419 23T494 64Q506 77 514 93T526 135T533 195T535 280Q535 307 534 327T531 364T526 394T517 422L571 472ZM219 319Q219 342 221 359T230 387T252 403T292 408Q334 408 350 399T367 372V362L219 232V319ZM343 371Q343 385 296 385Q277 385 266 383T250 373T244 347T242 298V282L343 371ZM368 292V195Q368 171 366 156T355 131T333 119T295 115Q257 115 241 124T222 152L221 161L368 292ZM245 153Q248 142 261 139T295 135Q313 135 323 137T338 146T344 167T346 206V242L245 153Z"  />
<glyph unicode="&#xF9;" horiz-adv-x="610" d="M255 198Q255 181 257 171T264 155T279 147T305 145Q320 145 329 147T344 155T351 171T353 199V519H560V0H359V34Q340 16 306 5T223 -6Q161 -6 126 7T70 51Q64 60 60 71T53 96T49 130T48 177V519H255V198ZM382 22H537V497H376V200Q376 174 374 162T365 142Q348 123 303 123Q255 123 241 145Q236 153 235 163T233 198V497H71V176Q71 149 72 131T75 100T82 78T93 60Q112 36 142 26T224 15Q280 15 316 31T382 83V22ZM310 723L428 556H273L80 723H310ZM281 577H387L298 702H138L281 577Z"  />
<glyph unicode="&#xFA;" horiz-adv-x="610" d="M255 198Q255 181 257 171T264 155T279 147T305 145Q320 145 329 147T344 155T351 171T353 199V519H560V0H359V34Q340 16 306 5T223 -6Q161 -6 126 7T70 51Q64 60 60 71T53 96T49 130T48 177V519H255V198ZM382 22H537V497H376V200Q376 174 374 162T365 142Q348 123 303 123Q255 123 241 145Q236 153 235 163T233 198V497H71V176Q71 149 72 131T75 100T82 78T93 60Q112 36 142 26T224 15Q280 15 316 31T382 83V22ZM533 723L340 556H185L303 723H533ZM475 702H315L226 577H332L475 702Z"  />
<glyph unicode="&#xFB;" horiz-adv-x="610" d="M255 198Q255 181 257 171T264 155T279 147T305 145Q320 145 329 147T344 155T351 171T353 199V519H560V0H359V34Q340 16 306 5T223 -6Q161 -6 126 7T70 51Q64 60 60 71T53 96T49 130T48 177V519H255V198ZM382 22H537V497H376V200Q376 174 374 162T365 142Q348 123 303 123Q255 123 241 145Q236 153 235 163T233 198V497H71V176Q71 149 72 131T75 100T82 78T93 60Q112 36 142 26T224 15Q280 15 316 31T382 83V22ZM391 723L520 556H352L305 623L259 556H91L221 723H391ZM135 577H248L305 657L364 577H476L379 702H232L135 577Z"  />
<glyph unicode="&#xFC;" horiz-adv-x="610" d="M255 198Q255 181 257 171T264 155T279 147T305 145Q320 145 329 147T344 155T351 171T353 199V519H560V0H359V34Q340 16 306 5T223 -6Q161 -6 126 7T70 51Q64 60 60 71T53 96T49 130T48 177V519H255V198ZM382 22H537V497H376V200Q376 174 374 162T365 142Q348 123 303 123Q255 123 241 145Q236 153 235 163T233 198V497H71V176Q71 149 72 131T75 100T82 78T93 60Q112 36 142 26T224 15Q280 15 316 31T382 83V22ZM331 723H503V572H331V723ZM481 701H353V594H481V701ZM109 723H281V572H109V723ZM259 701H131V594H259V701Z"  />
<glyph unicode="&#xFD;" horiz-adv-x="592" d="M208 519L301 195L379 519H592L439 -23Q425 -72 407 -105T364 -157T303 -185T219 -194Q166 -194 126 -186V-48Q139 -49 147 -49T162 -49Q200 -49 218 -38T240 3H159L0 519H208ZM189 497H30L177 25H267Q264 -31 241 -51T167 -72Q165 -72 160 -72T149 -71V-167Q163 -169 183 -170T220 -172Q266 -172 297 -165T351 -139T389 -92T417 -17L562 497H398L303 106L189 497ZM529 723L336 556H181L299 723H529ZM471 702H311L222 577H328L471 702Z"  />
<glyph unicode="&#xFE;" horiz-adv-x="601" d="M255 -189H50V723H256V489Q277 508 308 518T377 528Q476 528 524 470Q536 455 544 439T556 401T563 349T565 274Q565 219 563 181T555 117T539 73T514 40Q488 14 456 3T375 -9Q333 -9 308 0T255 27V-189ZM233 701H73V-167H233V69Q262 43 295 28T376 13Q465 13 505 65Q516 80 523 97T534 139T540 199T542 284Q542 315 542 336T539 372T534 399T524 424Q507 465 471 485T380 506Q334 506 297 489T233 439V701ZM376 204Q376 176 374 160T364 136T341 125T301 123Q278 123 265 125T245 137T235 162T233 207V309Q233 338 236 355T247 383T270 396T309 399Q336 399 349 394T370 375Q374 367 375 356T376 310V204ZM256 186Q256 160 265 153T306 145Q336 145 344 152T353 186V335Q353 361 345 369T312 377Q277 377 267 368T256 328V186Z"  />
<glyph unicode="&#xFF;" horiz-adv-x="592" d="M208 519L301 195L379 519H592L439 -23Q425 -72 407 -105T364 -157T303 -185T219 -194Q166 -194 126 -186V-48Q139 -49 147 -49T162 -49Q200 -49 218 -38T240 3H159L0 519H208ZM189 497H30L177 25H267Q264 -31 241 -51T167 -72Q165 -72 160 -72T149 -71V-167Q163 -169 183 -170T220 -172Q266 -172 297 -165T351 -139T389 -92T417 -17L562 497H398L303 106L189 497ZM327 723H499V572H327V723ZM477 701H349V594H477V701ZM105 723H277V572H105V723ZM255 701H127V594H255V701Z"  />
<glyph unicode="&#x131;" horiz-adv-x="304" d="M50 519H254V0H50V519ZM231 22V497H73V22H231Z"  />
<glyph unicode="&#x152;" horiz-adv-x="990" d="M477 723H949V546H685V447H937V289H685V178H958V0H477V49Q461 33 445 22T407 4T360 -6T297 -9Q213 -9 163 11T81 76Q68 94 59 120T46 173Q45 183 44 206T42 260T41 331T40 411Q40 458 41 490T45 544T55 584T71 620Q102 679 157 705T303 732Q334 732 358 729T402 719T441 701T477 674V723ZM500 22H935V156H662V311H914V425H662V568H926V701H500V612Q482 639 463 657T421 688T368 705T302 710Q227 710 181 692T105 632Q71 582 66 524Q65 514 65 506T64 487T63 460T63 418Q63 337 64 286T67 202T72 153T82 122Q110 55 180 30Q205 20 232 17T298 13Q334 13 362 16T413 30T458 59T500 109V22ZM367 571Q392 571 409 570T438 566T457 558T469 546Q474 538 477 530T483 509T485 473T486 416Q486 379 486 345T484 284T482 238T480 214Q476 195 469 183T450 163T417 153T365 150Q314 150 290 156T254 179Q248 188 245 198T240 229T238 288T237 390Q237 432 237 458T240 501T247 526T258 545Q264 553 271 558T290 566T320 570T367 571ZM380 549Q352 549 334 549T305 546T287 539T276 529Q271 522 268 513T263 490T261 454T260 400Q260 300 263 254T273 194Q281 182 300 177T358 172Q384 172 401 173T429 178T445 189T455 207Q457 214 458 225T461 256T462 305T463 377Q463 441 462 476T452 527T427 546T380 549Z"  />
<glyph unicode="&#x153;" horiz-adv-x="929" d="M901 157Q901 77 855 37Q826 11 783 1T663 -9Q616 -9 587 -7T538 0T505 17T477 46Q466 30 452 20T416 3T364 -6T291 -9Q249 -9 219 -7T165 1T123 16T90 40Q73 54 61 75T44 117Q39 136 38 166T36 254Q36 296 37 326T42 379T50 417T65 449Q90 491 141 509T282 528Q328 528 360 526T414 517T451 500T477 473Q489 488 503 498T536 515T577 525T633 528Q725 528 779 512T863 459Q881 436 891 399T901 317V222H579V164Q579 141 589 135T636 128Q666 128 675 129T690 135Q700 143 700 155V164H901V157ZM878 316Q878 362 867 397T834 455Q820 469 803 479T762 495T707 503T635 506Q599 506 576 503T535 492T504 470T477 433Q464 457 451 471T418 493T365 503T283 506Q247 506 221 504T174 498T139 486T111 467Q95 453 85 437T69 396T61 339T58 257Q58 215 59 185T65 134T76 97T94 69Q106 54 122 43T162 26T215 16T287 13Q335 13 365 15T415 24T448 46T477 85Q492 61 504 47T535 25T582 15T655 13Q694 13 720 14T766 19T800 29T828 44Q852 60 863 82T878 142H720Q714 120 699 113T645 106Q593 106 575 118T556 162V244H878V316ZM556 307V372Q556 397 573 410Q582 417 596 419T641 422Q688 422 704 412T721 370V307H556ZM698 329V368Q698 379 696 385T688 395T669 399T636 400Q599 400 589 395T579 370V329H698ZM312 404Q344 404 359 400T383 384Q387 378 389 371T393 350T395 318T396 270Q396 214 395 183T385 137T360 119T312 116Q292 116 280 116T259 118T245 123T236 132Q230 138 227 145T221 164T219 196T218 250Q218 287 218 310T220 347T224 369T232 383Q240 395 257 399T312 404ZM308 382Q279 382 267 379T249 368Q244 360 242 328T240 237Q240 202 241 182T248 152T266 140T299 138Q334 138 346 140T365 148Q368 151 370 156T372 172T373 202T374 253Q374 286 374 307T373 340T371 359T367 369Q362 377 350 379T308 382Z"  />
<glyph unicode="&#x160;" horiz-adv-x="723" d="M261 243V220Q261 203 263 193T275 177T301 171T349 169Q376 169 393 169T420 170T436 172T444 175Q450 178 452 188T454 222Q454 237 453 246T446 261T428 270T391 275L252 285Q199 289 161 302T97 341T59 406T46 503Q46 635 113 686Q131 699 151 708T198 722T262 730T353 732Q403 732 437 731T497 725T541 714T579 695Q621 671 638 634T655 533V491H441V512Q441 526 439 534T428 547T401 553T352 555Q324 555 309 554T285 546T275 529T273 497Q273 484 275 477T285 465T310 458T355 453L455 446Q517 441 560 428T631 389T670 323T682 224Q682 154 665 111T609 38Q591 25 570 16T521 2T454 -6T365 -9Q305 -9 261 -6T184 4T128 22T87 51Q74 63 66 76T52 107T45 148T43 205V243H261ZM66 221V200Q66 172 68 151T75 114T89 86T109 64Q125 50 146 40T198 24T270 16T367 13Q411 13 443 14T501 20T545 30T581 46Q622 69 640 113T659 230Q659 282 648 317T612 375T548 408T453 424L348 432Q316 434 297 438T268 450T255 470T251 501Q251 525 254 539T268 562T297 574T344 577Q382 577 405 575T442 568T459 552T464 526V513H632V538Q632 625 584 664Q568 677 549 686T502 700T437 707T349 710Q306 710 275 709T220 704T179 695T145 680Q106 659 88 616T69 500Q69 450 80 415T113 357T171 322T254 307L391 297Q419 295 436 292T462 281T473 259T476 222Q476 193 474 182T466 162Q461 157 456 154T442 150T419 148T381 147Q292 147 275 152Q238 163 238 209V221H66ZM275 749L146 916H314L361 849L407 916H575L445 749H275ZM531 895H418L361 815L302 895H190L287 770H434L531 895Z"  />
<glyph unicode="&#x161;" horiz-adv-x="600" d="M234 164V152Q234 139 235 132T242 120T258 115T289 114Q318 114 334 115T357 120T366 132T368 155Q368 165 367 171T361 182T346 187T319 190L233 196Q179 200 141 210T79 240T45 288T34 357Q34 402 46 435T85 488Q114 510 161 519T294 528Q366 528 415 521T495 498T538 454T551 388V365H354V380Q354 389 353 394T345 403T327 407T294 408Q271 408 259 407T240 402T232 391T230 371Q230 363 231 358T236 348T251 342T280 339L372 333Q417 330 453 322T516 294T556 245T570 167Q570 126 557 94T519 41Q503 28 484 19T439 3T380 -6T305 -9Q226 -9 173 -1T87 26T41 77T27 156V164H234ZM50 142Q52 104 65 79T107 40T184 19T306 13Q382 13 427 22T499 52Q521 70 533 100T546 169Q546 209 534 235T498 277T441 300T366 311L273 318Q252 319 240 322T220 331T210 347T207 372Q207 390 210 401T221 418T245 426T287 429H317Q355 429 366 421T377 393V387H528V397Q528 452 482 478Q456 493 414 499T299 506Q228 506 181 499T107 476T68 431T57 360Q57 324 66 299T96 256T151 230T236 217L326 211Q347 209 360 207T379 198T388 183T391 160Q391 137 389 124T377 103T352 94T307 91H277Q239 91 225 102T211 133V142H50ZM211 556L82 723H250L297 656L343 723H511L381 556H211ZM467 702H354L297 622L238 702H126L223 577H370L467 702Z"  />
<glyph unicode="&#x178;" horiz-adv-x="687" d="M461 723H713L458 256V0H229V256L-26 723H226L343 473L461 723ZM210 701H14L252 260V22H435V260L673 701H475L343 420L210 701ZM373 916H545V765H373V916ZM523 894H395V787H523V894ZM151 916H323V765H151V916ZM301 894H173V787H301V894Z"  />
<glyph unicode="&#x17D;" horiz-adv-x="666" d="M636 538L321 190H640V0H20V181L342 537H39V723H636V538ZM43 173V22H617V168H270L613 546V701H62V559H393L43 173ZM248 749L119 916H287L334 849L380 916H548L418 749H248ZM504 895H391L334 815L275 895H163L260 770H407L504 895Z"  />
<glyph unicode="&#x17E;" horiz-adv-x="538" d="M511 366L281 147H518V0H20V152L254 373H35V519H511V366ZM488 375V497H58V395H309L43 142V22H495V125H225L488 375ZM188 556L59 723H227L274 656L320 723H488L358 556H188ZM444 702H331L274 622L215 702H103L200 577H347L444 702Z"  />
<glyph unicode="&#x192;" horiz-adv-x="667" d="M-5 -7Q18 -11 36 -12T66 -14Q92 -14 109 -11T137 0T155 21T166 56L218 331H101V465H244Q251 503 258 532T274 583T292 623T315 656Q333 678 351 692T394 716T449 728T522 732Q550 732 580 731T639 725V560Q610 566 593 568T555 570Q509 570 488 547T458 465H579V331H432L395 123Q379 34 358 -24T304 -116T221 -163T100 -177Q76 -177 45 -175T-5 -169V-7ZM18 -149Q42 -152 59 -153T96 -154Q168 -154 214 -142T290 -99T338 -12T371 128L412 353H556V443H431Q435 478 442 506T463 553T500 582T558 592Q572 592 586 591T616 587V705Q590 707 569 708T524 710Q482 710 451 706T397 692T355 667T322 627Q303 598 290 555T264 443H124V353H246L188 51Q183 26 175 10T154 -17T120 -31T72 -36Q61 -36 47 -35T18 -32V-149Z"  />
<glyph unicode="&#x237;" horiz-adv-x="304" d="M254 73Q254 32 253 4T247 -43T236 -77T217 -104Q196 -129 162 -140T70 -151Q53 -151 35 -150T1 -145V-5H15Q37 -5 43 0T50 21V519H254V73ZM24 -126Q43 -129 70 -129Q124 -129 153 -120T200 -87Q210 -75 216 -63T225 -34T230 9T231 73V497H73V25Q73 -1 62 -13T24 -26V-126Z"  />
<glyph unicode="&#x2C6;" horiz-adv-x="304" d="M238 723L367 556H199L152 623L106 556H-62L68 723H238ZM-18 577H95L152 657L211 577H323L226 702H79L-18 577Z"  />
<glyph unicode="&#x2DC;" horiz-adv-x="304" d="M-45 566Q-42 601 -31 630T-1 680T43 712T97 724Q118 724 135 718T166 705T194 691T222 685Q233 685 240 695T250 723H349Q338 655 306 614T212 572Q194 572 178 577T146 589T118 601T91 607Q77 607 70 600T56 566H-45ZM41 586Q47 609 59 618T89 628Q105 628 120 623T150 611T180 599T213 593Q258 593 283 619T325 703H266Q253 665 219 665Q204 665 190 671T162 684T131 697T96 703Q51 703 20 672T-21 586H41Z"  />
<glyph unicode="&#x2013;" horiz-adv-x="667" d="M667 358V194H0V358H667ZM23 216H644V336H23V216Z"  />
<glyph unicode="&#x2014;" horiz-adv-x="1000" d="M940 358V194H60V358H940ZM83 216H917V335H83V216Z"  />
<glyph unicode="&#x2018;" horiz-adv-x="256" d="M38 419V561Q38 605 44 637T68 691T116 722T194 732H218V633H195Q172 633 165 629T158 611V604H215V419H38ZM192 441V582H135V601Q135 630 146 641T184 654H195V710H185Q146 709 122 701T84 674T66 626T61 553V441H192Z"  />
<glyph unicode="&#x2019;" horiz-adv-x="256" d="M218 723V581Q218 537 212 505T188 451T140 420T62 410H38V509H61Q84 509 91 513T98 531V538H41V723H218ZM64 701V560H121V541Q121 512 110 501T72 488H61V432H71Q110 433 134 441T171 468T190 516T195 589V701H64Z"  />
<glyph unicode="&#x201A;" horiz-adv-x="256" d="M218 197V55Q218 11 212 -21T188 -75T140 -106T62 -116H38V-17H61Q84 -17 91 -13T98 5V12H41V197H218ZM64 175V34H121V15Q121 -14 110 -25T72 -38H61V-94H71Q110 -93 134 -85T171 -58T190 -10T195 63V175H64Z"  />
<glyph unicode="&#x201C;" horiz-adv-x="500" d="M282 419V561Q282 605 288 637T312 691T360 722T438 732H462V633H439Q416 633 409 629T402 611V604H459V419H282ZM436 441V582H379V601Q379 630 390 641T428 654H439V710H429Q390 709 366 701T328 674T310 626T305 553V441H436ZM37 419V561Q37 605 43 637T67 691T115 722T193 732H217V633H194Q171 633 164 629T157 611V604H214V419H37ZM191 441V582H134V601Q134 630 145 641T183 654H194V710H184Q145 709 121 701T83 674T65 626T60 553V441H191Z"  />
<glyph unicode="&#x201D;" horiz-adv-x="500" d="M218 723V581Q218 537 212 505T188 451T140 420T62 410H38V509H61Q84 509 91 513T98 531V538H41V723H218ZM64 701V560H121V541Q121 512 110 501T72 488H61V432H71Q110 433 134 441T171 468T190 516T195 589V701H64ZM463 723V581Q463 537 457 505T433 451T385 420T307 410H283V509H306Q329 509 336 513T343 531V538H286V723H463ZM309 701V560H366V541Q366 512 355 501T317 488H306V432H316Q355 433 379 441T416 468T435 516T440 589V701H309Z"  />
<glyph unicode="&#x201E;" horiz-adv-x="500" d="M218 197V55Q218 11 212 -21T188 -75T140 -106T62 -116H38V-17H61Q84 -17 91 -13T98 5V12H41V197H218ZM64 175V34H121V15Q121 -14 110 -25T72 -38H61V-94H71Q110 -93 134 -85T171 -58T190 -10T195 63V175H64ZM463 197V55Q463 11 457 -21T433 -75T385 -106T307 -116H283V-17H306Q329 -17 336 -13T343 5V12H286V197H463ZM309 175V34H366V15Q366 -14 355 -25T317 -38H306V-94H316Q355 -93 379 -85T416 -58T435 -10T440 63V175H309Z"  />
<glyph unicode="&#x2020;" horiz-adv-x="667" d="M87 560H235V723H433V560H581V391H433V0H235V391H87V560ZM110 413H258V22H410V413H558V538H410V701H258V538H110V413Z"  />
<glyph unicode="&#x2021;" horiz-adv-x="667" d="M237 723H431V594H561V433H431V294H561V133H431V0H237V133H107V294H237V433H107V594H237V723ZM408 22V155H537V272H408V455H537V572H408V701H260V572H130V455H260V272H130V155H260V22H408Z"  />
<glyph unicode="&#x2022;" horiz-adv-x="333" d="M169 496Q200 496 227 484T275 452T308 404T320 345Q320 313 308 285T276 235T227 202T167 190Q135 190 107 202T59 235T26 284T14 345Q14 377 26 404T59 452T108 484T169 496Z"  />
<glyph unicode="&#x2026;" horiz-adv-x="1000" d="M80 197H270V0H80V197ZM247 22V175H103V22H247ZM385 197H575V0H385V197ZM552 22V175H408V22H552ZM690 197H880V0H690V197ZM857 22V175H713V22H857Z"  />
<glyph unicode="&#x2030;" horiz-adv-x="1000" d="M544 723L245 0H136L434 723H544ZM228 22L512 701H450L167 22H228ZM673 116Q673 82 667 60T647 23Q638 13 630 7T608 -2T576 -7T529 -9Q499 -9 479 -7T446 -1T423 10T405 28Q386 51 386 117V230Q386 264 392 285T412 323Q421 332 430 338T451 348T482 353T527 355Q553 355 570 354T598 351T618 345T636 335Q656 323 664 304T673 263V116ZM577 117Q577 91 568 82T530 73Q501 73 491 81T480 114V222Q480 253 490 263T528 274Q557 274 567 266T577 231V117ZM555 229Q555 243 550 248T531 253Q514 253 508 247T502 223V118Q502 103 507 99T529 94Q545 94 550 98T555 114V229ZM651 265Q651 280 646 292T625 316Q618 320 611 323T591 329T562 333T518 334Q495 334 481 333T456 328T440 319T426 304Q416 291 412 274T408 230V114Q408 80 411 65T426 37Q432 30 439 26T459 18T489 14T534 12Q558 12 574 13T601 18T619 27T633 42Q643 55 647 72T651 116V265ZM993 116Q993 82 987 60T967 23Q958 13 950 7T928 -2T896 -7T849 -9Q819 -9 799 -7T766 -1T743 10T725 28Q706 51 706 117V230Q706 264 712 285T732 323Q741 332 750 338T771 348T802 353T847 355Q873 355 890 354T918 351T938 345T956 335Q976 323 984 304T993 263V116ZM897 117Q897 91 888 82T850 73Q821 73 811 81T800 114V222Q800 253 810 263T848 274Q877 274 887 266T897 231V117ZM875 229Q875 243 870 248T851 253Q834 253 828 247T822 223V118Q822 103 827 99T849 94Q865 94 870 98T875 114V229ZM971 265Q971 280 966 292T945 316Q938 320 931 323T911 329T882 333T838 334Q815 334 801 333T776 328T760 319T746 304Q736 291 732 274T728 230V114Q728 80 731 65T746 37Q752 30 759 26T779 18T809 14T854 12Q878 12 894 13T921 18T939 27T953 42Q963 55 967 72T971 116V265ZM296 493Q296 459 290 437T270 400Q261 390 253 384T231 375T199 370T152 368Q122 368 102 370T69 376T46 387T28 405Q9 428 9 494V607Q9 641 15 662T35 700Q44 709 53 715T74 725T105 730T150 732Q176 732 193 731T221 728T241 722T259 712Q279 700 287 681T296 640V493ZM200 494Q200 468 191 459T153 450Q124 450 114 458T103 491V599Q103 630 113 640T151 651Q180 651 190 643T200 608V494ZM178 606Q178 620 173 625T154 630Q137 630 131 624T125 600V495Q125 480 130 476T152 471Q168 471 173 475T178 491V606ZM274 642Q274 657 269 669T248 693Q241 697 234 700T214 706T185 710T141 711Q118 711 104 710T79 705T63 696T49 681Q39 668 35 651T31 607V491Q31 457 34 442T49 414Q55 407 62 403T82 395T112 391T157 389Q181 389 197 390T224 395T242 404T256 419Q266 432 270 449T274 493V642Z"  />
<glyph unicode="&#x2039;" horiz-adv-x="281" d="M262 420L154 266L267 113H122L12 266L122 420H262ZM135 398L40 266L136 135H221L127 266L219 398H135Z"  />
<glyph unicode="&#x203A;" horiz-adv-x="281" d="M19 113L127 267L14 420H159L269 267L159 113H19ZM146 135L241 267L145 398H60L154 267L62 135H146Z"  />
<glyph unicode="&#x20AC;" horiz-adv-x="667" d="M83 470L62 397H142V319H83L62 246H144Q150 194 167 151T218 78T302 30T422 13Q466 13 508 23T579 52V184Q548 163 514 155T437 146Q376 146 344 172T304 246H484L503 319H304V397H521L541 470H305Q309 520 341 548T432 577Q470 577 501 570T562 548L600 675Q580 684 561 691T522 702T477 708T422 710Q294 710 224 648T143 470H83ZM123 492Q139 609 214 670T422 732Q458 732 485 730T535 722T580 708T625 689L574 518Q533 540 500 547T431 555Q389 555 365 538T333 492H569L537 375H326V341H531L500 224H336Q342 201 368 185T437 168Q457 168 476 170T516 178T557 196T601 228V38Q564 14 516 3T422 -9Q349 -9 297 8T209 55T153 129T125 224H33L67 341H121V375H33L67 492H123Z"  />
<glyph unicode="&#x2122;" horiz-adv-x="1000" d="M430 362H533V592L614 362H717L799 592V362H902V702H745L668 472L591 702H430V362ZM51 702V605H145V362H252V605H347V702H51ZM369 723V583H274V340H123V583H29V723H369ZM408 723H607L668 542L728 723H924V340H777V467L734 340H598L555 469V340H408V723Z"  />

</font>
</defs>
</svg>
