<?xml  version="1.0" encoding="UTF-8"?>
<!DOCTYPE svg PUBLIC "-//W3C//DTD SVG 1.0//EN" "http://www.w3.org/TR/2001/REC-SVG-20010904/DTD/svg10.dtd" >
<svg xmlns="http://www.w3.org/2000/svg" >
<metadata>
<version>1.0</version>
<id><![CDATA[Eurostile LT W01 Bold]]></id>
<vendor>Monotype Imaging Inc.</vendor>
<credits>
<name>Fonts.com WebFonts</name>
<URL>http://webfonts.fonts.com</URL>
<role>Home of the Web fonts</role>
</credits>
<license>
<URL>http://webfonts.fonts.com/Legal</URL>
</license>
<copyright><![CDATA[Copyright © 2007 - 2010 Linotype GmbH, www.linotype.com. All rights reserved. This font software may not be reproduced, modified, disclosed or transferred without the express written approval of Linotype GmbH. Eurostile is a trademark of Linotype GmbH and may be registered in certain jurisdictions. This typeface is original artwork of Aldo Novarese. The design may be protected in certain jurisdictions.]]></copyright>
<trademark><![CDATA[Eurostile is a trademark of Linotype GmbH and may be registered in certain jurisdictions.]]></trademark>
<licensee>
<name></name>
</licensee>
</metadata>
<defs >
<font horiz-adv-x="571" id="5c7a99f2-1760-495e-9fb8-23d9b962d378">
<font-face font-family="" panose-1="2 11 8 4 2 2 2 5 2 4" ascent="974" descent="-277" units-per-em="1000" alphabetic="0">
</font-face>
<missing-glyph horiz-adv-x="333" />

<glyph unicode="&#xA;" />
<glyph unicode="&#xD;" />
<glyph unicode=" " horiz-adv-x="333" />
<glyph unicode="!" horiz-adv-x="333" d="M78 723H255L253 286H84L78 723ZM81 167H252V0H81V167Z"  />
<glyph unicode="&quot;" horiz-adv-x="395" d="M169 723V593L130 424H62L26 593V723H169ZM369 723V593L330 424H262L226 593V723H369Z"  />
<glyph unicode="#" horiz-adv-x="667" d="M619 426H521L494 303H576V183H468L429 0H309L348 183H226L187 0H67L106 183H41V303H132L159 426H84V546H185L223 723H343L305 546H427L465 723H585L547 546H619V426ZM252 303H374L401 426H279L252 303Z"  />
<glyph unicode="$" horiz-adv-x="667" d="M211 219Q211 197 214 183T226 159T249 147T285 143Q287 143 292 143T304 144V292Q177 298 119 333Q79 357 63 397T46 508Q46 580 64 621T126 688Q154 704 194 711T303 719V773H352V719Q425 718 472 709T548 677T588 617T600 523H434V530Q434 556 417 565T353 574V440Q394 436 425 432T480 422T521 409T553 392Q593 366 610 327T627 221Q627 78 538 29Q524 21 507 16T467 7T418 1T354 -2V-67H308V-2Q265 -1 234 1T179 9T137 23T102 44Q70 68 55 104T39 194Q39 201 39 206T40 219H211ZM302 574H293Q250 574 234 560T217 510Q217 473 235 458T302 443V574ZM355 145Q386 145 404 147T432 157T445 178T448 213Q448 236 446 249T435 270T407 280T355 288V145Z"  />
<glyph unicode="%" horiz-adv-x="1000" d="M578 733H667L427 -13H336L578 733ZM600 337Q600 409 636 445Q658 467 694 476T794 486Q859 486 896 476T954 442Q964 430 970 415T981 376T986 320T988 241Q988 193 987 161T982 106T974 68T961 42Q941 16 897 5T772 -7Q710 -7 677 4T623 45Q610 64 605 90T600 162V337ZM739 146Q739 119 747 111T785 103Q814 103 826 106T843 119Q844 122 845 137T848 174T849 226T850 287Q850 315 849 332T842 359T828 372T804 375Q782 375 769 374T750 368T741 355T739 331V146ZM17 576Q17 648 53 684Q75 706 111 715T211 725Q276 725 313 715T371 681Q381 669 387 654T398 615T403 559T405 480Q405 432 404 400T399 345T391 307T378 281Q358 255 314 244T189 232Q127 232 94 243T40 284Q27 303 22 329T17 401V576ZM156 385Q156 358 164 350T202 342Q231 342 243 345T260 358Q261 361 262 376T265 413T266 465T267 526Q267 554 266 571T259 598T245 611T221 614Q199 614 186 613T167 607T158 594T156 570V385Z"  />
<glyph unicode="&amp;" horiz-adv-x="778" d="M597 57Q583 39 564 27T518 8T452 -3T360 -6Q271 -6 213 4T121 41T74 111T60 224Q60 275 65 310T85 367T122 402T180 420Q162 436 150 449T132 478T123 512T120 558Q120 609 132 642T171 695Q184 705 200 712T237 723T288 728T359 730Q406 730 440 728T500 719T544 702T579 677Q593 664 602 650T616 615T623 568T625 502H469V512Q468 546 465 559T454 580Q437 594 382 594Q352 594 333 592T304 585T291 569T287 541Q287 521 290 513T305 494L528 297V377H685V286Q685 272 684 257T681 226T675 196T669 173L764 93L680 -9L597 57ZM264 341Q254 338 248 333T238 318T233 289T232 243Q232 204 237 185T255 156Q269 145 294 141T364 136Q406 136 439 140T480 154L264 341Z"  />
<glyph unicode="&apos;" horiz-adv-x="220" d="M185 723V593L146 424H70L34 593V723H185Z"  />
<glyph unicode="(" horiz-adv-x="333" d="M291 598Q267 598 254 594T233 576T225 535T223 461V201Q223 157 234 142T278 127H291V0Q280 -1 270 -1T254 -1Q198 -1 161 10T100 49T66 119T56 227V451Q56 532 64 581T89 657Q112 693 151 708T260 724Q263 724 272 724T291 723V598Z"  />
<glyph unicode=")" horiz-adv-x="333" d="M40 125Q64 125 77 129T98 147T106 188T108 262V522Q108 566 97 581T53 596H40V723Q51 724 61 724T77 724Q132 724 170 713T231 674T265 604T275 496V272Q275 191 267 142T242 66Q219 30 180 15T71 -1Q68 -1 59 -1T40 0V125Z"  />
<glyph unicode="*" horiz-adv-x="500" d="M247 608L178 569L104 683L184 729L247 608ZM311 729L394 685L317 571L253 609L311 729ZM454 573V481L320 487L319 566L454 573ZM40 483V572L175 565V491L40 483ZM178 486L246 448L186 328L104 373L178 486ZM319 485L394 370L313 326L251 447L319 485Z"  />
<glyph unicode="+" horiz-adv-x="667" d="M262 341V544H405V341H617V203H405V0H262V203H50V341H262Z"  />
<glyph unicode="&#x2c;" horiz-adv-x="333" d="M81 -56Q100 -55 111 -53T128 -47T135 -35T137 -15Q137 -11 137 -8T136 2H83V174H236V57Q236 0 231 -29T213 -78Q198 -102 168 -115T96 -128H81V-56Z"  />
<glyph unicode="-" horiz-adv-x="333" d="M26 347H308V197H26V347Z"  />
<glyph unicode="." horiz-adv-x="333" d="M80 174H239V0H80V174Z"  />
<glyph unicode="/" horiz-adv-x="333" d="M225 731H320L106 -9H10L225 731Z"  />
<glyph unicode="0" horiz-adv-x="667" d="M332 731Q431 731 488 712T580 646Q593 628 602 608T616 559T623 489T625 388Q625 306 623 254T615 168T599 112T571 69Q539 29 478 10T319 -9Q247 -9 200 4T116 50Q94 69 80 91T57 146T46 227T42 345Q42 443 49 510T70 608Q84 640 108 666T161 706Q188 719 232 725T332 731ZM232 251Q232 233 232 221T234 200T238 186T245 175Q256 160 273 155T329 150Q373 150 395 156T425 176Q435 193 435 218V429Q435 465 435 485T434 516T430 533T423 547Q414 561 396 567T340 573Q301 573 279 571T247 555T234 514T232 435V251Z"  />
<glyph unicode="1" horiz-adv-x="667" d="M340 0V539L170 390Q163 394 149 408T118 441T85 478T59 512L305 723H523V0H340Z"  />
<glyph unicode="2" horiz-adv-x="667" d="M53 475Q52 486 52 498T52 514Q52 576 65 613T111 679Q128 694 147 704T190 720T245 728T320 731Q362 731 394 730T450 724T494 715T530 700Q576 677 596 629T616 495Q616 439 609 404T582 346T528 308T439 278L301 240Q278 234 265 229T245 217T237 201T235 176V157H612V0H47V169Q47 218 56 252T87 310T148 352T244 386L350 415Q376 422 391 427T415 440T425 456T428 480Q428 516 426 537T414 568T386 581T334 584Q296 584 276 583T245 571T233 538T231 475H53Z"  />
<glyph unicode="3" horiz-adv-x="667" d="M228 242Q227 233 227 227T227 218Q227 195 230 183T243 161Q254 148 270 145T327 141Q361 141 381 143T413 154T428 176T432 215Q432 251 427 266T406 289Q396 294 374 296T322 299Q317 299 310 299T289 298V441H313Q389 441 406 452Q423 463 423 510Q423 534 420 548T406 571T376 581T323 584Q287 584 270 579T245 561Q242 556 241 552T238 541T237 522T235 490H58Q57 498 57 507T57 521Q57 637 126 691Q152 711 202 721T325 732Q404 732 458 722T546 688T595 626T610 531Q610 454 584 418T495 374Q531 366 555 354T594 321T615 273T622 204Q622 146 609 111T567 49Q548 33 526 22T477 4T414 -6T334 -9Q262 -9 216 -2T140 20Q100 40 79 69T51 141Q49 152 49 161T47 181T46 206T46 242H228Z"  />
<glyph unicode="4" horiz-adv-x="667" d="M576 0H386V141H23V351L287 723H576V286H634V141H576V0ZM386 286V569L192 286H386Z"  />
<glyph unicode="5" horiz-adv-x="667" d="M581 725V585H239V453Q252 481 284 492T381 504Q451 504 494 491T567 446Q595 417 606 372T618 250Q618 175 606 130T566 55Q549 37 529 25T480 6T413 -5T323 -8Q281 -8 250 -5T193 4T148 21T111 48Q82 74 70 108T58 200V215H236Q235 210 235 207T235 201Q235 182 238 171T251 153T278 144T323 141Q360 141 381 143T412 157T424 191T427 256Q427 294 425 315T413 347T381 360T322 362Q272 362 256 356T240 330V324H70V725H581Z"  />
<glyph unicode="6" horiz-adv-x="667" d="M420 522Q420 541 417 553T405 571T377 580T330 582Q298 582 280 579T253 564T242 527T239 461Q239 454 239 448T239 435T240 417T242 392Q261 419 292 430T386 441Q422 441 450 439T500 430T539 415T570 392Q583 380 592 366T607 332T615 287T618 229Q618 190 615 161T605 110T586 72T556 41Q539 27 519 18T471 3T409 -5T327 -8Q259 -8 220 -2T152 18Q98 47 75 94T52 226V466Q52 540 63 583T101 658Q136 698 188 715T328 732Q472 732 535 690T599 553Q599 548 599 540T598 522H420ZM347 301Q311 301 290 299T257 289T242 268T238 232Q238 203 241 185T251 157T273 144T309 140Q350 140 374 142T410 150T425 170T429 207Q429 239 427 258T416 286T392 298T347 301Z"  />
<glyph unicode="7" horiz-adv-x="667" d="M160 0L401 560H56V723H602V560L363 0H160Z"  />
<glyph unicode="8" horiz-adv-x="667" d="M179 376Q132 385 101 415Q81 435 73 458T64 522Q64 587 77 623T122 685Q139 698 157 706T199 720T254 728T330 730Q421 730 473 717T556 674Q581 648 591 617T601 533Q601 455 574 419T484 375Q554 360 584 320T615 202Q615 94 557 44Q540 30 520 20T478 6Q443 0 403 -3T319 -7Q277 -7 246 -5T189 4T144 19T106 44Q74 70 59 107T44 202Q44 282 77 324T179 376ZM322 593Q296 593 281 590T258 578Q251 571 249 559T247 517Q247 490 249 475T258 451T280 440T319 437Q355 437 375 438T404 448T416 475T418 525Q418 548 415 561T403 582T374 591T322 593ZM321 306Q289 306 272 302T244 290Q236 282 233 270T230 227Q230 194 232 176T245 148T274 136T329 133Q363 133 383 135T413 147T425 174T428 226Q428 252 425 268T410 292T377 303T321 306Z"  />
<glyph unicode="9" horiz-adv-x="667" d="M227 204Q226 200 226 197T226 191Q226 180 230 169T241 152Q253 140 296 140Q304 140 318 140T347 141T374 143T390 145Q412 149 418 160T425 207V348Q417 332 410 324T392 309Q372 297 339 292T253 287Q154 287 101 331Q71 357 58 397T45 504Q45 571 59 612T108 682Q138 708 190 719T330 731Q425 731 480 715T568 663Q583 646 592 626T607 578T615 508T617 408Q617 328 616 275T611 187T602 130T587 91Q548 21 461 3Q440 -2 397 -5T293 -8Q225 -8 176 4T99 39Q68 65 56 99T43 189V204H227ZM318 582Q265 582 246 568Q239 561 237 552T235 515Q235 475 237 461T247 440Q260 428 318 428Q396 428 411 440Q419 446 422 462T425 516Q425 542 423 553T412 570Q403 576 381 579T318 582Z"  />
<glyph unicode=":" horiz-adv-x="333" d="M87 509H246V336H87V509ZM87 174H246V0H87V174Z"  />
<glyph unicode=";" horiz-adv-x="333" d="M87 509H246V336H87V509ZM88 -56Q107 -55 118 -53T135 -47T142 -35T144 -15Q144 -11 144 -8T143 2H90V174H243V57Q243 0 238 -29T220 -78Q205 -102 175 -115T103 -128H88V-56Z"  />
<glyph unicode="&lt;" horiz-adv-x="667" d="M50 336L609 535V388L240 270V268L609 149V2L50 200V336Z"  />
<glyph unicode="=" horiz-adv-x="667" d="M612 463V333H55V463H612ZM612 216V86H55V216H612Z"  />
<glyph unicode="&gt;" horiz-adv-x="667" d="M617 201L58 2V149L427 267V269L58 388V535L617 337V201Z"  />
<glyph unicode="?" horiz-adv-x="556" d="M28 530V554Q28 652 75 693Q87 704 102 711T138 722T186 729T252 731Q298 731 331 729T389 723T431 710T464 690Q490 668 502 634T514 542Q514 502 508 472T485 419T441 376T371 337Q344 325 336 313T327 274Q327 270 327 267T328 259H160V284Q160 321 164 346T182 390T220 427T285 465Q306 475 318 482T336 498T343 516T345 544Q345 563 342 575T329 593T304 602T260 605Q222 605 208 592T193 546Q193 544 193 540T194 530H28ZM156 167H327V0H156V167Z"  />
<glyph unicode="@" horiz-adv-x="994" d="M497 426Q594 426 615 354L628 413H758L702 164Q700 152 699 143T697 125Q697 111 704 102T727 92Q745 92 762 101T794 133T817 193T826 284Q826 402 758 459T539 516Q449 516 385 493T278 424T216 314T196 167Q196 107 213 58T270 -25T373 -77T528 -96Q583 -96 642 -89T780 -64V-171Q745 -178 714 -183T650 -193T583 -200T509 -203Q393 -203 307 -178T164 -104T79 12T50 167Q50 272 78 356T167 499T321 590T546 622Q644 622 719 599T846 531T923 424T950 283Q950 213 932 160T882 72T807 18T713 0Q661 0 632 20T595 74Q579 53 564 39T532 16T495 4T450 0Q365 0 325 34T284 134Q284 154 285 179T293 237Q303 292 319 328T360 386T418 417T497 426ZM519 319Q481 319 460 301T429 231Q427 224 426 214T424 195T423 177T422 164Q422 139 435 125T487 110Q534 110 551 127T577 184L588 239Q589 244 589 251T590 262Q590 288 576 303T519 319Z"  />
<glyph unicode="A" horiz-adv-x="722" d="M511 723L713 0H510L477 130H246L215 0H9L212 723H511ZM441 273L369 573H353L281 273H441Z"  />
<glyph unicode="B" horiz-adv-x="715" d="M69 723H369Q454 723 501 715T581 688Q619 665 636 627T653 525Q653 477 643 450T610 405Q591 391 571 384T522 373Q564 366 591 354T636 321T660 269T667 194Q667 138 655 101T612 41T532 9T407 0H69V723ZM262 438H390Q414 438 427 439T447 448T455 472T457 519Q457 538 454 547T443 560Q440 561 433 563T413 566T379 568T324 569Q311 569 298 569T262 567V438ZM262 157H409Q430 157 442 159T460 168T467 191T469 235Q469 261 466 272T452 289Q441 294 413 296T324 299Q316 299 302 299T262 297V157Z"  />
<glyph unicode="C" horiz-adv-x="704" d="M656 278Q656 232 654 200T647 145T633 104T610 69Q593 48 572 34T521 10T453 -4T363 -8Q308 -8 266 -3T192 14T136 43T95 87Q73 120 64 164T54 276V477Q54 539 68 580T115 655Q135 676 158 690T209 714T273 727T353 731Q465 731 530 708T623 633Q630 619 635 606T643 573T647 526T649 456H457V466Q457 499 454 513T440 537Q417 560 357 560Q328 560 309 556T278 540T263 511T258 463V257Q258 229 262 211T278 182T308 167T355 162Q432 162 450 187Q461 204 461 253Q461 258 461 264T459 278H656Z"  />
<glyph unicode="D" horiz-adv-x="769" d="M69 723H373Q559 723 628 669Q654 649 673 620T701 558Q708 534 711 482T715 358Q715 305 713 266T706 198T693 146T671 102Q633 35 551 12Q522 4 450 0T270 -5Q228 -5 177 -4T69 0V723ZM269 169H397Q438 169 461 175T497 204T512 275T515 405Q515 472 507 502T478 543Q466 549 426 552T330 555Q321 555 309 555T269 553V169Z"  />
<glyph unicode="E" horiz-adv-x="667" d="M69 723H618V563H269V438H599V300H269V162H618V0H69V723Z"  />
<glyph unicode="F" horiz-adv-x="605" d="M69 723H559V560H269V426H542V265H269V0H69V723Z"  />
<glyph unicode="G" horiz-adv-x="763" d="M710 398Q711 375 711 356T711 329Q711 268 708 219T700 142Q692 103 664 69T597 18Q538 -6 463 -6H335Q296 -6 266 -3T212 7T169 27T131 56Q109 77 95 101T71 159T58 237T54 342Q54 404 56 449T64 528T78 586T100 630Q125 668 161 691T242 723Q252 725 271 726T314 729T368 730T427 731Q520 731 572 717T657 670Q670 656 679 641T694 607T702 562T705 502H513Q513 523 508 536T488 556T448 566T382 569Q341 569 316 563T278 537T261 480T257 379Q257 294 261 249T277 186Q287 171 308 164T367 157Q438 157 469 161T511 181Q514 186 516 191T519 204T521 226T522 263H412V398H710Z"  />
<glyph unicode="H" horiz-adv-x="780" d="M511 723H711V0H511V282H269V0H69V723H269V454H511V723Z"  />
<glyph unicode="I" horiz-adv-x="342" d="M271 723V0H71V723H271Z"  />
<glyph unicode="J" horiz-adv-x="612" d="M219 309V299Q219 248 220 219T227 176T244 158T277 155Q301 155 315 157T337 165T347 183T350 214V723H550V237Q550 198 548 169T540 118T525 80T500 48Q485 33 466 22T422 5T362 -5T284 -8Q193 -8 143 9T66 69Q49 94 42 139T34 258Q34 261 34 263T34 270T34 282T35 302V309H219Z"  />
<glyph unicode="K" horiz-adv-x="701" d="M69 723H269V451H287L458 723H687L451 371L707 7V0H474L285 290H269V0H69V723Z"  />
<glyph unicode="L" horiz-adv-x="612" d="M69 723H269V174H594V0H69V723Z"  />
<glyph unicode="M" horiz-adv-x="997" d="M67 723H354L428 471Q435 447 444 413T463 340T482 263T500 192Q509 228 520 271T543 360T568 451T593 536L651 723H930V0H741V108Q741 123 742 153T744 222T746 306T749 396T752 485T755 562Q742 513 726 451T693 331L595 0H400L306 328Q299 351 293 375T280 427T265 489T248 565Q248 543 248 503T250 414T253 312T255 209T257 121T258 62V0H67V723Z"  />
<glyph unicode="N" horiz-adv-x="831" d="M67 723H357L458 477Q488 404 508 355T541 271T564 209T583 156Q583 171 582 208T579 293T576 392T574 485V723H764V0H477L392 198Q364 262 343 313T306 406T275 484T248 558Q248 546 249 522T251 467T253 402T255 337T256 281T257 243V0H67V723Z"  />
<glyph unicode="O" horiz-adv-x="761" d="M54 424Q54 456 55 479T58 521T63 554T73 584Q112 689 217 717Q243 725 279 728T369 731Q447 731 504 722T594 694Q667 655 693 570Q697 557 700 541T704 502T706 446T707 364Q707 302 706 262T701 194T691 147T673 107Q639 45 578 22Q501 -8 386 -8Q274 -8 206 13T101 82Q75 114 65 156T54 265V424ZM367 562Q314 562 292 550T263 505Q258 484 256 451T254 367Q254 322 255 293T258 243T264 212T275 191Q286 176 307 170T373 164Q427 164 452 170T489 191Q494 198 497 210T503 245T506 302T507 388Q507 426 506 451T503 492T497 517T487 534Q476 549 449 555T367 562Z"  />
<glyph unicode="P" horiz-adv-x="727" d="M69 723H311Q363 723 401 722T469 717T522 708T569 693Q600 681 624 657T661 600Q668 581 671 552T675 472Q675 433 674 405T668 355T658 316T642 283Q622 251 590 230T516 202Q503 200 488 199T453 196T406 194T343 193Q332 193 318 193T269 194V0H69V723ZM268 358H399Q427 358 443 361T467 375T477 409T479 471Q479 497 476 514T463 540T437 554T396 558H268V358Z"  />
<glyph unicode="Q" horiz-adv-x="761" d="M54 424Q54 456 55 479T58 521T63 554T73 584Q112 689 217 717Q243 725 279 728T369 731Q447 731 504 722T594 694Q667 655 693 570Q697 557 700 541T704 502T706 446T707 364Q707 304 705 264T698 196T686 150T668 117L725 69L650 -17L590 34Q548 8 499 0T386 -8Q274 -8 206 13T101 82Q75 114 65 156T54 265V424ZM367 562Q314 562 292 550T263 505Q258 484 256 451T254 367Q254 322 255 292T258 241T264 208T275 186Q286 171 307 165T373 159Q392 159 409 159T438 162L372 219L448 304L504 256Q506 279 506 310T507 388Q507 426 506 451T503 492T497 517T487 534Q476 549 449 555T367 562Z"  />
<glyph unicode="R" horiz-adv-x="721" d="M69 723H360Q405 723 439 721T499 714T546 702T581 684Q602 669 616 652T640 612T653 557T657 482Q657 419 646 386T607 330Q589 314 568 307T515 296Q558 287 585 276T627 245T648 197T654 125V0H457V143Q457 163 453 175T439 195T410 205T362 208H266V0H69V723ZM266 370Q279 369 288 369T303 368T315 367T328 367Q373 367 403 371T444 384Q461 398 461 463Q461 494 458 513T445 543T417 556T367 560Q341 560 318 560T266 558V370Z"  />
<glyph unicode="S" horiz-adv-x="698" d="M233 224Q232 220 232 216T232 210Q232 175 254 161T336 147Q421 147 441 159Q450 164 453 175T456 213Q456 238 454 251T440 272T402 283T329 290Q277 294 242 298T184 307T145 318T116 333Q49 380 49 510Q49 576 63 617T108 685Q124 698 143 707T187 721T248 729T333 731Q388 731 427 729T493 722T540 707T577 682Q591 670 600 656T616 623T624 579T627 521V511H445V524Q445 558 427 566Q416 571 385 574T316 577Q273 577 260 563T246 508Q246 487 249 475T266 457T308 447T387 439Q444 434 481 429T543 418T583 402T611 378Q634 352 644 314T654 218Q654 146 635 101T574 29Q558 19 538 12T490 1T426 -6T342 -8Q295 -8 259 -6T194 2T144 17T104 39Q72 62 59 96T46 188V224H233Z"  />
<glyph unicode="T" horiz-adv-x="604" d="M202 0V553H20V723H584V553H402V0H202Z"  />
<glyph unicode="U" horiz-adv-x="768" d="M262 723V226Q262 190 283 176T357 162Q420 162 450 166T490 180Q498 190 502 204T506 242V723H706V282Q706 234 702 198T689 135T665 86T628 47Q609 32 588 22T538 5T470 -3T377 -6Q321 -6 280 -2T209 11T156 35T114 72Q87 104 75 144T62 242V723H262Z"  />
<glyph unicode="V" horiz-adv-x="709" d="M500 0H205L6 723H209L353 155L498 723H699L500 0Z"  />
<glyph unicode="W" horiz-adv-x="1002" d="M393 723H607L714 164L790 723H983L867 0H586L552 181Q546 211 539 254T524 343T510 431T499 500Q493 466 487 425T473 341T458 258T443 184L406 0H129L17 723H209L280 167L393 723Z"  />
<glyph unicode="X" horiz-adv-x="662" d="M226 723L329 466L430 723H645L476 372L665 0H445L324 279L203 0H-16L174 375L9 723H226Z"  />
<glyph unicode="Y" horiz-adv-x="642" d="M-23 723H194L323 441L450 723H664L420 253V0H220V256L-23 723Z"  />
<glyph unicode="Z" horiz-adv-x="660" d="M30 169L371 560H49V723H616V551L283 167H620V0H30V169Z"  />
<glyph unicode="[" horiz-adv-x="333" d="M67 723H301V598H236V125H298V0H67V723Z"  />
<glyph unicode="\" horiz-adv-x="333" d="M-8 731H91L342 -9H243L-8 731Z"  />
<glyph unicode="]" horiz-adv-x="333" d="M266 723V0H37V125H97V598H32V723H266Z"  />
<glyph unicode="^" horiz-adv-x="580" d="M37 333L228 724H354L543 333H404L289 572L174 333H37Z"  />
<glyph unicode="_" horiz-adv-x="500" d="M500 -125H0V-75H500V-125Z"  />
<glyph unicode="`" horiz-adv-x="333" d="M260 574H140L-20 723H163L260 574Z"  />
<glyph unicode="a" horiz-adv-x="563" d="M348 51L340 44Q322 27 309 18T282 3T251 -3T208 -5Q154 -5 126 2T77 28Q57 47 48 77T38 154Q38 199 46 231T74 282T124 311T199 320Q233 320 257 318T297 309T325 292T345 265V317Q345 340 345 354T344 377T341 391T336 401Q326 420 279 420Q247 420 235 412T223 380H62Q62 420 68 441T90 479Q102 491 115 498T148 510T197 516T268 518Q312 518 342 517T395 511T432 499T462 479Q509 440 509 360V0H348V51ZM262 223Q243 223 232 221T215 212T207 190T205 153Q205 137 208 127T218 111T240 103T275 101Q320 101 331 112Q338 118 340 130T342 178Q342 197 341 203T333 213Q317 223 262 223Z"  />
<glyph unicode="b" horiz-adv-x="563" d="M227 723V451Q246 486 274 502T350 518Q398 518 429 506T481 467Q492 452 499 436T510 397T517 345T519 275Q519 221 517 182T510 115T496 67T475 34Q453 11 427 1T355 -9Q328 -9 310 -6T277 6T249 30T220 69V0H58V723H227ZM287 391Q268 391 256 388T237 375T228 348T225 303Q225 165 234 140Q241 118 278 118Q306 118 321 123T341 139Q344 147 346 188T348 296Q348 328 346 347T338 375T319 388T287 391Z"  />
<glyph unicode="c" horiz-adv-x="555" d="M352 321Q352 345 350 360T341 382T321 392T284 395Q233 395 223 375Q220 370 218 362T215 338T214 298T213 240Q213 196 215 172T225 135T248 120T292 117Q317 117 328 121T345 140Q347 145 349 159T353 202H513V183Q513 64 443 20Q397 -9 274 -9Q202 -9 158 6T86 57Q74 72 66 89T53 129T46 184T44 258Q44 295 45 321T50 368T59 404T74 435Q87 457 105 473T147 499T204 513T280 518Q410 518 458 483Q483 464 497 429T511 346V321H352Z"  />
<glyph unicode="d" horiz-adv-x="563" d="M505 0H343V68Q332 47 325 36T308 16Q282 -9 211 -9Q157 -9 126 5T74 55Q57 82 51 133T44 281Q44 347 50 384T71 450Q91 486 124 502T213 518Q260 518 288 503T336 455V723H505V0ZM273 391Q254 391 243 388T226 374T218 345T216 295Q216 229 218 188T224 139Q233 118 277 118Q300 118 312 120T330 136T337 175T338 250Q338 301 337 329T329 371T310 388T273 391Z"  />
<glyph unicode="e" horiz-adv-x="563" d="M206 224Q205 213 205 205T204 185Q204 133 218 116Q225 108 238 104T275 99Q307 99 322 100T346 107Q354 112 356 122T359 140Q359 142 359 144T358 153H520Q518 110 510 84T481 37Q468 24 452 16T414 2T361 -6T290 -9Q246 -9 214 -6T157 4T115 24T82 55Q71 69 64 85T52 124T46 181T44 264Q44 309 47 342T57 400T76 443T104 475Q132 498 170 508T273 518Q361 518 410 501T490 443Q499 430 505 415T516 380T521 332T523 266Q523 255 523 248T521 224H206ZM362 309Q364 316 364 322T364 337Q364 362 362 377T352 401T327 411T283 414Q257 414 242 412T219 400T209 368T207 309H362Z"  />
<glyph unicode="f" horiz-adv-x="374" d="M76 0V385H18V509H76Q75 528 75 536T75 551Q75 607 83 637T112 689Q133 711 166 721T250 732Q285 732 308 731T362 726V608Q351 611 338 612T313 614Q292 614 279 611T258 601T248 579T245 543Q245 537 245 530T246 509H362V385H245V0H76Z"  />
<glyph unicode="g" horiz-adv-x="561" d="M220 -42Q219 -45 219 -49Q219 -69 231 -77T272 -86Q295 -86 308 -82T328 -62T336 -14T338 74Q308 4 209 4Q129 4 90 45Q77 59 69 76T55 116T47 169T44 241Q44 292 46 327T52 387T63 429T79 462Q97 491 128 504T208 518Q236 518 256 515T292 503T321 479T348 439V508H505V38Q505 -31 494 -77T456 -151T386 -191T277 -203Q159 -203 111 -171Q88 -156 75 -129T62 -68Q62 -61 62 -55T63 -42H220ZM275 391Q254 391 242 388T224 369T217 318T216 223Q216 195 218 177T227 149T246 135T277 131Q298 131 310 136T328 156T336 202T338 284Q338 319 336 340T328 372T309 387T275 391Z"  />
<glyph unicode="h" horiz-adv-x="570" d="M362 518Q405 518 434 510T482 482T508 430T516 351V0H347V321Q347 342 345 356T335 378T314 389T281 392Q249 392 238 377T227 320V0H58V723H227V438Q244 481 275 499T362 518Z"  />
<glyph unicode="i" horiz-adv-x="285" d="M58 601V723H227V601H58ZM58 509H227V0H58V509Z"  />
<glyph unicode="j" horiz-adv-x="285" d="M227 601H58V723H227V601ZM14 -36Q58 -35 58 -4V509H227V60Q227 11 225 -17T217 -66Q211 -93 196 -113T160 -142Q121 -159 65 -159Q53 -159 38 -158T14 -154V-36Z"  />
<glyph unicode="k" horiz-adv-x="539" d="M58 723H227V317H242L340 509H523L384 259L551 0H360L241 204H227V0H58V723Z"  />
<glyph unicode="l" horiz-adv-x="285" d="M58 723H227V0H58V723Z"  />
<glyph unicode="m" horiz-adv-x="851" d="M628 0V333Q628 365 616 378T573 391Q530 391 518 367Q514 359 513 348T511 311V0H342V318Q342 341 340 355T331 378T314 389T285 392Q250 392 238 379T225 327V0H56V509H218V443Q238 483 270 500T360 518Q390 518 411 514T447 501T474 476T495 436Q506 459 519 475T549 500T589 514T644 518Q686 518 715 510T763 482T789 430T797 351V0H628Z"  />
<glyph unicode="n" horiz-adv-x="568" d="M279 392Q247 392 236 379T225 326V0H56V509H221V440Q232 462 244 477T273 501T310 514T360 518Q403 518 432 510T480 482T506 430T514 351V0H345V321Q345 342 343 356T333 378T312 389T279 392Z"  />
<glyph unicode="o" horiz-adv-x="554" d="M275 518Q351 518 396 506T468 468Q481 454 489 439T501 399T508 339T510 249Q510 201 508 167T500 109T485 68T463 39Q435 14 388 3T266 -9Q191 -9 148 5T78 55Q59 79 52 125T44 257Q44 339 53 390T87 469T158 508T275 518ZM213 196Q213 164 215 152T223 132Q230 122 240 119T278 115Q304 115 316 119T333 135Q336 140 337 146T339 166T340 203T341 266Q341 314 340 340T333 380T315 395T278 398Q258 398 246 396T226 386T216 365T213 331V196Z"  />
<glyph unicode="p" horiz-adv-x="562" d="M221 440Q253 518 355 518Q445 518 482 468Q492 454 499 438T510 399T516 347T518 275Q518 233 518 204T515 154T510 117T502 86Q488 41 448 16T348 -9Q303 -9 276 7T225 62V-197H56V509H221V440ZM283 391Q262 391 250 388T232 368T225 319T224 227Q224 198 227 174T236 139Q247 118 284 118Q303 118 315 121T335 134T344 158T347 197Q347 244 347 274T346 323T344 352T340 367Q335 380 322 385T283 391Z"  />
<glyph unicode="q" horiz-adv-x="563" d="M507 -197H339V62Q316 24 288 8T213 -9Q120 -9 80 49Q69 64 63 81T52 121T46 176T44 252Q44 294 45 323T48 373T53 409T62 438Q96 518 208 518Q309 518 342 440V509H507V-197ZM279 391Q253 391 241 385T223 366Q221 360 220 351T217 323T216 276T216 199Q216 151 227 135T274 118Q296 118 309 122T329 142T338 189T340 274Q340 314 338 337T330 373T312 388T279 391Z"  />
<glyph unicode="r" horiz-adv-x="497" d="M56 509H221V440Q238 484 265 501T343 518Q423 518 452 483Q459 474 464 463T472 437T476 400T478 349L477 290H327V314Q327 338 325 353T318 376T302 388T276 391Q246 391 236 377T225 320V0H56V509Z"  />
<glyph unicode="s" horiz-adv-x="546" d="M197 145V140Q198 113 212 103T266 93Q292 93 312 96T340 104Q353 113 353 148Q353 175 344 184T303 196L230 200Q174 203 138 214T77 245Q35 278 35 358Q35 403 46 433T82 482T149 509T251 518Q342 518 395 507T470 470Q485 454 491 433T499 374H339Q340 379 340 383Q340 390 337 398T325 410Q312 417 252 417Q216 417 205 408T193 368Q193 354 195 346T208 332T237 325T290 320Q361 315 399 308T458 287Q516 249 516 160Q516 116 502 83T462 29Q434 9 391 0T273 -9Q203 -9 157 -2T82 24T41 71T29 145H197Z"  />
<glyph unicode="t" horiz-adv-x="496" d="M479 208Q480 190 480 185T480 174Q480 78 454 44Q410 -9 270 -9Q202 -9 163 5T100 53Q92 64 87 76T79 103T74 139T72 190V389H14V509H72V608H241V509H456V389H241V217Q241 181 242 161T248 130T262 118T289 115Q308 115 320 117T338 125T347 145T349 182Q349 188 349 192T347 208H479Z"  />
<glyph unicode="u" horiz-adv-x="568" d="M512 0H350V79Q341 54 329 38T300 11T260 -4T205 -9Q163 -9 134 -1T88 27T62 77T54 153V509H223V174Q223 142 236 130T282 117Q323 117 336 139Q341 147 342 157T343 192V509H512V0Z"  />
<glyph unicode="v" horiz-adv-x="538" d="M176 509L246 224Q252 199 258 172T269 125L362 509H532L387 0H148L4 509H176Z"  />
<glyph unicode="w" horiz-adv-x="790" d="M298 509H490L563 121L606 509H765L686 0H455L393 361L331 0H104L21 509H182L224 123L298 509Z"  />
<glyph unicode="x" horiz-adv-x="521" d="M322 509H503L373 264L519 0H335L255 187L179 0H-10L139 266L11 509H194L256 342L322 509Z"  />
<glyph unicode="y" horiz-adv-x="538" d="M360 509H531L403 15Q383 -65 364 -107T322 -169Q283 -202 200 -202Q180 -202 156 -200T120 -196V-82Q125 -83 128 -83T136 -83Q185 -83 206 -64T231 3H148L4 509H175L274 126L360 509Z"  />
<glyph unicode="z" horiz-adv-x="496" d="M23 137L266 389H37V509H461V373L221 123H467V0H23V137Z"  />
<glyph unicode="{" horiz-adv-x="333" d="M24 347Q47 350 60 358T80 376T88 399T90 420Q90 437 89 463T87 514Q85 543 84 575Q84 621 96 650T131 695T187 717T264 723H301V598H280Q252 598 242 585T231 528Q231 515 232 499T234 466T237 432T239 402Q239 385 235 369T220 340T188 316T134 300V298Q191 290 215 264T239 195Q239 179 235 146T231 80Q231 41 241 20T280 -2H301V-125H275Q222 -125 186 -116T127 -89T95 -44T85 22Q85 70 87 104T90 177Q90 187 89 199T80 221T60 239T24 250V347Z"  />
<glyph unicode="|" horiz-adv-x="333" d="M242 740V-90H91V740H242Z"  />
<glyph unicode="}" horiz-adv-x="333" d="M309 251Q286 248 273 240T253 222T245 199T243 178Q243 161 243 135T246 84Q247 55 249 23Q249 -24 237 -52T202 -97T146 -119T69 -125H32V0H53Q81 0 91 13T102 70Q102 83 101 99T98 132T95 165T94 196Q94 212 98 228T113 258T145 282T199 298V300Q142 308 118 334T94 403Q94 419 98 452T102 518Q102 557 92 578T53 600H32V723H58Q111 723 147 714T206 687T238 641T248 576Q248 528 246 494T243 421Q243 410 244 399T253 377T273 359T309 348V251Z"  />
<glyph unicode="~" horiz-adv-x="667" d="M452 315Q481 315 492 339T505 398H627Q627 286 581 229T458 171Q425 171 392 184T327 213T267 242T216 255Q187 255 176 231T163 172H41Q41 228 53 270T88 341T142 384T210 399Q244 399 280 386T349 357T409 328T452 315Z"  />
<glyph unicode="&#xA0;" horiz-adv-x="333" />
<glyph unicode="&#xA1;" horiz-adv-x="333" d="M255 -197H78L80 236H249L255 -197ZM252 342H81V509H252V342Z"  />
<glyph unicode="&#xA2;" horiz-adv-x="667" d="M466 646L432 519Q504 509 536 470T569 355Q569 351 569 344T568 329H412Q412 356 409 369T397 390L325 122H342Q368 122 382 127T402 145Q406 153 407 165T411 208H568Q569 200 569 191T569 177Q569 120 553 84T500 26Q479 12 439 4T356 -5Q322 -5 292 -2L257 -132H206L243 6Q212 14 190 26T147 62Q122 91 111 136T100 256Q100 350 116 402T171 486Q193 503 234 514T320 526Q343 526 358 526T383 524L417 646H466ZM351 401Q325 400 311 397T289 386Q271 369 271 256Q271 218 273 192T281 153L351 401Z"  />
<glyph unicode="&#xA3;" horiz-adv-x="667" d="M54 155Q84 158 102 174Q107 179 110 184T114 197T116 216T117 246Q117 255 117 261T116 282H35V412H110Q108 430 107 451T106 493Q106 551 116 590T148 657Q164 677 183 691T228 714T286 727T360 731Q430 731 480 721T562 687T609 629T624 543Q624 536 624 528T623 509H448Q449 513 449 516T449 522Q449 559 432 571T362 584Q339 584 326 581T305 567T296 536T294 480Q294 462 294 447T297 412H482V282H302Q301 254 298 236T289 204T271 180T241 160H635V0H54V155Z"  />
<glyph unicode="&#xA4;" horiz-adv-x="667" d="M333 566Q406 566 459 533L544 626L628 539L533 458Q548 440 558 414T568 340Q568 292 555 264T527 218L620 133L538 51L458 149Q435 130 401 120T334 110Q303 110 268 119T209 149L130 51L47 133L141 219Q127 236 114 265T100 341Q100 388 112 415T136 457L39 539L123 626L210 531Q257 566 333 566ZM334 441Q317 441 300 435T268 417T244 386T234 341Q234 312 243 292T268 259T300 241T334 235Q349 235 366 240T399 259T424 292T434 341Q434 367 425 386T402 417T369 435T334 441Z"  />
<glyph unicode="&#xA5;" horiz-adv-x="667" d="M76 296V410H171L0 723H212L336 451L458 723H667L496 410H590V296H433V222H590V108H433V0H233V108H76V222H233V296H76Z"  />
<glyph unicode="&#xA6;" horiz-adv-x="333" d="M242 260V-90H91V260H242ZM242 740V390H91V740H242Z"  />
<glyph unicode="&#xA7;" horiz-adv-x="667" d="M257 141V136Q257 101 310 101Q337 101 354 102T382 108T395 121T399 141Q399 153 396 161T383 174T352 184T295 194Q237 203 195 214T133 237Q79 268 79 338Q79 429 181 454Q144 467 124 500T104 582Q104 617 116 647T151 697Q175 716 212 724T314 733Q399 733 442 723T509 686Q523 671 528 651T534 591H388Q388 613 375 620T320 628Q285 628 273 620T260 591Q260 580 264 572T281 558T316 547T377 534Q435 523 475 511T539 483T573 445T584 394Q584 299 478 279Q522 259 540 229T559 149Q559 104 547 75T506 25Q481 7 439 -1T319 -9Q278 -9 248 -6T196 3T157 19T128 44Q114 61 109 82T103 141H257ZM249 431Q236 431 226 417T216 388Q216 348 275 334Q318 324 343 319T381 311T401 308T412 307Q447 307 447 343Q447 363 437 374T398 394Q386 398 363 404T315 417T272 427T249 431Z"  />
<glyph unicode="&#xA8;" horiz-adv-x="333" d="M197 710H348V585H197V710ZM-15 710H136V585H-15V710Z"  />
<glyph unicode="&#xA9;" horiz-adv-x="840" d="M134 362Q134 296 154 242T212 149T302 89T419 67Q485 67 538 88T629 147T686 240T706 360Q706 426 686 480T628 573T538 633T421 655Q355 655 302 634T212 575T154 482T134 362ZM53 362Q53 443 80 511T155 627T271 703T421 730Q502 730 569 703T685 628T760 511T787 360Q787 279 760 211T685 95T569 19T419 -8Q338 -8 271 19T155 94T80 211T53 362ZM482 414V430Q482 474 441 474H417Q400 474 389 472T372 462T364 441T362 406V317Q362 280 372 267T417 254H441Q484 254 484 296V324H605V302Q605 233 574 191T480 149H381Q310 149 275 182T240 289V428Q240 510 274 544T381 578H480Q516 578 539 565T577 531T597 486T603 440V414H482Z"  />
<glyph unicode="&#xAA;" horiz-adv-x="400" d="M240 403Q216 380 198 372T146 364Q104 364 85 370T52 389Q38 403 31 423T24 476Q24 540 53 568T143 596Q190 596 209 588T240 558V594Q240 633 232 642T198 652Q181 652 173 649T165 634H36Q36 662 40 676T56 702Q64 710 74 715T99 724T137 729T191 731Q222 731 245 730T286 725T315 716T337 702Q369 672 369 618V368H240V403ZM186 518Q166 518 159 510T151 477Q151 460 160 452T196 444Q206 444 216 446T231 452Q233 454 234 455T236 459T237 468T238 487Q238 504 229 511T186 518Z"  />
<glyph unicode="&#xAB;" horiz-adv-x="444" d="M415 407L314 264L412 118H307L209 264L310 407H415ZM234 407L133 264L231 118H126L28 264L129 407H234Z"  />
<glyph unicode="&#xAC;" horiz-adv-x="667" d="M591 445V105H448V307H50V445H591Z"  />
<glyph unicode="&#xAD;" horiz-adv-x="333" d="M26 347H308V197H26V347Z"  />
<glyph unicode="&#xAE;" horiz-adv-x="480" d="M240 730Q284 730 320 716T383 675T424 612T439 531Q439 488 424 452T383 389T320 347T240 332Q196 332 159 346T96 387T56 450T41 531Q41 574 56 610T97 673T159 715T240 730ZM240 681Q173 681 134 641T94 531Q94 462 134 422T240 381Q307 381 346 421T386 531Q386 600 346 640T240 681ZM157 634H262Q296 634 315 621T334 575Q334 551 323 541T294 525Q333 512 333 480V436H276V463Q276 483 269 492T241 501H213V436H157V634ZM252 546Q265 546 271 552T277 566Q277 588 248 588H213V546H252Z"  />
<glyph unicode="&#xAF;" horiz-adv-x="333" d="M-15 689H348V606H-15V689Z"  />
<glyph unicode="&#xB0;" horiz-adv-x="400" d="M200 508Q236 508 254 529T272 582Q272 612 254 633T200 655Q164 655 146 634T128 581Q128 551 146 530T200 508ZM200 432Q132 432 91 473T49 581Q49 614 60 641T91 689T138 720T200 731Q268 731 309 690T351 582Q351 549 340 522T309 474T262 443T200 432Z"  />
<glyph unicode="&#xB1;" horiz-adv-x="667" d="M612 130V0H55V130H612ZM262 443V586H405V443H612V311H405V188H262V311H55V443H262Z"  />
<glyph unicode="&#xB2;" horiz-adv-x="500" d="M64 556Q62 569 62 577T62 587Q62 627 74 653T109 696T166 718T244 725Q298 725 336 719T398 695T433 648T444 568Q444 533 439 509T421 469T384 440T323 418L233 393Q211 387 204 379T197 351H442V238H59V353Q59 386 65 408T87 447T128 476T193 499L262 519Q291 527 298 542T306 574Q306 594 297 606T253 619Q233 619 221 616T203 606T196 587T194 556H64Z"  />
<glyph unicode="&#xB3;" horiz-adv-x="500" d="M194 400Q192 389 192 387T192 382Q192 362 203 350T249 338Q288 338 298 350T309 386Q309 417 295 424T246 432Q243 432 235 432T217 430V536H240Q286 536 295 542Q303 547 303 574Q303 588 301 596T293 610T276 617T246 619Q228 619 218 617T204 608T198 592T197 565H68Q66 576 66 582T66 592Q66 667 113 696T248 725Q302 725 338 718T398 695T431 652T441 588Q441 544 424 522T371 486Q449 468 449 375Q449 333 436 305T397 261T336 239T254 232Q154 232 106 265T57 367Q57 375 57 383T59 400H194Z"  />
<glyph unicode="&#xB4;" horiz-adv-x="333" d="M193 574H73L170 723H353L193 574Z"  />
<glyph unicode="&#xB5;" horiz-adv-x="667" d="M562 0H400V79Q383 33 353 18T274 2V-197H105Q105 -115 105 -57T104 49T104 140T104 235T104 351T104 509H273V174Q273 142 286 130T332 117Q373 117 386 139Q391 147 392 157T393 192V509H562V0Z"  />
<glyph unicode="&#xB6;" horiz-adv-x="700" d="M463 -197V593H389V-197H260V240Q212 240 172 251T103 290T58 364T41 480Q41 601 95 662T275 723H667V592H592V-197H463Z"  />
<glyph unicode="&#xB7;" horiz-adv-x="333" d="M168 405Q204 405 229 380T255 318Q255 281 230 255T167 229Q130 229 105 255T79 318Q79 355 104 380T168 405Z"  />
<glyph unicode="&#xB8;" horiz-adv-x="333" d="M28 -172Q77 -182 118 -182Q141 -182 153 -172T165 -145Q165 -128 153 -119T119 -109Q99 -109 71 -112V-71L119 0H185L141 -64Q151 -62 157 -62T170 -62Q213 -62 237 -86T261 -144Q261 -184 230 -210T127 -237Q98 -237 76 -235T28 -227V-172Z"  />
<glyph unicode="&#xB9;" horiz-adv-x="500" d="M233 238V577L121 478L48 577L215 719H368V238H233Z"  />
<glyph unicode="&#xBA;" horiz-adv-x="400" d="M198 731Q259 731 295 722T349 694Q358 685 363 674T372 647T377 605T378 542Q378 509 377 485T371 445T361 417T345 397Q325 380 290 371T192 361Q132 361 98 372T45 408Q31 425 26 456T21 548Q21 603 28 639T54 695T108 723T198 731ZM160 515Q160 493 161 484T167 470Q175 458 200 458Q216 458 223 461T234 472Q238 479 238 495T239 554Q239 582 238 598T234 623T222 634T200 637Q179 637 170 628T160 590V515Z"  />
<glyph unicode="&#xBB;" horiz-adv-x="444" d="M29 118L130 261L32 407H137L235 261L134 118H29ZM210 118L311 261L213 407H318L416 261L315 118H210Z"  />
<glyph unicode="&#xBC;" horiz-adv-x="1000" d="M193 238V577L81 478L8 577L175 719H328V238H193ZM534 723H623L392 0H301L534 723ZM889 0H750V91H520V205L688 481H889V196H942V91H889V0ZM750 196V362L654 196H750Z"  />
<glyph unicode="&#xBD;" horiz-adv-x="1000" d="M193 238V577L81 478L8 577L175 719H328V238H193ZM534 723H623L392 0H301L534 723ZM571 318Q569 331 569 339T569 349Q569 389 581 415T616 458T673 480T751 487Q805 487 843 481T905 457T940 410T951 330Q951 295 946 271T928 231T891 202T830 180L740 155Q718 149 711 141T704 113H949V0H566V115Q566 148 572 170T594 209T635 238T700 261L769 281Q798 289 805 304T813 336Q813 356 804 368T760 381Q740 381 728 378T710 368T703 349T701 318H571Z"  />
<glyph unicode="&#xBE;" horiz-adv-x="1000" d="M154 400Q152 389 152 387T152 382Q152 362 163 350T209 338Q248 338 258 350T269 386Q269 417 255 424T206 432Q203 432 195 432T177 430V536H200Q246 536 255 542Q263 547 263 574Q263 588 261 596T253 610T236 617T206 619Q188 619 178 617T164 608T158 592T157 565H28Q26 576 26 582T26 592Q26 667 73 696T208 725Q262 725 298 718T358 695T391 652T401 588Q401 544 384 522T331 486Q409 468 409 375Q409 333 396 305T357 261T296 239T214 232Q114 232 66 265T17 367Q17 375 17 383T19 400H154ZM919 0H780V91H550V205L718 481H919V196H972V91H919V0ZM780 196V362L684 196H780ZM574 723H663L432 0H341L574 723Z"  />
<glyph unicode="&#xBF;" horiz-adv-x="556" d="M515 -2V-26Q515 -124 468 -165Q456 -176 441 -183T405 -194T357 -201T291 -203Q244 -203 211 -201T154 -195T112 -182T79 -162Q53 -140 41 -106T29 -14Q29 26 35 55T58 108T102 150T172 188Q199 200 207 210T216 241Q216 245 216 248T215 256H383V231Q383 197 379 174T361 132T323 98T258 60Q237 49 225 43T207 29T200 11T198 -16Q198 -35 201 -47T214 -65T239 -74T283 -77Q321 -77 335 -64T350 -18Q350 -16 350 -12T349 -2H515ZM387 342H216V509H387V342Z"  />
<glyph unicode="&#xC0;" horiz-adv-x="722" d="M511 723L713 0H510L477 130H246L215 0H9L212 723H511ZM441 273L369 573H353L281 273H441ZM444 780H324L164 929H347L444 780Z"  />
<glyph unicode="&#xC1;" horiz-adv-x="722" d="M511 723L713 0H510L477 130H246L215 0H9L212 723H511ZM441 273L369 573H353L281 273H441ZM401 780H281L378 929H561L401 780Z"  />
<glyph unicode="&#xC2;" horiz-adv-x="722" d="M511 723L713 0H510L477 130H246L215 0H9L212 723H511ZM441 273L369 573H353L281 273H441ZM439 929L551 780H423L363 860L302 780H174L286 929H439Z"  />
<glyph unicode="&#xC3;" horiz-adv-x="722" d="M511 723L713 0H510L477 130H246L215 0H9L212 723H511ZM441 273L369 573H353L281 273H441ZM554 918Q548 858 517 825T435 791Q412 791 392 796T354 809T321 821T291 827Q274 827 262 816T246 784H174Q181 843 215 880T296 918Q317 918 337 912T377 898T412 884T440 878Q456 878 467 888T483 918H554Z"  />
<glyph unicode="&#xC4;" horiz-adv-x="722" d="M511 723L713 0H510L477 130H246L215 0H9L212 723H511ZM441 273L369 573H353L281 273H441ZM394 916H545V791H394V916ZM182 916H333V791H182V916Z"  />
<glyph unicode="&#xC5;" horiz-adv-x="722" d="M511 723L713 0H510L477 130H246L215 0H9L212 723H511ZM441 273L369 573H353L281 273H441ZM359 974Q406 974 435 945T465 868Q465 820 435 791T358 761Q311 761 282 790T252 867Q252 915 282 944T359 974ZM358 815Q380 815 394 829T408 868Q408 892 394 906T359 920Q337 920 323 906T309 867Q309 843 323 829T358 815Z"  />
<glyph unicode="&#xC6;" horiz-adv-x="978" d="M920 723V569H647V438H910V302H647V155H929V0H457V153H256Q243 123 229 84T201 0H-4L286 723H920ZM457 586H413L303 288H457V586Z"  />
<glyph unicode="&#xC7;" horiz-adv-x="704" d="M234 -172Q283 -182 324 -182Q347 -182 359 -172T371 -145Q371 -128 359 -119T325 -109Q305 -109 277 -112V-71L320 -7Q231 -3 179 19T95 87Q73 120 64 164T54 276V477Q54 539 68 580T115 655Q135 676 158 690T209 714T273 727T353 731Q465 731 530 708T623 633Q630 619 635 606T643 573T647 526T649 456H457V466Q457 499 454 513T440 537Q417 560 357 560Q328 560 309 556T278 540T263 511T258 463V257Q258 229 262 211T278 182T308 167T355 162Q432 162 450 187Q461 204 461 253Q461 258 461 264T459 278H656Q656 232 654 200T647 145T633 104T610 69Q594 49 574 35T527 12T465 -2T385 -8L347 -64Q357 -62 363 -62T376 -62Q419 -62 443 -86T467 -144Q467 -184 436 -210T333 -237Q304 -237 282 -235T234 -227V-172Z"  />
<glyph unicode="&#xC8;" horiz-adv-x="667" d="M69 723H618V563H269V438H599V300H269V162H618V0H69V723ZM432 780H312L152 929H335L432 780Z"  />
<glyph unicode="&#xC9;" horiz-adv-x="667" d="M69 723H618V563H269V438H599V300H269V162H618V0H69V723ZM369 780H249L346 929H529L369 780Z"  />
<glyph unicode="&#xCA;" horiz-adv-x="667" d="M69 723H618V563H269V438H599V300H269V162H618V0H69V723ZM417 929L529 780H401L341 860L280 780H152L264 929H417Z"  />
<glyph unicode="&#xCB;" horiz-adv-x="667" d="M69 723H618V563H269V438H599V300H269V162H618V0H69V723ZM372 916H523V791H372V916ZM160 916H311V791H160V916Z"  />
<glyph unicode="&#xCC;" horiz-adv-x="342" d="M271 723V0H71V723H271ZM262 780H142L-18 929H165L262 780Z"  />
<glyph unicode="&#xCD;" horiz-adv-x="342" d="M271 723V0H71V723H271ZM199 780H79L176 929H359L199 780Z"  />
<glyph unicode="&#xCE;" horiz-adv-x="342" d="M271 723V0H71V723H271ZM247 929L359 780H231L171 860L110 780H-18L94 929H247Z"  />
<glyph unicode="&#xCF;" horiz-adv-x="342" d="M271 723V0H71V723H271ZM202 916H353V791H202V916ZM-10 916H141V791H-10V916Z"  />
<glyph unicode="&#xD0;" horiz-adv-x="769" d="M69 419V723H373Q559 723 628 669Q654 649 673 620T701 558Q708 534 711 482T715 358Q715 305 713 266T706 198T693 146T671 102Q633 35 551 12Q522 4 450 0T270 -5Q228 -5 177 -4T69 0V315H0V419H69ZM269 419H401V315H269V169H397Q438 169 461 175T497 204T512 275T515 405Q515 472 507 502T478 543Q466 549 426 552T330 555Q321 555 309 555T269 553V419Z"  />
<glyph unicode="&#xD1;" horiz-adv-x="831" d="M67 723H357L458 477Q488 404 508 355T541 271T564 209T583 156Q583 171 582 208T579 293T576 392T574 485V723H764V0H477L392 198Q364 262 343 313T306 406T275 484T248 558Q248 546 249 522T251 467T253 402T255 337T256 281T257 243V0H67V723ZM612 918Q606 858 575 825T493 791Q470 791 450 796T412 809T379 821T349 827Q332 827 320 816T304 784H232Q239 843 273 880T354 918Q375 918 395 912T435 898T470 884T498 878Q514 878 525 888T541 918H612Z"  />
<glyph unicode="&#xD2;" horiz-adv-x="761" d="M54 424Q54 456 55 479T58 521T63 554T73 584Q112 689 217 717Q243 725 279 728T369 731Q447 731 504 722T594 694Q667 655 693 570Q697 557 700 541T704 502T706 446T707 364Q707 302 706 262T701 194T691 147T673 107Q639 45 578 22Q501 -8 386 -8Q274 -8 206 13T101 82Q75 114 65 156T54 265V424ZM367 562Q314 562 292 550T263 505Q258 484 256 451T254 367Q254 322 255 293T258 243T264 212T275 191Q286 176 307 170T373 164Q427 164 452 170T489 191Q494 198 497 210T503 245T506 302T507 388Q507 426 506 451T503 492T497 517T487 534Q476 549 449 555T367 562ZM475 780H355L195 929H378L475 780Z"  />
<glyph unicode="&#xD3;" horiz-adv-x="761" d="M54 424Q54 456 55 479T58 521T63 554T73 584Q112 689 217 717Q243 725 279 728T369 731Q447 731 504 722T594 694Q667 655 693 570Q697 557 700 541T704 502T706 446T707 364Q707 302 706 262T701 194T691 147T673 107Q639 45 578 22Q501 -8 386 -8Q274 -8 206 13T101 82Q75 114 65 156T54 265V424ZM367 562Q314 562 292 550T263 505Q258 484 256 451T254 367Q254 322 255 293T258 243T264 212T275 191Q286 176 307 170T373 164Q427 164 452 170T489 191Q494 198 497 210T503 245T506 302T507 388Q507 426 506 451T503 492T497 517T487 534Q476 549 449 555T367 562ZM412 780H292L389 929H572L412 780Z"  />
<glyph unicode="&#xD4;" horiz-adv-x="761" d="M54 424Q54 456 55 479T58 521T63 554T73 584Q112 689 217 717Q243 725 279 728T369 731Q447 731 504 722T594 694Q667 655 693 570Q697 557 700 541T704 502T706 446T707 364Q707 302 706 262T701 194T691 147T673 107Q639 45 578 22Q501 -8 386 -8Q274 -8 206 13T101 82Q75 114 65 156T54 265V424ZM367 562Q314 562 292 550T263 505Q258 484 256 451T254 367Q254 322 255 293T258 243T264 212T275 191Q286 176 307 170T373 164Q427 164 452 170T489 191Q494 198 497 210T503 245T506 302T507 388Q507 426 506 451T503 492T497 517T487 534Q476 549 449 555T367 562ZM460 929L572 780H444L384 860L323 780H195L307 929H460Z"  />
<glyph unicode="&#xD5;" horiz-adv-x="761" d="M54 424Q54 456 55 479T58 521T63 554T73 584Q112 689 217 717Q243 725 279 728T369 731Q447 731 504 722T594 694Q667 655 693 570Q697 557 700 541T704 502T706 446T707 364Q707 302 706 262T701 194T691 147T673 107Q639 45 578 22Q501 -8 386 -8Q274 -8 206 13T101 82Q75 114 65 156T54 265V424ZM367 562Q314 562 292 550T263 505Q258 484 256 451T254 367Q254 322 255 293T258 243T264 212T275 191Q286 176 307 170T373 164Q427 164 452 170T489 191Q494 198 497 210T503 245T506 302T507 388Q507 426 506 451T503 492T497 517T487 534Q476 549 449 555T367 562ZM575 918Q569 858 538 825T456 791Q433 791 413 796T375 809T342 821T312 827Q295 827 283 816T267 784H195Q202 843 236 880T317 918Q338 918 358 912T398 898T433 884T461 878Q477 878 488 888T504 918H575Z"  />
<glyph unicode="&#xD6;" horiz-adv-x="761" d="M54 424Q54 456 55 479T58 521T63 554T73 584Q112 689 217 717Q243 725 279 728T369 731Q447 731 504 722T594 694Q667 655 693 570Q697 557 700 541T704 502T706 446T707 364Q707 302 706 262T701 194T691 147T673 107Q639 45 578 22Q501 -8 386 -8Q274 -8 206 13T101 82Q75 114 65 156T54 265V424ZM367 562Q314 562 292 550T263 505Q258 484 256 451T254 367Q254 322 255 293T258 243T264 212T275 191Q286 176 307 170T373 164Q427 164 452 170T489 191Q494 198 497 210T503 245T506 302T507 388Q507 426 506 451T503 492T497 517T487 534Q476 549 449 555T367 562ZM415 916H566V791H415V916ZM203 916H354V791H203V916Z"  />
<glyph unicode="&#xD7;" horiz-adv-x="667" d="M155 539L333 355L510 536L601 443L425 262L604 78L511 -15L333 168L156 -13L65 79L241 261L62 445L155 539Z"  />
<glyph unicode="&#xD8;" horiz-adv-x="761" d="M54 424Q54 456 55 479T58 521T63 554T73 584Q112 689 217 717Q243 725 279 728T369 731Q417 731 454 729T521 719T576 701T625 674L684 735L749 670L681 600Q690 580 695 563T703 521T706 459T707 364Q707 302 706 262T701 194T691 147T673 107Q639 45 578 22Q501 -8 386 -8Q299 -8 240 4T141 44L83 -15L15 46L80 113Q66 142 60 178T54 265V424ZM367 562Q314 562 290 550T259 505Q254 484 253 451T251 367V293L490 534Q483 553 452 557T367 562ZM492 191Q497 198 500 210T506 247T509 313T510 421L270 183Q281 171 307 168T373 164Q427 164 454 170T492 191Z"  />
<glyph unicode="&#xD9;" horiz-adv-x="768" d="M262 723V226Q262 190 283 176T357 162Q420 162 450 166T490 180Q498 190 502 204T506 242V723H706V282Q706 234 702 198T689 135T665 86T628 47Q609 32 588 22T538 5T470 -3T377 -6Q321 -6 280 -2T209 11T156 35T114 72Q87 104 75 144T62 242V723H262ZM477 780H357L197 929H380L477 780Z"  />
<glyph unicode="&#xDA;" horiz-adv-x="768" d="M262 723V226Q262 190 283 176T357 162Q420 162 450 166T490 180Q498 190 502 204T506 242V723H706V282Q706 234 702 198T689 135T665 86T628 47Q609 32 588 22T538 5T470 -3T377 -6Q321 -6 280 -2T209 11T156 35T114 72Q87 104 75 144T62 242V723H262ZM413 780H293L390 929H573L413 780Z"  />
<glyph unicode="&#xDB;" horiz-adv-x="768" d="M262 723V226Q262 190 283 176T357 162Q420 162 450 166T490 180Q498 190 502 204T506 242V723H706V282Q706 234 702 198T689 135T665 86T628 47Q609 32 588 22T538 5T470 -3T377 -6Q321 -6 280 -2T209 11T156 35T114 72Q87 104 75 144T62 242V723H262ZM461 929L573 780H445L385 860L324 780H196L308 929H461Z"  />
<glyph unicode="&#xDC;" horiz-adv-x="768" d="M262 723V226Q262 190 283 176T357 162Q420 162 450 166T490 180Q498 190 502 204T506 242V723H706V282Q706 234 702 198T689 135T665 86T628 47Q609 32 588 22T538 5T470 -3T377 -6Q321 -6 280 -2T209 11T156 35T114 72Q87 104 75 144T62 242V723H262ZM417 916H568V791H417V916ZM205 916H356V791H205V916Z"  />
<glyph unicode="&#xDD;" horiz-adv-x="642" d="M-23 723H194L323 441L450 723H664L420 253V0H220V256L-23 723ZM351 780H231L328 929H511L351 780Z"  />
<glyph unicode="&#xDE;" horiz-adv-x="727" d="M269 723V643H404Q482 643 534 628T618 583T662 510T675 412Q675 310 640 246T516 162Q504 159 489 157T453 155T406 154T343 153Q332 153 318 153T269 154V0H69V723H269ZM268 313H399Q447 313 463 333T479 401Q479 483 396 483H268V313Z"  />
<glyph unicode="&#xDF;" horiz-adv-x="566" d="M58 534Q58 639 107 685T270 732Q329 732 369 721T436 688Q459 668 470 634T482 547Q482 516 479 494T467 457T445 431T411 413Q437 411 455 402T490 375Q499 365 505 353T514 322T519 280T521 222Q521 153 513 109T485 38T430 2T342 -9Q326 -9 307 -8T276 -4V115Q283 114 286 114T292 114Q314 114 325 119T342 134Q345 139 347 146T350 165T351 196T352 245Q352 289 349 307T336 333Q321 345 292 345Q283 345 278 344V449Q301 449 312 459Q319 464 320 475T322 515Q322 536 322 550T320 573T317 587T311 597Q299 614 272 614Q227 614 227 569V0H58V534Z"  />
<glyph unicode="&#xE0;" horiz-adv-x="563" d="M348 51L340 44Q322 27 309 18T282 3T251 -3T208 -5Q154 -5 126 2T77 28Q57 47 48 77T38 154Q38 199 46 231T74 282T124 311T199 320Q233 320 257 318T297 309T325 292T345 265V317Q345 340 345 354T344 377T341 391T336 401Q326 420 279 420Q247 420 235 412T223 380H62Q62 420 68 441T90 479Q102 491 115 498T148 510T197 516T268 518Q312 518 342 517T395 511T432 499T462 479Q509 440 509 360V0H348V51ZM262 223Q243 223 232 221T215 212T207 190T205 153Q205 137 208 127T218 111T240 103T275 101Q320 101 331 112Q338 118 340 130T342 178Q342 197 341 203T333 213Q317 223 262 223ZM374 574H254L94 723H277L374 574Z"  />
<glyph unicode="&#xE1;" horiz-adv-x="563" d="M348 51L340 44Q322 27 309 18T282 3T251 -3T208 -5Q154 -5 126 2T77 28Q57 47 48 77T38 154Q38 199 46 231T74 282T124 311T199 320Q233 320 257 318T297 309T325 292T345 265V317Q345 340 345 354T344 377T341 391T336 401Q326 420 279 420Q247 420 235 412T223 380H62Q62 420 68 441T90 479Q102 491 115 498T148 510T197 516T268 518Q312 518 342 517T395 511T432 499T462 479Q509 440 509 360V0H348V51ZM262 223Q243 223 232 221T215 212T207 190T205 153Q205 137 208 127T218 111T240 103T275 101Q320 101 331 112Q338 118 340 130T342 178Q342 197 341 203T333 213Q317 223 262 223ZM312 574H192L289 723H472L312 574Z"  />
<glyph unicode="&#xE2;" horiz-adv-x="563" d="M348 51L340 44Q322 27 309 18T282 3T251 -3T208 -5Q154 -5 126 2T77 28Q57 47 48 77T38 154Q38 199 46 231T74 282T124 311T199 320Q233 320 257 318T297 309T325 292T345 265V317Q345 340 345 354T344 377T341 391T336 401Q326 420 279 420Q247 420 235 412T223 380H62Q62 420 68 441T90 479Q102 491 115 498T148 510T197 516T268 518Q312 518 342 517T395 511T432 499T462 479Q509 440 509 360V0H348V51ZM262 223Q243 223 232 221T215 212T207 190T205 153Q205 137 208 127T218 111T240 103T275 101Q320 101 331 112Q338 118 340 130T342 178Q342 197 341 203T333 213Q317 223 262 223ZM359 723L471 574H343L283 654L222 574H94L206 723H359Z"  />
<glyph unicode="&#xE3;" horiz-adv-x="563" d="M348 51L340 44Q322 27 309 18T282 3T251 -3T208 -5Q154 -5 126 2T77 28Q57 47 48 77T38 154Q38 199 46 231T74 282T124 311T199 320Q233 320 257 318T297 309T325 292T345 265V317Q345 340 345 354T344 377T341 391T336 401Q326 420 279 420Q247 420 235 412T223 380H62Q62 420 68 441T90 479Q102 491 115 498T148 510T197 516T268 518Q312 518 342 517T395 511T432 499T462 479Q509 440 509 360V0H348V51ZM262 223Q243 223 232 221T215 212T207 190T205 153Q205 137 208 127T218 111T240 103T275 101Q320 101 331 112Q338 118 340 130T342 178Q342 197 341 203T333 213Q317 223 262 223ZM474 712Q468 652 437 619T355 585Q332 585 312 590T274 603T241 615T211 621Q194 621 182 610T166 578H94Q101 637 135 674T216 712Q237 712 257 706T297 692T332 678T360 672Q376 672 387 682T403 712H474Z"  />
<glyph unicode="&#xE4;" horiz-adv-x="563" d="M348 51L340 44Q322 27 309 18T282 3T251 -3T208 -5Q154 -5 126 2T77 28Q57 47 48 77T38 154Q38 199 46 231T74 282T124 311T199 320Q233 320 257 318T297 309T325 292T345 265V317Q345 340 345 354T344 377T341 391T336 401Q326 420 279 420Q247 420 235 412T223 380H62Q62 420 68 441T90 479Q102 491 115 498T148 510T197 516T268 518Q312 518 342 517T395 511T432 499T462 479Q509 440 509 360V0H348V51ZM262 223Q243 223 232 221T215 212T207 190T205 153Q205 137 208 127T218 111T240 103T275 101Q320 101 331 112Q338 118 340 130T342 178Q342 197 341 203T333 213Q317 223 262 223ZM314 710H465V585H314V710ZM102 710H253V585H102V710Z"  />
<glyph unicode="&#xE5;" horiz-adv-x="563" d="M348 51L340 44Q322 27 309 18T282 3T251 -3T208 -5Q154 -5 126 2T77 28Q57 47 48 77T38 154Q38 199 46 231T74 282T124 311T199 320Q233 320 257 318T297 309T325 292T345 265V317Q345 340 345 354T344 377T341 391T336 401Q326 420 279 420Q247 420 235 412T223 380H62Q62 420 68 441T90 479Q102 491 115 498T148 510T197 516T268 518Q312 518 342 517T395 511T432 499T462 479Q509 440 509 360V0H348V51ZM262 223Q243 223 232 221T215 212T207 190T205 153Q205 137 208 127T218 111T240 103T275 101Q320 101 331 112Q338 118 340 130T342 178Q342 197 341 203T333 213Q317 223 262 223ZM285 787Q332 787 361 758T391 681Q391 633 361 604T284 574Q237 574 208 603T178 680Q178 728 208 757T285 787ZM284 628Q306 628 320 642T334 681Q334 705 320 719T285 733Q263 733 249 719T235 680Q235 656 249 642T284 628Z"  />
<glyph unicode="&#xE6;" horiz-adv-x="887" d="M847 153Q845 108 838 85T813 43Q787 16 740 4T614 -9Q525 -9 482 11T421 79Q414 55 401 38T366 11T311 -4T235 -9Q181 -9 144 -1T83 27T49 77T38 152Q38 242 77 281T207 320Q277 320 314 307T362 265V343Q362 370 360 385T352 406Q339 419 285 419Q247 419 235 413T223 387V378H62Q63 424 71 447T100 487Q112 497 126 503T159 512T204 517T267 519Q386 519 419 493Q428 486 437 474T451 442Q467 484 503 501T614 518Q697 518 745 501T817 444Q823 434 828 416T838 375T844 325T846 271Q846 263 846 255T845 224H528Q526 213 526 205T526 185Q526 158 528 142T539 116T561 103T598 100Q625 100 642 102T668 109T681 125T685 153H847ZM685 309V330Q685 358 683 374T674 400T653 411T615 414Q585 414 568 412T541 403T530 380T527 339Q527 331 527 325T528 309H685ZM273 218Q250 218 237 216T216 207T206 187T203 153Q203 122 214 112T258 101Q332 101 351 112Q359 117 361 125T364 157Q364 179 362 191T352 210T325 217T273 218Z"  />
<glyph unicode="&#xE7;" horiz-adv-x="555" d="M156 -172Q205 -182 246 -182Q269 -182 281 -172T293 -145Q293 -128 281 -119T247 -109Q227 -109 199 -112V-71L241 -8Q184 -4 147 11T86 57Q74 72 66 89T53 129T46 184T44 258Q44 295 45 321T50 368T59 404T74 435Q87 457 105 473T147 499T204 513T280 518Q410 518 458 483Q483 464 497 429T511 346V321H352Q352 345 350 360T341 382T321 392T284 395Q233 395 223 375Q220 370 218 362T215 338T214 298T213 240Q213 196 215 172T225 135T248 120T292 117Q317 117 328 121T345 140Q347 145 349 159T353 202H513V183Q513 64 443 20Q405 -5 307 -8L269 -64Q279 -62 285 -62T298 -62Q341 -62 365 -86T389 -144Q389 -184 358 -210T255 -237Q226 -237 204 -235T156 -227V-172Z"  />
<glyph unicode="&#xE8;" horiz-adv-x="563" d="M206 224Q205 213 205 205T204 185Q204 133 218 116Q225 108 238 104T275 99Q307 99 322 100T346 107Q354 112 356 122T359 140Q359 142 359 144T358 153H520Q518 110 510 84T481 37Q468 24 452 16T414 2T361 -6T290 -9Q246 -9 214 -6T157 4T115 24T82 55Q71 69 64 85T52 124T46 181T44 264Q44 309 47 342T57 400T76 443T104 475Q132 498 170 508T273 518Q361 518 410 501T490 443Q499 430 505 415T516 380T521 332T523 266Q523 255 523 248T521 224H206ZM362 309Q364 316 364 322T364 337Q364 362 362 377T352 401T327 411T283 414Q257 414 242 412T219 400T209 368T207 309H362ZM376 574H256L96 723H279L376 574Z"  />
<glyph unicode="&#xE9;" horiz-adv-x="563" d="M206 224Q205 213 205 205T204 185Q204 133 218 116Q225 108 238 104T275 99Q307 99 322 100T346 107Q354 112 356 122T359 140Q359 142 359 144T358 153H520Q518 110 510 84T481 37Q468 24 452 16T414 2T361 -6T290 -9Q246 -9 214 -6T157 4T115 24T82 55Q71 69 64 85T52 124T46 181T44 264Q44 309 47 342T57 400T76 443T104 475Q132 498 170 508T273 518Q361 518 410 501T490 443Q499 430 505 415T516 380T521 332T523 266Q523 255 523 248T521 224H206ZM362 309Q364 316 364 322T364 337Q364 362 362 377T352 401T327 411T283 414Q257 414 242 412T219 400T209 368T207 309H362ZM313 574H193L290 723H473L313 574Z"  />
<glyph unicode="&#xEA;" horiz-adv-x="563" d="M206 224Q205 213 205 205T204 185Q204 133 218 116Q225 108 238 104T275 99Q307 99 322 100T346 107Q354 112 356 122T359 140Q359 142 359 144T358 153H520Q518 110 510 84T481 37Q468 24 452 16T414 2T361 -6T290 -9Q246 -9 214 -6T157 4T115 24T82 55Q71 69 64 85T52 124T46 181T44 264Q44 309 47 342T57 400T76 443T104 475Q132 498 170 508T273 518Q361 518 410 501T490 443Q499 430 505 415T516 380T521 332T523 266Q523 255 523 248T521 224H206ZM362 309Q364 316 364 322T364 337Q364 362 362 377T352 401T327 411T283 414Q257 414 242 412T219 400T209 368T207 309H362ZM361 723L473 574H345L285 654L224 574H96L208 723H361Z"  />
<glyph unicode="&#xEB;" horiz-adv-x="563" d="M206 224Q205 213 205 205T204 185Q204 133 218 116Q225 108 238 104T275 99Q307 99 322 100T346 107Q354 112 356 122T359 140Q359 142 359 144T358 153H520Q518 110 510 84T481 37Q468 24 452 16T414 2T361 -6T290 -9Q246 -9 214 -6T157 4T115 24T82 55Q71 69 64 85T52 124T46 181T44 264Q44 309 47 342T57 400T76 443T104 475Q132 498 170 508T273 518Q361 518 410 501T490 443Q499 430 505 415T516 380T521 332T523 266Q523 255 523 248T521 224H206ZM362 309Q364 316 364 322T364 337Q364 362 362 377T352 401T327 411T283 414Q257 414 242 412T219 400T209 368T207 309H362ZM316 710H467V585H316V710ZM104 710H255V585H104V710Z"  />
<glyph unicode="&#xEC;" horiz-adv-x="285" d="M58 509H227V0H58V509ZM236 574H116L-44 723H139L236 574Z"  />
<glyph unicode="&#xED;" horiz-adv-x="285" d="M58 509H227V0H58V509ZM173 574H53L150 723H333L173 574Z"  />
<glyph unicode="&#xEE;" horiz-adv-x="285" d="M58 509H227V0H58V509ZM221 723L333 574H205L145 654L84 574H-44L68 723H221Z"  />
<glyph unicode="&#xEF;" horiz-adv-x="285" d="M58 509H227V0H58V509ZM176 710H327V585H176V710ZM-36 710H115V585H-36V710Z"  />
<glyph unicode="&#xF0;" horiz-adv-x="554" d="M245 498Q266 498 289 494T330 478Q327 490 318 505T298 534T276 560T257 578L151 537L124 603L194 630L141 674L257 732L327 686L425 726L453 658L389 633Q420 595 443 559T481 483T503 396T510 288Q510 85 457 37Q429 12 385 2T266 -9Q191 -9 148 8T81 55Q63 79 54 127T44 262Q44 327 54 372T87 445T149 485T245 498ZM209 196Q209 164 212 152T220 132Q227 122 239 119T278 115Q304 115 316 120T334 135Q336 139 338 151T341 182T344 220T345 261Q345 298 344 321T335 358T315 376T278 381Q238 381 224 364T209 311V196Z"  />
<glyph unicode="&#xF1;" horiz-adv-x="568" d="M279 392Q247 392 236 379T225 326V0H56V509H221V440Q232 462 244 477T273 501T310 514T360 518Q403 518 432 510T480 482T506 430T514 351V0H345V321Q345 342 343 356T333 378T312 389T279 392ZM476 712Q470 652 439 619T357 585Q334 585 314 590T276 603T243 615T213 621Q196 621 184 610T168 578H96Q103 637 137 674T218 712Q239 712 259 706T299 692T334 678T362 672Q378 672 389 682T405 712H476Z"  />
<glyph unicode="&#xF2;" horiz-adv-x="554" d="M275 518Q351 518 396 506T468 468Q481 454 489 439T501 399T508 339T510 249Q510 201 508 167T500 109T485 68T463 39Q435 14 388 3T266 -9Q191 -9 148 5T78 55Q59 79 52 125T44 257Q44 339 53 390T87 469T158 508T275 518ZM213 196Q213 164 215 152T223 132Q230 122 240 119T278 115Q304 115 316 119T333 135Q336 140 337 146T339 166T340 203T341 266Q341 314 340 340T333 380T315 395T278 398Q258 398 246 396T226 386T216 365T213 331V196ZM372 574H252L92 723H275L372 574Z"  />
<glyph unicode="&#xF3;" horiz-adv-x="554" d="M275 518Q351 518 396 506T468 468Q481 454 489 439T501 399T508 339T510 249Q510 201 508 167T500 109T485 68T463 39Q435 14 388 3T266 -9Q191 -9 148 5T78 55Q59 79 52 125T44 257Q44 339 53 390T87 469T158 508T275 518ZM213 196Q213 164 215 152T223 132Q230 122 240 119T278 115Q304 115 316 119T333 135Q336 140 337 146T339 166T340 203T341 266Q341 314 340 340T333 380T315 395T278 398Q258 398 246 396T226 386T216 365T213 331V196ZM309 574H189L286 723H469L309 574Z"  />
<glyph unicode="&#xF4;" horiz-adv-x="554" d="M275 518Q351 518 396 506T468 468Q481 454 489 439T501 399T508 339T510 249Q510 201 508 167T500 109T485 68T463 39Q435 14 388 3T266 -9Q191 -9 148 5T78 55Q59 79 52 125T44 257Q44 339 53 390T87 469T158 508T275 518ZM213 196Q213 164 215 152T223 132Q230 122 240 119T278 115Q304 115 316 119T333 135Q336 140 337 146T339 166T340 203T341 266Q341 314 340 340T333 380T315 395T278 398Q258 398 246 396T226 386T216 365T213 331V196ZM357 723L469 574H341L281 654L220 574H92L204 723H357Z"  />
<glyph unicode="&#xF5;" horiz-adv-x="554" d="M275 518Q351 518 396 506T468 468Q481 454 489 439T501 399T508 339T510 249Q510 201 508 167T500 109T485 68T463 39Q435 14 388 3T266 -9Q191 -9 148 5T78 55Q59 79 52 125T44 257Q44 339 53 390T87 469T158 508T275 518ZM213 196Q213 164 215 152T223 132Q230 122 240 119T278 115Q304 115 316 119T333 135Q336 140 337 146T339 166T340 203T341 266Q341 314 340 340T333 380T315 395T278 398Q258 398 246 396T226 386T216 365T213 331V196ZM472 712Q466 652 435 619T353 585Q330 585 310 590T272 603T239 615T209 621Q192 621 180 610T164 578H92Q99 637 133 674T214 712Q235 712 255 706T295 692T330 678T358 672Q374 672 385 682T401 712H472Z"  />
<glyph unicode="&#xF6;" horiz-adv-x="554" d="M275 518Q351 518 396 506T468 468Q481 454 489 439T501 399T508 339T510 249Q510 201 508 167T500 109T485 68T463 39Q435 14 388 3T266 -9Q191 -9 148 5T78 55Q59 79 52 125T44 257Q44 339 53 390T87 469T158 508T275 518ZM213 196Q213 164 215 152T223 132Q230 122 240 119T278 115Q304 115 316 119T333 135Q336 140 337 146T339 166T340 203T341 266Q341 314 340 340T333 380T315 395T278 398Q258 398 246 396T226 386T216 365T213 331V196ZM312 710H463V585H312V710ZM100 710H251V585H100V710Z"  />
<glyph unicode="&#xF7;" horiz-adv-x="667" d="M332 369Q287 369 264 393T240 460Q240 504 264 528T333 552Q378 552 401 528T426 460Q426 418 402 394T332 369ZM332 -9Q287 -9 264 15T240 82Q240 126 264 150T333 174Q378 174 401 150T426 82Q426 40 402 16T332 -9ZM617 341V203H50V341H617Z"  />
<glyph unicode="&#xF8;" horiz-adv-x="554" d="M275 518Q342 518 385 509T455 479L501 524L549 476L495 423Q504 398 507 358T510 249Q510 201 508 167T500 109T485 68T463 39Q435 14 388 3T266 -9Q203 -9 163 1T97 34L55 -7L6 40L59 92Q51 118 48 157T44 257Q44 339 53 390T87 469T158 508T275 518ZM336 131Q339 136 340 143T342 166T343 207T344 275L213 147Q215 129 227 120T278 111Q304 111 317 115T336 131ZM210 239L339 366Q338 390 323 396T278 402Q238 402 224 390T210 335V239Z"  />
<glyph unicode="&#xF9;" horiz-adv-x="568" d="M512 0H350V79Q341 54 329 38T300 11T260 -4T205 -9Q163 -9 134 -1T88 27T62 77T54 153V509H223V174Q223 142 236 130T282 117Q323 117 336 139Q341 147 342 157T343 192V509H512V0ZM376 574H256L96 723H279L376 574Z"  />
<glyph unicode="&#xFA;" horiz-adv-x="568" d="M512 0H350V79Q341 54 329 38T300 11T260 -4T205 -9Q163 -9 134 -1T88 27T62 77T54 153V509H223V174Q223 142 236 130T282 117Q323 117 336 139Q341 147 342 157T343 192V509H512V0ZM313 574H193L290 723H473L313 574Z"  />
<glyph unicode="&#xFB;" horiz-adv-x="568" d="M512 0H350V79Q341 54 329 38T300 11T260 -4T205 -9Q163 -9 134 -1T88 27T62 77T54 153V509H223V174Q223 142 236 130T282 117Q323 117 336 139Q341 147 342 157T343 192V509H512V0ZM361 723L473 574H345L285 654L224 574H96L208 723H361Z"  />
<glyph unicode="&#xFC;" horiz-adv-x="568" d="M512 0H350V79Q341 54 329 38T300 11T260 -4T205 -9Q163 -9 134 -1T88 27T62 77T54 153V509H223V174Q223 142 236 130T282 117Q323 117 336 139Q341 147 342 157T343 192V509H512V0ZM316 710H467V585H316V710ZM104 710H255V585H104V710Z"  />
<glyph unicode="&#xFD;" horiz-adv-x="538" d="M360 509H531L403 15Q383 -65 364 -107T322 -169Q283 -202 200 -202Q180 -202 156 -200T120 -196V-82Q125 -83 128 -83T136 -83Q185 -83 206 -64T231 3H148L4 509H175L274 126L360 509ZM302 574H182L279 723H462L302 574Z"  />
<glyph unicode="&#xFE;" horiz-adv-x="564" d="M483 468Q493 454 500 438T512 399T518 347T520 275Q520 233 520 204T517 154T512 117T504 86Q490 41 450 16T350 -9Q305 -9 278 7T227 62V-197H58V723H227V451Q246 486 274 502T350 518Q398 518 430 506T483 468ZM285 391Q264 391 252 388T234 368T227 319T226 227Q226 198 229 174T238 139Q249 118 286 118Q305 118 317 121T337 134T346 158T349 197Q349 244 349 274T348 323T346 352T342 367Q337 380 324 385T285 391Z"  />
<glyph unicode="&#xFF;" horiz-adv-x="538" d="M360 509H531L403 15Q383 -65 364 -107T322 -169Q283 -202 200 -202Q180 -202 156 -200T120 -196V-82Q125 -83 128 -83T136 -83Q185 -83 206 -64T231 3H148L4 509H175L274 126L360 509ZM305 710H456V585H305V710ZM93 710H244V585H93V710Z"  />
<glyph unicode="&#x131;" horiz-adv-x="285" d="M58 509H227V0H58V509Z"  />
<glyph unicode="&#x152;" horiz-adv-x="993" d="M495 721H935V569H669V438H925V301H669V155H944V0H492V87Q479 61 463 43T424 14T371 -1T299 -6Q259 -6 228 -2T173 12T129 37T94 75Q75 100 66 142T56 241V474Q56 539 67 581T106 656Q122 676 141 690T183 713T236 726T302 730Q382 730 425 709T495 635V721ZM354 574Q316 574 296 568T266 546Q260 537 257 525T251 493T248 442T247 366Q247 329 247 303T248 257T250 225T254 202Q260 173 280 161T348 149Q393 149 421 156T460 178Q466 186 469 197T475 232T477 294T478 398Q478 439 478 464T475 505T470 530T460 547Q449 561 425 567T354 574Z"  />
<glyph unicode="&#x153;" horiz-adv-x="882" d="M842 153Q840 111 833 87T807 43Q780 15 734 3T605 -9Q568 -9 543 -5T500 8T471 33T451 72Q443 52 436 41T417 22Q399 8 363 0T269 -9Q194 -9 147 8T77 61Q68 75 62 93T51 136T46 195T44 278Q44 317 46 346T54 397T68 436T90 467Q116 495 156 506T263 518Q310 518 342 515T396 504T430 483T451 448Q459 469 470 483T498 504T542 515T608 518Q723 518 767 489Q801 467 817 436T837 350Q839 335 839 303T840 224H532V200Q532 167 534 147T544 117T567 104T607 101Q629 101 642 103T664 111T675 127T679 153H842ZM678 309V320Q678 341 678 355T677 377T675 390T670 399Q660 413 617 413Q588 413 571 412T546 404T536 384T534 349Q534 341 534 331T535 309H678ZM291 398Q259 398 243 393T221 373Q219 368 218 353T215 317T213 268T212 210Q212 179 215 161T226 132T251 119T293 115Q348 115 360 137Q362 141 363 150T366 176T367 222T368 293Q368 317 368 331T366 354T363 368T358 378Q350 390 337 394T291 398Z"  />
<glyph unicode="&#x160;" horiz-adv-x="698" d="M233 224Q232 220 232 216T232 210Q232 175 254 161T336 147Q421 147 441 159Q450 164 453 175T456 213Q456 238 454 251T440 272T402 283T329 290Q277 294 242 298T184 307T145 318T116 333Q49 380 49 510Q49 576 63 617T108 685Q124 698 143 707T187 721T248 729T333 731Q388 731 427 729T493 722T540 707T577 682Q591 670 600 656T616 623T624 579T627 521V511H445V524Q445 558 427 566Q416 571 385 574T316 577Q273 577 260 563T246 508Q246 487 249 475T266 457T308 447T387 439Q444 434 481 429T543 418T583 402T611 378Q634 352 644 314T654 218Q654 146 635 101T574 29Q558 19 538 12T490 1T426 -6T342 -8Q295 -8 259 -6T194 2T144 17T104 39Q72 62 59 96T46 188V224H233ZM271 780L159 929H287L348 849L408 929H536L424 780H271Z"  />
<glyph unicode="&#x161;" horiz-adv-x="546" d="M197 145V140Q198 113 212 103T266 93Q292 93 312 96T340 104Q353 113 353 148Q353 175 344 184T303 196L230 200Q174 203 138 214T77 245Q35 278 35 358Q35 403 46 433T82 482T149 509T251 518Q342 518 395 507T470 470Q485 454 491 433T499 374H339Q340 379 340 383Q340 390 337 398T325 410Q312 417 252 417Q216 417 205 408T193 368Q193 354 195 346T208 332T237 325T290 320Q361 315 399 308T458 287Q516 249 516 160Q516 116 502 83T462 29Q434 9 391 0T273 -9Q203 -9 157 -2T82 24T41 71T29 145H197ZM193 574L81 723H209L270 643L330 723H458L346 574H193Z"  />
<glyph unicode="&#x178;" horiz-adv-x="642" d="M-23 723H194L323 441L450 723H664L420 253V0H220V256L-23 723ZM354 916H505V791H354V916ZM142 916H293V791H142V916Z"  />
<glyph unicode="&#x17D;" horiz-adv-x="660" d="M30 169L371 560H49V723H616V551L283 167H620V0H30V169ZM251 780L139 929H267L328 849L388 929H516L404 780H251Z"  />
<glyph unicode="&#x17E;" horiz-adv-x="496" d="M23 137L266 389H37V509H461V373L221 123H467V0H23V137ZM177 574L65 723H193L254 643L314 723H442L330 574H177Z"  />
<glyph unicode="&#x192;" horiz-adv-x="667" d="M15 -42Q25 -44 40 -45T68 -47Q98 -47 118 -43T153 -30T174 -4T187 37L242 345H122V453H263Q274 523 291 572T331 654Q362 696 404 713T518 731Q572 731 628 725V585Q605 590 590 591T561 593Q533 593 513 586T480 562T458 519T445 453H569V343H425L410 255Q393 159 381 96T358 -8T335 -73T308 -117Q293 -136 275 -149T232 -170T177 -182T105 -186Q81 -186 58 -185T15 -180V-42Z"  />
<glyph unicode="&#x237;" horiz-adv-x="285" d="M14 -36Q58 -35 58 -4V509H227V60Q227 11 225 -17T217 -66Q211 -93 196 -113T160 -142Q121 -159 65 -159Q53 -159 38 -158T14 -154V-36Z"  />
<glyph unicode="&#x2C6;" horiz-adv-x="333" d="M243 723L355 574H227L167 654L106 574H-22L90 723H243Z"  />
<glyph unicode="&#x2DC;" horiz-adv-x="333" d="M357 712Q351 652 320 619T238 585Q215 585 195 590T157 603T124 615T94 621Q77 621 65 610T49 578H-23Q-16 637 18 674T99 712Q120 712 140 706T180 692T215 678T243 672Q259 672 270 682T286 712H357Z"  />
<glyph unicode="&#x2013;" horiz-adv-x="667" d="M667 341V203H0V341H667Z"  />
<glyph unicode="&#x2014;" horiz-adv-x="1000" d="M60 341H940V203H60V341Z"  />
<glyph unicode="&#x2018;" horiz-adv-x="278" d="M215 658Q196 658 184 656T166 648T157 633T154 609V598H210V436H63V520Q63 553 63 576T65 615T70 644T77 667Q84 684 94 696T121 715T160 725T215 730V658Z"  />
<glyph unicode="&#x2019;" horiz-adv-x="278" d="M63 501Q100 502 112 511T124 550V561H68V723H215V639Q215 606 215 583T213 544T208 515T201 492Q187 457 157 444T63 429V501Z"  />
<glyph unicode="&#x201A;" horiz-adv-x="278" d="M63 -48Q100 -47 112 -38T124 1V12H68V174H215V90Q215 57 215 34T213 -5T208 -34T201 -57Q187 -92 157 -105T63 -120V-48Z"  />
<glyph unicode="&#x201C;" horiz-adv-x="500" d="M448 658Q429 658 417 656T399 648T390 633T387 609V598H443V436H296V520Q296 553 296 576T298 615T303 644T310 667Q317 684 327 696T354 715T393 725T448 730V658ZM204 658Q185 658 173 656T155 648T146 633T143 609V598H199V436H52V520Q52 553 52 576T54 615T59 644T66 667Q73 684 83 696T110 715T149 725T204 730V658Z"  />
<glyph unicode="&#x201D;" horiz-adv-x="500" d="M52 501Q89 502 101 511T113 550V561H57V723H204V639Q204 606 204 583T202 544T197 515T190 492Q176 457 146 444T52 429V501ZM296 501Q333 502 345 511T357 550V561H301V723H448V639Q448 606 448 583T446 544T441 515T434 492Q420 457 390 444T296 429V501Z"  />
<glyph unicode="&#x201E;" horiz-adv-x="500" d="M52 -48Q89 -47 101 -38T113 1V12H57V174H204V90Q204 57 204 34T202 -5T197 -34T190 -57Q176 -92 146 -105T52 -120V-48ZM296 -48Q333 -47 345 -38T357 1V12H301V174H448V90Q448 57 448 34T446 -5T441 -34T434 -57Q420 -92 390 -105T296 -120V-48Z"  />
<glyph unicode="&#x2020;" horiz-adv-x="667" d="M418 0H250V407H102V553H250V723H418V553H565V407H418V0Z"  />
<glyph unicode="&#x2021;" horiz-adv-x="667" d="M416 0H251V139H123V275H251V451H123V588H251V723H416V588H544V451H416V275H544V139H416V0Z"  />
<glyph unicode="&#x2022;" horiz-adv-x="333" d="M169 496Q200 496 227 484T275 452T308 404T320 345Q320 313 308 285T276 235T227 202T167 190Q135 190 107 202T59 235T26 284T14 345Q14 377 26 404T59 452T108 484T169 496Z"  />
<glyph unicode="&#x2026;" horiz-adv-x="1000" d="M87 174H246V0H87V174ZM420 174H579V0H420V174ZM753 174H912V0H753V174Z"  />
<glyph unicode="&#x2030;" horiz-adv-x="1000" d="M177 -17L426 735H503L254 -17H177ZM280 483Q280 445 275 422T253 386T208 368T133 363Q97 363 73 368T35 384T15 416T9 466V618Q9 649 14 668T30 702Q45 721 66 728T132 735Q176 735 204 731T250 714T273 683T280 633V483ZM144 657Q113 657 108 645Q105 639 104 618T102 551Q102 465 107 455Q110 447 118 444T145 441Q162 441 170 444T182 455Q183 458 184 465T186 487T187 526T188 588Q188 612 187 625T182 646T168 655T144 657ZM987 107Q987 69 982 46T960 10T915 -8T840 -13Q804 -13 780 -8T742 8T722 40T716 90V242Q716 273 721 292T737 326Q752 345 773 352T839 359Q883 359 911 355T957 338T980 307T987 257V107ZM851 281Q820 281 815 269Q812 263 811 242T809 175Q809 89 814 79Q817 71 825 68T852 65Q869 65 877 68T889 79Q890 82 891 89T893 111T894 150T895 212Q895 236 894 249T889 270T875 279T851 281ZM664 107Q664 69 659 46T637 10T592 -8T517 -13Q481 -13 457 -8T419 8T399 40T393 90V242Q393 273 398 292T414 326Q429 345 450 352T516 359Q560 359 588 355T634 338T657 307T664 257V107ZM528 281Q497 281 492 269Q489 263 488 242T486 175Q486 89 491 79Q494 71 502 68T529 65Q546 65 554 68T566 79Q567 82 568 89T570 111T571 150T572 212Q572 236 571 249T566 270T552 279T528 281Z"  />
<glyph unicode="&#x2039;" horiz-adv-x="278" d="M240 407L139 264L237 118H132L34 264L135 407H240Z"  />
<glyph unicode="&#x203A;" horiz-adv-x="278" d="M38 118L139 261L41 407H146L244 261L143 118H38Z"  />
<glyph unicode="&#x20AC;" horiz-adv-x="667" d="M132 476Q135 539 156 587T216 667T307 715T427 731H457Q510 731 552 724T630 694L588 546Q559 564 527 569T464 575H436Q385 575 354 551T318 476H573L549 387H317V326H535L511 237H317Q325 188 353 168T433 147H467Q512 147 544 160T610 203V39Q579 10 546 1T470 -8H415Q342 -8 291 9T207 57T157 134T133 237H53L77 326H131V387H53L77 476H132Z"  />
<glyph unicode="&#x2122;" horiz-adv-x="1000" d="M337 723V617H233V340H115V617H12V723H337ZM373 723H549L634 471L718 723H890V340H777V603L688 340H575L486 603V340H373V723Z"  />

</font>
</defs>
</svg>
