<?xml  version="1.0" encoding="UTF-8"?>
<!DOCTYPE svg PUBLIC "-//W3C//DTD SVG 1.0//EN" "http://www.w3.org/TR/2001/REC-SVG-20010904/DTD/svg10.dtd" >
<svg xmlns="http://www.w3.org/2000/svg" >
<metadata>
<version>1.0</version>
<id><![CDATA[Eurostile LT W01 Oblique]]></id>
<vendor>Monotype Imaging Inc.</vendor>
<credits>
<name>Fonts.com WebFonts</name>
<URL>http://webfonts.fonts.com</URL>
<role>Home of the Web fonts</role>
</credits>
<license>
<URL>http://webfonts.fonts.com/Legal</URL>
</license>
<copyright><![CDATA[Copyright © 2007 - 2010 Linotype GmbH, www.linotype.com. All rights reserved. This font software may not be reproduced, modified, disclosed or transferred without the express written approval of Linotype GmbH. Eurostile is a trademark of Linotype GmbH and may be registered in certain jurisdictions. This typeface is original artwork of Aldo Novarese. The design may be protected in certain jurisdictions.]]></copyright>
<trademark><![CDATA[Eurostile is a trademark of Linotype GmbH and may be registered in certain jurisdictions.]]></trademark>
<licensee>
<name></name>
</licensee>
</metadata>
<defs >
<font horiz-adv-x="561" id="9d71d51d-0c0f-460e-af07-9b3a592886f2">
<font-face font-family="" panose-1="2 11 5 4 2 2 2 12 2 4" ascent="959" descent="-277" units-per-em="1000" alphabetic="0">
</font-face>
<missing-glyph horiz-adv-x="333" />

<glyph unicode="&#xA;" />
<glyph unicode="&#xD;" />
<glyph unicode=" " horiz-adv-x="333" />
<glyph unicode="!" horiz-adv-x="333" d="M141 0H63L79 93H157L141 0ZM101 194L189 723H270L172 194H101Z"  />
<glyph unicode="&quot;" horiz-adv-x="333" d="M358 723L338 612L289 464H243L248 612L268 723H358ZM190 723L170 612L121 464H75L80 612L100 723H190Z"  />
<glyph unicode="#" horiz-adv-x="667" d="M599 446H505L456 283H541V203H432L371 0H291L352 203H190L129 0H49L110 203H46V283H134L183 446H104V526H207L268 723H348L287 526H449L510 723H590L529 526H599V446ZM214 283H376L425 446H263L214 283Z"  />
<glyph unicode="$" horiz-adv-x="667" d="M113 219L104 166Q101 152 101 141Q101 101 131 88T231 74H251L297 337Q241 337 201 343T136 364T99 404T87 469Q87 484 88 500T94 537Q103 586 120 621T165 679T236 713T337 724H365L376 784H441L430 724H455Q547 724 589 693T632 601Q632 590 631 580T628 557L624 537H545Q550 560 551 571T553 589Q553 622 524 637T432 652H417L374 407Q487 407 539 379T592 280Q592 252 584 206Q574 153 558 115T513 51T441 14T333 2H303L292 -59H227L238 2H208Q111 2 67 30T22 127Q22 157 29 195L33 219H113ZM352 652H334Q293 652 266 648T222 632T195 600T179 547Q170 499 170 475Q170 434 205 422T310 410L352 652ZM316 74H333Q375 74 403 79T451 99T482 139T501 205Q505 225 506 240T508 266Q508 284 502 297T480 317T435 328T361 332L316 74Z"  />
<glyph unicode="%" horiz-adv-x="1000" d="M66 568Q74 617 85 644T117 692Q129 704 144 712T179 725T227 733T291 735Q335 735 365 731T415 714T442 682T451 630Q451 613 449 594T443 551L420 421Q410 365 396 330T357 274T294 246T199 238Q128 238 93 249T43 290Q32 312 32 349Q32 377 38 413L66 568ZM377 556Q381 578 383 594T385 624Q385 642 380 653T362 669T328 676T275 678Q233 678 208 675T168 660T145 628T131 571L104 415Q101 398 99 384T97 358Q97 339 102 327T121 309T157 300T211 297Q251 297 275 300T314 315T336 347T350 404L377 556ZM714 734L338 -7H281L658 734H714ZM580 323Q588 372 599 399T631 447Q643 459 658 467T693 480T741 488T805 490Q849 490 879 486T929 469T956 437T965 385Q965 368 963 349T957 306L934 176Q924 120 910 85T871 29T808 1T713 -7Q642 -7 607 4T557 45Q546 67 546 104Q546 132 552 168L580 323ZM891 311Q895 333 897 349T899 379Q899 397 894 408T876 424T842 431T789 433Q747 433 722 430T682 415T659 383T645 326L618 170Q615 153 613 139T611 113Q611 94 616 82T635 64T671 55T725 52Q765 52 789 55T828 70T850 102T864 159L891 311Z"  />
<glyph unicode="&amp;" horiz-adv-x="764" d="M556 87Q536 58 515 40T466 12T398 -2T303 -6H216Q164 -6 129 2T72 27T41 68T32 122Q32 142 35 166T43 222Q49 257 55 282T70 325T88 357T113 382Q133 397 156 404T211 417Q185 443 174 461T162 505Q162 518 164 533T170 569Q179 619 192 645T230 689Q259 709 301 717T412 726Q472 726 510 719T570 696T600 658T609 603Q609 579 606 555T596 507H518Q524 542 526 561T529 595Q529 611 526 623T509 642T468 654T395 658Q354 658 328 655T286 642T262 616T249 572Q247 558 245 546T243 526Q243 507 260 492L532 229L548 323H627L617 264Q610 226 606 206T596 168L715 49L651 -10L556 87ZM501 138Q457 180 424 212T366 269T324 309T296 337L266 366Q263 369 255 369Q233 369 212 362T175 341Q153 323 142 297T122 219Q118 196 116 179T114 148Q114 123 121 107T146 82T195 69T274 65Q333 65 372 68T436 79T475 101T501 138Z"  />
<glyph unicode="&apos;" horiz-adv-x="200" d="M210 723L190 612L141 464H91L96 612L116 723H210Z"  />
<glyph unicode="(" horiz-adv-x="333" d="M331 659H318Q283 659 260 652T221 625T194 573T174 489L126 220Q122 197 120 179T118 145Q118 98 140 82T211 65H226L215 0H194Q111 0 75 33T38 139Q38 154 40 171T45 207L96 508Q106 565 123 606T167 673T232 712T322 724H342L331 659Z"  />
<glyph unicode=")" horiz-adv-x="333" d="M1 65H14Q48 65 71 72T111 99T138 151T158 235L206 504Q210 527 212 545T214 579Q214 626 192 642T121 659H106L117 724H138Q221 724 257 691T294 585Q294 570 292 553T287 517L236 216Q226 159 209 118T165 51T100 12T10 0H-10L1 65Z"  />
<glyph unicode="*" horiz-adv-x="500" d="M276 596L229 572L167 707L215 729L276 596ZM419 704L328 571L287 596L376 729L419 704ZM485 565L481 512H331L335 565H485ZM72 565H225L221 514H68L72 565ZM177 348L135 373L226 505L265 479L177 348ZM322 505L387 373L341 346L277 479L322 505Z"  />
<glyph unicode="+" horiz-adv-x="667" d="M277 298V510H341V298H573V236H341V23H277V236H46V298H277Z"  />
<glyph unicode="&#x2c;" horiz-adv-x="333" d="M32 -60Q52 -58 61 -52T73 -28L78 0H45L63 106H147L125 -20Q117 -66 95 -84T24 -104L32 -60Z"  />
<glyph unicode="-" horiz-adv-x="333" d="M17 299H292L280 232H5L17 299Z"  />
<glyph unicode="." horiz-adv-x="333" d="M63 106H147L129 0H45L63 106Z"  />
<glyph unicode="/" horiz-adv-x="333" d="M-43 -12L299 731H372L30 -12H-43Z"  />
<glyph unicode="0" horiz-adv-x="667" d="M78 485Q84 521 91 549T108 599T129 638T156 671Q173 688 193 699T240 718T305 728T393 731Q463 731 510 725T587 703T629 660T642 592Q642 569 639 538T627 463L590 252Q576 171 556 120T499 41T406 2T260 -8Q198 -8 154 -3T81 17T38 62T24 141Q24 180 34 233L78 485ZM117 249Q111 214 108 191T105 151Q105 124 112 108T138 82T188 70T267 66Q313 66 344 67T396 73T430 84T454 102Q465 113 473 127T488 166T503 227T521 321Q531 379 538 421T550 493T557 543T559 576Q559 599 552 615T527 640T476 654T392 659Q348 659 320 658T273 654T243 646T220 632Q208 622 199 611T183 582T170 541T158 481L117 249Z"  />
<glyph unicode="1" horiz-adv-x="667" d="M368 723H482L355 0H275L390 655L186 485L146 534L368 723Z"  />
<glyph unicode="2" horiz-adv-x="667" d="M25 152Q31 190 43 217T76 265T128 300T204 327L390 376Q436 388 463 397T507 419T531 450T544 498Q551 541 553 557T556 583Q556 604 549 618T525 641T480 654T409 658H356Q317 658 291 657T248 651T219 639T200 619Q196 614 193 606T185 583T177 547T166 492H86Q93 537 101 569T120 625T142 663T170 691Q186 703 203 710T244 722T299 729T374 731Q430 731 469 729T535 722T579 708T609 686Q625 669 631 646T637 597Q637 591 637 584T635 566T632 539T626 500Q618 453 606 423T572 374T520 342T446 317L231 259Q194 249 172 240T136 216T116 180T103 124L95 74H551L538 0H-1L25 152Z"  />
<glyph unicode="3" horiz-adv-x="667" d="M117 235Q112 206 109 189T105 161T103 145T102 135Q102 94 128 80T208 66H316Q364 66 394 70T444 88T474 125T493 188Q499 219 501 238T504 269Q504 292 490 305T456 324T412 331T370 332H275L288 404H383Q421 404 447 408T492 425T520 462T538 525Q547 571 547 594Q547 634 517 646T424 659H346Q300 659 272 656T227 639T201 602T183 535L176 499H96L103 538Q115 602 135 640T184 698T252 724T337 731H455Q551 731 591 702T632 618Q632 583 622 527Q616 490 607 463T582 417T542 387T483 370Q531 367 558 342T585 269Q585 240 576 191Q567 135 551 97T503 36T424 3T303 -7H206Q161 -7 127 -2T69 16T33 55T21 119Q21 127 21 136T23 158T28 189T36 235H117Z"  />
<glyph unicode="4" horiz-adv-x="667" d="M-3 167L14 265L446 723H574L489 242H598L585 167H476L447 0H362L391 167H-3ZM404 242L476 651L89 242H404Z"  />
<glyph unicode="5" horiz-adv-x="667" d="M122 212Q116 180 115 166T113 143Q113 121 119 107T142 83T190 70T271 66Q335 66 374 70T437 90T471 135T492 214Q500 263 504 291T508 338Q508 361 502 377T481 404T439 419T373 424H339Q261 424 213 411T160 355H82L147 723H628L615 651H215L177 436Q191 455 206 466T244 484T296 492T368 494H410Q506 494 549 458T592 350Q592 327 589 298T578 230Q564 153 542 107T486 35T405 2T292 -6H240Q184 -6 145 0T80 22T43 63T31 126Q31 136 33 153T43 212H122Z"  />
<glyph unicode="6" horiz-adv-x="667" d="M542 537Q549 566 549 589Q549 607 545 620T528 641T494 654T438 659H346Q300 659 270 653T222 632T192 591T174 523L148 377Q163 398 178 410T215 430T271 440T356 443H411Q505 443 548 417T591 325Q591 305 588 279T578 218Q566 149 548 106T500 38T424 4T307 -6H227Q124 -6 76 25T28 132Q28 144 29 157T33 184L96 544Q105 592 122 627T168 686T238 720T335 731H453Q535 731 582 707T629 620Q629 608 628 591T618 537H542ZM309 373Q252 373 219 368T167 347T139 300T120 218Q115 192 113 175T111 146Q111 102 142 86T248 69H328Q373 69 401 73T447 92T475 132T493 203Q502 251 505 273T508 308Q508 325 503 337T485 357T449 369T389 373H309Z"  />
<glyph unicode="7" horiz-adv-x="667" d="M131 723H663L649 645L181 0H88L557 651H118L131 723Z"  />
<glyph unicode="8" horiz-adv-x="667" d="M172 375Q137 383 115 407T93 471Q93 497 101 543Q110 597 127 633T173 691T244 722T344 731H450Q495 731 529 726T587 708T622 671T634 613Q634 598 633 580T627 541Q619 498 610 470T586 422T549 393T495 375Q520 369 538 362T567 343T583 317T588 279Q588 262 586 241T578 193Q567 135 551 97T504 35T425 3T301 -7H226Q176 -7 138 -3T74 16T35 56T22 127Q22 163 31 211Q38 252 48 280T75 327T115 357T172 375ZM348 659Q301 659 272 654T226 635T199 595T183 528Q181 512 179 499T177 478Q177 438 207 424T300 409H370Q416 409 446 413T495 429T524 462T540 518Q545 546 547 565T550 597Q550 632 523 645T436 659H348ZM303 337Q250 337 217 332T163 313T132 274T114 206Q110 185 109 169T107 139Q107 115 114 101T137 79T181 69T249 66H293Q353 66 389 70T447 90T478 132T497 206Q501 226 502 241T504 269Q504 292 495 305T464 326T402 335T303 337Z"  />
<glyph unicode="9" horiz-adv-x="667" d="M124 188Q122 176 120 163T117 135Q117 114 123 101T145 80T187 69T253 66H310Q361 66 393 71T444 92T474 133T492 202L518 348Q503 327 488 315T450 295T397 285T320 282H258Q215 282 181 287T124 305T88 342T75 400Q75 420 79 451T92 531Q102 591 122 630T174 691T250 722T352 731H444Q534 731 586 700T638 593Q638 581 637 568T633 541L569 181Q560 133 543 98T497 40T424 5T318 -6H224Q131 -6 84 19T36 105Q36 117 38 135T48 188H124ZM373 352Q427 352 457 359T505 384T530 432T546 507Q551 533 553 550T555 580Q555 599 549 613T528 636T484 651T410 656H358Q301 656 268 651T217 632T190 592T173 522Q164 474 161 452T158 417Q158 399 163 387T183 367T222 356T282 352H373Z"  />
<glyph unicode=":" horiz-adv-x="333" d="M234 509L216 403H132L150 509H234ZM79 106H163L145 0H61L79 106Z"  />
<glyph unicode=";" horiz-adv-x="333" d="M234 509L216 403H132L150 509H234ZM48 -60Q68 -58 77 -52T89 -28L94 0H61L79 106H163L141 -20Q133 -66 111 -84T40 -104L48 -60Z"  />
<glyph unicode="&lt;" horiz-adv-x="667" d="M42 293L558 530V460L122 266V264L558 71V1L42 237V293Z"  />
<glyph unicode="=" horiz-adv-x="667" d="M568 398V336H51V398H568ZM568 198V136H51V198H568Z"  />
<glyph unicode="&gt;" horiz-adv-x="667" d="M577 237L61 1V71L497 264V266L61 460V530L577 293V237Z"  />
<glyph unicode="?" horiz-adv-x="556" d="M70 499L83 564Q92 609 108 640T151 692T218 721T317 731H369Q458 731 499 702T541 608Q541 590 539 568T531 520Q524 478 515 450T493 401T461 366T413 339L341 307Q314 295 299 288T276 271T263 249T255 213L252 193H173L178 230Q182 258 187 277T204 310T234 336T286 363L340 387Q374 402 393 412T423 434T438 465T449 515Q456 556 458 571T460 595Q460 632 436 647T349 663H309Q269 663 243 658T199 639T173 604T157 549L148 499H70ZM217 0H139L155 93H233L217 0Z"  />
<glyph unicode="@" horiz-adv-x="980" d="M514 426Q563 426 586 407T620 354L636 413H704L619 129Q616 119 614 110T612 91Q612 76 621 67T655 57Q685 57 712 75T762 126T802 207T827 311Q829 323 830 335T831 358Q831 455 765 506T562 558Q462 558 386 531T255 453T167 328T120 157Q118 143 117 130T116 102Q116 47 133 3T188 -72T284 -119T424 -136Q475 -136 541 -129T686 -104L677 -171Q605 -187 535 -194T412 -201Q221 -201 130 -126T39 88Q39 105 40 122T44 159Q59 266 98 352T203 498T359 590T572 622Q732 622 816 556T900 367Q900 353 899 339T896 310Q886 240 862 183T804 85T728 22T638 0Q598 0 578 19T555 70Q542 55 529 42T499 20T459 6T405 0Q328 0 295 24T262 102Q262 128 268 160T284 227Q300 288 319 326T366 387T429 417T514 426ZM497 366Q462 366 439 360T399 337T370 293T346 222Q327 156 327 121Q327 89 348 76T428 63Q462 63 485 70T524 91T549 120T563 154L593 262Q595 271 597 281T599 299Q599 312 595 324T579 346T548 360T497 366Z"  />
<glyph unicode="A" horiz-adv-x="721" d="M497 723L636 0H546L511 183H146L46 0H-43L353 723H497ZM498 252L425 653H403L184 252H498Z"  />
<glyph unicode="B" horiz-adv-x="723" d="M493 723Q545 723 580 715T637 691T668 654T678 606Q678 594 677 576T671 538Q665 503 657 477T634 431T597 398T542 377Q637 361 637 267Q637 253 635 238T630 204Q621 149 603 110T556 47T484 11T382 0H26L153 723H493ZM467 410Q521 410 548 437T587 532Q593 565 593 585Q593 619 570 635T493 651H223L181 410H467ZM368 74Q418 74 449 78T500 97T530 137T548 206Q554 240 554 262Q554 338 460 338H168L122 74H368Z"  />
<glyph unicode="C" horiz-adv-x="720" d="M593 491Q598 521 601 542T604 580Q604 599 600 613T581 638T542 653T474 658H384Q327 658 292 651T234 620T198 555T173 442L136 229Q130 196 130 170Q130 140 137 121T162 89T209 73T282 68H384Q430 68 458 75T503 99T530 144T548 214L555 250H636L628 208Q616 145 599 104T552 38T473 3T348 -7H292Q230 -7 184 -1T108 23T63 71T48 149Q48 198 63 285L97 476Q110 548 130 596T183 674T260 717T366 730H497Q602 730 644 699T687 613Q687 600 687 588T685 562T680 531T673 491H593Z"  />
<glyph unicode="D" horiz-adv-x="786" d="M153 723H521Q583 723 624 710T689 673T722 618T732 548Q732 497 717 412L700 315Q684 226 661 166T603 69T515 16T388 0H26L153 723ZM122 76H395Q452 76 488 86T550 125T591 208T623 348Q634 410 640 455T646 534Q646 564 640 586T615 622T561 644T466 651H223L122 76Z"  />
<glyph unicode="E" horiz-adv-x="674" d="M153 723H671L658 649H223L181 410H605L592 338H168L122 76H560L547 0H26L153 723Z"  />
<glyph unicode="F" horiz-adv-x="603" d="M153 723H616L603 649H223L180 403H551L538 329H167L109 0H26L153 723Z"  />
<glyph unicode="G" horiz-adv-x="778" d="M646 506Q652 541 654 557T656 585Q656 603 650 617T627 640T578 654T496 659H397Q337 659 300 652T238 621T200 555T174 443L140 254Q131 200 131 168Q131 144 137 126T161 94T213 75T300 68H398Q448 68 481 72T536 89T570 128T591 197L607 286H403L416 360H703L678 220Q665 148 646 104T593 36T511 3T389 -6H282Q219 -6 175 2T101 30T59 81T45 160Q45 173 46 187T50 216L98 483Q110 549 130 596T185 673T268 717T387 731H510Q582 731 627 723T696 698T729 658T738 604Q738 587 736 567T726 506H646Z"  />
<glyph unicode="H" horiz-adv-x="773" d="M153 723H236L181 410H608L663 723H746L619 0H536L595 336H168L109 0H26L153 723Z"  />
<glyph unicode="I" horiz-adv-x="269" d="M156 723H239L112 0H29L156 723Z"  />
<glyph unicode="J" horiz-adv-x="614" d="M107 266Q100 227 97 204T91 168T89 148T88 137Q88 116 94 103T114 82T153 71T216 68H248Q296 68 326 72T375 92T405 137T425 216L514 723H597L508 217Q496 149 479 106T430 38T346 3T213 -7Q165 -7 126 -3T60 14T19 53T4 121Q4 127 4 135T6 159T12 200T24 266H107Z"  />
<glyph unicode="K" horiz-adv-x="681" d="M153 723H236L181 414H248L600 723H714L317 376L631 0H513L235 340H168L109 0H26L153 723Z"  />
<glyph unicode="L" horiz-adv-x="608" d="M153 723H236L122 76H537L524 0H26L153 723Z"  />
<glyph unicode="M" horiz-adv-x="960" d="M153 723H304L435 102L784 723H933L806 0H723L839 661L466 0H368L225 661L109 0H26L153 723Z"  />
<glyph unicode="N" horiz-adv-x="784" d="M149 723H283L565 78L679 723H761L634 0H505L218 649L104 0H22L149 723Z"  />
<glyph unicode="O" horiz-adv-x="779" d="M682 251Q668 173 646 123T587 44T497 4T370 -7H265Q193 -7 150 5T84 40T53 92T46 156Q46 173 48 193T54 236L105 527Q123 629 186 679T365 730H530Q587 730 625 719T687 687T721 637T731 570Q731 557 730 544T727 514T722 476T713 427L682 251ZM630 429Q639 480 643 513T647 568Q647 594 640 611T617 638T572 653T502 658H373Q327 658 295 651T241 626T206 577T183 495L144 277Q138 241 135 214T131 166Q131 140 136 122T158 91T203 74T282 68H393Q449 68 485 76T543 107T578 169T602 268L630 429Z"  />
<glyph unicode="P" horiz-adv-x="670" d="M153 723H489Q574 723 611 686T648 587Q648 548 638 495Q627 432 610 391T565 325T498 290T405 280H158L109 0H26L153 723ZM409 354Q445 354 469 359T510 378T535 416T552 479Q564 543 564 576Q564 617 542 633T465 649H223L171 354H409Z"  />
<glyph unicode="Q" horiz-adv-x="779" d="M682 251Q671 189 655 145T613 72L646 36L588 -14L554 24Q519 7 474 0T370 -7H265Q193 -7 150 5T84 40T53 92T46 156Q46 173 48 193T54 236L105 527Q123 629 186 679T365 730H530Q587 730 625 719T687 687T721 637T731 570Q731 557 730 544T727 514T722 476T713 427L682 251ZM630 429Q639 480 643 513T647 568Q647 594 640 611T617 638T572 653T502 658H373Q327 658 295 651T241 626T206 577T183 495L144 277Q138 241 135 214T131 166Q131 140 136 122T158 91T203 74T282 68H393Q431 68 459 70T507 81L388 220L445 270L565 131Q577 154 585 187T602 268L630 429Z"  />
<glyph unicode="R" horiz-adv-x="729" d="M153 723H511Q562 723 595 714T649 687T678 645T687 591Q687 558 678 507Q670 459 659 428T632 377T594 346T541 327Q578 320 599 299T620 239Q620 216 615 179T598 77L585 0H502L531 168Q533 182 534 193T536 216Q536 248 517 268T442 289H159L109 0H26L153 723ZM431 361Q472 361 500 367T547 391T577 438T596 514Q600 534 601 549T603 578Q603 596 599 610T583 633T548 646T485 651H223L172 361H431Z"  />
<glyph unicode="S" horiz-adv-x="709" d="M122 234Q118 214 116 200T113 176T111 160T110 147Q110 128 114 114T133 90T174 75T248 70H328Q384 70 420 73T479 90T514 127T534 193Q539 221 540 237T542 264Q542 277 538 287T525 303T498 314T455 321L258 338Q223 341 194 347T142 368T108 406T95 467Q95 483 97 501T103 541Q113 596 129 632T172 691T242 722T347 731H467Q524 731 563 725T627 706T663 670T674 617Q674 602 672 581T662 519H586Q591 549 592 562T594 585Q594 605 589 619T568 642T527 655T461 659H371Q319 659 286 655T233 637T203 599T185 535Q179 503 179 482Q179 462 184 450T201 431T231 421T276 415L466 398Q556 390 591 363T627 282Q627 252 620 211Q609 146 591 104T541 38T457 4T327 -6H238Q181 -6 141 1T75 25T38 69T26 137Q26 184 40 234H122Z"  />
<glyph unicode="T" horiz-adv-x="566" d="M619 723L606 647H374L260 0H177L291 647H60L73 723H619Z"  />
<glyph unicode="U" horiz-adv-x="755" d="M226 723L136 214Q134 200 133 188T131 164Q131 138 137 120T163 90T216 73T306 68H346Q404 68 442 74T505 96T543 140T565 214L655 723H738L647 207Q637 151 619 111T567 45T481 6T353 -7H302Q234 -7 186 0T106 25T61 73T47 149Q47 163 48 181T54 220L143 723H226Z"  />
<glyph unicode="V" horiz-adv-x="681" d="M739 723L343 0H210L70 723H160L287 65L650 723H739Z"  />
<glyph unicode="W" horiz-adv-x="1000" d="M169 723L221 85L503 723H620L670 85L957 723H1041L718 0H594L547 642L269 0H147L82 723H169Z"  />
<glyph unicode="X" horiz-adv-x="631" d="M26 0H-76L257 376L74 723H176L327 437L581 723H684L375 376L577 0H474L304 313L26 0Z"  />
<glyph unicode="Y" horiz-adv-x="654" d="M220 0L273 303L55 723H157L330 383L628 723H727L360 303L307 0H220Z"  />
<glyph unicode="Z" horiz-adv-x="627" d="M-25 78L529 649H95L108 723H649L636 649L82 76H544L531 0H-38L-25 78Z"  />
<glyph unicode="[" horiz-adv-x="333" d="M144 723H341L330 658H214L109 65H225L214 0H17L144 723Z"  />
<glyph unicode="\" horiz-adv-x="333" d="M66 731H142L266 -9H190L66 731Z"  />
<glyph unicode="]" horiz-adv-x="333" d="M-9 0L2 65H118L223 658H107L118 723H315L188 0H-9Z"  />
<glyph unicode="^" horiz-adv-x="580" d="M315 723L514 333H428L277 639L123 333H38L239 723H315Z"  />
<glyph unicode="_" horiz-adv-x="500" d="M413 -125H-86L-77 -75H422L413 -125Z"  />
<glyph unicode="`" horiz-adv-x="333" d="M268 573H204L92 714H198L268 573Z"  />
<glyph unicode="a" horiz-adv-x="559" d="M372 70Q360 47 342 32T301 9T248 -2T184 -5Q101 -5 55 17T8 102Q8 113 9 126T13 154Q21 204 37 235T80 285T144 309T233 316Q275 316 303 313T351 303T381 285T400 257L402 272Q411 325 415 354T420 399Q420 415 414 426T393 445T349 455T278 458Q217 458 188 445T150 385H73Q79 427 95 453T137 494T201 513T290 518Q340 518 379 514T445 498T486 465T500 410Q500 394 497 375L431 0H360L372 70ZM222 254Q189 254 166 250T128 236T105 207T91 161Q86 133 86 119Q86 84 114 73T211 61Q249 61 279 64T330 78T365 108T385 160Q388 178 388 191Q388 208 381 220T354 239T303 250T222 254Z"  />
<glyph unicode="b" horiz-adv-x="554" d="M131 723H209L159 438Q194 484 233 501T332 518Q418 518 457 486T497 379Q497 356 494 328T484 265Q472 196 456 145T412 60T340 8T226 -9Q167 -9 136 12T92 81L78 0H4L131 723ZM304 456Q258 456 228 444T179 407T148 344T127 255Q121 220 118 197T115 156Q115 103 143 80T235 56Q278 56 306 65T353 96T382 157T405 255Q413 297 416 325T419 372Q419 393 415 408T399 434T364 450T304 456Z"  />
<glyph unicode="c" horiz-adv-x="542" d="M412 340Q416 363 417 372T418 390Q418 428 390 442T293 456Q240 456 209 446T158 411T129 347T108 247Q103 214 100 188T96 142Q96 115 102 98T122 72T159 60T217 56Q266 56 296 61T345 80T372 119T387 186H463L458 157Q451 115 436 84T393 32T322 1T216 -9Q108 -9 61 22T14 128Q14 139 15 151T19 178L41 301Q51 360 69 401T117 468T192 506T305 518Q359 518 395 512T454 492T485 458T495 410Q495 400 494 386T486 340H412Z"  />
<glyph unicode="d" horiz-adv-x="553" d="M470 723H548L421 0H348L362 83Q336 34 299 13T202 -9Q153 -9 119 -2T62 23T30 68T20 135Q20 185 35 271Q47 340 65 387T112 464T181 505T278 518Q339 518 372 501T420 437L470 723ZM278 456Q231 456 203 445T157 411T130 351T111 266Q103 223 100 194T97 145Q97 97 121 77T213 56Q261 56 291 70T340 110T369 175T389 261Q395 292 397 314T399 354Q399 404 372 430T278 456Z"  />
<glyph unicode="e" horiz-adv-x="554" d="M462 146Q452 92 433 61T384 15T311 -5T211 -9Q159 -9 123 -3T63 20T29 64T18 132Q18 174 30 243Q45 327 63 380T109 464T181 506T292 518Q350 518 389 512T453 489T488 448T499 384Q499 375 499 365T496 338T490 297T479 237H108Q100 199 98 178T95 142Q95 94 121 75T209 56Q260 56 291 59T342 71T370 98T387 146H462ZM413 302Q418 336 420 354T423 387Q423 406 418 419T397 441T356 454T288 458Q245 458 216 452T168 429T138 381T120 302H413Z"  />
<glyph unicode="f" horiz-adv-x="333" d="M28 444L39 509H114L127 579Q135 622 148 651T183 698T236 723T311 731Q329 731 351 730T394 725L383 660Q357 662 338 663T304 665Q278 665 261 661T233 646T215 618T204 575L192 509H356L345 444H181L103 0H25L103 444H28Z"  />
<glyph unicode="g" horiz-adv-x="552" d="M71 -59Q70 -65 70 -70T69 -81Q69 -113 94 -124T182 -136Q226 -136 254 -130T299 -110T326 -70T343 -6L359 82Q344 60 328 45T291 20T247 6T189 2Q104 2 63 34T22 143Q22 168 25 200T37 275Q47 333 63 378T105 455T171 502T268 518Q346 518 382 494T423 416L439 509H511L420 -9Q410 -67 393 -104T347 -163T274 -193T167 -201Q82 -201 37 -179T-8 -102Q-8 -97 -7 -87T-3 -59H71ZM277 456Q234 456 207 445T161 410T131 347T110 251Q104 216 102 195T99 159Q99 111 122 89T205 67Q255 67 287 80T339 118T370 180T390 266Q395 296 398 317T401 356Q401 404 374 430T277 456Z"  />
<glyph unicode="h" horiz-adv-x="563" d="M131 723H209L157 430Q188 482 229 500T331 518Q379 518 411 510T463 487T490 449T498 399Q498 362 486 292L435 0H357L413 318Q416 337 418 352T420 380Q420 418 399 436T315 455Q240 455 195 421T137 315L82 0H4L131 723Z"  />
<glyph unicode="i" horiz-adv-x="218" d="M133 723H211L196 638H118L133 723ZM95 509H173L84 0H6L95 509Z"  />
<glyph unicode="j" horiz-adv-x="218" d="M-83 -131H-76Q-42 -131 -27 -114T-3 -48L95 509H173L71 -73Q60 -138 29 -165T-71 -193Q-74 -193 -80 -193T-93 -192L-83 -131ZM133 723H211L196 638H118L133 723Z"  />
<glyph unicode="k" horiz-adv-x="466" d="M131 723H209L136 307H160L363 509H468L219 274L414 0H311L149 244H125L82 0H4L131 723Z"  />
<glyph unicode="l" horiz-adv-x="218" d="M133 723H211L84 0H6L133 723Z"  />
<glyph unicode="m" horiz-adv-x="835" d="M91 509H166L154 437Q186 484 227 501T320 518Q433 518 456 438Q490 481 530 499T630 518Q698 518 736 492T774 407Q774 393 772 376T766 337L707 0H629L690 346Q694 365 694 384Q694 399 691 412T678 434T651 449T608 455Q575 455 549 450T504 430T472 389T452 321L395 0H317L375 332Q381 363 381 387Q381 420 364 437T295 455Q160 455 135 312L80 0H2L91 509Z"  />
<glyph unicode="n" horiz-adv-x="558" d="M91 509H167L154 436Q174 462 193 478T233 503T278 515T333 518Q413 518 453 491T493 400Q493 380 490 353T480 287L430 0H352L408 319Q414 355 414 377Q414 396 410 411T395 435T363 450T309 455Q234 455 191 420T133 302L80 0H2L91 509Z"  />
<glyph unicode="o" horiz-adv-x="558" d="M310 518Q369 518 407 511T466 488T496 449T504 396Q504 373 500 340T487 260Q472 176 456 123T411 41T333 2T206 -9Q152 -9 116 -3T58 18T27 57T17 119Q17 145 21 180T34 263Q49 346 67 396T115 474T191 509T310 518ZM299 456Q249 456 218 451T167 425T135 366T110 257Q104 221 101 193T97 143Q97 117 102 100T120 74T156 60T215 56Q269 56 301 61T354 86T385 145T409 253Q417 295 421 326T425 379Q425 400 421 414T404 438T366 451T299 456Z"  />
<glyph unicode="p" horiz-adv-x="552" d="M91 509H165L151 427Q179 478 217 498T319 518Q409 518 451 486T493 375Q493 349 490 316T478 239Q466 167 448 119T400 43T328 3T224 -9Q194 -9 173 -5T136 9T111 34T92 72L45 -196H-33L91 509ZM299 456Q259 456 231 446T182 411T148 348T125 251Q120 220 117 197T114 157Q114 133 118 114T136 83T173 63T235 56Q274 56 301 63T347 89T378 141T399 229Q408 282 412 316T416 370Q416 415 391 435T299 456Z"  />
<glyph unicode="q" horiz-adv-x="552" d="M437 509H511L387 -196H309L356 72Q341 49 325 34T290 9T248 -5T193 -9Q102 -9 60 22T18 130Q18 174 30 242Q45 324 64 377T111 461T178 505T275 518Q310 518 335 513T377 498T405 469T423 426L437 509ZM280 456Q235 456 207 447T160 414T131 351T109 251Q102 212 99 186T95 141Q95 93 120 75T212 56Q258 56 288 69T338 109T368 171T388 255Q394 290 397 313T400 353Q400 405 371 430T280 456Z"  />
<glyph unicode="r" horiz-adv-x="445" d="M91 509H165L155 451Q173 470 189 483T222 503T259 514T303 517Q369 517 397 494T426 419Q426 403 424 386T414 333H340Q345 350 347 367T350 399Q350 427 336 440T281 454Q224 454 187 425T138 333L80 0H2L91 509Z"  />
<glyph unicode="s" horiz-adv-x="548" d="M84 154Q81 134 81 120Q81 100 87 88T108 70T147 61T210 58Q265 58 297 62T347 75T372 101T384 140Q387 154 388 165T389 185Q389 195 387 201T375 212T347 219T298 224L177 232Q111 237 79 256T47 327Q47 333 48 349T53 380Q60 419 72 445T111 487T180 511T292 518Q355 518 394 513T456 497T486 469T494 427Q494 419 493 410T490 389H418Q418 392 418 395T419 402Q419 416 415 427T398 445T357 455T285 459Q237 459 208 455T163 442T139 417T127 378Q125 369 124 361T123 346Q123 324 135 315T189 303L336 294Q372 292 397 287T437 272T460 246T467 205Q467 180 461 144Q453 99 438 70T393 24T316 1T198 -6Q138 -6 100 1T41 21T12 53T4 95Q4 119 11 154H84Z"  />
<glyph unicode="t" horiz-adv-x="430" d="M34 444L45 509H109L131 630H209L187 509H406L395 444H176L120 125Q119 119 119 113T118 102Q118 76 134 67T187 57Q213 57 231 62T261 78T280 108T291 154L295 183H365L355 127Q348 89 334 64T298 22T246 0T177 -7Q103 -7 71 16T38 87Q38 102 41 123L98 444H34Z"  />
<glyph unicode="u" horiz-adv-x="558" d="M166 509L105 161Q101 141 101 125Q101 56 203 56Q248 56 280 67T333 98T367 149T387 218L439 509H517L428 0H354L366 73Q332 25 288 8T181 -9Q22 -9 22 111Q22 121 23 131T26 154L88 509H166Z"  />
<glyph unicode="v" horiz-adv-x="494" d="M123 509L191 67L420 509H504L234 0H130L38 509H123Z"  />
<glyph unicode="w" horiz-adv-x="782" d="M128 509L168 67L360 509H470L508 67L705 509H787L555 0H435L402 432L214 0H100L43 509H128Z"  />
<glyph unicode="x" horiz-adv-x="479" d="M32 0H-64L170 266L48 509H142L230 330L384 509H478L269 270L409 0H316L209 206L32 0Z"  />
<glyph unicode="y" horiz-adv-x="494" d="M122 509L212 74L422 509H504L249 -10Q223 -63 203 -99T160 -156T111 -187T44 -196Q37 -196 27 -196T11 -194L23 -128Q33 -129 37 -129T45 -129Q85 -129 108 -108T155 -31L169 2H146L38 509H122Z"  />
<glyph unicode="z" horiz-adv-x="482" d="M-22 79L363 444H57L68 509H468L456 437L70 67H395L384 0H-35L-22 79Z"  />
<glyph unicode="{" horiz-adv-x="333" d="M52 352Q79 352 94 357T118 373T130 395T137 422Q142 454 145 497T155 576Q169 658 211 691T317 724H343L332 659H316Q271 659 251 637T223 569Q220 552 218 533T215 494T211 456T207 425Q200 390 179 361T128 322Q171 306 171 248Q171 234 168 219Q165 202 161 183T151 144T142 105T135 71Q132 54 132 42Q132 22 138 10T154 -9T176 -18T202 -20H212L201 -85H177Q119 -85 89 -60T58 15Q58 30 61 48Q69 91 82 138T101 219Q104 231 104 245Q104 263 92 276T41 290L52 352Z"  />
<glyph unicode="|" horiz-adv-x="333" d="M200 740V-90H132V740H200Z"  />
<glyph unicode="}" horiz-adv-x="333" d="M265 287Q238 287 223 282T199 266T187 244T180 217Q175 185 172 142T162 63Q148 -19 106 -52T0 -85H-26L-15 -20H1Q46 -20 66 2T94 70Q97 86 99 106T102 145T106 183T110 214Q117 249 138 278T189 317Q146 333 146 391Q146 405 149 420Q152 436 156 455T166 495T175 534T182 568Q185 584 185 597Q185 617 179 629T163 648T141 657T115 659H105L116 724H140Q198 724 228 699T259 624Q259 609 256 591Q248 548 235 501T216 420Q213 408 213 394Q213 376 225 363T276 349L265 287Z"  />
<glyph unicode="~" horiz-adv-x="667" d="M449 269Q487 269 505 295T531 367H591Q583 286 544 245T451 204Q414 204 377 219T305 253T235 286T169 302Q131 302 113 276T87 204H27Q35 285 74 326T167 367Q206 367 243 352T316 318T385 285T449 269Z"  />
<glyph unicode="&#xA0;" horiz-adv-x="333" />
<glyph unicode="&#xA1;" horiz-adv-x="333" d="M124 327H195L108 -196H27L124 327ZM153 509H231L215 416H137L153 509Z"  />
<glyph unicode="&#xA2;" horiz-adv-x="667" d="M470 340Q473 355 475 367T477 390Q477 435 432 448L252 56H275Q325 56 355 60T402 79T429 118T445 186H521Q512 122 493 84T444 25T371 -2T274 -9Q260 -9 248 -9T223 -7L163 -139H96L161 2Q114 18 94 52T73 131Q73 141 74 155T78 183L99 301Q110 365 128 407T176 473T249 508T353 518Q365 518 376 518T398 517L454 640H521L461 509Q509 499 531 473T553 404Q553 394 552 382T544 340H470ZM166 247Q161 214 158 188T154 142Q154 111 162 94T190 67L369 456H351Q304 456 274 448T223 418T190 354T166 247Z"  />
<glyph unicode="&#xA3;" horiz-adv-x="667" d="M-5 70Q30 71 51 79T86 105T107 150T121 220L131 286H33L45 355H140L167 531Q177 592 195 631T246 692T327 723T443 731Q552 731 599 702T646 606Q646 600 646 594T644 578T640 552T633 512H555Q559 534 561 547T564 569T565 581T566 589Q566 630 532 645T410 661Q369 661 341 656T294 637T264 596T247 526L222 355H436L424 286H213L200 203Q191 146 174 115T129 72H569L557 0H-17L-5 70Z"  />
<glyph unicode="&#xA4;" horiz-adv-x="667" d="M330 535Q370 535 402 525T456 495L532 571L577 524L497 455Q514 436 525 406T537 337Q537 291 525 260T497 212L572 139L527 94L455 171Q430 148 396 138T328 128Q293 128 259 138T204 167L135 94L91 139L163 207Q146 224 133 257T119 328Q119 373 133 404T165 455L89 523L135 571L206 495Q229 514 261 524T330 535ZM328 473Q296 473 271 461T227 429T200 384T190 331Q190 291 204 265T238 222T283 198T327 191Q349 191 373 198T419 221T453 266T467 336Q467 360 458 384T432 428T388 460T328 473Z"  />
<glyph unicode="&#xA5;" horiz-adv-x="667" d="M267 236L284 333H88L100 400H247L71 723H170L337 403L621 723H723L431 400H578L566 333H371L354 236H549L537 169H342L313 0H226L255 169H59L71 236H267Z"  />
<glyph unicode="&#xA6;" horiz-adv-x="333" d="M200 260V-90H132V260H200ZM200 740V390H132V740H200Z"  />
<glyph unicode="&#xA7;" horiz-adv-x="667" d="M167 138Q161 120 161 101Q161 74 185 66T275 57Q315 57 340 59T381 68T403 86T413 117Q414 122 414 126T415 136Q415 161 396 175T330 205L200 248Q147 266 118 288T89 351Q89 407 122 441T215 494Q167 518 167 568Q167 582 170 600Q177 641 191 667T230 707T289 727T372 733H407Q487 733 520 711T553 649Q553 642 552 632T546 598H474Q476 610 477 616T478 627Q478 655 454 663T369 671Q308 671 282 660T250 615Q249 610 249 606T248 598Q248 587 251 579T265 564T293 549T343 532L452 497Q523 474 550 448T577 381Q577 330 544 292T457 241Q476 228 485 213T495 174Q495 152 491 129Q484 88 471 62T431 20T361 -2T251 -9Q201 -9 169 -4T118 14T92 43T85 85Q85 93 86 104T92 138H167ZM272 470Q260 470 243 464T210 445T183 417T172 379Q172 361 188 347T250 316L366 277Q389 269 398 267T415 265Q425 265 439 272T465 292T486 322T495 358Q495 382 476 396T415 424L315 458Q279 470 272 470Z"  />
<glyph unicode="&#xA8;" horiz-adv-x="333" d="M167 585H85L102 686H184L167 585ZM258 686H340L323 585H241L258 686Z"  />
<glyph unicode="&#xA9;" horiz-adv-x="840" d="M53 362Q53 443 80 511T155 627T271 703T421 730Q502 730 569 703T685 628T760 511T787 360Q787 279 760 211T685 95T569 19T419 -8Q338 -8 271 19T155 94T80 211T53 362ZM115 362Q115 293 137 236T199 137T295 73T419 50Q489 50 545 72T642 136T703 234T725 360Q725 429 703 486T641 585T544 649T421 672Q352 672 296 650T199 586T137 488T115 362ZM522 431V442Q522 485 508 500T451 516H396Q366 516 348 512T321 495T309 462T306 408V309Q306 279 309 260T321 228T348 211T396 206H451Q476 206 491 210T513 225T522 250T524 288V301H592V279Q592 210 566 178T478 146H369Q298 146 268 176T237 281V430Q237 471 244 498T267 543T308 567T369 575H478Q514 575 536 565T570 538T586 500T590 457V431H522Z"  />
<glyph unicode="&#xAA;" horiz-adv-x="400" d="M309 403Q284 379 257 372T184 364Q116 364 87 384T57 442Q57 459 61 478Q67 514 79 536T110 571T156 588T219 593Q271 593 296 586T332 561Q339 598 341 617T344 646Q344 667 324 675T249 683Q228 683 214 682T190 675T174 660T163 633H102Q108 663 118 682T146 712T191 727T258 731Q340 731 373 713T406 652Q406 646 406 639T404 626L359 367H302L309 403ZM210 544Q188 544 173 541T148 531T132 512T123 482Q120 462 120 450Q120 429 138 422T204 415Q235 415 255 417T289 427T309 447T320 482Q323 495 323 505Q323 514 319 521T302 533T267 541T210 544Z"  />
<glyph unicode="&#xAB;" horiz-adv-x="500" d="M143 104L49 257L191 410H275L130 254L221 104H143ZM307 104L213 257L355 410H439L294 254L385 104H307Z"  />
<glyph unicode="&#xAC;" horiz-adv-x="667" d="M527 398V86H463V336H46V398H527Z"  />
<glyph unicode="&#xAD;" horiz-adv-x="333" d="M17 299H292L280 232H5L17 299Z"  />
<glyph unicode="&#xAE;" horiz-adv-x="480" d="M258 730Q302 730 338 716T401 675T441 612T455 531Q455 488 441 452T400 389T338 347T258 332Q214 332 178 346T115 387T75 450T61 531Q61 574 75 610T116 673T178 715T258 730ZM258 690Q186 690 145 647T104 531Q104 459 145 416T258 372Q330 372 371 415T412 531Q412 603 371 646T258 690ZM173 636H285Q354 636 354 575Q354 551 344 540T317 523Q337 516 345 504T353 476V430H309V468Q309 488 302 496T274 505H216V430H173V636ZM270 540Q294 540 302 548T310 574Q310 589 301 595T266 601H216V540H270Z"  />
<glyph unicode="&#xAF;" horiz-adv-x="333" d="M60 664H373L362 606H49L60 664Z"  />
<glyph unicode="&#xB0;" horiz-adv-x="400" d="M236 674Q194 674 173 649T151 587Q151 551 173 526T236 500Q278 500 299 525T321 587Q321 623 299 648T236 674ZM236 731Q269 731 295 720T341 690T371 644T382 587Q382 557 372 531T342 485T296 454T236 443Q203 443 177 454T131 484T101 530T90 587Q90 617 100 643T130 688T176 719T236 731Z"  />
<glyph unicode="&#xB1;" horiz-adv-x="667" d="M277 348V540H341V348H568V286H341V123H277V286H51V348H277ZM568 62V0H51V62H568Z"  />
<glyph unicode="&#xB2;" horiz-adv-x="500" d="M67 349Q72 376 81 395T105 427T144 451T201 470L309 499Q337 506 355 513T383 528T399 548T407 578Q412 605 413 615T414 631Q414 657 395 667T322 678H288Q256 678 236 675T204 663T187 641T177 605L171 571H107L111 592Q118 635 131 663T166 707T224 729T312 735Q359 735 391 730T442 713T470 684T479 642Q479 635 478 623T472 579Q467 548 458 528T434 493T398 470T349 453L219 418Q198 412 183 407T158 394T141 371T130 331L124 300H421L411 243H48L67 349Z"  />
<glyph unicode="&#xB3;" horiz-adv-x="500" d="M141 404Q137 384 135 373T132 354T131 344T131 337Q131 324 136 316T155 303T191 297T249 295Q285 295 307 298T343 309T363 332T374 370Q376 384 377 395T379 415Q379 447 361 455T299 463H231L241 518H309Q333 518 349 520T375 529T392 553T404 596Q408 615 408 632Q408 647 403 656T383 671T344 677T284 679Q257 679 240 676T212 665T195 641T185 602L180 575H115L120 604Q126 641 137 666T169 706T222 728T305 735Q353 735 386 731T439 715T468 687T477 644Q477 622 471 592Q462 542 444 520T392 487Q421 479 432 464T444 418Q444 407 443 395T439 367Q431 323 417 298T377 259T315 242T223 238Q138 238 102 258T66 331Q66 341 67 352T71 377L76 404H141Z"  />
<glyph unicode="&#xB4;" horiz-adv-x="333" d="M356 714L206 573H136L244 714H356Z"  />
<glyph unicode="&#xB5;" horiz-adv-x="667" d="M222 509L161 161Q157 141 157 125Q157 90 184 73T259 56Q313 56 348 70T405 114Q413 124 419 135T430 162T439 196T448 243L495 509H573L484 0H410L422 73L407 55Q381 24 341 8T237 -9Q205 -9 181 -2T136 19L98 -196H20L144 509H222Z"  />
<glyph unicode="&#xB6;" horiz-adv-x="700" d="M372 -196L521 648H425L276 -196H198L284 290Q240 290 204 296T141 318T101 364T86 438Q86 470 93 505Q113 618 175 670T355 723H694L681 647H599L450 -196H372Z"  />
<glyph unicode="&#xB7;" horiz-adv-x="333" d="M153 260Q127 260 111 277T94 318Q94 349 115 368T164 387Q190 387 206 370T223 329Q223 298 202 279T153 260Z"  />
<glyph unicode="&#xB8;" horiz-adv-x="333" d="M140 0L78 -63Q89 -62 94 -62T105 -62Q139 -62 160 -78T181 -124Q181 -177 144 -201T47 -225Q1 -225 -38 -215L-30 -168Q12 -177 42 -177Q68 -177 87 -168T106 -136Q106 -121 93 -112T57 -103Q47 -103 39 -103T17 -106V-73L88 0H140Z"  />
<glyph unicode="&#xB9;" horiz-adv-x="500" d="M297 729H383L297 243H230L305 666L157 538L125 580L297 729Z"  />
<glyph unicode="&#xBA;" horiz-adv-x="400" d="M273 731Q349 731 377 708T406 643Q406 627 404 605T395 551Q384 492 373 455T341 397T283 369T187 361Q119 361 89 381T59 458Q59 472 61 496T70 553Q80 610 93 645T128 699T184 724T273 731ZM254 681Q224 681 204 678T171 661T148 621T131 549Q127 525 125 507T123 474Q123 454 126 442T137 423T161 414T203 412Q239 412 260 416T295 433T316 473T332 546Q337 575 340 595T343 631Q343 644 340 653T328 669T302 678T254 681Z"  />
<glyph unicode="&#xBB;" horiz-adv-x="500" d="M319 410L413 257L271 104H187L332 260L241 410H319ZM155 410L249 257L107 104H23L168 260L77 410H155Z"  />
<glyph unicode="&#xBC;" horiz-adv-x="1000" d="M259 729H345L259 243H192L267 666L119 538L87 580L259 729ZM661 723L296 0H235L601 723H661ZM503 112L515 181L807 486H893L837 167H908L898 112H827L808 0H744L763 112H503ZM773 167L818 423L576 167H773Z"  />
<glyph unicode="&#xBD;" horiz-adv-x="1000" d="M247 729H333L247 243H180L255 666L107 538L75 580L247 729ZM521 106Q526 133 535 152T559 184T598 208T655 227L763 256Q791 263 809 270T837 285T853 305T861 335Q866 362 867 372T868 388Q868 414 849 424T776 435H742Q710 435 690 432T658 420T641 398T631 362L625 328H561L565 349Q572 392 585 420T620 464T678 486T766 492Q813 492 845 487T896 470T924 441T933 399Q933 392 932 380T926 336Q921 305 912 285T888 250T852 227T803 210L673 175Q652 169 637 164T612 151T595 128T584 88L578 57H875L865 0H502L521 106ZM651 723L286 0H225L591 723H651Z"  />
<glyph unicode="&#xBE;" horiz-adv-x="1000" d="M523 112L535 181L827 486H913L857 167H928L918 112H847L828 0H764L783 112H523ZM793 167L838 423L596 167H793ZM141 404Q137 384 135 373T132 354T131 344T131 337Q131 324 136 316T155 303T191 297T249 295Q285 295 307 298T343 309T363 332T374 370Q376 384 377 395T379 415Q379 447 361 455T299 463H231L241 518H309Q333 518 349 520T375 529T392 553T404 596Q408 615 408 632Q408 647 403 656T383 671T344 677T284 679Q257 679 240 676T212 665T195 641T185 602L180 575H115L120 604Q126 641 137 666T169 706T222 728T305 735Q353 735 386 731T439 715T468 687T477 644Q477 622 471 592Q462 542 444 520T392 487Q421 479 432 464T444 418Q444 407 443 395T439 367Q431 323 417 298T377 259T315 242T223 238Q138 238 102 258T66 331Q66 341 67 352T71 377L76 404H141ZM756 723L391 0H330L696 723H756Z"  />
<glyph unicode="&#xBF;" horiz-adv-x="556" d="M298 509H377L361 416H282L298 509ZM449 31L436 -34Q427 -79 411 -110T368 -162T301 -191T202 -201H150Q61 -201 20 -172T-22 -78Q-22 -60 -20 -38T-12 10Q-5 52 4 80T26 129T58 164T106 191L178 223Q205 235 221 243T245 261T258 286T265 327H344Q341 291 336 267T319 225T291 196T246 172L179 143Q144 128 125 118T96 96T81 65T70 15Q62 -26 61 -41T59 -65Q59 -102 83 -117T170 -133H210Q250 -133 276 -128T320 -109T346 -74T362 -19L371 31H449Z"  />
<glyph unicode="&#xC0;" horiz-adv-x="721" d="M497 723L636 0H546L511 183H146L46 0H-43L353 723H497ZM498 252L425 653H403L184 252H498ZM473 779H409L297 920H403L473 779Z"  />
<glyph unicode="&#xC1;" horiz-adv-x="721" d="M497 723L636 0H546L511 183H146L46 0H-43L353 723H497ZM498 252L425 653H403L184 252H498ZM612 920L462 779H392L500 920H612Z"  />
<glyph unicode="&#xC2;" horiz-adv-x="721" d="M497 723L636 0H546L511 183H146L46 0H-43L353 723H497ZM498 252L425 653H403L184 252H498ZM502 920L577 779H500L450 873L368 779H285L410 920H502Z"  />
<glyph unicode="&#xC3;" horiz-adv-x="721" d="M497 723L636 0H546L511 183H146L46 0H-43L353 723H497ZM498 252L425 653H403L184 252H498ZM622 904Q602 843 577 819T512 795Q494 795 476 801T441 814T406 827T369 833Q352 833 341 823T318 788H271Q288 845 314 870T384 896Q405 896 423 890T458 878T490 865T519 859Q540 859 551 869T571 904H622Z"  />
<glyph unicode="&#xC4;" horiz-adv-x="721" d="M497 723L636 0H546L511 183H146L46 0H-43L353 723H497ZM498 252L425 653H403L184 252H498ZM397 791H315L333 892H415L397 791ZM489 892H571L553 791H471L489 892Z"  />
<glyph unicode="&#xC5;" horiz-adv-x="721" d="M497 723L636 0H546L511 183H146L46 0H-43L353 723H497ZM498 252L425 653H403L184 252H498ZM439 756Q400 756 373 779T346 845Q346 896 377 927T459 959Q498 959 525 936T552 870Q552 819 521 788T439 756ZM388 851Q388 825 403 811T444 796Q471 796 490 814T510 864Q510 890 495 904T454 919Q427 919 408 901T388 851Z"  />
<glyph unicode="&#xC6;" horiz-adv-x="966" d="M960 723L947 649H606L564 410H897L884 338H551L505 75H852L839 0H410L444 194H163L26 0H-70L450 723H960ZM214 266H456L526 659H495L214 266Z"  />
<glyph unicode="&#xC7;" horiz-adv-x="720" d="M593 491Q598 521 601 542T604 580Q604 599 600 613T581 638T542 653T474 658H384Q327 658 292 651T234 620T198 555T173 442L136 229Q130 196 130 170Q130 140 137 121T162 89T209 73T282 68H384Q430 68 458 75T503 99T530 144T548 214L555 250H636L628 208Q616 145 599 104T552 38T473 3T348 -7H332L277 -63Q288 -62 293 -62T304 -62Q338 -62 359 -78T380 -124Q380 -177 343 -201T246 -225Q200 -225 161 -215L169 -168Q211 -177 241 -177Q267 -177 286 -168T305 -136Q305 -121 292 -112T256 -103Q246 -103 238 -103T216 -106V-73L280 -7Q221 -6 178 1T105 25T62 72T48 149Q48 198 63 285L97 476Q110 548 130 596T183 674T260 717T366 730H497Q602 730 644 699T687 613Q687 600 687 588T685 562T680 531T673 491H593Z"  />
<glyph unicode="&#xC8;" horiz-adv-x="674" d="M153 723H671L658 649H223L181 410H605L592 338H168L122 76H560L547 0H26L153 723ZM466 779H402L290 920H396L466 779Z"  />
<glyph unicode="&#xC9;" horiz-adv-x="674" d="M153 723H671L658 649H223L181 410H605L592 338H168L122 76H560L547 0H26L153 723ZM587 920L437 779H367L475 920H587Z"  />
<glyph unicode="&#xCA;" horiz-adv-x="674" d="M153 723H671L658 649H223L181 410H605L592 338H168L122 76H560L547 0H26L153 723ZM486 920L561 779H484L434 873L352 779H269L394 920H486Z"  />
<glyph unicode="&#xCB;" horiz-adv-x="674" d="M153 723H671L658 649H223L181 410H605L592 338H168L122 76H560L547 0H26L153 723ZM381 791H299L317 892H399L381 791ZM473 892H555L537 791H455L473 892Z"  />
<glyph unicode="&#xCC;" horiz-adv-x="269" d="M156 723H239L112 0H29L156 723ZM264 779H200L88 920H194L264 779Z"  />
<glyph unicode="&#xCD;" horiz-adv-x="269" d="M156 723H239L112 0H29L156 723ZM371 920L221 779H151L259 920H371Z"  />
<glyph unicode="&#xCE;" horiz-adv-x="269" d="M156 723H239L112 0H29L156 723ZM277 920L352 779H275L225 873L143 779H60L185 920H277Z"  />
<glyph unicode="&#xCF;" horiz-adv-x="269" d="M156 723H239L112 0H29L156 723ZM172 791H90L108 892H190L172 791ZM264 892H346L328 791H246L264 892Z"  />
<glyph unicode="&#xD0;" horiz-adv-x="786" d="M85 339H-3L9 406H97L153 723H521Q583 723 624 710T689 673T722 618T732 548Q732 497 717 412L700 315Q684 226 661 166T603 69T515 16T388 0H26L85 339ZM180 406H400L388 339H168L122 76H395Q452 76 488 86T550 125T591 208T623 348Q634 410 640 455T646 534Q646 564 640 586T615 622T561 644T466 651H223L180 406Z"  />
<glyph unicode="&#xD1;" horiz-adv-x="784" d="M149 723H283L565 78L679 723H761L634 0H505L218 649L104 0H22L149 723ZM656 904Q636 843 611 819T546 795Q528 795 510 801T475 814T440 827T403 833Q386 833 375 823T352 788H305Q322 845 348 870T418 896Q439 896 457 890T492 878T524 865T553 859Q574 859 585 869T605 904H656Z"  />
<glyph unicode="&#xD2;" horiz-adv-x="779" d="M682 251Q668 173 646 123T587 44T497 4T370 -7H265Q193 -7 150 5T84 40T53 92T46 156Q46 173 48 193T54 236L105 527Q123 629 186 679T365 730H530Q587 730 625 719T687 687T721 637T731 570Q731 557 730 544T727 514T722 476T713 427L682 251ZM630 429Q639 480 643 513T647 568Q647 594 640 611T617 638T572 653T502 658H373Q327 658 295 651T241 626T206 577T183 495L144 277Q138 241 135 214T131 166Q131 140 136 122T158 91T203 74T282 68H393Q449 68 485 76T543 107T578 169T602 268L630 429ZM513 779H449L337 920H443L513 779Z"  />
<glyph unicode="&#xD3;" horiz-adv-x="779" d="M682 251Q668 173 646 123T587 44T497 4T370 -7H265Q193 -7 150 5T84 40T53 92T46 156Q46 173 48 193T54 236L105 527Q123 629 186 679T365 730H530Q587 730 625 719T687 687T721 637T731 570Q731 557 730 544T727 514T722 476T713 427L682 251ZM630 429Q639 480 643 513T647 568Q647 594 640 611T617 638T572 653T502 658H373Q327 658 295 651T241 626T206 577T183 495L144 277Q138 241 135 214T131 166Q131 140 136 122T158 91T203 74T282 68H393Q449 68 485 76T543 107T578 169T602 268L630 429ZM634 920L484 779H414L522 920H634Z"  />
<glyph unicode="&#xD4;" horiz-adv-x="779" d="M682 251Q668 173 646 123T587 44T497 4T370 -7H265Q193 -7 150 5T84 40T53 92T46 156Q46 173 48 193T54 236L105 527Q123 629 186 679T365 730H530Q587 730 625 719T687 687T721 637T731 570Q731 557 730 544T727 514T722 476T713 427L682 251ZM630 429Q639 480 643 513T647 568Q647 594 640 611T617 638T572 653T502 658H373Q327 658 295 651T241 626T206 577T183 495L144 277Q138 241 135 214T131 166Q131 140 136 122T158 91T203 74T282 68H393Q449 68 485 76T543 107T578 169T602 268L630 429ZM533 920L608 779H531L481 873L399 779H316L441 920H533Z"  />
<glyph unicode="&#xD5;" horiz-adv-x="779" d="M682 251Q668 173 646 123T587 44T497 4T370 -7H265Q193 -7 150 5T84 40T53 92T46 156Q46 173 48 193T54 236L105 527Q123 629 186 679T365 730H530Q587 730 625 719T687 687T721 637T731 570Q731 557 730 544T727 514T722 476T713 427L682 251ZM630 429Q639 480 643 513T647 568Q647 594 640 611T617 638T572 653T502 658H373Q327 658 295 651T241 626T206 577T183 495L144 277Q138 241 135 214T131 166Q131 140 136 122T158 91T203 74T282 68H393Q449 68 485 76T543 107T578 169T602 268L630 429ZM653 904Q633 843 608 819T543 795Q525 795 507 801T472 814T437 827T400 833Q383 833 372 823T349 788H302Q319 845 345 870T415 896Q436 896 454 890T489 878T521 865T550 859Q571 859 582 869T602 904H653Z"  />
<glyph unicode="&#xD6;" horiz-adv-x="779" d="M682 251Q668 173 646 123T587 44T497 4T370 -7H265Q193 -7 150 5T84 40T53 92T46 156Q46 173 48 193T54 236L105 527Q123 629 186 679T365 730H530Q587 730 625 719T687 687T721 637T731 570Q731 557 730 544T727 514T722 476T713 427L682 251ZM630 429Q639 480 643 513T647 568Q647 594 640 611T617 638T572 653T502 658H373Q327 658 295 651T241 626T206 577T183 495L144 277Q138 241 135 214T131 166Q131 140 136 122T158 91T203 74T282 68H393Q449 68 485 76T543 107T578 169T602 268L630 429ZM428 791H346L364 892H446L428 791ZM520 892H602L584 791H502L520 892Z"  />
<glyph unicode="&#xD7;" horiz-adv-x="667" d="M309 311L494 497L538 452L354 267L532 87L488 44L309 225L130 44L86 87L264 267L80 452L124 497L309 311Z"  />
<glyph unicode="&#xD8;" horiz-adv-x="779" d="M682 251Q668 173 646 123T587 44T497 4T370 -7H265Q184 -7 140 8T74 51L8 -7L-26 37L50 104Q48 116 47 129T46 156Q46 173 48 193T54 236L105 527Q123 629 186 679T365 730H530Q595 730 635 716T699 674L757 725L793 682L725 622Q731 598 731 570Q731 557 730 544T727 514T722 476T713 427L682 251ZM630 429Q638 472 641 502T647 554L141 110Q152 87 184 78T282 68H393Q449 68 485 76T543 107T578 169T602 268L630 429ZM144 277Q139 245 136 220T131 175L636 619Q623 641 592 649T502 658H373Q327 658 295 651T241 626T206 577T183 495L144 277Z"  />
<glyph unicode="&#xD9;" horiz-adv-x="755" d="M226 723L136 214Q134 200 133 188T131 164Q131 138 137 120T163 90T216 73T306 68H346Q404 68 442 74T505 96T543 140T565 214L655 723H738L647 207Q637 151 619 111T567 45T481 6T353 -7H302Q234 -7 186 0T106 25T61 73T47 149Q47 163 48 181T54 220L143 723H226ZM498 779H434L322 920H428L498 779Z"  />
<glyph unicode="&#xDA;" horiz-adv-x="755" d="M226 723L136 214Q134 200 133 188T131 164Q131 138 137 120T163 90T216 73T306 68H346Q404 68 442 74T505 96T543 140T565 214L655 723H738L647 207Q637 151 619 111T567 45T481 6T353 -7H302Q234 -7 186 0T106 25T61 73T47 149Q47 163 48 181T54 220L143 723H226ZM619 920L469 779H399L507 920H619Z"  />
<glyph unicode="&#xDB;" horiz-adv-x="755" d="M226 723L136 214Q134 200 133 188T131 164Q131 138 137 120T163 90T216 73T306 68H346Q404 68 442 74T505 96T543 140T565 214L655 723H738L647 207Q637 151 619 111T567 45T481 6T353 -7H302Q234 -7 186 0T106 25T61 73T47 149Q47 163 48 181T54 220L143 723H226ZM518 920L593 779H516L466 873L384 779H301L426 920H518Z"  />
<glyph unicode="&#xDC;" horiz-adv-x="755" d="M226 723L136 214Q134 200 133 188T131 164Q131 138 137 120T163 90T216 73T306 68H346Q404 68 442 74T505 96T543 140T565 214L655 723H738L647 207Q637 151 619 111T567 45T481 6T353 -7H302Q234 -7 186 0T106 25T61 73T47 149Q47 163 48 181T54 220L143 723H226ZM413 791H331L349 892H431L413 791ZM505 892H587L569 791H487L505 892Z"  />
<glyph unicode="&#xDD;" horiz-adv-x="654" d="M220 0L273 303L55 723H157L330 383L628 723H727L360 303L307 0H220ZM568 920L418 779H348L456 920H568Z"  />
<glyph unicode="&#xDE;" horiz-adv-x="670" d="M153 723H236L220 633H442Q542 633 587 602T632 499Q632 460 622 407Q611 347 595 306T551 239T485 202T389 190H142L109 0H26L153 723ZM393 264Q430 264 454 269T495 288T520 326T536 389Q548 453 548 486Q548 529 526 544T449 559H207L155 264H393Z"  />
<glyph unicode="&#xDF;" horiz-adv-x="558" d="M99 544Q108 595 124 630T169 688T238 721T336 731Q426 731 468 699T510 602Q510 590 509 578T505 551Q493 485 465 450T383 403Q431 397 458 371T485 293Q485 258 475 205Q466 153 452 113T412 46T348 5T253 -9Q236 -9 214 -8T177 -2L189 65Q200 62 216 60T250 58Q289 58 314 67T355 96T381 144T398 212Q407 261 407 287Q407 309 401 324T380 348T339 361T274 365H249L260 426H277Q315 426 341 432T384 453T411 495T429 560Q433 579 433 597Q433 638 408 654T325 671Q255 671 222 642T175 540L80 0H4L99 544Z"  />
<glyph unicode="&#xE0;" horiz-adv-x="559" d="M372 70Q360 47 342 32T301 9T248 -2T184 -5Q101 -5 55 17T8 102Q8 113 9 126T13 154Q21 204 37 235T80 285T144 309T233 316Q275 316 303 313T351 303T381 285T400 257L402 272Q411 325 415 354T420 399Q420 415 414 426T393 445T349 455T278 458Q217 458 188 445T150 385H73Q79 427 95 453T137 494T201 513T290 518Q340 518 379 514T445 498T486 465T500 410Q500 394 497 375L431 0H360L372 70ZM222 254Q189 254 166 250T128 236T105 207T91 161Q86 133 86 119Q86 84 114 73T211 61Q249 61 279 64T330 78T365 108T385 160Q388 178 388 191Q388 208 381 220T354 239T303 250T222 254ZM366 573H302L190 714H296L366 573Z"  />
<glyph unicode="&#xE1;" horiz-adv-x="559" d="M372 70Q360 47 342 32T301 9T248 -2T184 -5Q101 -5 55 17T8 102Q8 113 9 126T13 154Q21 204 37 235T80 285T144 309T233 316Q275 316 303 313T351 303T381 285T400 257L402 272Q411 325 415 354T420 399Q420 415 414 426T393 445T349 455T278 458Q217 458 188 445T150 385H73Q79 427 95 453T137 494T201 513T290 518Q340 518 379 514T445 498T486 465T500 410Q500 394 497 375L431 0H360L372 70ZM222 254Q189 254 166 250T128 236T105 207T91 161Q86 133 86 119Q86 84 114 73T211 61Q249 61 279 64T330 78T365 108T385 160Q388 178 388 191Q388 208 381 220T354 239T303 250T222 254ZM487 714L337 573H267L375 714H487Z"  />
<glyph unicode="&#xE2;" horiz-adv-x="559" d="M372 70Q360 47 342 32T301 9T248 -2T184 -5Q101 -5 55 17T8 102Q8 113 9 126T13 154Q21 204 37 235T80 285T144 309T233 316Q275 316 303 313T351 303T381 285T400 257L402 272Q411 325 415 354T420 399Q420 415 414 426T393 445T349 455T278 458Q217 458 188 445T150 385H73Q79 427 95 453T137 494T201 513T290 518Q340 518 379 514T445 498T486 465T500 410Q500 394 497 375L431 0H360L372 70ZM222 254Q189 254 166 250T128 236T105 207T91 161Q86 133 86 119Q86 84 114 73T211 61Q249 61 279 64T330 78T365 108T385 160Q388 178 388 191Q388 208 381 220T354 239T303 250T222 254ZM385 714L461 573H384L334 667L252 573H169L293 714H385Z"  />
<glyph unicode="&#xE3;" horiz-adv-x="559" d="M372 70Q360 47 342 32T301 9T248 -2T184 -5Q101 -5 55 17T8 102Q8 113 9 126T13 154Q21 204 37 235T80 285T144 309T233 316Q275 316 303 313T351 303T381 285T400 257L402 272Q411 325 415 354T420 399Q420 415 414 426T393 445T349 455T278 458Q217 458 188 445T150 385H73Q79 427 95 453T137 494T201 513T290 518Q340 518 379 514T445 498T486 465T500 410Q500 394 497 375L431 0H360L372 70ZM222 254Q189 254 166 250T128 236T105 207T91 161Q86 133 86 119Q86 84 114 73T211 61Q249 61 279 64T330 78T365 108T385 160Q388 178 388 191Q388 208 381 220T354 239T303 250T222 254ZM506 698Q486 637 461 613T396 589Q378 589 360 595T325 608T290 621T253 627Q236 627 225 617T202 582H155Q172 639 198 664T268 690Q289 690 307 684T342 672T374 659T403 653Q424 653 435 663T455 698H506Z"  />
<glyph unicode="&#xE4;" horiz-adv-x="559" d="M372 70Q360 47 342 32T301 9T248 -2T184 -5Q101 -5 55 17T8 102Q8 113 9 126T13 154Q21 204 37 235T80 285T144 309T233 316Q275 316 303 313T351 303T381 285T400 257L402 272Q411 325 415 354T420 399Q420 415 414 426T393 445T349 455T278 458Q217 458 188 445T150 385H73Q79 427 95 453T137 494T201 513T290 518Q340 518 379 514T445 498T486 465T500 410Q500 394 497 375L431 0H360L372 70ZM222 254Q189 254 166 250T128 236T105 207T91 161Q86 133 86 119Q86 84 114 73T211 61Q249 61 279 64T330 78T365 108T385 160Q388 178 388 191Q388 208 381 220T354 239T303 250T222 254ZM281 585H199L216 686H298L281 585ZM372 686H454L437 585H355L372 686Z"  />
<glyph unicode="&#xE5;" horiz-adv-x="559" d="M372 70Q360 47 342 32T301 9T248 -2T184 -5Q101 -5 55 17T8 102Q8 113 9 126T13 154Q21 204 37 235T80 285T144 309T233 316Q275 316 303 313T351 303T381 285T400 257L402 272Q411 325 415 354T420 399Q420 415 414 426T393 445T349 455T278 458Q217 458 188 445T150 385H73Q79 427 95 453T137 494T201 513T290 518Q340 518 379 514T445 498T486 465T500 410Q500 394 497 375L431 0H360L372 70ZM222 254Q189 254 166 250T128 236T105 207T91 161Q86 133 86 119Q86 84 114 73T211 61Q249 61 279 64T330 78T365 108T385 160Q388 178 388 191Q388 208 381 220T354 239T303 250T222 254ZM325 572Q286 572 259 595T232 661Q232 712 263 743T345 775Q384 775 411 752T438 686Q438 635 407 604T325 572ZM274 667Q274 641 289 627T330 612Q357 612 376 630T396 680Q396 706 381 720T340 735Q313 735 294 717T274 667Z"  />
<glyph unicode="&#xE6;" horiz-adv-x="894" d="M803 144Q795 100 780 71T738 25T672 1T577 -7Q528 -7 496 -3T444 13T413 41T396 84Q378 57 361 40T320 12T264 -2T185 -6Q138 -6 105 -1T50 18T18 54T8 111Q8 131 13 159Q20 202 36 231T78 280T144 307T237 316Q276 316 303 313T347 302T374 284T388 258L400 329Q405 354 407 370T409 399Q409 431 384 444T291 458Q252 458 227 455T187 444T164 422T152 385H74Q83 429 102 455T148 496T212 514T292 518Q341 518 372 514T421 501T448 478T462 442Q475 464 491 478T529 502T580 514T649 518Q701 518 737 512T796 492T829 454T840 398Q840 387 840 375T837 344T831 301T819 238H460Q453 196 451 176T448 142Q448 117 454 101T476 76T517 62T578 58Q614 58 639 61T681 73T709 99T726 144H803ZM752 302Q757 322 760 343T764 388Q764 407 758 420T737 441T697 454T632 458Q593 458 567 452T522 431T494 391T476 327L472 302H752ZM235 253Q201 253 177 250T137 237T110 210T96 166Q91 138 91 122Q91 84 115 71T200 57Q241 57 271 61T321 76T353 106T370 156Q372 169 373 178T375 196Q375 211 369 221T347 239T304 249T235 253Z"  />
<glyph unicode="&#xE7;" horiz-adv-x="542" d="M412 340Q416 363 417 372T418 390Q418 428 390 442T293 456Q240 456 209 446T158 411T129 347T108 247Q103 214 100 188T96 142Q96 115 102 98T122 72T159 60T217 56Q266 56 296 61T345 80T372 119T387 186H463L458 157Q451 116 437 86T396 35T331 3T233 -9L180 -63Q191 -62 196 -62T207 -62Q241 -62 262 -78T283 -124Q283 -177 246 -201T149 -225Q103 -225 64 -215L72 -168Q114 -177 144 -177Q170 -177 189 -168T208 -136Q208 -121 195 -112T159 -103Q149 -103 141 -103T119 -106V-73L182 -8Q93 -4 54 27T14 128Q14 139 15 151T19 178L41 301Q51 360 69 401T117 468T192 506T305 518Q359 518 395 512T454 492T485 458T495 410Q495 400 494 386T486 340H412Z"  />
<glyph unicode="&#xE8;" horiz-adv-x="554" d="M462 146Q452 92 433 61T384 15T311 -5T211 -9Q159 -9 123 -3T63 20T29 64T18 132Q18 174 30 243Q45 327 63 380T109 464T181 506T292 518Q350 518 389 512T453 489T488 448T499 384Q499 375 499 365T496 338T490 297T479 237H108Q100 199 98 178T95 142Q95 94 121 75T209 56Q260 56 291 59T342 71T370 98T387 146H462ZM413 302Q418 336 420 354T423 387Q423 406 418 419T397 441T356 454T288 458Q245 458 216 452T168 429T138 381T120 302H413ZM365 573H301L189 714H295L365 573Z"  />
<glyph unicode="&#xE9;" horiz-adv-x="554" d="M462 146Q452 92 433 61T384 15T311 -5T211 -9Q159 -9 123 -3T63 20T29 64T18 132Q18 174 30 243Q45 327 63 380T109 464T181 506T292 518Q350 518 389 512T453 489T488 448T499 384Q499 375 499 365T496 338T490 297T479 237H108Q100 199 98 178T95 142Q95 94 121 75T209 56Q260 56 291 59T342 71T370 98T387 146H462ZM413 302Q418 336 420 354T423 387Q423 406 418 419T397 441T356 454T288 458Q245 458 216 452T168 429T138 381T120 302H413ZM486 714L336 573H266L374 714H486Z"  />
<glyph unicode="&#xEA;" horiz-adv-x="554" d="M462 146Q452 92 433 61T384 15T311 -5T211 -9Q159 -9 123 -3T63 20T29 64T18 132Q18 174 30 243Q45 327 63 380T109 464T181 506T292 518Q350 518 389 512T453 489T488 448T499 384Q499 375 499 365T496 338T490 297T479 237H108Q100 199 98 178T95 142Q95 94 121 75T209 56Q260 56 291 59T342 71T370 98T387 146H462ZM413 302Q418 336 420 354T423 387Q423 406 418 419T397 441T356 454T288 458Q245 458 216 452T168 429T138 381T120 302H413ZM384 714L460 573H383L333 667L251 573H168L292 714H384Z"  />
<glyph unicode="&#xEB;" horiz-adv-x="554" d="M462 146Q452 92 433 61T384 15T311 -5T211 -9Q159 -9 123 -3T63 20T29 64T18 132Q18 174 30 243Q45 327 63 380T109 464T181 506T292 518Q350 518 389 512T453 489T488 448T499 384Q499 375 499 365T496 338T490 297T479 237H108Q100 199 98 178T95 142Q95 94 121 75T209 56Q260 56 291 59T342 71T370 98T387 146H462ZM413 302Q418 336 420 354T423 387Q423 406 418 419T397 441T356 454T288 458Q245 458 216 452T168 429T138 381T120 302H413ZM280 585H198L215 686H297L280 585ZM371 686H453L436 585H354L371 686Z"  />
<glyph unicode="&#xEC;" horiz-adv-x="218" d="M95 509H173L84 0H6L95 509ZM208 573H144L32 714H138L208 573Z"  />
<glyph unicode="&#xED;" horiz-adv-x="218" d="M95 509H173L84 0H6L95 509ZM304 714L154 573H84L192 714H304Z"  />
<glyph unicode="&#xEE;" horiz-adv-x="218" d="M95 509H173L84 0H6L95 509ZM215 714L291 573H214L164 667L82 573H-1L123 714H215Z"  />
<glyph unicode="&#xEF;" horiz-adv-x="218" d="M95 509H173L84 0H6L95 509ZM111 585H29L46 686H128L111 585ZM202 686H284L267 585H185L202 686Z"  />
<glyph unicode="&#xF0;" horiz-adv-x="558" d="M296 498Q348 498 378 488T431 445Q420 497 396 535T344 599L209 554L199 603L304 638L241 691L303 730L380 664L501 705L511 655L420 625Q439 598 454 573T479 520T494 462T500 394Q500 365 497 331T486 255Q478 207 471 174T455 118T437 78T413 46Q385 16 336 4T196 -9Q154 -9 121 -5T65 14T30 53T17 119Q17 144 21 177T33 258Q45 329 64 375T114 449T189 487T296 498ZM275 436Q231 436 204 427T158 397T129 341T109 252Q97 184 97 145Q97 117 101 100T118 73T155 60T218 56Q272 56 303 61T354 85T385 143T408 248Q413 277 417 307T422 358Q422 383 415 398T390 422T345 433T275 436Z"  />
<glyph unicode="&#xF1;" horiz-adv-x="558" d="M91 509H167L154 436Q174 462 193 478T233 503T278 515T333 518Q413 518 453 491T493 400Q493 380 490 353T480 287L430 0H352L408 319Q414 355 414 377Q414 396 410 411T395 435T363 450T309 455Q234 455 191 420T133 302L80 0H2L91 509ZM511 698Q491 637 466 613T401 589Q383 589 365 595T330 608T295 621T258 627Q241 627 230 617T207 582H160Q177 639 203 664T273 690Q294 690 312 684T347 672T379 659T408 653Q429 653 440 663T460 698H511Z"  />
<glyph unicode="&#xF2;" horiz-adv-x="558" d="M310 518Q369 518 407 511T466 488T496 449T504 396Q504 373 500 340T487 260Q472 176 456 123T411 41T333 2T206 -9Q152 -9 116 -3T58 18T27 57T17 119Q17 145 21 180T34 263Q49 346 67 396T115 474T191 509T310 518ZM299 456Q249 456 218 451T167 425T135 366T110 257Q104 221 101 193T97 143Q97 117 102 100T120 74T156 60T215 56Q269 56 301 61T354 86T385 145T409 253Q417 295 421 326T425 379Q425 400 421 414T404 438T366 451T299 456ZM367 573H303L191 714H297L367 573Z"  />
<glyph unicode="&#xF3;" horiz-adv-x="558" d="M310 518Q369 518 407 511T466 488T496 449T504 396Q504 373 500 340T487 260Q472 176 456 123T411 41T333 2T206 -9Q152 -9 116 -3T58 18T27 57T17 119Q17 145 21 180T34 263Q49 346 67 396T115 474T191 509T310 518ZM299 456Q249 456 218 451T167 425T135 366T110 257Q104 221 101 193T97 143Q97 117 102 100T120 74T156 60T215 56Q269 56 301 61T354 86T385 145T409 253Q417 295 421 326T425 379Q425 400 421 414T404 438T366 451T299 456ZM488 714L338 573H268L376 714H488Z"  />
<glyph unicode="&#xF4;" horiz-adv-x="558" d="M310 518Q369 518 407 511T466 488T496 449T504 396Q504 373 500 340T487 260Q472 176 456 123T411 41T333 2T206 -9Q152 -9 116 -3T58 18T27 57T17 119Q17 145 21 180T34 263Q49 346 67 396T115 474T191 509T310 518ZM299 456Q249 456 218 451T167 425T135 366T110 257Q104 221 101 193T97 143Q97 117 102 100T120 74T156 60T215 56Q269 56 301 61T354 86T385 145T409 253Q417 295 421 326T425 379Q425 400 421 414T404 438T366 451T299 456ZM386 714L462 573H385L335 667L253 573H170L294 714H386Z"  />
<glyph unicode="&#xF5;" horiz-adv-x="558" d="M310 518Q369 518 407 511T466 488T496 449T504 396Q504 373 500 340T487 260Q472 176 456 123T411 41T333 2T206 -9Q152 -9 116 -3T58 18T27 57T17 119Q17 145 21 180T34 263Q49 346 67 396T115 474T191 509T310 518ZM299 456Q249 456 218 451T167 425T135 366T110 257Q104 221 101 193T97 143Q97 117 102 100T120 74T156 60T215 56Q269 56 301 61T354 86T385 145T409 253Q417 295 421 326T425 379Q425 400 421 414T404 438T366 451T299 456ZM507 698Q487 637 462 613T397 589Q379 589 361 595T326 608T291 621T254 627Q237 627 226 617T203 582H156Q173 639 199 664T269 690Q290 690 308 684T343 672T375 659T404 653Q425 653 436 663T456 698H507Z"  />
<glyph unicode="&#xF6;" horiz-adv-x="558" d="M310 518Q369 518 407 511T466 488T496 449T504 396Q504 373 500 340T487 260Q472 176 456 123T411 41T333 2T206 -9Q152 -9 116 -3T58 18T27 57T17 119Q17 145 21 180T34 263Q49 346 67 396T115 474T191 509T310 518ZM299 456Q249 456 218 451T167 425T135 366T110 257Q104 221 101 193T97 143Q97 117 102 100T120 74T156 60T215 56Q269 56 301 61T354 86T385 145T409 253Q417 295 421 326T425 379Q425 400 421 414T404 438T366 451T299 456ZM282 585H200L217 686H299L282 585ZM373 686H455L438 585H356L373 686Z"  />
<glyph unicode="&#xF7;" horiz-adv-x="667" d="M309 384Q284 384 269 400T253 443Q253 470 269 486T309 502Q335 502 350 486T366 443Q366 417 350 401T309 384ZM309 34Q284 34 269 50T253 93Q253 120 269 136T309 152Q335 152 350 136T366 93Q366 67 350 51T309 34ZM573 298V236H46V298H573Z"  />
<glyph unicode="&#xF8;" horiz-adv-x="558" d="M310 518Q382 518 422 507T482 472L532 514L559 479L501 430Q504 413 504 396Q504 373 500 340T487 260Q472 176 456 123T411 41T333 2T206 -9Q137 -9 97 1T37 37L-15 -7L-44 27L20 81Q17 97 17 119Q17 145 21 180T34 263Q49 346 67 396T115 474T191 509T310 518ZM299 456Q249 456 218 451T167 425T135 366T110 257Q104 222 101 194T97 146L419 419Q411 438 385 447T299 456ZM409 253Q415 289 419 316T425 365L104 94Q113 72 138 64T215 56Q269 56 301 61T354 86T385 145T409 253Z"  />
<glyph unicode="&#xF9;" horiz-adv-x="558" d="M166 509L105 161Q101 141 101 125Q101 56 203 56Q248 56 280 67T333 98T367 149T387 218L439 509H517L428 0H354L366 73Q332 25 288 8T181 -9Q22 -9 22 111Q22 121 23 131T26 154L88 509H166ZM363 573H299L187 714H293L363 573Z"  />
<glyph unicode="&#xFA;" horiz-adv-x="558" d="M166 509L105 161Q101 141 101 125Q101 56 203 56Q248 56 280 67T333 98T367 149T387 218L439 509H517L428 0H354L366 73Q332 25 288 8T181 -9Q22 -9 22 111Q22 121 23 131T26 154L88 509H166ZM484 714L334 573H264L372 714H484Z"  />
<glyph unicode="&#xFB;" horiz-adv-x="558" d="M166 509L105 161Q101 141 101 125Q101 56 203 56Q248 56 280 67T333 98T367 149T387 218L439 509H517L428 0H354L366 73Q332 25 288 8T181 -9Q22 -9 22 111Q22 121 23 131T26 154L88 509H166ZM382 714L458 573H381L331 667L249 573H166L290 714H382Z"  />
<glyph unicode="&#xFC;" horiz-adv-x="558" d="M166 509L105 161Q101 141 101 125Q101 56 203 56Q248 56 280 67T333 98T367 149T387 218L439 509H517L428 0H354L366 73Q332 25 288 8T181 -9Q22 -9 22 111Q22 121 23 131T26 154L88 509H166ZM278 585H196L213 686H295L278 585ZM369 686H451L434 585H352L369 686Z"  />
<glyph unicode="&#xFD;" horiz-adv-x="494" d="M122 509L212 74L422 509H504L249 -10Q223 -63 203 -99T160 -156T111 -187T44 -196Q37 -196 27 -196T11 -194L23 -128Q33 -129 37 -129T45 -129Q85 -129 108 -108T155 -31L169 2H146L38 509H122ZM451 714L301 573H231L339 714H451Z"  />
<glyph unicode="&#xFE;" horiz-adv-x="554" d="M332 518Q414 518 454 486T495 375Q495 349 491 316T479 239Q467 171 450 124T403 48T332 5T226 -9Q166 -9 138 9T94 72L47 -196H-31L131 723H209L159 438Q178 461 196 476T235 501T279 514T332 518ZM301 456Q253 456 223 441T174 399T145 334T127 251Q122 220 119 197T116 157Q116 101 144 79T237 56Q276 56 303 63T349 89T380 141T401 229Q410 282 414 316T418 370Q418 419 392 437T301 456Z"  />
<glyph unicode="&#xFF;" horiz-adv-x="494" d="M122 509L212 74L422 509H504L249 -10Q223 -63 203 -99T160 -156T111 -187T44 -196Q37 -196 27 -196T11 -194L23 -128Q33 -129 37 -129T45 -129Q85 -129 108 -108T155 -31L169 2H146L38 509H122ZM245 585H163L180 686H262L245 585ZM336 686H418L401 585H319L336 686Z"  />
<glyph unicode="&#x131;" horiz-adv-x="218" d="M95 509H173L84 0H6L95 509Z"  />
<glyph unicode="&#x152;" horiz-adv-x="998" d="M992 723L979 649H650L608 410H929L916 338H595L549 75H884L871 0H453L466 75Q448 51 429 35T385 10T328 -2T251 -6Q150 -6 98 27T46 143Q46 160 48 179T54 222L102 495Q113 559 133 604T186 677T266 718T377 731Q425 731 457 727T511 713T545 688T567 652L580 723H992ZM536 475Q546 528 546 562Q546 589 538 608T511 638T458 655T375 661Q328 661 296 654T241 628T207 578T186 501L136 216Q134 202 133 189T131 164Q131 137 135 119T153 89T190 73T251 68Q323 68 366 74T436 102T476 169T503 288L536 475Z"  />
<glyph unicode="&#x153;" horiz-adv-x="884" d="M791 145Q784 99 770 70T729 24T664 1T567 -6Q524 -6 494 -2T444 11T413 36T397 74Q376 28 330 11T197 -6Q144 -6 109 3T54 29T26 73T18 134Q18 152 20 172T26 216L38 285Q50 354 65 394T106 461Q121 477 138 487T179 505T232 515T301 518Q343 518 371 514T418 500T447 477T461 443Q471 464 486 478T524 501T578 514T650 518Q748 518 789 485T830 392Q830 383 830 372T827 344T820 301T809 237H464Q455 194 453 175T451 141Q451 93 477 76T564 58Q606 58 633 61T676 74T701 101T714 145H791ZM104 199Q100 176 98 161T96 134Q96 95 124 77T218 59Q311 59 342 96Q349 105 355 117T368 149T380 198T394 269Q401 308 404 334T407 377Q407 391 405 400T399 418Q389 438 364 446T288 455Q260 455 240 453T204 446T178 433T158 413Q147 397 139 377T126 324L104 199ZM741 300Q746 323 750 345T754 384Q754 402 750 415T732 436T693 449T625 454Q590 454 565 448T523 428T496 391T480 333L475 300H741Z"  />
<glyph unicode="&#x160;" horiz-adv-x="709" d="M122 234Q118 214 116 200T113 176T111 160T110 147Q110 128 114 114T133 90T174 75T248 70H328Q384 70 420 73T479 90T514 127T534 193Q539 221 540 237T542 264Q542 277 538 287T525 303T498 314T455 321L258 338Q223 341 194 347T142 368T108 406T95 467Q95 483 97 501T103 541Q113 596 129 632T172 691T242 722T347 731H467Q524 731 563 725T627 706T663 670T674 617Q674 602 672 581T662 519H586Q591 549 592 562T594 585Q594 605 589 619T568 642T527 655T461 659H371Q319 659 286 655T233 637T203 599T185 535Q179 503 179 482Q179 462 184 450T201 431T231 421T276 415L466 398Q556 390 591 363T627 282Q627 252 620 211Q609 146 591 104T541 38T457 4T327 -6H238Q181 -6 141 1T75 25T38 69T26 137Q26 184 40 234H122ZM471 779H379L304 920H381L430 826L513 920H596L471 779Z"  />
<glyph unicode="&#x161;" horiz-adv-x="548" d="M84 154Q81 134 81 120Q81 100 87 88T108 70T147 61T210 58Q265 58 297 62T347 75T372 101T384 140Q387 154 388 165T389 185Q389 195 387 201T375 212T347 219T298 224L177 232Q111 237 79 256T47 327Q47 333 48 349T53 380Q60 419 72 445T111 487T180 511T292 518Q355 518 394 513T456 497T486 469T494 427Q494 419 493 410T490 389H418Q418 392 418 395T419 402Q419 416 415 427T398 445T357 455T285 459Q237 459 208 455T163 442T139 417T127 378Q125 369 124 361T123 346Q123 324 135 315T189 303L336 294Q372 292 397 287T437 272T460 246T467 205Q467 180 461 144Q453 99 438 70T393 24T316 1T198 -6Q138 -6 100 1T41 21T12 53T4 95Q4 119 11 154H84ZM351 573H259L183 714H260L310 620L392 714H475L351 573Z"  />
<glyph unicode="&#x178;" horiz-adv-x="654" d="M220 0L273 303L55 723H157L330 383L628 723H727L360 303L307 0H220ZM362 791H280L298 892H380L362 791ZM454 892H536L518 791H436L454 892Z"  />
<glyph unicode="&#x17D;" horiz-adv-x="627" d="M-25 78L529 649H95L108 723H649L636 649L82 76H544L531 0H-38L-25 78ZM416 779H324L249 920H326L375 826L458 920H541L416 779Z"  />
<glyph unicode="&#x17E;" horiz-adv-x="482" d="M-22 79L363 444H57L68 509H468L456 437L70 67H395L384 0H-35L-22 79ZM315 573H223L147 714H224L274 620L356 714H439L315 573Z"  />
<glyph unicode="&#x192;" horiz-adv-x="667" d="M-29 -113Q-16 -118 1 -119T37 -121Q72 -121 96 -114T139 -86T171 -29T202 66L290 390H154V451H308L328 523Q344 580 362 620T407 684T468 720T554 731Q593 731 628 724L623 659Q605 664 587 666T555 668Q523 668 501 661T461 637T430 589T404 511L388 451H556V390H371L279 52Q264 -3 245 -47T199 -123T132 -170T37 -187Q19 -187 0 -185T-34 -178L-29 -113Z"  />
<glyph unicode="&#x237;" horiz-adv-x="218" d="M-83 -131H-76Q-42 -131 -27 -114T-3 -48L95 509H173L71 -73Q60 -138 29 -165T-71 -193Q-74 -193 -80 -193T-93 -192L-83 -131Z"  />
<glyph unicode="&#x2C6;" horiz-adv-x="333" d="M271 714L347 573H270L220 667L138 573H55L179 714H271Z"  />
<glyph unicode="&#x2DC;" horiz-adv-x="333" d="M389 698Q369 637 344 613T279 589Q261 589 243 595T208 608T173 621T136 627Q119 627 108 617T85 582H38Q55 639 81 664T151 690Q172 690 190 684T225 672T257 659T286 653Q307 653 318 663T338 698H389Z"  />
<glyph unicode="&#x2013;" horiz-adv-x="667" d="M-23 235L-12 295H655L644 235H-23Z"  />
<glyph unicode="&#x2014;" horiz-adv-x="1000" d="M47 235L58 295H918L907 235H47Z"  />
<glyph unicode="&#x2018;" horiz-adv-x="222" d="M209 679Q189 677 180 671T168 647L163 619H196L178 513H94L116 639Q124 685 146 703T217 723L209 679Z"  />
<glyph unicode="&#x2019;" horiz-adv-x="222" d="M102 557Q122 559 130 565T142 589L147 617H114L133 723H217L195 597Q187 551 165 533T94 513L102 557Z"  />
<glyph unicode="&#x201A;" horiz-adv-x="222" d="M-7 -60Q13 -58 22 -52T34 -28L39 0H6L24 106H108L86 -20Q78 -66 56 -84T-15 -104L-7 -60Z"  />
<glyph unicode="&#x201C;" horiz-adv-x="400" d="M387 679Q367 677 358 671T346 647L341 619H374L356 513H272L294 639Q302 685 324 703T395 723L387 679ZM209 679Q189 677 180 671T168 647L163 619H196L178 513H94L116 639Q124 685 146 703T217 723L209 679Z"  />
<glyph unicode="&#x201D;" horiz-adv-x="400" d="M102 557Q122 559 131 565T143 589L148 617H115L133 723H217L195 597Q187 551 165 533T94 513L102 557ZM280 557Q300 559 309 565T321 589L326 617H293L311 723H395L373 597Q365 551 343 533T272 513L280 557Z"  />
<glyph unicode="&#x201E;" horiz-adv-x="400" d="M-7 -60Q13 -58 22 -52T34 -28L39 0H6L24 106H108L86 -20Q78 -66 56 -84T-15 -104L-7 -60ZM171 -60Q191 -58 200 -52T212 -28L217 0H184L202 106H286L264 -20Q256 -66 234 -84T163 -104L171 -60Z"  />
<glyph unicode="&#x2020;" horiz-adv-x="667" d="M158 467L169 532H323L357 723H437L403 532H556L545 467H392L310 0H230L312 467H158Z"  />
<glyph unicode="&#x2021;" horiz-adv-x="667" d="M111 164L123 232H270L316 493H169L181 558H328L357 723H437L408 558H554L542 493H396L350 232H496L484 164H338L310 0H230L258 164H111Z"  />
<glyph unicode="&#x2022;" horiz-adv-x="333" d="M151 213Q126 213 105 222T68 247T43 285T34 332Q34 362 46 387T77 431T122 459T175 469Q200 469 221 460T258 435T283 397T292 350Q292 320 280 295T249 251T204 223T151 213Z"  />
<glyph unicode="&#x2026;" horiz-adv-x="1000" d="M79 106H163L145 0H61L79 106ZM412 106H496L478 0H394L412 106ZM745 106H829L811 0H727L745 106Z"  />
<glyph unicode="&#x2030;" horiz-adv-x="1000" d="M556 734L173 -14H115L498 734H556ZM209 735Q274 735 302 717T331 657Q331 647 330 631T323 590L304 487Q298 454 289 430T263 391T217 368T145 361Q89 361 56 375T22 437Q22 451 24 470T32 519L46 597Q54 640 65 667T94 709T139 729T209 735ZM89 512Q82 474 82 458Q82 431 96 422T154 413Q180 413 196 417T222 430T237 455T246 493L261 572Q265 594 267 610T269 638Q269 650 267 658T258 672T237 680T200 683Q173 683 157 680T130 667T114 638T102 588L89 512ZM524 360Q589 360 617 342T646 282Q646 272 645 256T638 215L619 112Q613 79 604 55T578 16T532 -7T460 -14Q404 -14 371 0T337 62Q337 76 339 95T347 144L361 222Q369 265 380 292T409 334T454 354T524 360ZM404 137Q397 99 397 83Q397 56 411 47T469 38Q495 38 511 42T537 55T552 80T561 118L576 197Q580 219 582 235T584 263Q584 275 582 283T573 297T552 305T515 308Q488 308 472 305T445 292T429 263T417 213L404 137ZM856 360Q921 360 949 342T978 282Q978 272 977 256T970 215L951 112Q945 79 936 55T910 16T864 -7T792 -14Q736 -14 703 0T669 62Q669 76 671 95T679 144L693 222Q701 265 712 292T741 334T786 354T856 360ZM736 137Q729 99 729 83Q729 56 743 47T801 38Q827 38 843 42T869 55T884 80T893 118L908 197Q912 219 914 235T916 263Q916 275 914 283T905 297T884 305T847 308Q820 308 804 305T777 292T761 263T749 213L736 137Z"  />
<glyph unicode="&#x2039;" horiz-adv-x="333" d="M141 104L47 257L189 410H273L128 254L219 104H141Z"  />
<glyph unicode="&#x203A;" horiz-adv-x="333" d="M154 410L248 257L106 104H22L167 260L76 410H154Z"  />
<glyph unicode="&#x20AC;" horiz-adv-x="667" d="M132 311L149 405H54L90 472H161L162 480Q174 547 194 594T247 672T327 716T442 730H519Q556 730 582 725T628 711T659 687T680 656L633 587Q616 624 584 641T495 658H439Q386 658 353 649T298 618T265 561T244 472H578L542 405H232L215 311H497L462 244H204Q199 215 197 199T195 168Q195 112 224 90T317 68H417Q438 68 456 71T492 82T529 104T572 139L556 47Q526 18 488 6T412 -7H286Q205 -7 158 33T110 157Q110 171 112 189T121 244H26L61 311H132Z"  />
<glyph unicode="&#x2122;" horiz-adv-x="900" d="M322 723V660H208V340H140V660H27V723H322ZM378 723H494L609 421L723 723H835V340H767V663L643 340H570L446 663V340H378V723Z"  />

</font>
</defs>
</svg>
