<?xml  version="1.0" encoding="UTF-8"?>
<!DOCTYPE svg PUBLIC "-//W3C//DTD SVG 1.0//EN" "http://www.w3.org/TR/2001/REC-SVG-20010904/DTD/svg10.dtd" >
<svg xmlns="http://www.w3.org/2000/svg" >
<metadata>
<version>1.0</version>
<id><![CDATA[Eurostile LT W01 Condensed]]></id>
<vendor>Monotype Imaging Inc.</vendor>
<credits>
<name>Fonts.com WebFonts</name>
<URL>http://webfonts.fonts.com</URL>
<role>Home of the Web fonts</role>
</credits>
<license>
<URL>http://webfonts.fonts.com/Legal</URL>
</license>
<copyright><![CDATA[Copyright © 2007 - 2010 Linotype GmbH, www.linotype.com. All rights reserved. This font software may not be reproduced, modified, disclosed or transferred without the express written approval of Linotype GmbH. Eurostile is a trademark of Linotype GmbH and may be registered in certain jurisdictions. This typeface is original artwork of Aldo Novarese. The design may be protected in certain jurisdictions.]]></copyright>
<trademark><![CDATA[Eurostile is a trademark of Linotype GmbH and may be registered in certain jurisdictions.]]></trademark>
<licensee>
<name></name>
</licensee>
</metadata>
<defs >
<font horiz-adv-x="463" id="afc409ca-eb18-4de0-aea9-9f9127f2977c">
<font-face font-family="" panose-1="2 11 4 6 2 2 2 6 2 4" ascent="940" descent="-277" units-per-em="1000" alphabetic="0">
</font-face>
<missing-glyph horiz-adv-x="278" />

<glyph unicode="&#xA;" />
<glyph unicode="&#xD;" />
<glyph unicode=" " horiz-adv-x="278" />
<glyph unicode="!" horiz-adv-x="278" d="M104 723H173V196H104V723ZM104 0V91H173V0H104Z"  />
<glyph unicode="&quot;" horiz-adv-x="320" d="M129 723V612L111 464H73L55 612V723H129ZM264 723V612L246 464H208L190 612V723H264Z"  />
<glyph unicode="#" horiz-adv-x="556" d="M502 446H418L383 283H469V213H368L322 0H252L298 213H176L130 0H60L106 213H44V283H121L156 446H77V516H171L216 723H286L241 516H363L408 723H478L433 516H502V446ZM191 283H313L348 446H226L191 283Z"  />
<glyph unicode="$" horiz-adv-x="556" d="M247 813H301V724Q358 724 395 716T453 689T484 636T493 554Q493 550 493 539T492 517H432V540Q432 576 428 599T411 635T377 653T320 658H301V399Q333 397 356 395T397 390T426 381T449 369Q464 358 474 345T490 312T498 266T501 202Q501 166 499 141T492 96T478 62T456 36Q433 15 398 6T301 -3V-103H247V-3Q239 -4 232 -4T221 -4Q102 -4 62 58Q51 74 45 110T38 187Q38 193 38 203T40 231H102V196Q102 151 106 127T123 91Q148 66 217 66Q220 66 229 66T247 67V334Q196 335 161 342T103 366Q74 387 62 423T50 531Q50 604 63 642T110 702Q120 708 131 712T158 718T195 722T247 724V813ZM247 659H231Q195 659 172 654T136 633T118 592T113 524Q113 474 121 452T151 416Q164 409 183 406T247 400V659ZM301 67Q346 67 367 70T402 83Q423 96 431 119T439 191Q439 216 439 233T437 262T433 282T426 296Q415 316 387 322T301 332V67Z"  />
<glyph unicode="%" horiz-adv-x="800" d="M173 733Q218 733 245 725T289 698Q296 690 300 681T308 659T312 626T313 576Q313 507 313 464T311 395T306 356T297 331Q283 302 255 290T174 277Q136 277 113 283T73 303Q62 313 55 324T45 353T40 396T39 457V563Q39 599 41 626T47 661Q59 701 87 717T173 733ZM101 417Q101 392 104 377T116 352T140 340T181 337Q206 337 220 340T241 361T249 415T251 518Q251 555 251 578T249 616T246 638T240 653Q234 664 220 669T177 674Q151 674 136 671T114 659T104 630T101 579V417ZM539 727H596L264 -9H207L539 727ZM623 444Q668 444 695 436T739 409Q746 401 750 392T758 370T762 337T763 287Q763 218 763 175T761 106T756 67T747 42Q733 13 705 1T624 -12Q586 -12 563 -6T523 14Q512 24 505 35T495 64T490 107T489 168V274Q489 310 491 337T497 372Q509 412 537 428T623 444ZM551 128Q551 103 554 88T566 63T590 51T631 48Q656 48 670 51T691 72T699 126T701 229Q701 266 701 289T699 327T696 349T690 364Q684 375 670 380T627 385Q601 385 586 382T564 370T554 341T551 290V128Z"  />
<glyph unicode="&amp;" horiz-adv-x="556" d="M431 87Q425 63 418 50T398 25Q358 -10 246 -10Q133 -10 95 34Q76 55 68 90T60 191Q60 257 64 300T80 369T111 408T161 423L153 433Q132 459 119 478T99 515T90 551T87 596Q87 635 95 661T121 703T171 726T248 733Q309 733 344 723T397 689Q416 664 416 578Q416 567 416 557T414 535H352V599Q352 629 331 646Q320 654 299 658T239 662Q190 662 173 646T155 584Q155 569 156 558T163 535T176 512T200 481L382 257V404H451V175L560 51L507 2L431 87ZM213 355Q212 357 206 358T193 359Q160 359 146 335Q141 327 138 316T134 288T131 244T130 181Q130 144 135 121T154 85T192 67T256 62Q290 62 312 65T348 78T366 102T371 142Q371 144 371 151T370 164L213 355Z"  />
<glyph unicode="&apos;" horiz-adv-x="200" d="M137 723V612L119 464H81L63 612V723H137Z"  />
<glyph unicode="(" horiz-adv-x="278" d="M68 529Q68 628 101 678T218 729H230V662Q204 662 186 655T157 631T142 589T137 524V186Q137 147 141 123T157 84T186 64T230 58V-9H218Q177 -9 149 2T102 36T76 95T68 181V529Z"  />
<glyph unicode=")" horiz-adv-x="278" d="M210 191Q210 92 177 42T60 -9H48V58Q74 58 92 65T121 89T136 131T141 196V534Q141 573 137 597T121 636T92 656T48 662V729H60Q142 729 176 684T210 539V191Z"  />
<glyph unicode="*" horiz-adv-x="420" d="M274 734L317 714L253 582L213 606L274 734ZM159 585L101 714L142 731L197 610L159 585ZM383 516H262V565H383V516ZM37 565H154V519H37V565ZM309 374L268 354L216 476L252 499L309 374ZM104 384L157 498L194 473L142 360L104 384Z"  />
<glyph unicode="+" horiz-adv-x="556" d="M246 297V490H309V297H497V237H309V43H246V237H59V297H246Z"  />
<glyph unicode="&#x2c;" horiz-adv-x="278" d="M161 95V-17Q161 -71 147 -90T95 -109H85V-69Q106 -69 114 -58T122 -17Q122 -12 122 -9T121 0H92V95H161Z"  />
<glyph unicode="-" horiz-adv-x="296" d="M38 294H258V234H38V294Z"  />
<glyph unicode="." horiz-adv-x="278" d="M87 95H159V0H87V95Z"  />
<glyph unicode="/" horiz-adv-x="296" d="M27 -10H-36L263 733H325L27 -10Z"  />
<glyph unicode="0" horiz-adv-x="556" d="M509 246Q509 173 500 123T474 50Q448 16 402 2T268 -12Q191 -12 147 2T82 49Q71 66 64 85T53 133T48 206T46 315Q46 424 47 486T51 584T62 636T82 672Q94 690 110 702T149 720T205 730T287 733Q369 733 413 719T480 670Q488 657 493 643T502 609T507 566T509 508V246ZM437 546Q437 612 414 637Q406 645 396 650T369 658T326 662T260 663Q216 663 188 659T145 641T124 603T118 540V197Q118 172 119 155T123 125T130 103T141 87Q148 79 156 75T178 67T212 63T264 62Q305 62 332 63T377 69T405 80T422 98Q437 123 437 214V546Z"  />
<glyph unicode="1" horiz-adv-x="556" d="M347 723V0H280V654L130 465L83 508L257 723H347Z"  />
<glyph unicode="2" horiz-adv-x="556" d="M58 492Q57 506 57 516T56 538Q56 640 88 676Q114 705 157 717T279 730Q354 730 394 719T460 681Q472 669 479 654T491 618T497 568T499 496Q499 455 497 426T487 376T469 341T442 314Q430 305 419 300T390 289T341 280T261 269Q215 263 188 256T145 232T126 189T121 119Q121 108 121 96T123 72H494V0H51V109Q51 147 53 175T60 224T73 260T94 289Q105 300 118 307T152 321T207 332T293 345Q321 349 340 352T371 358T390 366T404 376Q420 390 426 423T433 522Q433 567 427 595T404 638T357 659T277 665Q243 665 219 664T179 658T152 648T135 632Q126 619 121 592T115 529Q115 519 115 510T117 492H58Z"  />
<glyph unicode="3" horiz-adv-x="556" d="M109 233Q108 222 108 212T108 194Q108 150 113 123T135 82T183 64T268 59Q329 59 361 65T409 85Q422 96 427 117T432 186Q432 217 432 236T430 267T426 286T419 300Q396 336 270 336Q262 336 254 336T228 335V400H263Q325 400 355 405T402 423Q418 435 424 464T430 554Q430 590 424 611T400 644T348 659T258 663Q216 663 190 658T149 639T129 601T123 537Q123 535 123 524T124 503H59Q58 519 58 528T58 550Q58 607 66 637T98 689Q110 701 124 708T158 721T202 728T260 730Q332 730 378 723T450 695T487 639T497 547Q497 504 493 475T480 425T453 393T411 370Q438 361 455 350T483 320T497 276T501 212Q501 175 500 150T497 106T490 76T478 51Q456 15 418 4Q364 -11 268 -11Q233 -11 208 -10T163 -5T130 4T102 19Q70 40 56 76T42 178Q42 183 42 200T43 233H109Z"  />
<glyph unicode="4" horiz-adv-x="556" d="M21 164V262L330 722H434V231H526V164H434V0H367V164H21ZM78 231H367V662L78 231Z"  />
<glyph unicode="5" horiz-adv-x="556" d="M118 207V191Q119 142 124 120T145 85Q162 71 191 66T274 60Q385 60 413 92Q427 107 432 144T438 261Q438 320 431 351T408 397Q374 428 267 428Q232 428 209 426T171 416T146 396T128 362H68V723H483V658H135V439Q150 457 163 468T192 485T231 493T288 495Q322 495 348 493T394 485T429 471T457 450Q471 436 480 420T495 383T503 333T506 265Q506 216 505 181T499 120T488 77T471 46Q448 16 402 2T277 -12Q131 -12 84 48Q69 67 61 100T52 174Q52 179 52 186T53 207H118Z"  />
<glyph unicode="6" horiz-adv-x="556" d="M436 546Q435 586 430 607T414 640Q400 654 370 659T285 664Q222 664 192 656T146 628Q125 599 125 540V374Q141 395 155 408T188 428T232 439T294 442Q359 442 394 437T453 416Q486 396 501 354T516 236Q516 159 507 111T471 35T398 -2T276 -12Q214 -12 172 -1T105 35T68 100T56 201V493Q56 567 65 613T100 686T172 721T293 730Q332 730 361 727T412 717T449 699T476 672Q490 652 495 625T501 546H436ZM125 204Q125 154 129 131T145 94Q161 74 191 66T284 58Q342 58 374 65T422 87Q436 101 442 132T448 225Q448 279 443 307T423 349Q408 363 378 369T291 376Q216 376 181 365T135 328Q132 320 130 313T127 295T126 268T125 223V204Z"  />
<glyph unicode="7" horiz-adv-x="556" d="M44 723H488V616L185 0H111L431 655H44V723Z"  />
<glyph unicode="8" horiz-adv-x="556" d="M136 375Q112 384 97 396T72 427T59 473T55 541Q55 607 65 644T99 701Q118 717 157 724T270 731Q350 731 393 722T463 689Q474 679 481 668T492 640T498 599T500 540Q500 515 500 498T497 468T492 446T485 427Q476 407 462 396T422 373Q442 365 453 358T476 338Q485 328 490 318T499 293T503 261T505 216Q505 172 503 142T497 91T484 55T463 28Q439 6 392 -3T263 -13Q195 -13 154 -3T87 30Q64 52 54 88T44 189Q44 236 47 267T61 318T89 351T136 375ZM436 553Q436 592 431 612T413 643Q397 655 363 660T269 666Q202 666 171 656T132 623Q129 616 127 609T125 593T124 570T123 535Q123 512 123 499T124 477T126 463T131 450Q141 425 176 414T282 403Q333 403 363 408T408 427Q423 441 429 469T436 553ZM258 340Q210 340 183 335T140 315Q126 301 120 274T114 189Q114 148 119 123T141 84T186 65T262 60Q330 60 363 66T412 86Q425 99 430 127T436 217Q436 261 430 282T410 315Q392 329 357 334T258 340Z"  />
<glyph unicode="9" horiz-adv-x="556" d="M120 172Q122 133 125 113T140 81Q154 64 184 60T271 55Q334 55 364 63T410 91Q431 119 431 178V345Q415 324 400 311T367 290T323 279T262 276Q197 276 160 282T99 305Q67 326 54 369T40 487Q40 561 49 608T84 683T154 720T268 731Q354 731 400 715T470 661Q485 638 492 602T500 517V225Q500 151 491 105T456 33T384 -2T263 -11Q185 -11 144 2T80 47Q66 67 61 94T55 172H120ZM268 661Q213 661 181 654T134 632Q120 618 114 586T108 492Q108 438 113 411T133 369Q148 355 178 349T260 342Q306 342 337 345T387 357T415 380T428 418Q429 424 429 430T430 447T431 474T431 516Q431 562 427 586T411 625Q395 645 364 653T268 661Z"  />
<glyph unicode=":" horiz-adv-x="278" d="M103 484H175V389H103V484ZM103 95H175V0H103V95Z"  />
<glyph unicode=";" horiz-adv-x="278" d="M110 389V484H177V389H110ZM177 95V-17Q177 -71 163 -90T111 -109H101V-69Q122 -69 130 -58T138 -17Q138 -12 138 -9T137 0H108V95H177Z"  />
<glyph unicode="&lt;" horiz-adv-x="556" d="M56 291L486 508V440L134 266L486 91V23L56 239V291Z"  />
<glyph unicode="=" horiz-adv-x="556" d="M494 387V327H63V387H494ZM494 207V147H63V207H494Z"  />
<glyph unicode="&gt;" horiz-adv-x="556" d="M486 239L56 22V90L408 264L56 439V507L486 291V239Z"  />
<glyph unicode="?" horiz-adv-x="426" d="M23 501Q22 521 22 529T22 545Q22 646 48 679Q71 708 106 720T206 733Q267 733 303 724T363 692Q374 681 381 669T393 641T399 601T401 547Q401 503 399 473T392 420T379 382T357 355Q352 350 347 347T331 338T303 325T257 304Q232 293 224 286T213 264Q212 251 212 234T211 194H141V226Q141 260 144 281T159 318T191 346T248 375Q280 390 297 400T323 427T332 474T334 557Q334 597 330 614T312 643Q298 654 274 658T197 663Q156 663 138 659T108 640Q97 626 92 602T86 538Q86 535 86 524T87 501H23ZM210 90V0H141V90H210Z"  />
<glyph unicode="@" horiz-adv-x="817" d="M428 426Q469 426 493 411T528 361L536 413H604L553 126Q551 112 551 106T550 94Q550 77 558 67T584 57Q608 57 628 75T664 126T688 207T697 311Q697 429 637 494T451 560Q368 560 308 533T210 454T153 329T134 162Q134 91 149 38T199 -52T287 -107T417 -126Q468 -126 521 -120T633 -97V-161Q525 -189 415 -189Q237 -189 150 -103T63 162Q63 271 86 356T158 501T280 591T455 622Q611 622 686 541T762 310Q762 240 748 183T709 85T650 22T577 0Q544 0 524 17T500 70Q490 54 480 41T456 19T424 5T379 0Q309 0 276 29T243 124Q243 144 245 170T253 229Q264 289 278 327T312 387T361 417T428 426ZM430 366Q404 366 386 359T354 336T332 292T316 222Q311 197 310 174T308 135Q308 115 311 101T324 79T349 67T393 63Q421 63 439 70T468 91T484 120T493 154L512 261Q513 266 514 275T515 291Q515 324 498 345T430 366Z"  />
<glyph unicode="A" horiz-adv-x="576" d="M241 723H340L564 0H491L445 153H131L84 0H12L241 723ZM424 225L295 658H288L156 225H424Z"  />
<glyph unicode="B" horiz-adv-x="583" d="M68 723H335Q365 723 386 722T423 718T449 710T471 697Q485 687 494 675T508 647T516 608T519 555Q519 511 517 483T506 436T483 405T444 382Q471 374 488 363T515 331T529 280T533 204Q533 166 531 138T522 90T505 55T479 30Q457 14 428 7T356 0H68V723ZM330 410Q366 410 389 416T426 437T445 480T450 550Q450 588 444 607T422 638Q412 646 394 650T358 655H137V410H330ZM346 72Q382 72 404 77T439 97T456 138T461 205Q461 233 460 252T455 285T445 306T429 322Q401 341 340 341H137V72H346Z"  />
<glyph unicode="C" horiz-adv-x="588" d="M471 491V511Q471 562 467 591T446 636T398 656T314 661Q242 661 207 653T154 624Q131 595 131 535V198Q131 161 137 138T158 99Q167 89 177 83T204 72T243 67T299 65Q341 65 368 67T413 73T441 86T458 108Q462 116 464 125T468 150T471 187T473 244H540V203Q540 132 531 95T500 35Q476 10 433 0T313 -10Q266 -10 232 -7T173 5T130 26T97 60Q76 89 67 120T58 202V496Q58 566 68 606T102 673Q131 706 179 719T317 733Q383 733 426 725T494 694T528 634T538 538Q538 534 538 519T537 491H471Z"  />
<glyph unicode="D" horiz-adv-x="626" d="M68 723H341Q402 723 443 711T512 673Q528 658 538 638T555 587T565 515T568 415Q568 335 567 282T561 193T550 132T532 88Q484 0 354 0H68V723ZM344 72Q396 72 424 83T468 120Q480 140 487 180T495 266V433Q495 482 493 514T486 569T472 604T450 628Q430 642 406 648T344 655H137V72H344Z"  />
<glyph unicode="E" horiz-adv-x="503" d="M68 723H457V657H137V409H441V342H137V69H455V0H68V723Z"  />
<glyph unicode="F" horiz-adv-x="475" d="M68 723H443V652H140V400H431V328H140V0H68V723Z"  />
<glyph unicode="G" horiz-adv-x="607" d="M488 510V533Q488 575 482 600T458 638T404 656T310 661Q272 661 246 659T201 652T170 638T150 618Q127 582 127 490V211Q127 131 155 97Q164 86 175 80T203 70T247 65T312 63Q373 63 408 67T460 90T482 143T487 242V285H298V356H555V196Q555 134 547 98T517 39Q504 24 488 15T447 0T389 -8T308 -10Q242 -10 205 -5T145 12Q99 36 79 82T58 209V476Q58 524 62 564T75 628Q83 652 104 675T150 710Q176 722 217 727T325 733Q395 733 439 726T508 698T543 641T553 549V510H488Z"  />
<glyph unicode="H" horiz-adv-x="624" d="M68 723H137V410H487V723H556V0H487V335H137V0H68V723Z"  />
<glyph unicode="I" horiz-adv-x="209" d="M70 723H139V0H70V723Z"  />
<glyph unicode="J" horiz-adv-x="470" d="M98 260V174Q98 139 102 118T120 84T156 68T216 63Q250 63 273 67T310 83T331 112T337 156V723H406V153Q406 108 396 77T362 27T302 -1T214 -10Q115 -10 73 26T30 149V260H98Z"  />
<glyph unicode="K" horiz-adv-x="548" d="M68 723H137V412H204L450 723H536L260 375L566 0H476L201 340H137V0H68V723Z"  />
<glyph unicode="L" horiz-adv-x="458" d="M68 723H137V74H444V0H68V723Z"  />
<glyph unicode="M" horiz-adv-x="810" d="M68 723H187L403 81L628 723H742V0H673V667L440 0H364L137 648V0H68V723Z"  />
<glyph unicode="N" horiz-adv-x="643" d="M68 723H176L506 71V723H575V0H463L137 645V0H68V723Z"  />
<glyph unicode="O" horiz-adv-x="626" d="M568 256Q568 105 521 49Q506 32 490 21T451 2T397 -7T322 -10Q274 -10 240 -8T181 1T137 19T104 46Q58 97 58 203V482Q58 522 60 552T69 606T86 646T112 680Q127 695 144 705T186 722T243 730T321 733Q366 733 398 730T455 720T497 702T527 675Q547 650 557 614T568 533V256ZM495 491Q495 552 490 584T470 631Q462 641 451 647T422 656T374 661T302 662Q246 662 212 656T160 632T137 578T131 483V193Q131 152 137 127T163 88T214 68T300 63Q343 63 373 65T423 72T455 85T475 107Q495 140 495 255V491Z"  />
<glyph unicode="P" horiz-adv-x="561" d="M68 723H370Q411 723 440 712T487 675T513 608T521 509Q521 444 512 401T480 331T420 293T328 281H137V0H68V723ZM326 353Q365 353 389 359T426 382T445 428T450 506Q450 554 446 583T431 629T399 651T345 657H137V353H326Z"  />
<glyph unicode="Q" horiz-adv-x="626" d="M568 256Q568 177 554 121L609 76L574 27L529 65Q515 43 497 29T455 6T398 -6T322 -10Q274 -10 240 -8T181 1T137 19T104 46Q58 97 58 203V482Q58 522 60 552T69 606T86 646T112 680Q127 695 144 705T186 722T243 730T321 733Q366 733 398 730T455 720T497 702T527 675Q547 650 557 614T568 533V256ZM495 491Q495 552 490 584T470 631Q462 641 451 647T422 656T374 661T302 662Q246 662 212 656T160 632T137 578T131 483V193Q131 152 137 127T163 88T214 68T300 63Q351 63 382 65T431 73T458 87T476 109L302 255L340 300L492 173Q495 206 495 255V491Z"  />
<glyph unicode="R" horiz-adv-x="601" d="M68 723H343Q374 723 397 722T436 717T465 707T489 692Q516 669 528 628T541 520Q541 408 509 364Q500 351 487 343T449 326Q471 318 486 306T511 278T525 238T529 184V0H460V177Q460 237 434 264T347 291H137V0H68V723ZM356 360Q388 360 410 368T445 396T464 448T470 527Q470 563 466 587T450 627T420 648T375 655H137V360H356Z"  />
<glyph unicode="S" horiz-adv-x="537" d="M106 227Q105 214 105 207T105 190Q105 148 110 123T133 84T183 66T270 61Q326 61 354 67T396 87Q410 101 416 128T422 203Q422 256 414 280T383 316Q376 320 368 322T345 327T308 332T250 338Q213 341 189 344T147 352T119 361T96 376Q82 387 73 400T59 431T51 474T49 534Q49 564 50 587T56 627T66 658T83 684Q95 698 108 707T141 722T185 730T246 733Q291 733 323 731T378 724T416 711T444 690Q466 666 475 630T484 528H422Q421 572 415 598T391 639T340 658T252 663Q209 663 183 658T141 640T121 601T116 536Q116 511 117 495T121 466T129 447T144 432Q155 422 183 416T267 405Q312 402 341 399T389 391T420 380T443 366Q456 355 465 342T479 308T487 261T490 198Q490 133 480 96T447 36Q421 11 381 1T272 -10Q194 -10 150 0T82 37Q70 49 63 63T50 95T43 138T41 195Q41 203 41 209T42 227H106Z"  />
<glyph unicode="T" horiz-adv-x="481" d="M277 0H205V650H8V723H473V650H277V0Z"  />
<glyph unicode="U" horiz-adv-x="603" d="M133 723V153Q133 110 164 87Q195 63 303 63Q354 63 386 68T437 88T463 128T470 195V723H539V188Q539 131 530 98T499 44Q484 29 466 19T424 2T368 -7T290 -10Q213 -10 169 3T98 46Q64 85 64 151V723H133Z"  />
<glyph unicode="V" horiz-adv-x="543" d="M80 723L268 68L466 723H538L314 0H217L7 723H80Z"  />
<glyph unicode="W" horiz-adv-x="930" d="M83 723L253 67L416 723H520L679 67L853 723H924L730 0H627L467 651L304 0H201L10 723H83Z"  />
<glyph unicode="X" horiz-adv-x="535" d="M12 723H92L265 414L444 723H521L317 369L533 0H452L267 326L79 0H-2L217 368L12 723Z"  />
<glyph unicode="Y" horiz-adv-x="512" d="M73 723L256 371L442 723H518L289 300V0H218V300L-4 723H73Z"  />
<glyph unicode="Z" horiz-adv-x="515" d="M484 723V655L97 69H489V0H21V69L404 655H35V723H484Z"  />
<glyph unicode="[" horiz-adv-x="278" d="M84 723H214V660H149V64H214V0H84V723Z"  />
<glyph unicode="\" horiz-adv-x="278" d="M-6 731H65L284 -9H213L-6 731Z"  />
<glyph unicode="]" horiz-adv-x="278" d="M194 0H64V64H129V660H64V723H194V0Z"  />
<glyph unicode="^" horiz-adv-x="484" d="M276 723L440 333H365L242 636L118 333H43L209 723H276Z"  />
<glyph unicode="_" horiz-adv-x="500" d="M500 -125H0V-75H500V-125Z"  />
<glyph unicode="`" horiz-adv-x="204" d="M54 707L165 568H114L-24 707H54Z"  />
<glyph unicode="a" horiz-adv-x="455" d="M340 356Q340 390 336 410T320 441T283 455T220 459Q191 459 172 456T140 444T123 423T118 390Q118 388 118 384T119 371H54Q53 381 53 385T53 394Q53 461 91 489T223 517Q273 517 307 510T362 487T392 445T402 379V0H344V47Q329 31 316 21T286 4T251 -5T206 -8Q159 -8 127 0T74 28T46 78T37 156Q37 243 70 279Q87 299 116 307T198 315Q230 315 252 313T289 306T316 292T340 269V356ZM207 258Q176 258 157 253T124 236Q112 225 108 208T103 157Q103 127 108 107T126 74T161 57T218 51Q289 51 315 76T341 164Q341 191 335 209T313 238T272 253T207 258Z"  />
<glyph unicode="b" horiz-adv-x="478" d="M122 445Q135 465 148 479T178 501T215 513T261 517Q362 517 398 466Q408 452 415 435T426 395T432 342T434 269Q434 228 433 197T430 143T423 103T412 70Q376 -8 259 -8Q204 -8 172 9T120 66V0H57V723H122V445ZM249 457Q211 457 187 447T147 416Q132 395 126 363T120 269Q120 231 121 202T126 152T134 116T148 90Q162 72 185 63T247 53Q285 53 308 61T344 91T361 152T366 254Q366 292 365 320T361 368T354 402T342 425Q321 457 249 457Z"  />
<glyph unicode="c" horiz-adv-x="441" d="M340 342V358Q340 387 335 406T317 436T283 452T229 457Q188 457 167 450T134 423Q128 412 124 399T118 364T115 308T114 222Q114 160 119 129T138 81Q160 53 230 53Q266 53 288 58T323 77T340 116T345 183H409V167Q409 118 403 89T381 40Q343 -8 233 -8Q171 -8 134 6T75 51Q58 76 51 120T44 245Q44 299 46 338T55 405T71 451T96 482Q119 502 148 509T229 517Q272 517 297 513T342 499Q401 469 401 360V342H340Z"  />
<glyph unicode="d" horiz-adv-x="480" d="M358 723H423V0H360V66Q336 25 306 9T222 -8Q124 -8 85 43Q73 58 66 76T53 119T46 176T44 252Q44 292 45 321T48 371T54 407T65 438Q97 517 220 517Q246 517 266 514T302 502T331 479T358 445V723ZM226 457Q193 457 170 449T135 424Q129 414 125 401T117 367T113 318T112 250Q112 190 117 152T135 91T171 61T232 53Q271 53 296 62T335 96T355 163T360 271Q360 325 354 360T332 417T291 448T226 457Z"  />
<glyph unicode="e" horiz-adv-x="454" d="M112 242V205Q112 153 116 126T131 83Q155 51 231 51Q276 51 301 57T336 78Q342 88 344 103T347 154H409V132Q409 89 401 64T374 24Q353 7 318 0T228 -8Q165 -8 131 5T74 51Q65 64 59 80T50 119T46 174T44 253Q44 295 45 324T48 375T53 412T63 441Q81 482 122 499T240 517Q288 517 317 509T367 480Q379 468 387 454T401 421T408 377T410 316Q410 304 410 288T409 242H112ZM344 302V325Q344 366 340 392T324 432T290 452T232 458Q195 458 172 453T135 433T116 393T111 327V302H344Z"  />
<glyph unicode="f" horiz-adv-x="251" d="M253 668Q244 669 234 669T213 670Q171 670 156 653T140 591V509H250V448H140V0H75V448H12V509H75V584Q75 629 82 654T106 697Q137 730 206 730Q223 730 253 727V668Z"  />
<glyph unicode="g" horiz-adv-x="475" d="M125 -47Q125 -93 147 -110T228 -128Q278 -128 305 -118T342 -88Q348 -76 352 -47T356 41V91Q337 53 306 36T224 19Q127 19 89 67Q66 96 56 142T46 268Q46 345 55 390T85 465Q105 492 137 504T224 517Q251 517 271 514T306 501T334 478T359 441V509H420V29Q420 -35 414 -73T392 -132Q370 -162 331 -175T225 -189Q170 -189 138 -177T85 -138Q72 -121 67 -101T62 -47H125ZM228 457Q160 457 137 422Q125 404 120 370T114 268Q114 202 119 166T138 112Q161 80 236 80Q304 80 328 114Q344 136 350 177T357 277Q357 329 352 364T332 419T292 448T228 457Z"  />
<glyph unicode="h" horiz-adv-x="470" d="M57 723H122V441Q137 463 150 477T179 501T215 513T262 517Q359 517 394 465Q406 447 411 420T417 348V0H352V354Q352 411 329 434T249 457Q122 457 122 326V0H57V723Z"  />
<glyph unicode="i" horiz-adv-x="181" d="M58 723H123V638H58V723ZM58 509H123V0H58V509Z"  />
<glyph unicode="j" horiz-adv-x="181" d="M58 723H123V638H58V723ZM123 509V-92Q123 -121 119 -135T102 -161Q79 -184 32 -184Q27 -184 20 -184T7 -182V-127Q11 -128 13 -128T18 -128Q41 -128 49 -119T58 -87V509H123Z"  />
<glyph unicode="k" horiz-adv-x="396" d="M57 723H122V304H153L305 509H384L204 274L410 0H326L151 242H122V0H57V723Z"  />
<glyph unicode="l" horiz-adv-x="183" d="M59 723H124V0H59V723Z"  />
<glyph unicode="m" horiz-adv-x="759" d="M55 509H116V435Q131 459 145 475T176 500T213 513T260 517Q319 517 351 498T401 434Q416 457 430 473T462 498T501 512T553 517Q635 517 670 480T706 369V0H641V347Q641 407 620 432T539 457Q477 457 445 426T413 331V0H348V367Q348 409 326 433T250 457Q205 457 178 444T135 399Q130 390 127 381T123 360T121 332T120 293V0H55V509Z"  />
<glyph unicode="n" horiz-adv-x="468" d="M55 509H116V438Q132 462 146 477T176 501T212 513T260 517Q357 517 392 465Q404 447 409 420T415 348V0H350V354Q350 411 327 434T247 457Q120 457 120 326V0H55V509Z"  />
<glyph unicode="o" horiz-adv-x="465" d="M238 517Q297 517 332 507T384 473Q404 448 412 399T421 268Q421 176 411 122T377 37Q359 13 326 3T236 -8Q202 -8 177 -6T134 3T102 20T77 45Q68 57 62 75T52 118T46 178T44 259Q44 358 56 411T99 487Q109 496 121 501T150 510T187 515T238 517ZM228 457Q189 457 166 450T131 422T116 359T112 249Q112 183 115 144T131 85T167 59T231 53Q273 53 297 59T333 86T349 150T353 265Q353 332 350 370T335 427T297 452T228 457Z"  />
<glyph unicode="p" horiz-adv-x="477" d="M116 509V442Q134 481 168 499T256 517Q354 517 392 467Q404 452 411 434T424 391T431 333T433 256Q433 215 432 187T429 138T422 102T411 72Q394 31 358 12T258 -8Q232 -8 212 -5T176 7T147 28T120 61V-178H55V509H116ZM244 457Q205 457 181 448T142 413T123 345T118 235Q118 174 124 142T148 89Q178 53 249 53Q319 53 341 86Q347 96 351 109T359 142T363 189T364 255Q364 317 360 356T342 418T306 449T244 457Z"  />
<glyph unicode="q" horiz-adv-x="477" d="M361 509H422V-178H357V61Q344 41 331 28T301 7T264 -4T219 -8Q167 -8 134 5T81 44Q70 59 63 75T52 114T46 166T44 238Q44 320 49 365T67 439Q101 517 220 517Q247 517 268 514T305 501T335 478T361 442V509ZM228 457Q192 457 170 449T134 420T117 359T112 256Q112 217 113 189T118 141T125 108T137 85Q159 53 228 53Q267 53 292 62T333 93T354 153T360 247Q360 311 355 351T334 415T294 448T228 457Z"  />
<glyph unicode="r" horiz-adv-x="373" d="M55 509H116V445Q129 466 141 480T167 502T197 514T237 517Q303 517 330 485T357 374Q357 365 357 357T356 339H297Q298 350 298 355T298 365Q298 418 280 437T216 457Q169 457 145 428T120 350V0H55V509Z"  />
<glyph unicode="s" horiz-adv-x="445" d="M332 377V390Q332 430 311 446Q300 454 278 457T204 460Q173 460 154 457T125 445T112 418T108 373Q108 348 111 333T123 308T149 296T194 290L253 286Q309 282 334 276T374 256Q389 242 394 223T400 163Q400 114 396 88T380 44Q363 16 327 4T224 -8Q166 -8 133 -1T79 25Q39 59 39 131Q39 135 39 142T40 158H102V142Q102 115 107 98T124 70T159 55T214 51Q251 51 275 55T312 69T331 98T336 146Q336 172 333 187T320 210T289 221T232 228Q182 231 151 235T101 246Q71 257 58 285T45 370Q45 414 52 442T79 487T130 510T214 517Q269 517 304 511T359 490T386 447T394 377H332Z"  />
<glyph unicode="t" horiz-adv-x="335" d="M19 448V509H72V628H139V509H301V448H139V105Q139 53 194 53Q238 53 249 84Q253 94 255 113T259 172H318Q317 142 316 121T312 85T306 60T297 40Q281 14 257 3T190 -9Q72 -9 72 94V448H19Z"  />
<glyph unicode="u" horiz-adv-x="464" d="M117 509V137Q117 94 140 75T214 55Q258 55 282 66T323 104Q333 121 338 151T344 215V509H409V0H348V75Q332 50 318 34T286 9T247 -4T198 -8Q156 -8 127 3T78 41Q66 58 59 80T52 126V509H117Z"  />
<glyph unicode="v" horiz-adv-x="394" d="M77 509L194 62L320 509H386L239 0H149L10 509H77Z"  />
<glyph unicode="w" horiz-adv-x="646" d="M81 509L174 64L273 509H369L458 62L566 509H631L502 0H407L319 447L220 0H128L15 509H81Z"  />
<glyph unicode="x" horiz-adv-x="384" d="M301 0L190 208L79 0H6L155 264L22 509H94L191 323L292 509H363L225 266L375 0H301Z"  />
<glyph unicode="y" horiz-adv-x="389" d="M68 -128H76Q103 -128 121 -122T152 -102T173 -63T188 0H158L10 509H76L205 63L314 509H378L250 -17Q241 -52 235 -75T222 -113T210 -138T194 -157Q160 -189 101 -189Q81 -189 68 -186V-128Z"  />
<glyph unicode="z" horiz-adv-x="374" d="M13 0V66L276 452H38V509H346V447L80 60H342V0H13Z"  />
<glyph unicode="{" horiz-adv-x="278" d="M97 587Q97 653 128 688T230 724V659Q195 656 181 639T167 578Q167 561 168 540T171 498T174 458T176 425Q176 382 161 357T116 322Q142 313 158 290T174 219Q174 202 173 182T171 139T168 97T167 61Q167 18 181 1T230 -20V-85Q160 -85 129 -52T97 48Q97 69 98 94T102 143T105 189T107 229Q107 253 95 271T44 290V352Q82 352 94 368T107 412Q107 428 106 450T102 497T99 545T97 587Z"  />
<glyph unicode="|" horiz-adv-x="278" d="M173 740V-90H105V740H173Z"  />
<glyph unicode="}" horiz-adv-x="278" d="M181 52Q181 -14 150 -49T48 -85V-20Q83 -17 97 0T111 61Q111 77 110 98T107 141T104 181T102 214Q102 257 117 282T162 317Q136 326 120 349T104 420Q104 436 105 457T107 500T110 542T111 578Q111 621 97 638T48 659V724Q118 724 149 691T181 591Q181 570 180 545T176 496T173 450T171 410Q171 386 183 368T234 349V287Q196 287 184 271T171 227Q171 211 172 189T176 142T179 94T181 52Z"  />
<glyph unicode="~" horiz-adv-x="556" d="M394 269Q426 269 439 294T458 365H513Q510 318 499 288T472 239T435 214T392 206Q361 206 331 221T271 254T214 287T161 302Q129 302 117 277T98 206H43Q46 252 56 282T83 331T120 357T163 365Q196 365 227 350T287 317T343 284T394 269Z"  />
<glyph unicode="&#xA0;" horiz-adv-x="278" />
<glyph unicode="&#xA1;" horiz-adv-x="278" d="M171 -179H106V323H171V-179ZM171 509V418H106V509H171Z"  />
<glyph unicode="&#xA2;" horiz-adv-x="556" d="M375 349V365Q375 400 368 420T340 451L238 61Q244 60 250 60T265 60Q301 60 323 65T358 84T375 123T380 190H444V174Q444 125 438 96T416 47Q378 -1 268 -1Q255 -1 244 -1T222 1L191 -116H144L177 10Q133 23 110 58Q93 83 86 127T79 252Q79 306 81 345T90 412T106 458T131 489Q154 509 183 516T264 524Q278 524 289 524T311 522L341 634H388L356 514Q362 512 367 510T377 506Q436 476 436 367V349H375ZM173 88Q180 79 193 72L296 462Q288 463 281 463T264 464Q223 464 202 457T169 430Q163 419 159 406T153 371T150 315T149 229Q149 167 154 136T173 88Z"  />
<glyph unicode="&#xA3;" horiz-adv-x="556" d="M44 71Q90 73 108 95T127 178Q127 181 127 185T127 201T127 233T126 288H46V353H121L114 521Q113 537 113 547T113 570Q113 616 122 647T153 697T210 724T298 733Q354 733 392 724T453 693T485 638T495 553Q495 544 495 537T493 519H433Q433 565 429 594T410 639T371 660T306 666Q270 666 246 662T208 647T188 619T182 575Q182 570 182 562T183 542L191 353H403V288H194Q195 258 195 239T196 206T197 182T197 162Q197 94 161 71H500V0H44V71Z"  />
<glyph unicode="&#xA4;" horiz-adv-x="556" d="M279 535Q349 535 394 496L457 562L500 518L431 456Q446 436 454 406T463 337Q463 296 454 264T430 210L495 145L452 103L394 168Q368 145 338 137T277 128Q207 128 162 167L99 101L56 145L125 207Q110 227 102 257T93 326Q93 367 102 399T126 453L61 518L104 560L162 495Q188 518 218 526T279 535ZM278 473Q224 473 191 437T157 327Q157 260 190 226T277 191Q331 191 365 227T399 337Q399 404 365 438T278 473Z"  />
<glyph unicode="&#xA5;" horiz-adv-x="556" d="M94 723L277 371L463 723H539L345 365H488V301H310V201H488V137H310V0H239V137H58V201H239V301H58V365H205L17 723H94Z"  />
<glyph unicode="&#xA6;" horiz-adv-x="278" d="M173 260V-90H105V260H173ZM173 740V390H105V740H173Z"  />
<glyph unicode="&#xA7;" horiz-adv-x="556" d="M169 151Q168 143 168 139T168 129Q168 107 172 93T189 71T222 60T276 57Q327 57 347 70T367 117Q367 144 354 160T303 194L168 259Q141 272 124 286T96 315T82 349T78 388Q78 465 144 515Q127 534 120 555T113 604Q113 671 150 702Q169 719 197 726T273 733Q317 733 347 726T397 704T424 664T433 604Q433 598 433 593T432 579H368V592Q368 636 348 652T272 668Q221 668 201 654T180 605Q180 590 183 579T195 559T218 542T252 524L383 460Q431 437 454 405T478 326Q478 260 410 202Q442 171 442 115Q442 50 404 18Q385 1 357 -5T277 -12Q217 -12 184 -3T130 31Q105 59 105 124Q105 132 105 138T106 151H169ZM378 248Q410 277 410 316Q410 363 368 389Q314 423 234 460L188 482Q168 473 156 451T143 399Q143 382 146 369T159 346T186 325T229 302L366 238L378 248Z"  />
<glyph unicode="&#xA8;" horiz-adv-x="204" d="M-10 579V664H55V579H-10ZM148 579V664H213V579H148Z"  />
<glyph unicode="&#xA9;" horiz-adv-x="800" d="M63 362Q63 443 85 511T150 627T256 703T401 730Q482 730 545 703T650 628T715 511T737 360Q737 279 715 211T650 95T544 19T399 -8Q318 -8 255 19T150 94T85 211T63 362ZM125 362Q125 293 142 236T194 137T280 73T399 50Q469 50 520 72T606 136T658 234T675 360Q675 429 658 486T606 585T520 649T401 672Q332 672 280 650T194 586T142 488T125 362ZM482 431V442Q482 485 468 500T411 516H396Q366 516 348 512T321 495T309 462T306 408V309Q306 279 309 260T321 228T348 211T396 206H411Q436 206 451 210T473 225T482 250T484 288V301H552V279Q552 210 526 178T438 146H369Q298 146 268 176T237 281V430Q237 471 244 498T267 543T308 567T369 575H438Q474 575 496 565T530 538T546 500T550 457V431H482Z"  />
<glyph unicode="&#xAA;" horiz-adv-x="370" d="M265 620Q265 642 263 656T252 677T227 686T185 689Q145 689 132 681T118 644V631H65V647Q65 695 93 714T187 733Q257 733 286 712T316 637V372H268V404Q257 393 248 386T229 374T206 368T175 366Q109 366 81 391T53 481Q53 541 76 567Q99 593 170 593Q192 593 206 592T230 586T248 576T265 560V620ZM176 550Q154 550 142 546T122 535Q114 527 111 516T107 481Q107 439 122 425T184 410Q231 410 248 426T266 486Q266 521 248 535T176 550Z"  />
<glyph unicode="&#xAB;" horiz-adv-x="400" d="M277 435H348L254 253L347 76H275L181 254L277 435ZM143 435H214L120 253L213 76H141L47 254L143 435Z"  />
<glyph unicode="&#xAC;" horiz-adv-x="556" d="M460 398V86H396V336H58V398H460Z"  />
<glyph unicode="&#xAD;" horiz-adv-x="296" d="M38 294H258V234H38V294Z"  />
<glyph unicode="&#xAE;" horiz-adv-x="460" d="M230 730Q274 730 309 716T368 675T404 612T417 531Q417 488 404 452T367 389T308 347T230 332Q186 332 151 346T92 387T56 450T43 531Q43 574 56 610T93 673T151 715T230 730ZM230 690Q158 690 122 647T86 531Q86 459 122 416T230 372Q302 372 338 415T374 531Q374 603 338 646T230 690ZM155 636H247Q316 636 316 575Q316 551 306 540T279 523Q299 516 307 504T315 476V430H271V468Q271 488 264 496T236 505H198V430H155V636ZM232 540Q256 540 264 548T272 574Q272 589 263 595T228 601H198V540H232Z"  />
<glyph unicode="&#xAF;" horiz-adv-x="204" d="M250 652V607H-46V652H250Z"  />
<glyph unicode="&#xB0;" horiz-adv-x="360" d="M180 678Q141 678 123 653T105 589Q105 551 123 526T180 500Q219 500 237 525T255 589Q255 627 237 652T180 678ZM180 733Q246 733 280 693T314 589Q314 559 306 533T280 487T238 456T180 445Q114 445 80 485T46 589Q46 619 54 645T80 690T122 721T180 733Z"  />
<glyph unicode="&#xB1;" horiz-adv-x="556" d="M246 347V520H309V347H494V287H309V123H246V287H63V347H246ZM494 60V0H63V60H494Z"  />
<glyph unicode="&#xB2;" horiz-adv-x="500" d="M80 337Q80 360 84 379T99 413T131 441T183 464L301 502Q335 513 347 530T359 576V602Q359 623 357 637T346 660T319 672T267 676H243Q211 676 192 674T162 663T148 641T145 603V569H81V590Q81 633 88 661T115 705T168 727T252 733Q306 733 339 726T391 704T416 665T423 606V567Q423 520 399 493T329 452L216 416Q178 404 162 388T146 329V298H423V241H80V337Z"  />
<glyph unicode="&#xB3;" horiz-adv-x="500" d="M144 402V359Q144 338 148 325T164 305T199 296T261 293Q294 293 314 296T345 307T359 330T363 368Q363 399 360 417T346 445T318 458T272 461H214V516H272Q296 516 311 518T336 527T349 551T353 594Q353 622 350 638T334 663T296 674T229 677Q205 677 190 675T167 664T156 641T153 600V573H88V602Q88 639 94 664T117 704T163 726T240 733Q296 733 331 727T386 706T413 664T420 595Q420 545 406 523T360 490Q380 485 393 476T414 453T425 419T428 370Q428 326 419 300T388 259T332 241T246 236Q199 236 167 241T116 261T88 302T79 370V402H144Z"  />
<glyph unicode="&#xB4;" horiz-adv-x="204" d="M150 707H228L90 568H39L150 707Z"  />
<glyph unicode="&#xB5;" horiz-adv-x="556" d="M164 509V137Q164 94 187 75T261 55Q305 55 329 66T370 104Q380 121 385 151T391 215V509H456V0H395V75Q379 50 364 34T332 9T296 -4T255 -8Q226 -8 203 -3T164 17V-178H99V509H164Z"  />
<glyph unicode="&#xB6;" horiz-adv-x="556" d="M381 -196V648H315V-196H237V310Q189 310 152 318T90 349T51 412T38 515Q38 567 48 606T80 671T140 710T232 723H511V647H459V-196H381Z"  />
<glyph unicode="&#xB7;" horiz-adv-x="278" d="M139 395Q162 395 178 379T195 340Q195 316 180 300T139 283Q116 283 100 299T83 338Q83 362 98 378T139 395Z"  />
<glyph unicode="&#xB8;" horiz-adv-x="204" d="M140 0L93 -65Q102 -64 107 -64T119 -64Q153 -64 176 -80T199 -133Q199 -176 170 -195T93 -215Q51 -215 14 -205V-165Q53 -174 83 -174Q107 -174 120 -165T134 -136Q134 -100 87 -100Q78 -100 67 -100T45 -102V-72L95 0H140Z"  />
<glyph unicode="&#xB9;" horiz-adv-x="500" d="M227 727H313V241H246V664L137 552L97 594L227 727Z"  />
<glyph unicode="&#xBA;" horiz-adv-x="370" d="M189 733Q272 733 295 702Q321 669 321 559Q321 494 314 456T290 397Q266 366 187 366Q139 366 114 374T72 403Q59 420 54 454T49 553Q49 622 58 658T88 712Q102 724 124 728T189 733ZM182 688Q156 688 141 684T118 665T108 622T105 546Q105 500 107 473T118 433T141 416T184 412Q211 412 227 415T252 433T262 477T265 557Q265 603 264 629T254 669T229 685T182 688Z"  />
<glyph unicode="&#xBB;" horiz-adv-x="400" d="M123 76H52L146 258L53 435H125L219 257L123 76ZM257 76H186L280 258L187 435H259L353 257L257 76Z"  />
<glyph unicode="&#xBC;" horiz-adv-x="1000" d="M578 723L356 0H299L522 723H578ZM509 112V181L726 486H812V167H873V112H812V0H748V112H509ZM748 167V423L572 167H748ZM197 727H283V241H216V664L107 552L67 594L197 727Z"  />
<glyph unicode="&#xBD;" horiz-adv-x="1000" d="M558 723L316 0H259L502 723H558ZM193 729H279V243H212V666L87 538L47 580L193 729ZM538 96Q538 119 542 137T558 171T589 199T641 223L749 261Q782 273 794 290T807 335V361Q807 403 788 419T715 435H701Q669 435 650 433T620 422T606 400T603 362V328H539V349Q539 392 546 420T573 464T626 486T710 492Q757 492 788 485T837 463T863 424T871 365V326Q871 279 847 253T777 211L674 175Q655 168 642 162T621 146T608 123T604 88V57H871V0H538V96Z"  />
<glyph unicode="&#xBE;" horiz-adv-x="1000" d="M665 723L443 0H386L609 723H665ZM569 112V181L786 486H872V167H933V112H872V0H808V112H569ZM808 167V423L632 167H808ZM144 402V359Q144 338 148 325T164 305T199 296T261 293Q291 293 309 296T336 307T349 330T353 368Q353 399 350 417T336 445T308 458T262 461H214V516H262Q286 516 301 518T326 527T339 551T343 594Q343 622 340 638T325 663T291 674T229 677Q205 677 190 675T167 664T156 641T153 600V573H88V602Q88 639 94 664T117 704T163 726T240 733Q292 733 325 727T377 705T403 663T410 595Q410 545 396 523T350 490Q370 485 383 476T404 453T415 419T418 370Q418 326 409 300T380 259T326 241T246 236Q199 236 167 241T116 261T88 302T79 370V402H144Z"  />
<glyph unicode="&#xBF;" horiz-adv-x="426" d="M407 33Q408 13 408 5T408 -11Q408 -54 402 -86T382 -135Q359 -164 324 -176T224 -189Q163 -189 127 -180T67 -148Q56 -138 49 -126T37 -97T31 -58T29 -3Q29 36 31 63T38 110T51 143T73 169Q78 174 83 177T99 186T127 199T173 220Q198 231 206 238T217 260Q218 273 218 291T219 323H289V298Q289 264 286 243T271 206T239 178T182 149Q150 134 133 123T107 97T98 56T96 -13Q96 -53 100 -70T118 -99Q125 -105 134 -108T156 -114T188 -118T233 -119Q274 -119 292 -115T322 -96Q344 -70 344 -4Q344 -1 344 10T343 33H407ZM286 509V418H221V509H286Z"  />
<glyph unicode="&#xC0;" horiz-adv-x="576" d="M241 723H340L564 0H491L445 153H131L84 0H12L241 723ZM424 225L295 658H288L156 225H424ZM230 918L341 779H290L152 918H230Z"  />
<glyph unicode="&#xC1;" horiz-adv-x="576" d="M241 723H340L564 0H491L445 153H131L84 0H12L241 723ZM424 225L295 658H288L156 225H424ZM350 918H428L290 779H239L350 918Z"  />
<glyph unicode="&#xC2;" horiz-adv-x="576" d="M241 723H340L564 0H491L445 153H131L84 0H12L241 723ZM424 225L295 658H288L156 225H424ZM437 779H372L290 881L208 779H143L256 918H324L437 779Z"  />
<glyph unicode="&#xC3;" horiz-adv-x="576" d="M241 723H340L564 0H491L445 153H131L84 0H12L241 723ZM424 225L295 658H288L156 225H424ZM135 799Q140 837 165 862T223 888Q237 888 252 884T294 867Q325 853 340 848T366 843Q383 843 394 856T409 893H448Q444 850 421 823T365 796Q348 796 333 800T294 817Q272 828 252 834T220 841Q183 841 171 791H134L135 799Z"  />
<glyph unicode="&#xC4;" horiz-adv-x="576" d="M241 723H340L564 0H491L445 153H131L84 0H12L241 723ZM424 225L295 658H288L156 225H424ZM180 790V875H245V790H180ZM338 790V875H403V790H338Z"  />
<glyph unicode="&#xC5;" horiz-adv-x="576" d="M293 782Q318 782 335 798T352 842Q352 869 335 885T292 901Q267 901 250 885T233 841Q233 814 250 798T293 782ZM292 743Q251 743 222 768T193 841Q193 886 222 913T293 940Q334 940 363 915T392 842Q392 797 363 770T292 743ZM241 723H340L564 0H491L445 153H131L84 0H12L241 723ZM424 225L295 658H288L156 225H424Z"  />
<glyph unicode="&#xC6;" horiz-adv-x="851" d="M346 723H805V657H485V409H789V342H485V69H803V0H416V223H164L48 0H-26L346 723ZM416 657H382L195 288H416V657Z"  />
<glyph unicode="&#xC7;" horiz-adv-x="588" d="M471 491V511Q471 562 467 591T446 636T398 656T314 661Q242 661 207 653T154 624Q131 595 131 535V198Q131 161 137 138T158 99Q167 89 177 83T204 72T243 67T299 65Q341 65 368 67T413 73T441 86T458 108Q462 116 464 125T468 150T471 187T473 244H540V203Q540 132 531 95T500 35Q477 11 437 1T325 -10L285 -65Q294 -64 299 -64T311 -64Q345 -64 368 -80T391 -133Q391 -176 362 -195T285 -215Q243 -215 206 -205V-165Q245 -174 275 -174Q299 -174 312 -165T326 -136Q326 -100 279 -100Q270 -100 259 -100T237 -102V-72L280 -9Q242 -8 214 -4T164 8T126 29T97 60Q76 89 67 120T58 202V496Q58 566 68 606T102 673Q131 706 179 719T317 733Q383 733 426 725T494 694T528 634T538 538Q538 534 538 519T537 491H471Z"  />
<glyph unicode="&#xC8;" horiz-adv-x="503" d="M68 723H457V657H137V409H441V342H137V69H455V0H68V723ZM196 918L307 779H256L118 918H196Z"  />
<glyph unicode="&#xC9;" horiz-adv-x="503" d="M68 723H457V657H137V409H441V342H137V69H455V0H68V723ZM316 918H394L256 779H205L316 918Z"  />
<glyph unicode="&#xCA;" horiz-adv-x="503" d="M68 723H457V657H137V409H441V342H137V69H455V0H68V723ZM403 779H338L256 881L174 779H109L222 918H290L403 779Z"  />
<glyph unicode="&#xCB;" horiz-adv-x="503" d="M68 723H457V657H137V409H441V342H137V69H455V0H68V723ZM146 790V875H211V790H146ZM304 790V875H369V790H304Z"  />
<glyph unicode="&#xCC;" horiz-adv-x="209" d="M70 723H139V0H70V723ZM54 918L165 779H114L-24 918H54Z"  />
<glyph unicode="&#xCD;" horiz-adv-x="209" d="M70 723H139V0H70V723ZM154 918H232L94 779H43L154 918Z"  />
<glyph unicode="&#xCE;" horiz-adv-x="209" d="M70 723H139V0H70V723ZM251 779H186L104 881L22 779H-43L70 918H138L251 779Z"  />
<glyph unicode="&#xCF;" horiz-adv-x="209" d="M70 723H139V0H70V723ZM-6 790V875H59V790H-6ZM152 790V875H217V790H152Z"  />
<glyph unicode="&#xD0;" horiz-adv-x="626" d="M68 341H3V404H68V723H341Q402 723 443 711T512 673Q528 658 538 638T555 587T565 515T568 415Q568 335 567 282T561 193T550 132T532 88Q484 0 354 0H68V341ZM344 72Q396 72 424 83T468 120Q480 140 487 180T495 266V433Q495 482 493 514T486 569T472 604T450 628Q430 642 406 648T344 655H137V404H317V341H137V72H344Z"  />
<glyph unicode="&#xD1;" horiz-adv-x="643" d="M68 723H176L506 71V723H575V0H463L137 645V0H68V723ZM168 799Q173 837 198 862T256 888Q270 888 285 884T327 867Q358 853 373 848T399 843Q416 843 427 856T442 893H481Q477 850 454 823T398 796Q381 796 366 800T327 817Q305 828 285 834T253 841Q216 841 204 791H167L168 799Z"  />
<glyph unicode="&#xD2;" horiz-adv-x="626" d="M568 256Q568 105 521 49Q506 32 490 21T451 2T397 -7T322 -10Q274 -10 240 -8T181 1T137 19T104 46Q58 97 58 203V482Q58 522 60 552T69 606T86 646T112 680Q127 695 144 705T186 722T243 730T321 733Q366 733 398 730T455 720T497 702T527 675Q547 650 557 614T568 533V256ZM495 491Q495 552 490 584T470 631Q462 641 451 647T422 656T374 661T302 662Q246 662 212 656T160 632T137 578T131 483V193Q131 152 137 127T163 88T214 68T300 63Q343 63 373 65T423 72T455 85T475 107Q495 140 495 255V491ZM254 918L365 779H314L176 918H254Z"  />
<glyph unicode="&#xD3;" horiz-adv-x="626" d="M568 256Q568 105 521 49Q506 32 490 21T451 2T397 -7T322 -10Q274 -10 240 -8T181 1T137 19T104 46Q58 97 58 203V482Q58 522 60 552T69 606T86 646T112 680Q127 695 144 705T186 722T243 730T321 733Q366 733 398 730T455 720T497 702T527 675Q547 650 557 614T568 533V256ZM495 491Q495 552 490 584T470 631Q462 641 451 647T422 656T374 661T302 662Q246 662 212 656T160 632T137 578T131 483V193Q131 152 137 127T163 88T214 68T300 63Q343 63 373 65T423 72T455 85T475 107Q495 140 495 255V491ZM374 918H452L314 779H263L374 918Z"  />
<glyph unicode="&#xD4;" horiz-adv-x="626" d="M568 256Q568 105 521 49Q506 32 490 21T451 2T397 -7T322 -10Q274 -10 240 -8T181 1T137 19T104 46Q58 97 58 203V482Q58 522 60 552T69 606T86 646T112 680Q127 695 144 705T186 722T243 730T321 733Q366 733 398 730T455 720T497 702T527 675Q547 650 557 614T568 533V256ZM495 491Q495 552 490 584T470 631Q462 641 451 647T422 656T374 661T302 662Q246 662 212 656T160 632T137 578T131 483V193Q131 152 137 127T163 88T214 68T300 63Q343 63 373 65T423 72T455 85T475 107Q495 140 495 255V491ZM461 779H396L314 881L232 779H167L280 918H348L461 779Z"  />
<glyph unicode="&#xD5;" horiz-adv-x="626" d="M568 256Q568 105 521 49Q506 32 490 21T451 2T397 -7T322 -10Q274 -10 240 -8T181 1T137 19T104 46Q58 97 58 203V482Q58 522 60 552T69 606T86 646T112 680Q127 695 144 705T186 722T243 730T321 733Q366 733 398 730T455 720T497 702T527 675Q547 650 557 614T568 533V256ZM495 491Q495 552 490 584T470 631Q462 641 451 647T422 656T374 661T302 662Q246 662 212 656T160 632T137 578T131 483V193Q131 152 137 127T163 88T214 68T300 63Q343 63 373 65T423 72T455 85T475 107Q495 140 495 255V491ZM159 799Q164 837 189 862T247 888Q261 888 276 884T318 867Q349 853 364 848T390 843Q407 843 418 856T433 893H472Q468 850 445 823T389 796Q372 796 357 800T318 817Q296 828 276 834T244 841Q207 841 195 791H158L159 799Z"  />
<glyph unicode="&#xD6;" horiz-adv-x="626" d="M568 256Q568 105 521 49Q506 32 490 21T451 2T397 -7T322 -10Q274 -10 240 -8T181 1T137 19T104 46Q58 97 58 203V482Q58 522 60 552T69 606T86 646T112 680Q127 695 144 705T186 722T243 730T321 733Q366 733 398 730T455 720T497 702T527 675Q547 650 557 614T568 533V256ZM495 491Q495 552 490 584T470 631Q462 641 451 647T422 656T374 661T302 662Q246 662 212 656T160 632T137 578T131 483V193Q131 152 137 127T163 88T214 68T300 63Q343 63 373 65T423 72T455 85T475 107Q495 140 495 255V491ZM204 790V875H269V790H204ZM362 790V875H427V790H362Z"  />
<glyph unicode="&#xD7;" horiz-adv-x="556" d="M276 311L433 477L475 432L319 267L469 107L427 64L276 225L125 64L83 107L233 267L77 432L119 477L276 311Z"  />
<glyph unicode="&#xD8;" horiz-adv-x="626" d="M568 256Q568 105 521 49Q506 32 490 21T451 2T397 -7T322 -10Q283 -10 254 -9T201 -3T161 7T129 24L82 -52L43 -25L94 58Q58 107 58 203V482Q58 522 60 552T69 606T86 646T112 680Q127 695 144 705T186 722T243 730T321 733Q387 733 428 727T495 703L534 766L572 742L529 672Q568 621 568 533V256ZM495 491Q495 568 485 601L166 85Q185 72 217 68T300 63Q343 63 373 65T423 72T455 85T475 107Q495 140 495 255V491ZM131 193Q131 173 132 157T137 127L457 643Q449 649 437 652T407 658T364 661T302 662Q246 662 212 656T160 632T137 578T131 483V193Z"  />
<glyph unicode="&#xD9;" horiz-adv-x="603" d="M133 723V153Q133 110 164 87Q195 63 303 63Q354 63 386 68T437 88T463 128T470 195V723H539V188Q539 131 530 98T499 44Q484 29 466 19T424 2T368 -7T290 -10Q213 -10 169 3T98 46Q64 85 64 151V723H133ZM240 918L351 779H300L162 918H240Z"  />
<glyph unicode="&#xDA;" horiz-adv-x="603" d="M133 723V153Q133 110 164 87Q195 63 303 63Q354 63 386 68T437 88T463 128T470 195V723H539V188Q539 131 530 98T499 44Q484 29 466 19T424 2T368 -7T290 -10Q213 -10 169 3T98 46Q64 85 64 151V723H133ZM360 918H438L300 779H249L360 918Z"  />
<glyph unicode="&#xDB;" horiz-adv-x="603" d="M133 723V153Q133 110 164 87Q195 63 303 63Q354 63 386 68T437 88T463 128T470 195V723H539V188Q539 131 530 98T499 44Q484 29 466 19T424 2T368 -7T290 -10Q213 -10 169 3T98 46Q64 85 64 151V723H133ZM447 779H382L300 881L218 779H153L266 918H334L447 779Z"  />
<glyph unicode="&#xDC;" horiz-adv-x="603" d="M133 723V153Q133 110 164 87Q195 63 303 63Q354 63 386 68T437 88T463 128T470 195V723H539V188Q539 131 530 98T499 44Q484 29 466 19T424 2T368 -7T290 -10Q213 -10 169 3T98 46Q64 85 64 151V723H133ZM190 790V875H255V790H190ZM348 790V875H413V790H348Z"  />
<glyph unicode="&#xDD;" horiz-adv-x="512" d="M73 723L256 371L442 723H518L289 300V0H218V300L-4 723H73ZM317 918H395L257 779H206L317 918Z"  />
<glyph unicode="&#xDE;" horiz-adv-x="565" d="M70 723H139V633H370Q411 633 440 622T487 585T513 518T521 419Q521 354 512 311T480 241T420 203T328 191H139V0H70V723ZM326 263Q365 263 389 269T426 292T445 338T450 416Q450 464 446 493T431 539T399 561T345 567H137V263H326Z"  />
<glyph unicode="&#xDF;" horiz-adv-x="459" d="M59 574Q59 654 96 692T219 730Q304 730 340 690T377 557Q377 522 373 496T358 451T330 419T289 397Q321 391 339 383T373 357Q413 311 413 209Q413 98 372 45T246 -8Q224 -8 210 -5T177 8V79Q200 66 214 62T247 57Q299 57 322 89T345 202Q345 259 334 291T298 339Q283 348 259 352T180 359V417Q218 419 239 425T274 442Q315 474 315 555Q315 618 293 644T217 670Q124 670 124 581V0H59V574Z"  />
<glyph unicode="&#xE0;" horiz-adv-x="455" d="M340 356Q340 390 336 410T320 441T283 455T220 459Q191 459 172 456T140 444T123 423T118 390Q118 388 118 384T119 371H54Q53 381 53 385T53 394Q53 461 91 489T223 517Q273 517 307 510T362 487T392 445T402 379V0H344V47Q329 31 316 21T286 4T251 -5T206 -8Q159 -8 127 0T74 28T46 78T37 156Q37 243 70 279Q87 299 116 307T198 315Q230 315 252 313T289 306T316 292T340 269V356ZM207 258Q176 258 157 253T124 236Q112 225 108 208T103 157Q103 127 108 107T126 74T161 57T218 51Q289 51 315 76T341 164Q341 191 335 209T313 238T272 253T207 258ZM169 707L280 568H229L91 707H169Z"  />
<glyph unicode="&#xE1;" horiz-adv-x="455" d="M340 356Q340 390 336 410T320 441T283 455T220 459Q191 459 172 456T140 444T123 423T118 390Q118 388 118 384T119 371H54Q53 381 53 385T53 394Q53 461 91 489T223 517Q273 517 307 510T362 487T392 445T402 379V0H344V47Q329 31 316 21T286 4T251 -5T206 -8Q159 -8 127 0T74 28T46 78T37 156Q37 243 70 279Q87 299 116 307T198 315Q230 315 252 313T289 306T316 292T340 269V356ZM207 258Q176 258 157 253T124 236Q112 225 108 208T103 157Q103 127 108 107T126 74T161 57T218 51Q289 51 315 76T341 164Q341 191 335 209T313 238T272 253T207 258ZM289 707H367L229 568H178L289 707Z"  />
<glyph unicode="&#xE2;" horiz-adv-x="455" d="M340 356Q340 390 336 410T320 441T283 455T220 459Q191 459 172 456T140 444T123 423T118 390Q118 388 118 384T119 371H54Q53 381 53 385T53 394Q53 461 91 489T223 517Q273 517 307 510T362 487T392 445T402 379V0H344V47Q329 31 316 21T286 4T251 -5T206 -8Q159 -8 127 0T74 28T46 78T37 156Q37 243 70 279Q87 299 116 307T198 315Q230 315 252 313T289 306T316 292T340 269V356ZM207 258Q176 258 157 253T124 236Q112 225 108 208T103 157Q103 127 108 107T126 74T161 57T218 51Q289 51 315 76T341 164Q341 191 335 209T313 238T272 253T207 258ZM376 568H311L229 670L147 568H82L195 707H263L376 568Z"  />
<glyph unicode="&#xE3;" horiz-adv-x="455" d="M340 356Q340 390 336 410T320 441T283 455T220 459Q191 459 172 456T140 444T123 423T118 390Q118 388 118 384T119 371H54Q53 381 53 385T53 394Q53 461 91 489T223 517Q273 517 307 510T362 487T392 445T402 379V0H344V47Q329 31 316 21T286 4T251 -5T206 -8Q159 -8 127 0T74 28T46 78T37 156Q37 243 70 279Q87 299 116 307T198 315Q230 315 252 313T289 306T316 292T340 269V356ZM207 258Q176 258 157 253T124 236Q112 225 108 208T103 157Q103 127 108 107T126 74T161 57T218 51Q289 51 315 76T341 164Q341 191 335 209T313 238T272 253T207 258ZM74 588Q79 626 104 651T162 677Q176 677 191 673T233 656Q264 642 279 637T305 632Q322 632 333 645T348 682H387Q383 639 360 612T304 585Q287 585 272 589T233 606Q211 617 191 623T159 630Q122 630 110 580H73L74 588Z"  />
<glyph unicode="&#xE4;" horiz-adv-x="455" d="M340 356Q340 390 336 410T320 441T283 455T220 459Q191 459 172 456T140 444T123 423T118 390Q118 388 118 384T119 371H54Q53 381 53 385T53 394Q53 461 91 489T223 517Q273 517 307 510T362 487T392 445T402 379V0H344V47Q329 31 316 21T286 4T251 -5T206 -8Q159 -8 127 0T74 28T46 78T37 156Q37 243 70 279Q87 299 116 307T198 315Q230 315 252 313T289 306T316 292T340 269V356ZM207 258Q176 258 157 253T124 236Q112 225 108 208T103 157Q103 127 108 107T126 74T161 57T218 51Q289 51 315 76T341 164Q341 191 335 209T313 238T272 253T207 258ZM119 579V664H184V579H119ZM277 579V664H342V579H277Z"  />
<glyph unicode="&#xE5;" horiz-adv-x="455" d="M340 356Q340 390 336 410T320 441T283 455T220 459Q191 459 172 456T140 444T123 423T118 390Q118 388 118 384T119 371H54Q53 381 53 385T53 394Q53 461 91 489T223 517Q273 517 307 510T362 487T392 445T402 379V0H344V47Q329 31 316 21T286 4T251 -5T206 -8Q159 -8 127 0T74 28T46 78T37 156Q37 243 70 279Q87 299 116 307T198 315Q230 315 252 313T289 306T316 292T340 269V356ZM207 258Q176 258 157 253T124 236Q112 225 108 208T103 157Q103 127 108 107T126 74T161 57T218 51Q289 51 315 76T341 164Q341 191 335 209T313 238T272 253T207 258ZM232 607Q257 607 274 623T291 667Q291 694 274 710T231 726Q206 726 189 710T172 666Q172 639 189 623T232 607ZM231 568Q190 568 161 593T132 666Q132 711 161 738T232 765Q273 765 302 740T331 667Q331 622 302 595T231 568Z"  />
<glyph unicode="&#xE6;" horiz-adv-x="746" d="M532 517Q580 517 609 509T659 480Q671 468 679 454T693 421T700 377T702 316Q702 304 702 288T701 242H404V205Q404 153 408 126T423 83Q447 51 523 51Q568 51 593 57T628 78Q634 88 636 103T639 154H701V132Q701 89 693 64T666 24Q645 7 611 0T521 -8Q455 -8 420 8T364 64Q336 23 300 8T205 -8Q116 -8 73 31Q54 49 46 77T37 150Q37 201 46 232T75 284Q93 301 121 308T197 315Q229 315 251 313T290 305T317 290T341 265V373Q341 420 324 438Q312 450 291 454T224 459Q162 459 140 445T118 392Q118 387 118 382T119 371H54Q53 379 53 382T53 391Q53 422 58 441T78 476Q96 497 130 507T227 517Q260 517 283 515T323 507T352 492T375 469Q388 482 402 491T434 506T475 514T532 517ZM205 258Q173 258 154 253T124 237Q113 227 109 209T104 153Q104 121 109 104T125 76Q139 64 160 58T215 51Q256 51 279 59T317 80Q341 101 341 166Q341 195 334 211T315 236Q301 247 275 252T205 258ZM636 302V325Q636 366 632 392T616 432T582 452T524 458Q487 458 464 453T427 433T408 393T403 327V302H636Z"  />
<glyph unicode="&#xE7;" horiz-adv-x="441" d="M340 342V358Q340 387 335 406T317 436T283 452T229 457Q188 457 167 450T134 423Q128 412 124 399T118 364T115 308T114 222Q114 160 119 129T138 81Q160 53 230 53Q266 53 288 58T323 77T340 116T345 183H409V167Q409 118 403 89T381 40Q347 -4 250 -7L209 -65Q218 -64 223 -64T235 -64Q269 -64 292 -80T315 -133Q315 -176 286 -195T209 -215Q167 -215 130 -205V-165Q169 -174 199 -174Q223 -174 236 -165T250 -136Q250 -100 203 -100Q194 -100 183 -100T161 -102V-72L206 -7Q156 -5 125 9T75 51Q58 76 51 120T44 245Q44 299 46 338T55 405T71 451T96 482Q119 502 148 509T229 517Q272 517 297 513T342 499Q401 469 401 360V342H340Z"  />
<glyph unicode="&#xE8;" horiz-adv-x="454" d="M112 242V205Q112 153 116 126T131 83Q155 51 231 51Q276 51 301 57T336 78Q342 88 344 103T347 154H409V132Q409 89 401 64T374 24Q353 7 318 0T228 -8Q165 -8 131 5T74 51Q65 64 59 80T50 119T46 174T44 253Q44 295 45 324T48 375T53 412T63 441Q81 482 122 499T240 517Q288 517 317 509T367 480Q379 468 387 454T401 421T408 377T410 316Q410 304 410 288T409 242H112ZM344 302V325Q344 366 340 392T324 432T290 452T232 458Q195 458 172 453T135 433T116 393T111 327V302H344ZM169 707L280 568H229L91 707H169Z"  />
<glyph unicode="&#xE9;" horiz-adv-x="454" d="M112 242V205Q112 153 116 126T131 83Q155 51 231 51Q276 51 301 57T336 78Q342 88 344 103T347 154H409V132Q409 89 401 64T374 24Q353 7 318 0T228 -8Q165 -8 131 5T74 51Q65 64 59 80T50 119T46 174T44 253Q44 295 45 324T48 375T53 412T63 441Q81 482 122 499T240 517Q288 517 317 509T367 480Q379 468 387 454T401 421T408 377T410 316Q410 304 410 288T409 242H112ZM344 302V325Q344 366 340 392T324 432T290 452T232 458Q195 458 172 453T135 433T116 393T111 327V302H344ZM289 707H367L229 568H178L289 707Z"  />
<glyph unicode="&#xEA;" horiz-adv-x="454" d="M112 242V205Q112 153 116 126T131 83Q155 51 231 51Q276 51 301 57T336 78Q342 88 344 103T347 154H409V132Q409 89 401 64T374 24Q353 7 318 0T228 -8Q165 -8 131 5T74 51Q65 64 59 80T50 119T46 174T44 253Q44 295 45 324T48 375T53 412T63 441Q81 482 122 499T240 517Q288 517 317 509T367 480Q379 468 387 454T401 421T408 377T410 316Q410 304 410 288T409 242H112ZM344 302V325Q344 366 340 392T324 432T290 452T232 458Q195 458 172 453T135 433T116 393T111 327V302H344ZM376 568H311L229 670L147 568H82L195 707H263L376 568Z"  />
<glyph unicode="&#xEB;" horiz-adv-x="454" d="M112 242V205Q112 153 116 126T131 83Q155 51 231 51Q276 51 301 57T336 78Q342 88 344 103T347 154H409V132Q409 89 401 64T374 24Q353 7 318 0T228 -8Q165 -8 131 5T74 51Q65 64 59 80T50 119T46 174T44 253Q44 295 45 324T48 375T53 412T63 441Q81 482 122 499T240 517Q288 517 317 509T367 480Q379 468 387 454T401 421T408 377T410 316Q410 304 410 288T409 242H112ZM344 302V325Q344 366 340 392T324 432T290 452T232 458Q195 458 172 453T135 433T116 393T111 327V302H344ZM119 579V664H184V579H119ZM277 579V664H342V579H277Z"  />
<glyph unicode="&#xEC;" horiz-adv-x="181" d="M58 509H123V0H58V509ZM42 707L153 568H102L-36 707H42Z"  />
<glyph unicode="&#xED;" horiz-adv-x="181" d="M58 509H123V0H58V509ZM142 707H220L82 568H31L142 707Z"  />
<glyph unicode="&#xEE;" horiz-adv-x="181" d="M58 509H123V0H58V509ZM239 568H174L92 670L10 568H-55L58 707H126L239 568Z"  />
<glyph unicode="&#xEF;" horiz-adv-x="181" d="M58 509H123V0H58V509ZM-18 579V664H47V579H-18ZM140 579V664H205V579H140Z"  />
<glyph unicode="&#xF0;" horiz-adv-x="465" d="M342 470Q328 508 303 540T251 599L148 555L130 603L212 638L153 693L198 730L271 664L365 704L384 657L310 626Q347 582 369 546T403 469T417 379T421 256Q421 169 411 118T377 37Q359 13 326 3T236 -8Q202 -8 177 -6T134 3T102 20T77 45Q68 57 62 75T52 118T46 178T44 259Q44 308 47 344T56 405T73 447T99 476Q109 485 121 490T150 499T187 504T238 506Q279 506 302 500T342 470ZM228 448Q189 448 166 441T131 413T116 353T112 249Q112 183 115 144T131 85T167 59T231 53Q273 53 297 59T333 86T349 150T353 265Q353 328 350 364T335 419T297 443T228 448Z"  />
<glyph unicode="&#xF1;" horiz-adv-x="468" d="M55 509H116V438Q132 462 146 477T176 501T212 513T260 517Q357 517 392 465Q404 447 409 420T415 348V0H350V354Q350 411 327 434T247 457Q120 457 120 326V0H55V509ZM85 588Q90 626 115 651T173 677Q187 677 202 673T244 656Q275 642 290 637T316 632Q333 632 344 645T359 682H398Q394 639 371 612T315 585Q298 585 283 589T244 606Q222 617 202 623T170 630Q133 630 121 580H84L85 588Z"  />
<glyph unicode="&#xF2;" horiz-adv-x="465" d="M238 517Q297 517 332 507T384 473Q404 448 412 399T421 268Q421 176 411 122T377 37Q359 13 326 3T236 -8Q202 -8 177 -6T134 3T102 20T77 45Q68 57 62 75T52 118T46 178T44 259Q44 358 56 411T99 487Q109 496 121 501T150 510T187 515T238 517ZM228 457Q189 457 166 450T131 422T116 359T112 249Q112 183 115 144T131 85T167 59T231 53Q273 53 297 59T333 86T349 150T353 265Q353 332 350 370T335 427T297 452T228 457ZM174 707L285 568H234L96 707H174Z"  />
<glyph unicode="&#xF3;" horiz-adv-x="465" d="M238 517Q297 517 332 507T384 473Q404 448 412 399T421 268Q421 176 411 122T377 37Q359 13 326 3T236 -8Q202 -8 177 -6T134 3T102 20T77 45Q68 57 62 75T52 118T46 178T44 259Q44 358 56 411T99 487Q109 496 121 501T150 510T187 515T238 517ZM228 457Q189 457 166 450T131 422T116 359T112 249Q112 183 115 144T131 85T167 59T231 53Q273 53 297 59T333 86T349 150T353 265Q353 332 350 370T335 427T297 452T228 457ZM294 707H372L234 568H183L294 707Z"  />
<glyph unicode="&#xF4;" horiz-adv-x="465" d="M238 517Q297 517 332 507T384 473Q404 448 412 399T421 268Q421 176 411 122T377 37Q359 13 326 3T236 -8Q202 -8 177 -6T134 3T102 20T77 45Q68 57 62 75T52 118T46 178T44 259Q44 358 56 411T99 487Q109 496 121 501T150 510T187 515T238 517ZM228 457Q189 457 166 450T131 422T116 359T112 249Q112 183 115 144T131 85T167 59T231 53Q273 53 297 59T333 86T349 150T353 265Q353 332 350 370T335 427T297 452T228 457ZM381 568H316L234 670L152 568H87L200 707H268L381 568Z"  />
<glyph unicode="&#xF5;" horiz-adv-x="465" d="M238 517Q297 517 332 507T384 473Q404 448 412 399T421 268Q421 176 411 122T377 37Q359 13 326 3T236 -8Q202 -8 177 -6T134 3T102 20T77 45Q68 57 62 75T52 118T46 178T44 259Q44 358 56 411T99 487Q109 496 121 501T150 510T187 515T238 517ZM228 457Q189 457 166 450T131 422T116 359T112 249Q112 183 115 144T131 85T167 59T231 53Q273 53 297 59T333 86T349 150T353 265Q353 332 350 370T335 427T297 452T228 457ZM79 588Q84 626 109 651T167 677Q181 677 196 673T238 656Q269 642 284 637T310 632Q327 632 338 645T353 682H392Q388 639 365 612T309 585Q292 585 277 589T238 606Q216 617 196 623T164 630Q127 630 115 580H78L79 588Z"  />
<glyph unicode="&#xF6;" horiz-adv-x="465" d="M238 517Q297 517 332 507T384 473Q404 448 412 399T421 268Q421 176 411 122T377 37Q359 13 326 3T236 -8Q202 -8 177 -6T134 3T102 20T77 45Q68 57 62 75T52 118T46 178T44 259Q44 358 56 411T99 487Q109 496 121 501T150 510T187 515T238 517ZM228 457Q189 457 166 450T131 422T116 359T112 249Q112 183 115 144T131 85T167 59T231 53Q273 53 297 59T333 86T349 150T353 265Q353 332 350 370T335 427T297 452T228 457ZM124 579V664H189V579H124ZM282 579V664H347V579H282Z"  />
<glyph unicode="&#xF7;" horiz-adv-x="556" d="M498 298V236H58V298H498ZM277 34Q253 34 239 49T224 91Q224 117 239 132T277 148Q302 148 316 133T331 91Q331 66 316 50T277 34ZM277 388Q253 388 239 403T224 445Q224 471 239 486T277 502Q302 502 316 487T331 445Q331 420 316 404T277 388Z"  />
<glyph unicode="&#xF8;" horiz-adv-x="465" d="M238 517Q315 517 353 498L386 551L423 531L386 470Q404 444 412 396T421 268Q421 176 411 122T377 37Q359 13 326 3T236 -8Q190 -8 160 -3T109 14L71 -49L34 -27L77 45Q68 57 62 75T52 118T46 178T44 259Q44 358 56 411T99 487Q109 496 121 501T150 510T187 515T238 517ZM353 265Q353 314 352 347T345 402L144 71Q158 60 178 57T231 53Q273 53 297 59T333 86T349 150T353 265ZM228 457Q189 457 166 450T131 422T116 359T112 249Q112 201 113 169T120 114L320 442Q306 452 284 454T228 457Z"  />
<glyph unicode="&#xF9;" horiz-adv-x="464" d="M117 509V137Q117 94 140 75T214 55Q258 55 282 66T323 104Q333 121 338 151T344 215V509H409V0H348V75Q332 50 318 34T286 9T247 -4T198 -8Q156 -8 127 3T78 41Q66 58 59 80T52 126V509H117ZM172 707L283 568H232L94 707H172Z"  />
<glyph unicode="&#xFA;" horiz-adv-x="464" d="M117 509V137Q117 94 140 75T214 55Q258 55 282 66T323 104Q333 121 338 151T344 215V509H409V0H348V75Q332 50 318 34T286 9T247 -4T198 -8Q156 -8 127 3T78 41Q66 58 59 80T52 126V509H117ZM292 707H370L232 568H181L292 707Z"  />
<glyph unicode="&#xFB;" horiz-adv-x="464" d="M117 509V137Q117 94 140 75T214 55Q258 55 282 66T323 104Q333 121 338 151T344 215V509H409V0H348V75Q332 50 318 34T286 9T247 -4T198 -8Q156 -8 127 3T78 41Q66 58 59 80T52 126V509H117ZM379 568H314L232 670L150 568H85L198 707H266L379 568Z"  />
<glyph unicode="&#xFC;" horiz-adv-x="464" d="M117 509V137Q117 94 140 75T214 55Q258 55 282 66T323 104Q333 121 338 151T344 215V509H409V0H348V75Q332 50 318 34T286 9T247 -4T198 -8Q156 -8 127 3T78 41Q66 58 59 80T52 126V509H117ZM122 579V664H187V579H122ZM280 579V664H345V579H280Z"  />
<glyph unicode="&#xFD;" horiz-adv-x="389" d="M68 -128H76Q103 -128 121 -122T152 -102T173 -63T188 0H158L10 509H76L205 63L314 509H378L250 -17Q241 -52 235 -75T222 -113T210 -138T194 -157Q160 -189 101 -189Q81 -189 68 -186V-128ZM257 707H335L197 568H146L257 707Z"  />
<glyph unicode="&#xFE;" horiz-adv-x="479" d="M57 723H122V445Q135 465 148 479T178 501T215 513T261 517Q362 517 398 466Q408 452 415 435T427 393T433 335T435 256Q435 215 434 187T431 138T424 102T413 72Q396 31 360 12T260 -8Q234 -8 214 -5T178 7T149 28T122 61V-178H57V723ZM366 255Q366 293 365 321T361 369T354 402T342 425Q321 457 249 457Q211 457 187 447T147 416Q139 405 134 393T126 362T122 317T120 254Q120 218 121 192T126 146T136 113T150 89Q180 53 251 53Q321 53 343 86Q349 96 353 109T361 142T365 189T366 255Z"  />
<glyph unicode="&#xFF;" horiz-adv-x="389" d="M68 -128H76Q103 -128 121 -122T152 -102T173 -63T188 0H158L10 509H76L205 63L314 509H378L250 -17Q241 -52 235 -75T222 -113T210 -138T194 -157Q160 -189 101 -189Q81 -189 68 -186V-128ZM87 579V664H152V579H87ZM245 579V664H310V579H245Z"  />
<glyph unicode="&#x131;" horiz-adv-x="181" d="M58 509H123V0H58V509Z"  />
<glyph unicode="&#x152;" horiz-adv-x="918" d="M483 723H872V657H552V409H856V342H552V69H870V0H483V49Q469 30 456 19T425 1T382 -8T320 -10Q271 -10 237 -8T179 0T139 16T109 41Q93 59 83 80T68 138T60 232T58 378Q58 448 61 498T71 582T90 640T120 682Q133 695 150 704T190 719T245 726T322 729Q361 729 388 727T433 717T462 698T483 668V723ZM483 428Q483 491 482 529T476 590T465 622T446 640Q438 645 427 648T398 654T352 656T280 657Q235 657 210 651T171 631Q160 620 152 602T139 556T132 489T130 398Q130 351 130 309T132 234T134 178T138 145Q143 120 152 104T179 79T225 66T296 62Q336 62 364 64T412 70T444 83T463 102Q472 116 477 137T483 185V428Z"  />
<glyph unicode="&#x153;" horiz-adv-x="756" d="M542 517Q590 517 619 509T669 480Q681 468 689 454T703 421T710 377T712 316Q712 304 712 288T711 242H414V205Q414 153 418 126T433 83Q457 51 533 51Q578 51 603 57T638 78Q644 88 646 103T649 154H711V132Q711 89 703 64T676 24Q635 -8 526 -8Q468 -8 434 4T378 48Q369 31 357 21T326 4T283 -5T223 -8Q117 -8 81 40Q61 66 53 113T44 244Q44 328 51 381T79 464T136 506T229 517Q264 517 288 515T330 506T359 489T382 462Q400 492 437 504T542 517ZM349 343Q349 379 345 401T327 436T289 453T225 457Q187 457 165 451T130 423T115 363T111 257Q111 188 114 148T130 86T167 59T232 52Q270 52 293 58T328 81T345 130T349 214V343ZM646 302V325Q646 366 642 392T626 432T592 452T534 458Q497 458 474 453T437 433T418 393T413 327V302H646Z"  />
<glyph unicode="&#x160;" horiz-adv-x="537" d="M106 227Q105 214 105 207T105 190Q105 148 110 123T133 84T183 66T270 61Q326 61 354 67T396 87Q410 101 416 128T422 203Q422 256 414 280T383 316Q376 320 368 322T345 327T308 332T250 338Q213 341 189 344T147 352T119 361T96 376Q82 387 73 400T59 431T51 474T49 534Q49 564 50 587T56 627T66 658T83 684Q95 698 108 707T141 722T185 730T246 733Q291 733 323 731T378 724T416 711T444 690Q466 666 475 630T484 528H422Q421 572 415 598T391 639T340 658T252 663Q209 663 183 658T141 640T121 601T116 536Q116 511 117 495T121 466T129 447T144 432Q155 422 183 416T267 405Q312 402 341 399T389 391T420 380T443 366Q456 355 465 342T479 308T487 261T490 198Q490 133 480 96T447 36Q421 11 381 1T272 -10Q194 -10 150 0T82 37Q70 49 63 63T50 95T43 138T41 195Q41 203 41 209T42 227H106ZM415 918L302 779H234L121 918H186L268 816L350 918H415Z"  />
<glyph unicode="&#x161;" horiz-adv-x="445" d="M332 377V390Q332 430 311 446Q300 454 278 457T204 460Q173 460 154 457T125 445T112 418T108 373Q108 348 111 333T123 308T149 296T194 290L253 286Q309 282 334 276T374 256Q389 242 394 223T400 163Q400 114 396 88T380 44Q363 16 327 4T224 -8Q166 -8 133 -1T79 25Q39 59 39 131Q39 135 39 142T40 158H102V142Q102 115 107 98T124 70T159 55T214 51Q251 51 275 55T312 69T331 98T336 146Q336 172 333 187T320 210T289 221T232 228Q182 231 151 235T101 246Q71 257 58 285T45 370Q45 414 52 442T79 487T130 510T214 517Q269 517 304 511T359 490T386 447T394 377H332ZM367 707L254 568H186L73 707H138L220 605L302 707H367Z"  />
<glyph unicode="&#x178;" horiz-adv-x="512" d="M73 723L256 371L442 723H518L289 300V0H218V300L-4 723H73ZM147 790V875H212V790H147ZM305 790V875H370V790H305Z"  />
<glyph unicode="&#x17D;" horiz-adv-x="515" d="M484 723V655L97 69H489V0H21V69L404 655H35V723H484ZM402 918L289 779H221L108 918H173L255 816L337 918H402Z"  />
<glyph unicode="&#x17E;" horiz-adv-x="374" d="M13 0V66L276 452H38V509H346V447L80 60H342V0H13ZM337 707L224 568H156L43 707H108L190 605L272 707H337Z"  />
<glyph unicode="&#x192;" horiz-adv-x="556" d="M35 -97Q64 -121 97 -121Q115 -121 128 -114T152 -88T169 -42T183 29L237 401H155V464H247Q252 504 257 535T269 592T285 636T305 672Q347 733 427 733Q452 733 482 725V658Q470 663 457 665T431 667Q381 667 355 621T315 464H417V401H305L255 57Q248 12 243 -18T233 -68T221 -102T207 -129Q187 -161 163 -174T101 -187Q83 -187 66 -182T35 -166V-97Z"  />
<glyph unicode="&#x237;" horiz-adv-x="181" d="M123 509V-92Q123 -121 119 -135T102 -161Q79 -184 32 -184Q27 -184 20 -184T7 -182V-127Q11 -128 13 -128T18 -128Q41 -128 49 -119T58 -87V509H123Z"  />
<glyph unicode="&#x2C6;" horiz-adv-x="204" d="M249 568H184L102 670L20 568H-45L68 707H136L249 568Z"  />
<glyph unicode="&#x2DC;" horiz-adv-x="204" d="M-53 588Q-48 626 -23 651T35 677Q49 677 64 673T106 656Q137 642 152 637T178 632Q195 632 206 645T221 682H260Q256 639 233 612T177 585Q160 585 145 589T106 606Q84 617 64 623T32 630Q-5 630 -17 580H-54L-53 588Z"  />
<glyph unicode="&#x2013;" horiz-adv-x="556" d="M0 294H556V239H0V294Z"  />
<glyph unicode="&#x2014;" horiz-adv-x="1000" d="M70 294H930V239H70V294Z"  />
<glyph unicode="&#x2018;" horiz-adv-x="190" d="M56 521V633Q56 687 70 706T122 725H132V685Q111 685 103 674T95 633Q95 628 95 625T96 616H125V521H56Z"  />
<glyph unicode="&#x2019;" horiz-adv-x="190" d="M134 723V611Q134 557 120 538T68 519H58V559Q79 559 87 570T95 611Q95 616 95 619T94 628H65V723H134Z"  />
<glyph unicode="&#x201A;" horiz-adv-x="190" d="M133 95V-17Q133 -71 119 -90T67 -109H57V-69Q78 -69 86 -58T94 -17Q94 -12 94 -9T93 0H64V95H133Z"  />
<glyph unicode="&#x201C;" horiz-adv-x="310" d="M182 521V633Q182 687 196 706T248 725H258V685Q237 685 229 674T221 633Q221 628 221 625T222 616H251V521H182ZM50 521V633Q50 687 64 706T116 725H126V685Q105 685 97 674T89 633Q89 628 89 625T90 616H119V521H50Z"  />
<glyph unicode="&#x201D;" horiz-adv-x="310" d="M128 723V611Q128 557 114 538T62 519H52V559Q73 559 81 570T89 611Q89 616 89 619T88 628H59V723H128ZM260 723V611Q260 557 246 538T194 519H184V559Q205 559 213 570T221 611Q221 616 221 619T220 628H191V723H260Z"  />
<glyph unicode="&#x201E;" horiz-adv-x="310" d="M127 95V-17Q127 -71 113 -90T61 -109H51V-69Q72 -69 80 -58T88 -17Q88 -12 88 -9T87 0H58V95H127ZM259 95V-17Q259 -71 245 -90T193 -109H183V-69Q204 -69 212 -58T220 -17Q220 -12 220 -9T219 0H190V95H259Z"  />
<glyph unicode="&#x2020;" horiz-adv-x="556" d="M100 468V532H244V723H312V532H455V468H312V0H244V468H100Z"  />
<glyph unicode="&#x2021;" horiz-adv-x="556" d="M100 493V557H244V723H312V557H455V493H312V230H456V166H312V0H244V166H101V230H244V493H100Z"  />
<glyph unicode="&#x2022;" horiz-adv-x="278" d="M141 445Q162 445 180 437T213 415T235 383T243 343Q243 321 235 302T213 268T179 246T139 237Q118 237 99 245T66 268T43 301T35 343Q35 364 43 383T66 415T99 437T141 445Z"  />
<glyph unicode="&#x2026;" horiz-adv-x="1000" d="M128 100H206V0H128V100ZM461 100H539V0H461V100ZM794 100H872V0H794V100Z"  />
<glyph unicode="&#x2030;" horiz-adv-x="1000" d="M145 733Q217 733 242 697Q249 687 254 675T262 644T266 600T268 540Q268 487 267 451T262 390T254 350T242 324Q218 286 144 286Q72 286 47 322Q40 332 35 344T27 375T23 419T21 479Q21 531 22 567T27 629T35 669T47 695Q71 733 145 733ZM145 344Q165 344 177 349T197 372T206 423T209 512Q209 567 207 599T197 648T177 670T145 675Q124 675 112 670T92 647T83 596T80 507Q80 452 82 420T92 371T112 349T145 344ZM478 727H532L208 -9H154L478 727ZM545 435Q617 435 642 399Q649 389 654 377T662 346T666 302T668 242Q668 189 667 153T662 92T654 52T642 26Q618 -12 544 -12Q472 -12 447 24Q440 34 435 46T427 77T423 121T421 181Q421 233 422 269T427 331T435 371T447 397Q471 435 545 435ZM545 46Q565 46 577 51T597 74T606 125T609 214Q609 269 607 301T597 350T577 372T545 377Q524 377 512 372T492 349T483 298T480 209Q480 154 482 122T492 73T512 51T545 46ZM858 435Q930 435 955 399Q962 389 967 377T975 346T979 302T981 242Q981 189 980 153T975 92T967 52T955 26Q931 -12 857 -12Q785 -12 760 24Q753 34 748 46T740 77T736 121T734 181Q734 233 735 269T740 331T748 371T760 397Q784 435 858 435ZM858 46Q878 46 890 51T910 74T919 125T922 214Q922 269 920 301T910 350T890 372T858 377Q837 377 825 372T805 349T796 298T793 209Q793 154 795 122T805 73T825 51T858 46Z"  />
<glyph unicode="&#x2039;" horiz-adv-x="278" d="M151 435H222L128 253L221 76H149L55 254L151 435Z"  />
<glyph unicode="&#x203A;" horiz-adv-x="278" d="M127 76H56L150 258L57 435H129L223 257L127 76Z"  />
<glyph unicode="&#x20AC;" horiz-adv-x="556" d="M126 313V403H45L62 467H126V540Q126 636 168 684T299 733H367Q418 733 451 719T508 673L481 608Q458 641 426 653T359 665H306Q247 665 222 635T197 541V467H455L438 403H197V313H417L400 249H197V189Q197 120 227 90T321 59H368Q394 59 423 69T490 119V32Q461 6 432 -3T373 -12H302Q223 -12 175 36T126 176V249H45L62 313H126Z"  />
<glyph unicode="&#x2122;" horiz-adv-x="751" d="M248 723V664H156V340H93V664H2V723H248ZM292 723H394L487 415L579 723H679V340H621V669L519 340H452L349 669V340H292V723Z"  />

</font>
</defs>
</svg>
