<?xml  version="1.0" encoding="UTF-8"?>
<!DOCTYPE svg PUBLIC "-//W3C//DTD SVG 1.0//EN" "http://www.w3.org/TR/2001/REC-SVG-20010904/DTD/svg10.dtd" >
<svg xmlns="http://www.w3.org/2000/svg" >
<metadata>
<version>1.0</version>
<id><![CDATA[Eurostile LT W01 Bold Condensed]]></id>
<vendor>Monotype Imaging Inc.</vendor>
<credits>
<name>Fonts.com WebFonts</name>
<URL>http://webfonts.fonts.com</URL>
<role>Home of the Web fonts</role>
</credits>
<license>
<URL>http://webfonts.fonts.com/Legal</URL>
</license>
<copyright><![CDATA[Copyright © 2007 - 2010 Linotype GmbH, www.linotype.com. All rights reserved. This font software may not be reproduced, modified, disclosed or transferred without the express written approval of Linotype GmbH. Eurostile is a trademark of Linotype GmbH and may be registered in certain jurisdictions. This typeface is original artwork of Aldo Novarese. The design may be protected in certain jurisdictions.]]></copyright>
<trademark><![CDATA[Eurostile is a trademark of Linotype GmbH and may be registered in certain jurisdictions.]]></trademark>
<licensee>
<name></name>
</licensee>
</metadata>
<defs >
<font horiz-adv-x="442" id="d7f323cf-6d25-45b4-b2b4-289c6701425b">
<font-face font-family="" panose-1="2 11 8 6 3 5 2 6 2 4" ascent="964" descent="-277" units-per-em="1000" alphabetic="0">
</font-face>
<missing-glyph horiz-adv-x="250" />

<glyph unicode="&#xA;" />
<glyph unicode="&#xD;" />
<glyph unicode=" " horiz-adv-x="250" />
<glyph unicode="!" horiz-adv-x="278" d="M64 723H214V227H64V723ZM64 157H214V0H64V157Z"  />
<glyph unicode="&quot;" horiz-adv-x="350" d="M151 723V593L118 424H60L29 593V723H151ZM321 723V593L288 424H230L199 593V723H321Z"  />
<glyph unicode="#" horiz-adv-x="500" d="M487 431H410L381 298H454V189H357L317 0H207L247 189H165L125 0H15L55 189H9V298H79L108 431H42V541H132L171 723H281L242 541H324L363 723H473L434 541H487V431ZM189 298H271L300 431H218L189 298Z"  />
<glyph unicode="$" horiz-adv-x="500" d="M164 235V166Q164 139 175 125Q183 120 188 119T209 117V321L189 326Q141 338 111 352T63 387T40 439T33 515Q33 558 36 588T45 640T63 676T92 701Q114 715 143 721T219 727V813H287V727Q342 725 372 720T419 701Q431 692 439 682T451 655T457 615T459 554V515H328V572Q328 598 320 606T284 614V434L314 425Q362 410 392 396T438 360T459 306T465 224Q465 186 463 158T455 109T440 73T418 44Q398 24 368 16T277 3V-103H205V3H189Q147 3 112 17T59 57Q53 65 48 77T40 102T34 128T31 154V235H164ZM221 614Q192 614 182 601Q177 595 176 581T174 537Q174 515 175 501T182 477T197 463T221 453V614ZM274 116Q288 116 298 118T312 126Q315 129 316 134T319 149T320 174T321 214Q321 237 320 250T314 273T300 287T274 300V116Z"  />
<glyph unicode="%" horiz-adv-x="870" d="M28 611Q28 677 64 705T186 733Q235 733 265 724T314 692Q330 674 335 647T340 570V417Q340 376 332 349T305 304T255 280T177 273Q98 273 63 301T28 393V611ZM228 591Q228 621 186 621Q140 621 140 589V415Q140 394 149 386T184 378Q211 378 219 386T228 420V591ZM659 731L314 -9H211L556 731H659ZM528 326Q528 392 564 420T686 448Q735 448 765 439T814 407Q830 389 835 362T840 285V132Q840 91 832 64T805 19T755 -5T677 -12Q598 -12 563 16T528 108V326ZM728 306Q728 336 686 336Q640 336 640 304V130Q640 109 649 101T684 93Q711 93 719 101T728 135V306Z"  />
<glyph unicode="&amp;" horiz-adv-x="556" d="M448 -8Q429 11 420 32Q408 20 396 12T366 0T320 -5T252 -7Q210 -7 182 -6T133 0T99 13T73 33Q54 53 46 76T37 134V280Q37 342 64 373T149 412Q126 441 112 463T89 505T78 542T74 581Q74 664 112 699Q131 717 158 724T239 731Q311 731 347 724T405 699Q426 681 434 653T443 573Q443 571 443 557T442 530H304V575Q304 598 294 606T258 615Q236 615 228 607T219 579Q219 565 222 555T233 533L344 377V444H471V197L558 74L448 -8ZM227 299Q222 304 218 304Q205 304 197 293Q194 289 192 285T189 274T188 255T187 223Q187 173 188 155T194 128Q204 111 244 111Q270 111 286 112T311 118T323 130T326 150Q326 158 325 160T319 170L227 299Z"  />
<glyph unicode="&apos;" horiz-adv-x="200" d="M161 723V593L128 424H70L39 593V723H161Z"  />
<glyph unicode="(" horiz-adv-x="250" d="M41 529Q41 579 49 617T79 682T136 721T226 735H243V618Q210 616 202 601T193 551V172Q193 137 202 122T243 105V-12H226Q169 -11 133 2T77 40T49 103T41 194V529Z"  />
<glyph unicode=")" horiz-adv-x="250" d="M209 194Q209 144 201 106T171 41T114 2T24 -12H7V105Q40 107 48 122T57 172V551Q57 586 48 601T7 618V735H24Q81 734 117 721T173 683T201 620T209 529V194Z"  />
<glyph unicode="*" horiz-adv-x="460" d="M23 442V551L166 539L79 685L184 734L231 596L278 734L379 685L298 539L437 551V442L298 454L384 311L280 265L231 404L184 265L84 311L162 454L23 442ZM169 456L231 409L292 456V535L231 590L169 537V456Z"  />
<glyph unicode="+" horiz-adv-x="500" d="M183 336V514H316V336H463V208H316V30H183V208H37V336H183Z"  />
<glyph unicode="&#x2c;" horiz-adv-x="250" d="M47 -83Q80 -78 93 -64T106 -17Q106 -12 106 -10T105 0H45V155H191V-10Q191 -161 47 -162V-83Z"  />
<glyph unicode="-" horiz-adv-x="333" d="M35 333H297V201H35V333Z"  />
<glyph unicode="." horiz-adv-x="250" d="M44 157H192V0H44V157Z"  />
<glyph unicode="/" horiz-adv-x="296" d="M329 733L72 -12H-37L220 733H329Z"  />
<glyph unicode="0" horiz-adv-x="500" d="M458 170Q458 116 449 81T415 25T348 -4T242 -12Q175 -12 137 -2T76 35Q42 72 42 130V575Q42 649 81 688Q105 711 146 722T254 733Q314 733 353 724T416 693T448 633T458 537V170ZM208 146Q208 125 216 118T246 110Q274 110 283 118T292 150V589Q292 603 283 609T251 615Q226 615 217 609T208 585V146Z"  />
<glyph unicode="1" horiz-adv-x="500" d="M380 0H213V598L104 436L15 523L169 723H380V0Z"  />
<glyph unicode="2" horiz-adv-x="500" d="M55 458V581Q55 616 64 645T90 691Q113 714 150 723T254 733Q315 733 353 723T411 693Q421 683 427 671T437 640T442 597T444 535Q444 487 444 457T442 407T437 375T429 352Q423 340 415 330T395 311T363 291T316 268Q278 251 257 238T224 211T210 176T207 125H439V0H48V140Q48 183 54 214T77 269T120 314T188 354L244 382Q255 387 263 395T274 411Q279 426 279 529Q279 557 278 573T274 598T264 609T245 612Q221 612 215 599Q212 592 211 569T209 513Q209 506 209 493T211 458H55Z"  />
<glyph unicode="3" horiz-adv-x="500" d="M193 241V162Q193 133 202 123T236 112Q267 112 275 126Q280 134 282 159T284 225Q284 263 280 282T265 306Q257 310 235 312T186 315Q177 315 168 315T148 313V432H160Q207 432 230 435T261 446Q277 462 277 533Q277 560 276 576T271 601T258 611T237 614Q212 614 204 606T196 574V513H44Q42 529 42 537T42 557Q42 604 48 633T69 681Q90 707 132 720T241 733Q298 733 335 724T396 696Q419 677 428 649T437 566Q437 513 434 480T420 426T390 397T341 382Q367 378 384 371T414 350Q423 340 429 329T438 303T443 268T445 218Q445 180 444 154T441 109T434 78T422 54Q383 -11 227 -11Q155 -11 116 2T56 48Q45 64 41 88T37 156V241H193Z"  />
<glyph unicode="4" horiz-adv-x="500" d="M431 723V270H470V147H431V0H270V147H21V321L179 723H431ZM270 272V633L148 272H270Z"  />
<glyph unicode="5" horiz-adv-x="500" d="M205 219V153Q205 130 213 121T242 111Q267 111 274 121Q276 124 278 131T280 155V352Q280 375 273 382T240 389Q209 389 202 374Q200 369 200 360T198 330H58V723H417V601H206V457Q219 472 230 481T254 495T281 503T315 505Q355 505 383 494T425 463Q441 437 444 406Q445 399 446 380T447 335T448 282T449 231Q449 183 448 151T443 98T432 64T415 38Q392 12 350 1T234 -11Q174 -11 140 -2T83 31Q65 50 57 81T49 167Q49 181 49 192T51 219H205Z"  />
<glyph unicode="6" horiz-adv-x="500" d="M294 531V554Q294 576 293 589T288 609T275 618T253 620Q209 620 209 593V411Q228 436 253 447T319 458Q379 458 410 439T451 378Q452 373 453 368T454 356T455 337T456 308V160Q456 107 447 74T413 22T343 -4T227 -11Q168 -11 134 -2T76 30Q45 61 45 107V598Q45 662 83 697Q106 717 142 725T244 733Q310 733 348 726T408 702Q418 694 424 686T434 665T439 635T441 593V531H294ZM295 299Q295 326 287 335T254 345Q209 345 209 313V144Q209 124 218 116T250 108Q278 108 286 116T295 152V299Z"  />
<glyph unicode="7" horiz-adv-x="500" d="M419 723V601L264 0H96L255 601H51V723H419Z"  />
<glyph unicode="8" horiz-adv-x="500" d="M140 376Q113 380 95 391T66 422T49 471T44 541Q44 596 54 633T87 692T148 724T242 734Q307 734 349 724T416 691Q439 671 447 640T456 547Q456 499 452 469T436 419T407 391T360 374Q388 367 406 357T436 328T453 279T458 200Q458 164 456 139T449 94T436 61T415 35Q364 -12 248 -12Q190 -12 150 -1T83 34T45 97T33 191Q33 238 38 270T55 324T88 357T140 376ZM202 456Q202 436 212 429T252 422Q298 422 298 455V585Q298 604 287 611T250 619Q223 619 213 612T202 585V456ZM292 278Q292 296 282 304T246 312Q200 312 200 281V139Q200 120 209 113T242 105Q271 105 281 114T292 146V278Z"  />
<glyph unicode="9" horiz-adv-x="500" d="M197 218V152Q197 128 205 120T236 111Q268 111 278 119T289 154V344Q271 315 247 304T178 292Q136 292 106 301T61 328Q44 346 38 382T32 489Q32 534 34 567T40 625T50 665T67 692Q87 715 126 725T234 735Q299 735 341 729T409 706T445 663T455 595V233Q455 164 447 116T421 44Q410 29 394 19T355 2T299 -8T224 -11Q156 -11 121 -3T66 27Q39 55 39 115V218H197ZM198 433Q198 403 242 403Q292 403 292 437V585Q292 604 283 610T246 617Q220 617 209 610T198 583V433Z"  />
<glyph unicode=":" horiz-adv-x="250" d="M51 157H199V0H51V157ZM51 512H199V356H51V512Z"  />
<glyph unicode=";" horiz-adv-x="250" d="M51 512H199V356H51V512ZM53 -83Q86 -78 99 -64T112 -17Q112 -12 112 -10T111 0H51V155H197V-10Q197 -161 53 -162V-83Z"  />
<glyph unicode="&lt;" horiz-adv-x="500" d="M37 316L457 495V362L210 271L457 174V42L37 220V316Z"  />
<glyph unicode="=" horiz-adv-x="500" d="M456 443V323H44V443H456ZM456 226V106H44V226H456Z"  />
<glyph unicode="&gt;" horiz-adv-x="500" d="M463 220L43 41V174L290 265L43 362V494L463 316V220Z"  />
<glyph unicode="?" horiz-adv-x="426" d="M8 512Q7 523 7 532T7 546Q7 593 14 632T32 689Q42 704 55 714T89 730T137 738T203 741Q281 741 323 729T383 688Q396 667 402 628T408 522Q408 487 405 462T394 418T373 386T340 359L305 337Q293 329 286 323T276 309T271 289T270 256V227H117V299Q117 329 119 346T131 379T163 410T223 453Q236 462 241 481T246 541Q246 568 245 584T240 609T228 620T207 623Q181 623 173 616T164 587V512H8ZM115 157H270V0H115V157Z"  />
<glyph unicode="@" horiz-adv-x="777" d="M378 426Q413 426 434 411T464 360L473 413H585L544 159Q542 147 541 138T540 120Q540 92 559 92Q572 92 584 103T607 137T624 197T631 284Q631 402 583 459T421 517Q354 517 307 493T229 424T184 314T170 167Q170 107 182 60T223 -21T298 -71T413 -89Q455 -89 498 -83T602 -59V-162Q576 -169 552 -174T504 -182T454 -188T399 -190Q219 -190 130 -99T40 167Q40 272 62 355T132 497T252 587T426 619Q582 619 662 535T742 287Q742 213 725 159T679 70T616 17T544 0Q502 0 482 20T456 74Q440 33 413 17T348 0Q286 0 256 34T226 134Q226 154 226 179T232 237Q239 292 252 328T284 386T326 417T378 426ZM408 319Q384 319 373 301T354 231Q353 224 352 214T351 195T350 177T349 164Q349 139 357 125T386 110Q409 110 420 127T437 184L443 239Q444 247 444 255T445 268Q445 289 438 304T408 319Z"  />
<glyph unicode="A" horiz-adv-x="509" d="M388 723L498 0H328L306 175H199L179 0H11L118 723H388ZM292 297L250 623L212 297H292Z"  />
<glyph unicode="B" horiz-adv-x="532" d="M296 723Q348 723 386 716T441 695Q465 677 474 643T484 540Q484 498 479 470T462 423T429 394T376 376Q410 370 432 359T468 328T486 275T492 196Q492 108 471 64T399 6Q382 1 355 1T295 0H55V723H296ZM220 428Q228 427 236 427T250 427Q274 427 287 429T307 441T315 472T317 530Q317 555 316 569T307 591T287 599T249 601Q244 601 236 601T220 600V428ZM220 123Q231 122 238 122T253 122Q277 122 291 123T312 132T320 153T322 192Q322 202 322 217T321 247T320 273T319 286Q315 303 304 308T257 313Q242 313 233 313T220 312V123Z"  />
<glyph unicode="C" horiz-adv-x="502" d="M306 477Q306 492 306 508T305 540T304 566T303 581Q299 605 265 605Q223 605 223 575V155Q223 132 231 125T264 117Q289 117 298 126T307 162V267H461V217Q461 176 460 146T454 95T443 58T425 31Q403 8 363 -2T256 -12Q182 -12 141 -1T77 37Q64 54 56 81T47 135V556Q47 651 84 691Q106 716 143 725T252 735Q343 735 389 719T451 667Q456 653 459 622T462 537Q462 528 462 513T461 477H306Z"  />
<glyph unicode="D" horiz-adv-x="521" d="M55 723H268Q323 723 362 714T426 679T462 611T474 500V280Q474 195 466 141T438 55T383 12T292 0H55V723ZM222 130H258Q279 130 288 134T302 153Q303 156 303 162T304 183T305 226T305 299V501Q305 537 304 557T297 586T279 597T246 599Q243 599 237 599T222 598V130Z"  />
<glyph unicode="E" horiz-adv-x="410" d="M55 723H374V596H222V432H363V307H222V131H386V0H55V723Z"  />
<glyph unicode="F" horiz-adv-x="392" d="M55 723H370V594H222V411H356V281H222V0H55V723Z"  />
<glyph unicode="G" horiz-adv-x="523" d="M310 491V564Q310 590 301 599T262 608Q216 608 216 572V147Q216 130 227 124T272 118Q299 118 308 125T318 153V258H267V390H478V156Q478 106 468 74T434 22T366 -4T257 -12Q186 -12 145 -1T81 38Q65 56 56 89T47 162V577Q47 609 58 641T86 690Q110 715 148 725T252 735Q323 735 364 726T431 696Q455 676 465 639T476 534V491H310Z"  />
<glyph unicode="H" horiz-adv-x="538" d="M55 723H222V441H316V723H483V0H316V311H222V0H55V723Z"  />
<glyph unicode="I" horiz-adv-x="281" d="M57 723H224V0H57V723Z"  />
<glyph unicode="J" horiz-adv-x="433" d="M163 260V150Q163 133 168 127T188 120Q205 120 210 128T215 165V723H384V146Q384 103 374 74T340 26T280 -1T188 -10Q97 -10 58 18T18 112V260H163Z"  />
<glyph unicode="K" horiz-adv-x="516" d="M55 723H222V416L331 723H506L364 379L524 0H348L222 323V0H55V723Z"  />
<glyph unicode="L" horiz-adv-x="392" d="M55 723H222V133H381V0H55V723Z"  />
<glyph unicode="M" horiz-adv-x="789" d="M53 723H319L393 157L479 723H736V0H583L592 610L482 0H296L201 612V0H53V723Z"  />
<glyph unicode="N" horiz-adv-x="618" d="M53 723H296L419 160L407 723H565V0H322L198 566L208 0H53V723Z"  />
<glyph unicode="O" horiz-adv-x="522" d="M47 578Q47 610 57 640T86 691Q98 703 112 711T145 725T188 732T245 735Q326 735 371 724T441 687Q475 650 475 583V199Q475 136 466 95T431 30T363 -3T253 -12Q182 -12 143 -1T79 40Q47 78 47 142V578ZM304 575Q304 595 295 603T262 611Q237 611 228 603T218 576V152Q218 132 227 124T259 116Q285 116 294 125T304 160V575Z"  />
<glyph unicode="P" horiz-adv-x="508" d="M55 723H292Q389 723 432 683Q445 671 454 656T468 619T475 569T478 501Q478 439 476 397T467 325T451 278T426 246Q402 225 364 217T287 209H222V0H55V723ZM222 336H262Q288 336 297 348T307 395V571Q307 578 303 584T294 592Q288 594 279 595T241 596H222V336Z"  />
<glyph unicode="Q" horiz-adv-x="522" d="M402 10Q376 -2 340 -7T253 -12Q182 -12 143 -1T79 40Q47 78 47 142V578Q47 610 58 642T86 692Q98 704 112 712T145 725T188 733T245 735Q326 735 371 724T441 687Q475 650 475 583V199Q475 121 459 76L498 23L442 -46L402 10ZM260 116Q302 116 308 147L231 258L282 325L309 287V575Q309 611 264 611Q218 611 218 576V152Q218 132 227 124T260 116Z"  />
<glyph unicode="R" horiz-adv-x="535" d="M55 723H279Q403 723 450 677Q461 666 468 653T479 619T486 570T488 502Q488 452 484 420T466 368T431 336T373 316Q406 308 427 299T461 276T478 242T483 190V0H320V197Q320 214 317 224T303 241T273 249T220 251V0H55V723ZM220 371H237Q293 371 307 386Q311 390 313 395T316 410T318 433T319 469Q319 506 319 528T317 562T312 579T303 589Q297 594 281 596T243 599Q240 599 235 599T220 598V371Z"  />
<glyph unicode="S" horiz-adv-x="489" d="M189 237V206Q189 185 189 172T190 150T192 137T195 130Q203 116 238 116Q271 116 281 129Q283 132 284 135T286 144T287 160T288 189Q288 214 288 229T287 254T284 267T279 277Q274 285 260 291T216 305L158 320Q120 330 97 343T59 377T40 431T35 512Q35 551 35 576T38 619T44 648T54 671Q73 705 112 719T226 734Q291 734 332 727T397 702T430 651T439 566Q439 551 439 536T438 505H290V524Q290 555 289 573T284 600T270 611T246 613Q228 613 218 611T202 601T196 574T195 524Q195 500 198 486T211 463T243 446T303 429Q341 420 369 408T413 380Q424 369 432 355T445 319T452 270T454 203Q454 171 452 147T446 103T434 69T417 42Q404 27 389 17T354 0T308 -9T247 -12Q171 -12 127 2T61 48Q50 64 43 102T35 186Q35 195 35 205T38 237H189Z"  />
<glyph unicode="T" horiz-adv-x="414" d="M406 723V591H290V0H123V591H8V723H406Z"  />
<glyph unicode="U" horiz-adv-x="518" d="M217 723V162Q217 138 226 129T259 119Q282 119 291 130T301 169V723H469V180Q469 78 433 38Q410 12 368 1T249 -11Q186 -11 150 -1T88 36Q75 49 68 62T56 90T51 124T49 166V723H217Z"  />
<glyph unicode="V" horiz-adv-x="493" d="M180 723L246 87L312 723H481L385 0H106L10 723H180Z"  />
<glyph unicode="W" horiz-adv-x="794" d="M171 723L220 109L285 723H509L579 111L623 723H782L701 0H467L396 600L332 0H98L11 723H171Z"  />
<glyph unicode="X" horiz-adv-x="479" d="M180 723L236 421L295 723H458L376 382L467 0H298L236 323L177 0H9L97 377L16 723H180Z"  />
<glyph unicode="Y" horiz-adv-x="443" d="M140 0V234L-11 723H154L222 398L288 723H453L307 243V0H140Z"  />
<glyph unicode="Z" horiz-adv-x="400" d="M16 0V126L202 598H34V723H379V604L190 128H379V0H16Z"  />
<glyph unicode="[" horiz-adv-x="250" d="M46 723H240V608H189V115H240V0H46V723Z"  />
<glyph unicode="\" horiz-adv-x="250" d="M0 731H99L250 -9H151L0 731Z"  />
<glyph unicode="]" horiz-adv-x="250" d="M204 -1H10V114H61V607H10V722H204V-1Z"  />
<glyph unicode="^" horiz-adv-x="400" d="M-13 333L148 723H254L413 333H283L199 561L113 333H-13Z"  />
<glyph unicode="_" horiz-adv-x="500" d="M500 -125H0V-75H500V-125Z"  />
<glyph unicode="`" horiz-adv-x="241" d="M204 577H103L-45 723H110L204 577Z"  />
<glyph unicode="a" horiz-adv-x="444" d="M251 393Q251 415 214 415Q177 415 177 391V361H50V429Q50 478 85 498T206 518Q263 518 300 512T360 490T391 448T400 381V0H258V44Q235 14 212 3T152 -9Q117 -9 94 -1T56 27T35 78T28 156Q28 199 34 229T56 278T95 305T155 313Q184 313 206 306T251 281V393ZM215 222Q204 222 196 219T185 211Q181 206 180 194T179 156Q179 124 186 114T216 104Q237 104 245 115Q247 118 248 121T250 131T251 147T251 176Q251 204 244 213T215 222Z"  />
<glyph unicode="b" horiz-adv-x="460" d="M48 723H197V465Q218 493 243 505T306 518Q418 518 418 411V143Q418 97 413 69T391 24Q358 -9 295 -9Q256 -9 233 5T190 54V0H48V723ZM266 376Q266 401 232 401Q197 401 197 375V139Q197 110 232 110Q253 110 259 117T266 148V376Z"  />
<glyph unicode="c" horiz-adv-x="438" d="M267 332V368Q267 387 260 395T234 403Q214 403 206 396T198 372V146Q198 124 205 115T231 106Q252 106 260 117T268 159V198H407V156Q407 127 406 107T402 72T393 47T378 29Q358 10 320 1T229 -9Q113 -9 75 35Q55 59 47 101T38 225Q38 273 39 307T42 367T47 410T55 441Q83 518 210 518Q274 518 309 510T365 487Q384 473 392 454T400 391V332H267Z"  />
<glyph unicode="d" horiz-adv-x="460" d="M270 0V54Q252 20 228 6T166 -9Q131 -9 107 -2T68 23Q51 43 47 69T42 143V411Q42 466 69 492T153 518Q190 518 216 506T263 465V723H412V0H270ZM263 376Q263 388 254 394T227 401Q194 401 194 376V148Q194 127 200 119T224 110Q247 110 255 116T263 139V376Z"  />
<glyph unicode="e" horiz-adv-x="462" d="M192 219V133Q192 115 201 108T232 101Q261 101 269 108T278 140V161H426Q426 133 425 114T422 81T415 58T404 40Q384 14 344 3T235 -9Q182 -9 145 -1T84 25T49 71T38 139V345Q38 392 45 422T70 472Q90 495 130 506T229 518Q290 518 334 506T398 471Q413 454 419 433T425 376V219H192ZM274 315V387Q274 402 265 408T232 415Q192 415 192 384V315H274Z"  />
<glyph unicode="f" horiz-adv-x="288" d="M18 395V509H61V609Q61 666 101 698T212 730Q229 730 247 729T280 724V618Q275 619 270 619T260 620Q210 620 210 579V509H281V395H210V0H61V395H18Z"  />
<glyph unicode="g" horiz-adv-x="460" d="M188 -50V-57Q188 -73 195 -78T224 -84Q244 -84 252 -79T263 -62Q264 -61 264 42Q241 16 218 5T162 -6Q44 -6 44 131V356Q44 444 71 481T161 518Q198 518 225 505T276 463V509H414V-37Q414 -79 404 -108T372 -156T315 -182T228 -190Q181 -190 149 -184T97 -163T69 -126T60 -67V-50H188ZM265 375Q265 392 257 398T229 405Q210 405 202 397T194 369V135Q194 117 202 110T231 102Q250 102 257 110T265 138V375Z"  />
<glyph unicode="h" horiz-adv-x="464" d="M48 723H197V456Q216 489 240 503T305 518Q338 518 360 509T399 478Q410 464 415 447T420 401V0H271V360Q271 380 263 389T235 398Q197 398 197 368V0H48V723Z"  />
<glyph unicode="i" horiz-adv-x="241" d="M46 723H195V605H46V723ZM46 509H195V0H46V509Z"  />
<glyph unicode="j" horiz-adv-x="241" d="M195 605H46V723H195V605ZM1 -72H12Q31 -71 38 -58T46 -11V509H195V-56Q195 -129 165 -159T62 -190Q51 -190 33 -189T1 -185V-72Z"  />
<glyph unicode="k" horiz-adv-x="431" d="M48 723H197V323L266 509H412L336 286L436 0H278L197 253V0H48V723Z"  />
<glyph unicode="l" horiz-adv-x="245" d="M48 723H197V0H48V723Z"  />
<glyph unicode="m" horiz-adv-x="685" d="M46 509H191V459Q216 492 241 505T309 518Q348 518 371 503T409 453Q431 487 459 502T527 518Q586 518 613 488T641 406V0H492V361Q492 381 483 389T455 398Q437 398 428 391T418 363V0H269V359Q269 382 262 390T234 398Q214 398 205 390T195 362V0H46V509Z"  />
<glyph unicode="n" horiz-adv-x="462" d="M46 509H191V458Q226 518 303 518Q371 518 400 474Q411 458 414 441T418 391V0H269V354Q269 380 262 389T233 398Q195 398 195 369V0H46V509Z"  />
<glyph unicode="o" horiz-adv-x="465" d="M38 341Q38 392 47 426T79 480T139 509T232 518Q298 518 338 506T400 468Q407 458 412 448T421 424T425 392T427 350V166Q427 72 392 36Q381 24 366 15T331 1T284 -6T221 -9Q154 -9 118 4T62 50Q38 89 38 179V341ZM273 366Q273 392 266 400T232 408Q210 408 201 402T192 380V146Q192 123 200 114T229 105Q255 105 264 115T273 155V366Z"  />
<glyph unicode="p" horiz-adv-x="458" d="M46 509H187V454Q207 488 233 503T301 518Q370 518 398 469Q406 455 411 426T416 362V120Q416 51 389 21T298 -9Q260 -9 236 4T194 48V-189H46V509ZM264 360Q264 383 257 392T231 401Q210 401 203 392T195 354V140Q195 110 230 110Q250 110 257 117T264 148V360Z"  />
<glyph unicode="q" horiz-adv-x="458" d="M264 -189V48Q248 19 224 5T161 -9Q98 -9 70 21T42 121V361Q42 445 69 481T158 518Q200 518 225 504T271 454V509H412V-189H264ZM263 366Q263 386 256 393T228 401Q208 401 201 393T194 360V148Q194 125 201 118T228 110Q263 110 263 140V366Z"  />
<glyph unicode="r" horiz-adv-x="392" d="M46 509H191V458Q211 518 284 518Q347 518 365 493Q369 487 372 480T376 461T378 431T379 385Q379 343 376 303H257V368Q257 388 252 394T229 400Q195 400 195 369V0H46V509Z"  />
<glyph unicode="s" horiz-adv-x="418" d="M171 156V129Q171 98 207 98Q227 98 234 107T241 141Q241 157 240 166T233 180T218 189T190 195Q160 200 141 204T108 212T86 221T70 232Q59 241 53 251T42 276T36 311T34 358Q34 408 40 435T63 480Q82 502 111 510T199 518Q263 518 295 512T345 492Q362 478 369 454T376 388V360H246V388Q246 415 214 415Q193 415 186 408T179 375Q179 361 180 353T188 339T205 331T235 324Q280 316 302 311T340 298Q366 286 377 257T388 168Q388 115 380 81T352 26T296 -1T206 -9Q155 -9 122 -3T70 18T42 60T34 125Q34 132 34 138T36 156H171Z"  />
<glyph unicode="t" horiz-adv-x="298" d="M12 509H56V642H206V509H290V395H206V138Q206 121 214 113T242 105Q247 105 259 106T281 109V-4Q242 -8 222 -8T183 -9Q56 -9 56 94V395H12V509Z"  />
<glyph unicode="u" horiz-adv-x="462" d="M416 509V0H267V61Q253 24 228 8T159 -9Q103 -9 74 16T44 92V509H193V150Q193 130 201 121T229 112Q267 112 267 156V509H416Z"  />
<glyph unicode="v" horiz-adv-x="409" d="M159 509L204 89L251 509H398L321 0H85L11 509H159Z"  />
<glyph unicode="w" horiz-adv-x="700" d="M614 0H394L350 405L310 0H91L13 509H153L204 95L245 509H456L500 95L548 509H687L614 0Z"  />
<glyph unicode="x" horiz-adv-x="403" d="M161 509L203 298L243 509H387L324 272L397 0H247L199 222L150 0H2L77 276L16 509H161Z"  />
<glyph unicode="y" horiz-adv-x="409" d="M160 509L203 91L250 509H398L317 -47Q306 -125 270 -157T159 -190Q133 -190 113 -187T83 -176V-76Q102 -83 125 -83Q141 -83 150 -80T166 -68T175 -43T181 0H82L11 509H160Z"  />
<glyph unicode="z" horiz-adv-x="343" d="M18 0V111L161 405H27V509H314V387L177 109H321V0H18Z"  />
<glyph unicode="{" horiz-adv-x="250" d="M4 347Q23 350 35 356T53 372T62 391T64 410Q64 426 63 446T62 488T60 529T59 565Q59 611 69 641T101 690T157 715T241 723V598Q213 598 202 585T191 528Q191 515 191 499T192 466T193 432T194 402Q194 385 192 370T182 340T158 315T114 298Q163 290 178 264T194 195Q194 179 193 146T191 80Q191 41 201 20T241 -2V-125Q185 -125 150 -115T95 -84T68 -35T60 32Q60 80 62 115T64 189Q64 210 53 228T4 252V347Z"  />
<glyph unicode="|" horiz-adv-x="250" d="M195 740V-90H54V740H195Z"  />
<glyph unicode="}" horiz-adv-x="250" d="M246 251Q226 248 215 242T197 226T188 207T186 188Q186 171 187 151T188 110T190 69T191 33Q191 -14 181 -44T149 -93T93 -118T9 -125V0Q37 0 48 13T59 70Q59 83 59 99T58 132T57 165T56 196Q56 212 58 228T68 258T92 283T136 300Q87 308 72 334T56 403Q56 419 57 452T59 518Q59 557 49 578T9 600V723Q64 723 99 713T155 682T182 633T190 566Q190 518 188 483T186 409Q186 388 197 370T246 346V251Z"  />
<glyph unicode="~" horiz-adv-x="500" d="M338 315Q361 315 369 335T378 390H470Q470 330 461 290T435 226T395 191T343 180Q314 180 289 191T241 217T198 243T161 255Q139 255 131 236T122 181H30Q30 241 39 281T66 345T106 380T157 391Q186 391 213 379T264 353T307 327T338 315Z"  />
<glyph unicode="&#xA0;" horiz-adv-x="250" />
<glyph unicode="&#xA1;" horiz-adv-x="278" d="M214 -189H64V282H214V-189ZM214 352H64V509H214V352Z"  />
<glyph unicode="&#xA2;" horiz-adv-x="500" d="M375 632H440L381 494Q391 484 398 474T409 451T415 419T417 375V343H309L209 109Q214 108 218 108T230 108Q256 108 268 112T285 128Q286 132 287 136T288 147T289 169T289 208H421Q422 188 422 175T422 148Q422 94 412 67T371 22Q354 12 316 6T231 0Q213 0 198 1T168 5L117 -118H51L110 24Q81 48 69 80T56 171V371Q56 414 65 444T96 492T153 519T238 527Q260 527 278 525T323 518L375 632ZM281 417Q270 419 262 420T246 422Q220 422 210 414T199 385V224L281 417Z"  />
<glyph unicode="&#xA3;" horiz-adv-x="500" d="M35 124Q57 124 69 127T90 139Q95 144 98 149T102 163T104 183T105 216Q105 229 105 238T104 262H35V382H98Q95 436 93 476T91 548Q91 579 93 601T99 640T110 669T127 691Q174 733 279 733Q411 733 451 669Q472 637 472 556Q472 549 472 542T471 519H322V582Q322 615 288 615Q249 615 249 580Q249 574 249 563T251 538L261 382H385V262H266Q267 253 267 247T267 239Q267 223 267 211T265 187T261 161T255 127H473V0H35V124Z"  />
<glyph unicode="&#xA4;" horiz-adv-x="500" d="M251 230Q289 230 312 258T335 335Q335 390 311 418T251 446Q212 446 189 418T166 341Q166 286 190 258T251 230ZM251 110Q186 110 138 146L84 77L10 153L73 214Q59 234 49 266T39 341Q39 379 49 410T70 457L3 519L77 601L140 531Q162 548 188 557T250 566Q315 566 363 530L417 599L491 523L428 462Q442 442 452 409T463 335Q463 297 453 266T431 219L498 157L424 75L361 145Q339 128 313 119T251 110Z"  />
<glyph unicode="&#xA5;" horiz-adv-x="500" d="M167 0V98H36V209H167V289H36V400H122L16 723H181L249 428L315 723H480L375 400H470V289H334V209H470V98H334V0H167Z"  />
<glyph unicode="&#xA6;" horiz-adv-x="250" d="M200 260V-90H49V260H200ZM200 740V390H49V740H200Z"  />
<glyph unicode="&#xA7;" horiz-adv-x="500" d="M191 145Q190 135 190 131T190 123Q190 95 234 95Q264 95 275 102T286 128Q286 148 274 158T226 181Q188 195 157 207T111 227Q67 250 48 279T29 351Q29 436 107 474Q62 515 62 587Q62 619 73 647T104 693Q125 712 163 722T252 733Q351 733 396 703T442 606Q442 602 442 595T441 581H300V590Q300 610 292 617T258 624Q214 624 214 592Q214 561 241 549Q247 546 251 544T264 539T287 532T325 519Q347 512 362 507T387 496T406 486T423 473Q445 455 456 426T468 362Q468 272 398 240Q421 217 431 191T442 131Q442 54 402 21Q379 3 343 -4T245 -12Q173 -12 133 -3T73 29Q58 44 51 68T43 122Q43 128 43 133T44 145H191ZM171 426Q153 415 153 393Q153 384 156 377T168 363T192 350T232 335Q279 319 298 310T324 294Q332 296 337 305T343 327Q343 352 317 368Q309 373 303 376T288 382T265 390T229 403Q211 409 201 413T185 419T177 422T171 426Z"  />
<glyph unicode="&#xA8;" horiz-adv-x="241" d="M-42 702H85V586H-42V702ZM154 702H281V586H154V702Z"  />
<glyph unicode="&#xA9;" horiz-adv-x="800" d="M144 362Q144 296 160 242T207 149T287 89T399 67Q465 67 513 88T593 147T640 240T656 360Q656 426 640 480T593 573T513 633T401 655Q335 655 287 634T207 575T160 482T144 362ZM63 362Q63 443 85 511T150 627T256 703T401 730Q482 730 545 703T650 628T715 511T737 360Q737 279 715 211T650 95T544 19T399 -8Q318 -8 255 19T150 94T85 211T63 362ZM446 414V437Q446 458 436 468T402 479Q391 479 383 477T369 468T362 448T359 413V309Q359 272 369 261T402 249Q426 249 437 257T448 288V324H565V302Q565 233 534 191T440 149H381Q310 149 275 182T240 289V428Q240 510 274 544T381 578H440Q506 578 534 542T563 440V414H446Z"  />
<glyph unicode="&#xAA;" horiz-adv-x="350" d="M198 642Q198 657 175 657Q164 657 158 653T151 640V624H49V666Q49 701 77 718T169 735Q213 735 241 731T286 715T309 685T316 638V368H203V400Q195 389 188 382T174 371T157 364T134 362Q81 362 57 387T33 479Q33 541 59 565T136 590Q156 590 169 585T198 567V642ZM175 520Q162 520 158 512T153 479Q153 459 157 453T176 446Q189 446 193 453T198 492Q198 509 194 514T175 520Z"  />
<glyph unicode="&#xAB;" horiz-adv-x="500" d="M264 435L176 260L266 81H113L26 256L113 435H264ZM467 435L380 260L471 81H318L230 256L316 435H467Z"  />
<glyph unicode="&#xAC;" horiz-adv-x="500" d="M443 440V105H306V312H37V440H443Z"  />
<glyph unicode="&#xAD;" horiz-adv-x="333" d="M35 333H297V201H35V333Z"  />
<glyph unicode="&#xAE;" horiz-adv-x="440" d="M220 730Q264 730 298 716T356 675T392 612T404 531Q404 488 392 452T356 389T298 347T220 332Q176 332 142 346T84 387T48 450T36 531Q36 574 48 610T84 673T142 715T220 730ZM220 681Q153 681 121 641T89 531Q89 462 121 422T220 381Q287 381 319 421T351 531Q351 600 319 640T220 681ZM147 634H232Q266 634 285 621T304 575Q304 551 293 541T264 525Q303 512 303 480V436H246V463Q246 483 239 492T211 501H203V436H147V634ZM222 546Q235 546 241 552T247 566Q247 588 218 588H203V546H222Z"  />
<glyph unicode="&#xAF;" horiz-adv-x="241" d="M-46 682H287V608H-46V682Z"  />
<glyph unicode="&#xB0;" horiz-adv-x="360" d="M180 657Q148 657 133 637T118 581Q118 548 133 527T180 506Q212 506 227 526T242 582Q242 615 227 636T180 657ZM180 731Q246 731 283 690T321 582Q321 516 284 474T180 432Q114 432 77 473T39 581Q39 647 76 689T180 731Z"  />
<glyph unicode="&#xB1;" horiz-adv-x="500" d="M459 120V0H41V120H459ZM186 418V546H314V418H459V296H314V173H186V296H41V418H186Z"  />
<glyph unicode="&#xB2;" horiz-adv-x="500" d="M74 556Q72 569 72 577T72 587Q72 658 114 691T244 725Q298 725 334 717T392 691T424 643T434 568Q434 536 428 513T407 472T370 442T313 418L233 391Q217 386 210 376T202 347H432V238H69V353Q69 386 76 408T100 446T141 473T203 496L262 515Q284 522 293 536T302 574Q302 594 291 607T253 621Q220 621 212 607T203 556H74Z"  />
<glyph unicode="&#xB3;" horiz-adv-x="500" d="M199 400L198 382Q198 362 210 348T249 334Q281 334 292 348T303 386Q303 434 253 434Q244 434 235 434T217 432V534H240Q269 534 283 545T297 574Q297 597 287 610T247 623Q224 623 214 610T203 565H78Q76 576 76 582T76 592Q76 658 121 691T248 725Q300 725 335 716T391 690T422 647T431 588Q431 544 410 521T357 486Q395 477 417 450T439 375Q439 337 426 310T388 265T330 240T254 232Q165 232 116 265T67 367Q67 375 67 383T69 400H199Z"  />
<glyph unicode="&#xB4;" horiz-adv-x="241" d="M286 723L138 577H37L131 723H286Z"  />
<glyph unicode="&#xB5;" horiz-adv-x="500" d="M436 509V0H287V61Q276 32 257 19T212 4V-189H64V509H213V150Q213 130 221 121T249 112Q287 112 287 156V509H436Z"  />
<glyph unicode="&#xB6;" horiz-adv-x="500" d="M340 -197V603H285V-197H178V280Q146 280 117 290T64 324T28 391T14 500Q14 613 58 668T189 723H483V602H447V-197H340Z"  />
<glyph unicode="&#xB7;" horiz-adv-x="250" d="M125 251Q88 251 65 279T41 346Q41 385 64 412T126 440Q163 440 186 412T210 345Q210 306 187 279T125 251Z"  />
<glyph unicode="&#xB8;" horiz-adv-x="241" d="M10 -168Q36 -173 54 -175T93 -177Q114 -177 126 -168T139 -142Q139 -125 127 -117T94 -108Q86 -108 72 -108T45 -111V-71L92 0H153L110 -64Q121 -62 127 -62T139 -62Q179 -62 202 -83T225 -141Q225 -181 195 -205T101 -230Q77 -230 57 -228T10 -220V-168Z"  />
<glyph unicode="&#xB9;" horiz-adv-x="500" d="M223 238V582L135 504L62 598L205 719H358V238H223Z"  />
<glyph unicode="&#xBA;" horiz-adv-x="350" d="M27 610Q27 646 34 670T58 708T103 729T174 735Q214 735 242 730T288 712T314 675T322 616V486Q322 448 313 424T284 386T235 367T166 362Q127 362 101 368T59 391T36 432T27 495V610ZM200 622Q200 640 195 646T174 652Q150 652 150 632V477Q150 460 155 454T172 448Q188 448 194 455T200 483V622Z"  />
<glyph unicode="&#xBB;" horiz-adv-x="500" d="M236 81L324 256L234 435H387L474 260L387 81H236ZM33 81L120 256L29 435H182L270 260L184 81H33Z"  />
<glyph unicode="&#xBC;" horiz-adv-x="1000" d="M534 723H623L392 0H301L534 723ZM865 0H730V91H515V201L673 481H865V192H913V91H865V0ZM730 192V366L644 192H730ZM193 238V582L105 504L32 598L175 719H328V238H193Z"  />
<glyph unicode="&#xBD;" horiz-adv-x="1000" d="M534 723H623L392 0H301L534 723ZM570 318Q568 331 568 339T568 349Q568 420 610 453T740 487Q794 487 830 479T888 453T920 405T930 330Q930 298 924 275T903 234T866 204T809 180L729 153Q713 148 706 138T698 109H928V0H565V115Q565 148 572 170T596 208T637 235T699 258L758 277Q780 284 789 298T798 336Q798 356 787 369T749 383Q716 383 708 369T699 318H570ZM193 238V582L105 504L32 598L175 719H328V238H193Z"  />
<glyph unicode="&#xBE;" horiz-adv-x="1000" d="M574 723H663L432 0H341L574 723ZM905 0H770V91H555V201L713 481H905V192H953V91H905V0ZM770 192V366L684 192H770ZM168 400L167 382Q167 362 179 348T218 334Q250 334 261 348T272 386Q272 434 222 434Q213 434 204 434T186 432V534H209Q238 534 252 545T266 574Q266 597 256 610T216 623Q193 623 183 610T172 565H47Q45 576 45 582T45 592Q45 658 90 691T217 725Q269 725 304 716T360 690T391 647T400 588Q400 544 379 521T326 486Q364 477 386 450T408 375Q408 337 395 310T357 265T299 240T223 232Q134 232 85 265T36 367Q36 375 36 383T38 400H168Z"  />
<glyph unicode="&#xBF;" horiz-adv-x="426" d="M418 32Q419 21 419 11T419 -5Q419 -25 417 -45T412 -83T405 -115T394 -138Q384 -153 371 -163T337 -179T289 -187T223 -190Q145 -190 103 -178T43 -137Q30 -116 24 -77T18 29Q18 62 21 85T32 125T53 156T86 182L121 204Q133 212 140 217T150 229T155 243T156 265V282H309V242Q309 212 307 195T295 162T263 131T203 88Q190 79 185 63T180 10Q180 -17 181 -33T186 -58T198 -69T219 -72Q245 -72 253 -65T262 -36V32H418ZM311 352H156V509H311V352Z"  />
<glyph unicode="&#xC0;" horiz-adv-x="509" d="M388 723L498 0H328L306 175H199L179 0H11L118 723H388ZM292 297L250 623L212 297H292ZM337 780H236L88 926H243L337 780Z"  />
<glyph unicode="&#xC1;" horiz-adv-x="509" d="M388 723L498 0H328L306 175H199L179 0H11L118 723H388ZM292 297L250 623L212 297H292ZM418 926L270 780H169L263 926H418Z"  />
<glyph unicode="&#xC2;" horiz-adv-x="509" d="M388 723L498 0H328L306 175H199L179 0H11L118 723H388ZM292 297L250 623L212 297H292ZM429 780H316L252 862L188 780H75L190 926H315L429 780Z"  />
<glyph unicode="&#xC3;" horiz-adv-x="509" d="M388 723L498 0H328L306 175H199L179 0H11L118 723H388ZM292 297L250 623L212 297H292ZM438 914Q429 857 400 826T328 794Q313 794 298 797T253 810L213 823Q202 827 196 828T182 829Q164 829 152 818T135 787H71Q81 847 111 878T190 909Q201 909 214 907T239 900L285 883Q313 873 326 873Q343 873 356 884T373 914H438Z"  />
<glyph unicode="&#xC4;" horiz-adv-x="509" d="M388 723L498 0H328L306 175H199L179 0H11L118 723H388ZM292 297L250 623L212 297H292ZM92 905H219V789H92V905ZM288 905H415V789H288V905Z"  />
<glyph unicode="&#xC5;" horiz-adv-x="509" d="M388 723L498 0H328L306 175H199L179 0H11L118 723H388ZM292 297L250 623L212 297H292ZM254 964Q301 964 330 935T360 858Q360 810 330 781T253 751Q206 751 177 780T147 857Q147 905 177 934T254 964ZM253 805Q275 805 289 819T303 858Q303 882 289 896T254 910Q232 910 218 896T204 857Q204 833 218 819T253 805Z"  />
<glyph unicode="&#xC6;" horiz-adv-x="730" d="M689 723V596H537V432H678V307H537V131H702V0H370V189H217L162 0H-7L222 723H689ZM370 603H340L255 311H370V603Z"  />
<glyph unicode="&#xC7;" horiz-adv-x="502" d="M148 -168Q174 -173 192 -175T231 -177Q252 -177 264 -168T277 -142Q277 -125 265 -117T232 -108Q224 -108 210 -108T183 -111V-71L222 -11Q165 -9 131 2T77 37Q64 54 56 81T47 135V556Q47 651 84 691Q106 716 143 725T252 735Q343 735 389 719T451 667Q456 653 459 622T462 537Q462 528 462 513T461 477H306Q306 492 306 508T305 540T304 566T303 581Q299 605 265 605Q223 605 223 575V155Q223 132 231 125T264 117Q289 117 298 126T307 162V267H461V217Q461 176 460 146T454 95T443 58T425 31Q405 11 371 1T283 -11L248 -64Q259 -62 265 -62T277 -62Q317 -62 340 -83T363 -141Q363 -181 333 -205T239 -230Q215 -230 195 -228T148 -220V-168Z"  />
<glyph unicode="&#xC8;" horiz-adv-x="410" d="M55 723H374V596H222V432H363V307H222V131H386V0H55V723ZM298 780H197L49 926H204L298 780Z"  />
<glyph unicode="&#xC9;" horiz-adv-x="410" d="M55 723H374V596H222V432H363V307H222V131H386V0H55V723ZM379 926L231 780H130L224 926H379Z"  />
<glyph unicode="&#xCA;" horiz-adv-x="410" d="M55 723H374V596H222V432H363V307H222V131H386V0H55V723ZM390 780H277L213 862L149 780H36L151 926H276L390 780Z"  />
<glyph unicode="&#xCB;" horiz-adv-x="410" d="M55 723H374V596H222V432H363V307H222V131H386V0H55V723ZM53 905H180V789H53V905ZM249 905H376V789H249V905Z"  />
<glyph unicode="&#xCC;" horiz-adv-x="281" d="M57 723H224V0H57V723ZM224 780H123L-25 926H130L224 780Z"  />
<glyph unicode="&#xCD;" horiz-adv-x="281" d="M57 723H224V0H57V723ZM305 926L157 780H56L150 926H305Z"  />
<glyph unicode="&#xCE;" horiz-adv-x="281" d="M57 723H224V0H57V723ZM316 780H203L139 862L75 780H-38L77 926H202L316 780Z"  />
<glyph unicode="&#xCF;" horiz-adv-x="281" d="M57 723H224V0H57V723ZM-21 905H106V789H-21V905ZM175 905H302V789H175V905Z"  />
<glyph unicode="&#xD0;" horiz-adv-x="521" d="M55 317H8V419H55V723H268Q323 723 362 714T426 679T462 611T474 500V280Q474 195 466 141T438 55T383 12T292 0H55V317ZM222 419H272V317H222V130H258Q279 130 288 134T302 153Q303 156 303 162T304 183T305 226T305 299V501Q305 537 304 557T297 586T279 597T246 599Q243 599 237 599T222 598V419Z"  />
<glyph unicode="&#xD1;" horiz-adv-x="618" d="M53 723H296L419 160L407 723H565V0H322L198 566L208 0H53V723ZM496 914Q487 857 458 826T386 794Q371 794 356 797T311 810L271 823Q260 827 254 828T240 829Q222 829 210 818T193 787H129Q139 847 169 878T248 909Q259 909 272 907T297 900L343 883Q371 873 384 873Q401 873 414 884T431 914H496Z"  />
<glyph unicode="&#xD2;" horiz-adv-x="522" d="M47 578Q47 610 57 640T86 691Q98 703 112 711T145 725T188 732T245 735Q326 735 371 724T441 687Q475 650 475 583V199Q475 136 466 95T431 30T363 -3T253 -12Q182 -12 143 -1T79 40Q47 78 47 142V578ZM304 575Q304 595 295 603T262 611Q237 611 228 603T218 576V152Q218 132 227 124T259 116Q285 116 294 125T304 160V575ZM348 780H247L99 926H254L348 780Z"  />
<glyph unicode="&#xD3;" horiz-adv-x="522" d="M47 578Q47 610 57 640T86 691Q98 703 112 711T145 725T188 732T245 735Q326 735 371 724T441 687Q475 650 475 583V199Q475 136 466 95T431 30T363 -3T253 -12Q182 -12 143 -1T79 40Q47 78 47 142V578ZM304 575Q304 595 295 603T262 611Q237 611 228 603T218 576V152Q218 132 227 124T259 116Q285 116 294 125T304 160V575ZM429 926L281 780H180L274 926H429Z"  />
<glyph unicode="&#xD4;" horiz-adv-x="522" d="M47 578Q47 610 57 640T86 691Q98 703 112 711T145 725T188 732T245 735Q326 735 371 724T441 687Q475 650 475 583V199Q475 136 466 95T431 30T363 -3T253 -12Q182 -12 143 -1T79 40Q47 78 47 142V578ZM304 575Q304 595 295 603T262 611Q237 611 228 603T218 576V152Q218 132 227 124T259 116Q285 116 294 125T304 160V575ZM440 780H327L263 862L199 780H86L201 926H326L440 780Z"  />
<glyph unicode="&#xD5;" horiz-adv-x="522" d="M47 578Q47 610 57 640T86 691Q98 703 112 711T145 725T188 732T245 735Q326 735 371 724T441 687Q475 650 475 583V199Q475 136 466 95T431 30T363 -3T253 -12Q182 -12 143 -1T79 40Q47 78 47 142V578ZM304 575Q304 595 295 603T262 611Q237 611 228 603T218 576V152Q218 132 227 124T259 116Q285 116 294 125T304 160V575ZM449 914Q440 857 411 826T339 794Q324 794 309 797T264 810L224 823Q213 827 207 828T193 829Q175 829 163 818T146 787H82Q92 847 122 878T201 909Q212 909 225 907T250 900L296 883Q324 873 337 873Q354 873 367 884T384 914H449Z"  />
<glyph unicode="&#xD6;" horiz-adv-x="522" d="M47 578Q47 610 57 640T86 691Q98 703 112 711T145 725T188 732T245 735Q326 735 371 724T441 687Q475 650 475 583V199Q475 136 466 95T431 30T363 -3T253 -12Q182 -12 143 -1T79 40Q47 78 47 142V578ZM304 575Q304 595 295 603T262 611Q237 611 228 603T218 576V152Q218 132 227 124T259 116Q285 116 294 125T304 160V575ZM103 905H230V789H103V905ZM299 905H426V789H299V905Z"  />
<glyph unicode="&#xD7;" horiz-adv-x="500" d="M114 509L250 355L385 506L471 413L337 262L474 108L386 15L250 168L115 17L29 109L163 261L26 415L114 509Z"  />
<glyph unicode="&#xD8;" horiz-adv-x="522" d="M47 578Q47 610 57 640T86 691Q98 703 112 711T145 725T188 732T245 735Q345 735 395 716L434 789L513 750L462 655Q475 626 475 583V199Q475 136 466 95T431 30T363 -3T253 -12Q206 -12 174 -7T118 9L77 -69L1 -28L57 77Q47 103 47 142V578ZM308 378L213 199V148Q213 128 224 120T259 112Q285 112 296 121T308 156V378ZM213 358L308 537V580Q308 600 297 608T262 616Q213 616 213 581V358Z"  />
<glyph unicode="&#xD9;" horiz-adv-x="518" d="M217 723V162Q217 138 226 129T259 119Q282 119 291 130T301 169V723H469V180Q469 78 433 38Q410 12 368 1T249 -11Q186 -11 150 -1T88 36Q75 49 68 62T56 90T51 124T49 166V723H217ZM345 780H244L96 926H251L345 780Z"  />
<glyph unicode="&#xDA;" horiz-adv-x="518" d="M217 723V162Q217 138 226 129T259 119Q282 119 291 130T301 169V723H469V180Q469 78 433 38Q410 12 368 1T249 -11Q186 -11 150 -1T88 36Q75 49 68 62T56 90T51 124T49 166V723H217ZM426 926L278 780H177L271 926H426Z"  />
<glyph unicode="&#xDB;" horiz-adv-x="518" d="M217 723V162Q217 138 226 129T259 119Q282 119 291 130T301 169V723H469V180Q469 78 433 38Q410 12 368 1T249 -11Q186 -11 150 -1T88 36Q75 49 68 62T56 90T51 124T49 166V723H217ZM437 780H324L260 862L196 780H83L198 926H323L437 780Z"  />
<glyph unicode="&#xDC;" horiz-adv-x="518" d="M217 723V162Q217 138 226 129T259 119Q282 119 291 130T301 169V723H469V180Q469 78 433 38Q410 12 368 1T249 -11Q186 -11 150 -1T88 36Q75 49 68 62T56 90T51 124T49 166V723H217ZM100 905H227V789H100V905ZM296 905H423V789H296V905Z"  />
<glyph unicode="&#xDD;" horiz-adv-x="443" d="M140 0V234L-11 723H154L222 398L288 723H453L307 243V0H140ZM389 926L241 780H140L234 926H389Z"  />
<glyph unicode="&#xDE;" horiz-adv-x="508" d="M57 723H224V644H292Q348 644 384 632T441 595T470 529T478 432Q478 350 471 296T443 211T385 167T287 154H224V0H57V723ZM222 278H262Q288 278 298 290T309 334V487Q309 504 300 512T261 520H222V278Z"  />
<glyph unicode="&#xDF;" horiz-adv-x="483" d="M48 573Q48 730 237 730Q335 730 377 689T420 552Q420 478 396 444T310 400Q351 392 372 384T409 359Q419 348 426 336T437 307T443 268T445 214Q445 173 444 148T441 105T435 77T423 54Q406 24 373 8T296 -9Q275 -9 257 -5T227 7V120Q235 117 244 116T259 114Q272 114 279 116T291 129T296 159T297 214Q297 249 295 270T286 302T265 319T227 329V451Q258 454 269 465T280 505Q280 534 280 551T279 579T277 595T275 604Q269 620 240 620Q217 620 207 613T197 587V0H48V573Z"  />
<glyph unicode="&#xE0;" horiz-adv-x="444" d="M251 393Q251 415 214 415Q177 415 177 391V361H50V429Q50 478 85 498T206 518Q263 518 300 512T360 490T391 448T400 381V0H258V44Q235 14 212 3T152 -9Q117 -9 94 -1T56 27T35 78T28 156Q28 199 34 229T56 278T95 305T155 313Q184 313 206 306T251 281V393ZM215 222Q204 222 196 219T185 211Q181 206 180 194T179 156Q179 124 186 114T216 104Q237 104 245 115Q247 118 248 121T250 131T251 147T251 176Q251 204 244 213T215 222ZM307 577H206L58 723H213L307 577Z"  />
<glyph unicode="&#xE1;" horiz-adv-x="444" d="M251 393Q251 415 214 415Q177 415 177 391V361H50V429Q50 478 85 498T206 518Q263 518 300 512T360 490T391 448T400 381V0H258V44Q235 14 212 3T152 -9Q117 -9 94 -1T56 27T35 78T28 156Q28 199 34 229T56 278T95 305T155 313Q184 313 206 306T251 281V393ZM215 222Q204 222 196 219T185 211Q181 206 180 194T179 156Q179 124 186 114T216 104Q237 104 245 115Q247 118 248 121T250 131T251 147T251 176Q251 204 244 213T215 222ZM388 723L240 577H139L233 723H388Z"  />
<glyph unicode="&#xE2;" horiz-adv-x="444" d="M251 393Q251 415 214 415Q177 415 177 391V361H50V429Q50 478 85 498T206 518Q263 518 300 512T360 490T391 448T400 381V0H258V44Q235 14 212 3T152 -9Q117 -9 94 -1T56 27T35 78T28 156Q28 199 34 229T56 278T95 305T155 313Q184 313 206 306T251 281V393ZM215 222Q204 222 196 219T185 211Q181 206 180 194T179 156Q179 124 186 114T216 104Q237 104 245 115Q247 118 248 121T250 131T251 147T251 176Q251 204 244 213T215 222ZM399 577H286L222 659L158 577H45L160 723H285L399 577Z"  />
<glyph unicode="&#xE3;" horiz-adv-x="444" d="M251 393Q251 415 214 415Q177 415 177 391V361H50V429Q50 478 85 498T206 518Q263 518 300 512T360 490T391 448T400 381V0H258V44Q235 14 212 3T152 -9Q117 -9 94 -1T56 27T35 78T28 156Q28 199 34 229T56 278T95 305T155 313Q184 313 206 306T251 281V393ZM215 222Q204 222 196 219T185 211Q181 206 180 194T179 156Q179 124 186 114T216 104Q237 104 245 115Q247 118 248 121T250 131T251 147T251 176Q251 204 244 213T215 222ZM408 711Q399 654 370 623T298 591Q283 591 268 594T223 607L183 620Q172 624 166 625T152 626Q134 626 122 615T105 584H41Q51 644 81 675T160 706Q171 706 184 704T209 697L255 680Q283 670 296 670Q313 670 326 681T343 711H408Z"  />
<glyph unicode="&#xE4;" horiz-adv-x="444" d="M251 393Q251 415 214 415Q177 415 177 391V361H50V429Q50 478 85 498T206 518Q263 518 300 512T360 490T391 448T400 381V0H258V44Q235 14 212 3T152 -9Q117 -9 94 -1T56 27T35 78T28 156Q28 199 34 229T56 278T95 305T155 313Q184 313 206 306T251 281V393ZM215 222Q204 222 196 219T185 211Q181 206 180 194T179 156Q179 124 186 114T216 104Q237 104 245 115Q247 118 248 121T250 131T251 147T251 176Q251 204 244 213T215 222ZM62 702H189V586H62V702ZM258 702H385V586H258V702Z"  />
<glyph unicode="&#xE5;" horiz-adv-x="444" d="M251 393Q251 415 214 415Q177 415 177 391V361H50V429Q50 478 85 498T206 518Q263 518 300 512T360 490T391 448T400 381V0H258V44Q235 14 212 3T152 -9Q117 -9 94 -1T56 27T35 78T28 156Q28 199 34 229T56 278T95 305T155 313Q184 313 206 306T251 281V393ZM215 222Q204 222 196 219T185 211Q181 206 180 194T179 156Q179 124 186 114T216 104Q237 104 245 115Q247 118 248 121T250 131T251 147T251 176Q251 204 244 213T215 222ZM226 787Q273 787 302 758T332 681Q332 633 302 604T225 574Q178 574 149 603T119 680Q119 728 149 757T226 787ZM225 628Q247 628 261 642T275 681Q275 705 261 719T226 733Q204 733 190 719T176 680Q176 656 190 642T225 628Z"  />
<glyph unicode="&#xE6;" horiz-adv-x="665" d="M179 132Q179 104 211 104Q232 104 239 110T247 136V192Q247 220 216 220Q195 220 187 214T179 188V132ZM442 518Q559 518 601 471Q616 454 622 433T628 376V219H395V133Q395 115 404 108T435 101Q464 101 472 108T481 140V161H629Q629 133 628 114T625 81T618 58T607 40Q587 14 547 3T438 -9Q405 -9 383 -7T344 2T318 19T299 47Q285 16 256 4T166 -9Q127 -9 101 -1T59 27T35 77T28 153Q28 198 34 228T55 276T93 302T152 310Q187 310 209 303T250 279V328Q250 351 250 365T249 387T247 399T245 406Q243 411 234 414T213 417Q176 417 176 393V361H49V429Q49 478 84 498T205 518Q260 518 288 509T329 479Q346 501 377 509T442 518ZM477 315V387Q477 402 468 408T435 415Q395 415 395 384V315H477Z"  />
<glyph unicode="&#xE7;" horiz-adv-x="438" d="M112 -168Q138 -173 156 -175T195 -177Q216 -177 228 -168T241 -142Q241 -125 229 -117T196 -108Q188 -108 174 -108T147 -111V-71L189 -7Q105 -1 75 35Q55 59 47 101T38 225Q38 273 39 307T42 367T47 410T55 441Q83 518 210 518Q274 518 309 510T365 487Q384 473 392 454T400 391V332H267V368Q267 387 260 395T234 403Q214 403 206 396T198 372V146Q198 124 205 115T231 106Q252 106 260 117T268 159V198H407V156Q407 127 406 107T402 72T393 47T378 29Q359 12 327 3T249 -9L212 -64Q223 -62 229 -62T241 -62Q281 -62 304 -83T327 -141Q327 -181 297 -205T203 -230Q179 -230 159 -228T112 -220V-168Z"  />
<glyph unicode="&#xE8;" horiz-adv-x="462" d="M192 219V133Q192 115 201 108T232 101Q261 101 269 108T278 140V161H426Q426 133 425 114T422 81T415 58T404 40Q384 14 344 3T235 -9Q182 -9 145 -1T84 25T49 71T38 139V345Q38 392 45 422T70 472Q90 495 130 506T229 518Q290 518 334 506T398 471Q413 454 419 433T425 376V219H192ZM274 315V387Q274 402 265 408T232 415Q192 415 192 384V315H274ZM318 577H217L69 723H224L318 577Z"  />
<glyph unicode="&#xE9;" horiz-adv-x="462" d="M192 219V133Q192 115 201 108T232 101Q261 101 269 108T278 140V161H426Q426 133 425 114T422 81T415 58T404 40Q384 14 344 3T235 -9Q182 -9 145 -1T84 25T49 71T38 139V345Q38 392 45 422T70 472Q90 495 130 506T229 518Q290 518 334 506T398 471Q413 454 419 433T425 376V219H192ZM274 315V387Q274 402 265 408T232 415Q192 415 192 384V315H274ZM399 723L251 577H150L244 723H399Z"  />
<glyph unicode="&#xEA;" horiz-adv-x="462" d="M192 219V133Q192 115 201 108T232 101Q261 101 269 108T278 140V161H426Q426 133 425 114T422 81T415 58T404 40Q384 14 344 3T235 -9Q182 -9 145 -1T84 25T49 71T38 139V345Q38 392 45 422T70 472Q90 495 130 506T229 518Q290 518 334 506T398 471Q413 454 419 433T425 376V219H192ZM274 315V387Q274 402 265 408T232 415Q192 415 192 384V315H274ZM410 577H297L233 659L169 577H56L171 723H296L410 577Z"  />
<glyph unicode="&#xEB;" horiz-adv-x="462" d="M192 219V133Q192 115 201 108T232 101Q261 101 269 108T278 140V161H426Q426 133 425 114T422 81T415 58T404 40Q384 14 344 3T235 -9Q182 -9 145 -1T84 25T49 71T38 139V345Q38 392 45 422T70 472Q90 495 130 506T229 518Q290 518 334 506T398 471Q413 454 419 433T425 376V219H192ZM274 315V387Q274 402 265 408T232 415Q192 415 192 384V315H274ZM73 702H200V586H73V702ZM269 702H396V586H269V702Z"  />
<glyph unicode="&#xEC;" horiz-adv-x="241" d="M46 509H195V0H46V509ZM206 577H105L-43 723H112L206 577Z"  />
<glyph unicode="&#xED;" horiz-adv-x="241" d="M46 509H195V0H46V509ZM287 723L139 577H38L132 723H287Z"  />
<glyph unicode="&#xEE;" horiz-adv-x="241" d="M46 509H195V0H46V509ZM298 577H185L121 659L57 577H-56L59 723H184L298 577Z"  />
<glyph unicode="&#xEF;" horiz-adv-x="241" d="M46 509H195V0H46V509ZM-39 702H88V586H-39V702ZM157 702H284V586H157V702Z"  />
<glyph unicode="&#xF0;" horiz-adv-x="464" d="M426 160Q426 70 391 35Q380 23 365 15T330 1T283 -6T220 -9Q154 -9 118 4T62 48Q38 85 38 172V323Q38 372 48 404T80 456T134 482T211 490Q232 490 251 486T283 471Q280 483 273 497T257 526T236 554T214 578L124 537L98 602L161 631L116 673L214 731L273 687L352 724L379 657L325 633Q356 593 376 557T407 482T422 397T426 293V160ZM272 347Q272 372 265 380T231 388Q209 388 201 382T192 361V140Q192 118 199 110T228 101Q254 101 263 111T272 149V347Z"  />
<glyph unicode="&#xF1;" horiz-adv-x="462" d="M46 509H191V458Q226 518 303 518Q371 518 400 474Q411 458 414 441T418 391V0H269V354Q269 380 262 389T233 398Q195 398 195 369V0H46V509ZM417 711Q408 654 379 623T307 591Q292 591 277 594T232 607L192 620Q181 624 175 625T161 626Q143 626 131 615T114 584H50Q60 644 90 675T169 706Q180 706 193 704T218 697L264 680Q292 670 305 670Q322 670 335 681T352 711H417Z"  />
<glyph unicode="&#xF2;" horiz-adv-x="465" d="M38 341Q38 392 47 426T79 480T139 509T232 518Q298 518 338 506T400 468Q407 458 412 448T421 424T425 392T427 350V166Q427 72 392 36Q381 24 366 15T331 1T284 -6T221 -9Q154 -9 118 4T62 50Q38 89 38 179V341ZM273 366Q273 392 266 400T232 408Q210 408 201 402T192 380V146Q192 123 200 114T229 105Q255 105 264 115T273 155V366ZM320 577H219L71 723H226L320 577Z"  />
<glyph unicode="&#xF3;" horiz-adv-x="465" d="M38 341Q38 392 47 426T79 480T139 509T232 518Q298 518 338 506T400 468Q407 458 412 448T421 424T425 392T427 350V166Q427 72 392 36Q381 24 366 15T331 1T284 -6T221 -9Q154 -9 118 4T62 50Q38 89 38 179V341ZM273 366Q273 392 266 400T232 408Q210 408 201 402T192 380V146Q192 123 200 114T229 105Q255 105 264 115T273 155V366ZM401 723L253 577H152L246 723H401Z"  />
<glyph unicode="&#xF4;" horiz-adv-x="465" d="M38 341Q38 392 47 426T79 480T139 509T232 518Q298 518 338 506T400 468Q407 458 412 448T421 424T425 392T427 350V166Q427 72 392 36Q381 24 366 15T331 1T284 -6T221 -9Q154 -9 118 4T62 50Q38 89 38 179V341ZM273 366Q273 392 266 400T232 408Q210 408 201 402T192 380V146Q192 123 200 114T229 105Q255 105 264 115T273 155V366ZM412 577H299L235 659L171 577H58L173 723H298L412 577Z"  />
<glyph unicode="&#xF5;" horiz-adv-x="465" d="M38 341Q38 392 47 426T79 480T139 509T232 518Q298 518 338 506T400 468Q407 458 412 448T421 424T425 392T427 350V166Q427 72 392 36Q381 24 366 15T331 1T284 -6T221 -9Q154 -9 118 4T62 50Q38 89 38 179V341ZM273 366Q273 392 266 400T232 408Q210 408 201 402T192 380V146Q192 123 200 114T229 105Q255 105 264 115T273 155V366ZM421 711Q412 654 383 623T311 591Q296 591 281 594T236 607L196 620Q185 624 179 625T165 626Q147 626 135 615T118 584H54Q64 644 94 675T173 706Q184 706 197 704T222 697L268 680Q296 670 309 670Q326 670 339 681T356 711H421Z"  />
<glyph unicode="&#xF6;" horiz-adv-x="465" d="M38 341Q38 392 47 426T79 480T139 509T232 518Q298 518 338 506T400 468Q407 458 412 448T421 424T425 392T427 350V166Q427 72 392 36Q381 24 366 15T331 1T284 -6T221 -9Q154 -9 118 4T62 50Q38 89 38 179V341ZM273 366Q273 392 266 400T232 408Q210 408 201 402T192 380V146Q192 123 200 114T229 105Q255 105 264 115T273 155V366ZM75 702H202V586H75V702ZM271 702H398V586H271V702Z"  />
<glyph unicode="&#xF7;" horiz-adv-x="500" d="M463 326V198H37V326H463ZM248 367Q207 367 188 389T168 449Q168 488 188 510T249 532Q290 532 309 510T330 449Q330 411 310 389T248 367ZM248 -9Q207 -9 188 13T168 73Q168 112 188 134T249 156Q290 156 309 134T330 73Q330 35 310 13T248 -9Z"  />
<glyph unicode="&#xF8;" horiz-adv-x="465" d="M38 341Q38 392 47 426T79 480T139 509T232 518Q307 518 349 502L395 573L461 530L410 453Q419 436 423 413T427 350V166Q427 72 392 36Q381 24 366 15T331 1T284 -6T221 -9Q186 -9 161 -6T116 5L71 -65L6 -21L58 57Q47 77 43 107T38 179V341ZM188 242L277 377Q275 397 265 404T232 411Q188 411 188 383V242ZM277 261L189 127Q192 113 202 108T229 102Q255 102 266 112T277 152V261Z"  />
<glyph unicode="&#xF9;" horiz-adv-x="462" d="M416 509V0H267V61Q253 24 228 8T159 -9Q103 -9 74 16T44 92V509H193V150Q193 130 201 121T229 112Q267 112 267 156V509H416ZM316 577H215L67 723H222L316 577Z"  />
<glyph unicode="&#xFA;" horiz-adv-x="462" d="M416 509V0H267V61Q253 24 228 8T159 -9Q103 -9 74 16T44 92V509H193V150Q193 130 201 121T229 112Q267 112 267 156V509H416ZM397 723L249 577H148L242 723H397Z"  />
<glyph unicode="&#xFB;" horiz-adv-x="462" d="M416 509V0H267V61Q253 24 228 8T159 -9Q103 -9 74 16T44 92V509H193V150Q193 130 201 121T229 112Q267 112 267 156V509H416ZM408 577H295L231 659L167 577H54L169 723H294L408 577Z"  />
<glyph unicode="&#xFC;" horiz-adv-x="462" d="M416 509V0H267V61Q253 24 228 8T159 -9Q103 -9 74 16T44 92V509H193V150Q193 130 201 121T229 112Q267 112 267 156V509H416ZM71 702H198V586H71V702ZM267 702H394V586H267V702Z"  />
<glyph unicode="&#xFD;" horiz-adv-x="409" d="M160 509L203 91L250 509H398L317 -47Q306 -125 270 -157T159 -190Q133 -190 113 -187T83 -176V-76Q102 -83 125 -83Q141 -83 150 -80T166 -68T175 -43T181 0H82L11 509H160ZM373 723L225 577H124L218 723H373Z"  />
<glyph unicode="&#xFE;" horiz-adv-x="460" d="M48 723H197V465Q218 493 243 505T306 518Q418 518 418 411V120Q418 51 391 21T300 -9Q262 -9 238 4T196 48V-189H48V723ZM266 360Q266 383 259 392T233 401Q212 401 205 392T197 354V140Q197 110 232 110Q252 110 259 117T266 148V360Z"  />
<glyph unicode="&#xFF;" horiz-adv-x="409" d="M160 509L203 91L250 509H398L317 -47Q306 -125 270 -157T159 -190Q133 -190 113 -187T83 -176V-76Q102 -83 125 -83Q141 -83 150 -80T166 -68T175 -43T181 0H82L11 509H160ZM47 702H174V586H47V702ZM243 702H370V586H243V702Z"  />
<glyph unicode="&#x131;" horiz-adv-x="241" d="M46 509H195V0H46V509Z"  />
<glyph unicode="&#x152;" horiz-adv-x="670" d="M349 722H630V596H478V432H619V307H478V131H642V0H343V31Q326 7 298 -1T212 -10Q159 -10 126 1T74 36Q62 51 55 77T47 131V548Q47 599 54 629T82 684Q104 712 136 722T229 733Q282 733 307 723T349 689V722ZM311 580Q311 597 301 603T265 610Q221 610 221 578V157Q221 133 230 124T264 115Q293 115 302 124T311 165V580Z"  />
<glyph unicode="&#x153;" horiz-adv-x="689" d="M271 376Q271 395 263 402T233 409Q191 409 191 376V140Q191 119 198 112T229 105Q255 105 263 112T271 145V376ZM462 -9Q421 -9 395 0T346 34Q339 22 330 14T305 0T269 -7T218 -9Q155 -9 117 4T59 50Q54 58 50 66T44 88T40 121T38 170V348Q38 431 72 471Q94 497 128 507T224 518Q249 518 268 516T301 510T326 498T350 478Q370 501 399 509T466 518Q523 518 564 506T625 471Q640 454 646 433T652 376V219H419V133Q419 115 428 108T459 101Q488 101 496 108T505 140V161H653Q653 133 652 114T649 81T642 58T631 40Q611 14 571 3T462 -9ZM501 315V387Q501 402 492 408T459 415Q419 415 419 384V315H501Z"  />
<glyph unicode="&#x160;" horiz-adv-x="489" d="M189 237V206Q189 185 189 172T190 150T192 137T195 130Q203 116 238 116Q271 116 281 129Q283 132 284 135T286 144T287 160T288 189Q288 214 288 229T287 254T284 267T279 277Q274 285 260 291T216 305L158 320Q120 330 97 343T59 377T40 431T35 512Q35 551 35 576T38 619T44 648T54 671Q73 705 112 719T226 734Q291 734 332 727T397 702T430 651T439 566Q439 551 439 536T438 505H290V524Q290 555 289 573T284 600T270 611T246 613Q228 613 218 611T202 601T196 574T195 524Q195 500 198 486T211 463T243 446T303 429Q341 420 369 408T413 380Q424 369 432 355T445 319T452 270T454 203Q454 171 452 147T446 103T434 69T417 42Q404 27 389 17T354 0T308 -9T247 -12Q171 -12 127 2T61 48Q50 64 43 102T35 186Q35 195 35 205T38 237H189ZM180 780L65 926H178L242 844L306 926H419L305 780H180Z"  />
<glyph unicode="&#x161;" horiz-adv-x="418" d="M171 156V129Q171 98 207 98Q227 98 234 107T241 141Q241 157 240 166T233 180T218 189T190 195Q160 200 141 204T108 212T86 221T70 232Q59 241 53 251T42 276T36 311T34 358Q34 408 40 435T63 480Q82 502 111 510T199 518Q263 518 295 512T345 492Q362 478 369 454T376 388V360H246V388Q246 415 214 415Q193 415 186 408T179 375Q179 361 180 353T188 339T205 331T235 324Q280 316 302 311T340 298Q366 286 377 257T388 168Q388 115 380 81T352 26T296 -1T206 -9Q155 -9 122 -3T70 18T42 60T34 125Q34 132 34 138T36 156H171ZM145 577L30 723H143L207 641L271 723H384L270 577H145Z"  />
<glyph unicode="&#x178;" horiz-adv-x="443" d="M140 0V234L-11 723H154L222 398L288 723H453L307 243V0H140ZM63 905H190V789H63V905ZM259 905H386V789H259V905Z"  />
<glyph unicode="&#x17D;" horiz-adv-x="400" d="M16 0V126L202 598H34V723H379V604L190 128H379V0H16ZM144 780L29 926H142L206 844L270 926H383L269 780H144Z"  />
<glyph unicode="&#x17E;" horiz-adv-x="343" d="M18 0V111L161 405H27V509H314V387L177 109H321V0H18ZM111 577L-4 723H109L173 641L237 723H350L236 577H111Z"  />
<glyph unicode="&#x192;" horiz-adv-x="500" d="M-16 -50Q14 -65 37 -65Q52 -65 63 -59T82 -37T97 6T110 75L153 362H74V478H168Q180 550 197 599T241 677T306 720T399 733Q419 733 437 731T472 726V610Q454 614 443 615T423 617Q383 617 361 585T330 478H419V362H315L264 40Q253 -25 240 -66T207 -130Q182 -160 149 -173T68 -187Q17 -187 -16 -175V-50Z"  />
<glyph unicode="&#x237;" horiz-adv-x="241" d="M1 -72H12Q31 -71 38 -58T46 -11V509H195V-56Q195 -129 165 -159T62 -190Q51 -190 33 -189T1 -185V-72Z"  />
<glyph unicode="&#x2C6;" horiz-adv-x="241" d="M297 577H184L120 659L56 577H-57L58 723H183L297 577Z"  />
<glyph unicode="&#x2DC;" horiz-adv-x="241" d="M303 711Q294 654 265 623T193 591Q178 591 163 594T118 607L78 620Q67 624 61 625T47 626Q29 626 17 615T0 584H-64Q-54 644 -24 675T55 706Q66 706 79 704T104 697L150 680Q178 670 191 670Q208 670 221 681T238 711H303Z"  />
<glyph unicode="&#x2013;" horiz-adv-x="500" d="M500 208H0V322H500V208Z"  />
<glyph unicode="&#x2014;" horiz-adv-x="1000" d="M940 322V208H60V322H940Z"  />
<glyph unicode="&#x2018;" horiz-adv-x="250" d="M195 648Q162 643 149 629T136 582Q136 577 136 575T137 565H197V410H51V575Q51 726 195 727V648Z"  />
<glyph unicode="&#x2019;" horiz-adv-x="250" d="M55 484Q88 489 101 503T114 550Q114 555 114 557T113 567H53V722H199V557Q199 406 55 405V484Z"  />
<glyph unicode="&#x201A;" horiz-adv-x="250" d="M54 -83Q87 -78 100 -64T113 -17Q113 -12 113 -10T112 0H52V155H198V-10Q198 -161 54 -162V-83Z"  />
<glyph unicode="&#x201C;" horiz-adv-x="440" d="M387 648Q354 643 341 629T328 582Q328 577 328 575T329 565H389V410H243V575Q243 726 387 727V648ZM193 648Q160 643 147 629T134 582Q134 577 134 575T135 565H195V410H49V575Q49 726 193 727V648Z"  />
<glyph unicode="&#x201D;" horiz-adv-x="440" d="M53 484Q86 489 99 503T112 550Q112 555 112 557T111 567H51V722H197V557Q197 406 53 405V484ZM247 484Q280 489 293 503T306 550Q306 555 306 557T305 567H245V722H391V557Q391 406 247 405V484Z"  />
<glyph unicode="&#x201E;" horiz-adv-x="440" d="M52 -83Q85 -78 98 -64T111 -17Q111 -12 111 -10T110 0H50V155H196V-10Q196 -161 52 -162V-83ZM246 -83Q279 -78 292 -64T305 -17Q305 -12 305 -10T304 0H244V155H390V-10Q390 -161 246 -162V-83Z"  />
<glyph unicode="&#x2020;" horiz-adv-x="500" d="M326 0H174V409H51V547H174V723H326V547H448V409H326V0Z"  />
<glyph unicode="&#x2021;" horiz-adv-x="500" d="M324 0H175V144H60V273H175V453H60V582H175V723H324V582H439V453H324V273H439V144H324V0Z"  />
<glyph unicode="&#x2022;" horiz-adv-x="250" d="M128 466Q153 466 175 457T213 431T239 392T249 345Q249 319 240 296T213 256T174 229T126 219Q100 219 78 229T39 256T12 296T2 345Q2 370 12 392T39 431T79 456T128 466Z"  />
<glyph unicode="&#x2026;" horiz-adv-x="1000" d="M91 164H244V0H91V164ZM424 164H577V0H424V164ZM756 164H909V0H756V164Z"  />
<glyph unicode="&#x2030;" horiz-adv-x="1000" d="M563 731L232 -7H141L475 731H563ZM21 620Q21 679 52 706T149 733Q216 733 243 708T271 621V415Q271 344 242 315T141 286Q79 286 50 313T21 398V620ZM118 406Q118 386 146 386Q173 386 173 403V608Q173 619 167 623T146 628Q118 628 118 606V406ZM435 322Q435 381 466 408T563 435Q630 435 657 410T685 323V117Q685 46 656 17T555 -12Q493 -12 464 15T435 100V322ZM532 108Q532 88 560 88Q587 88 587 105V310Q587 321 581 325T560 330Q532 330 532 308V108ZM731 322Q731 381 762 408T859 435Q926 435 953 410T981 323V117Q981 46 952 17T851 -12Q789 -12 760 15T731 100V322ZM828 108Q828 88 856 88Q883 88 883 105V310Q883 321 877 325T856 330Q828 330 828 308V108Z"  />
<glyph unicode="&#x2039;" horiz-adv-x="295" d="M264 435L176 260L266 81H113L26 256L113 435H264Z"  />
<glyph unicode="&#x203A;" horiz-adv-x="295" d="M31 81L119 256L29 435H182L269 260L182 81H31Z"  />
<glyph unicode="&#x20AC;" horiz-adv-x="500" d="M74 479Q77 546 95 593T145 671T221 716T319 731Q371 731 410 724T492 696L458 566Q422 583 394 589T338 595Q283 595 259 569T230 479H441L422 392H229V325H410L391 238H229Q229 173 255 150T334 127Q374 127 404 136T472 175V33Q441 7 401 0T312 -8Q189 -8 133 55T75 238H5L24 325H73V392H5L24 479H74Z"  />
<glyph unicode="&#x2122;" horiz-adv-x="750" d="M253 723V627H187V340H84V627H19V723H253ZM290 723H435L490 471L545 723H687V340H594V603L535 340H442L383 603V340H290V723Z"  />

</font>
</defs>
</svg>
